<?xml version="1.0" standalone="no"?>
<!DOCTYPE svg PUBLIC "-//W3C//DTD SVG 1.1//EN" "http://www.w3.org/Graphics/SVG/1.1/DTD/svg11.dtd" >
<svg>
<metadata>
Created by FontForge 20090914 at Sat Dec 12 10:19:10 2020
 By www-data
Copyright 2018 The Signika Project Authors (https://github.com/googlefonts/Signika).
</metadata>
<defs>
<font id="Signika-Regular" horiz-adv-x="1924" >
  <font-face 
    font-family="Signika"
    font-weight="400"
    font-stretch="normal"
    units-per-em="2000"
    panose-1="0 0 0 0 0 0 0 0 0 0"
    ascent="1600"
    descent="-400"
    x-height="986.999"
    cap-height="1374"
    bbox="-441 -532.006 2445 2175"
    underline-thickness="50"
    underline-position="-75"
    unicode-range="U+000D-U+FB04"
  />
<missing-glyph horiz-adv-x="1282" 
d="M277 0c-64 0 -96 32 -96 96v1178c0 64 32 96 96 96h727c64 0 96 -32 96 -96v-1178c0 -64 -32 -96 -96 -96h-727zM290 17l-72 232l88 -20c10 24 20 46.5 30 67.5s24 47 42 78l76 126l131 211.5l50 56l357 575l82 -216l-87 20c-10 -24 -20 -46.5 -30 -67.5s-24 -47 -42 -78
l-76 -126l-132 -211.5l-50 -56zM991 28l-386 610l-144 229l-81.5 133c-19 32 -33.667 58.5 -44 79.5s-20.833 43.5 -31.5 67.5l-97 -20l91 219l386 -610l145 -229l81.5 -133c19 -32 33.5 -58.5 43.5 -79.5s20 -43.5 30 -67.5l98 20zM285 108
c42 4.66699 88.501 7.83691 139.501 9.50391s123.833 2.5 218.5 2.5c95.333 0 169.166 -0.833008 221.499 -2.5s99.5 -4.83398 141.5 -9.50098l-12 130c-3.33301 37.333 -6 75.166 -8 113.499s-3.33301 83.166 -4 134.499s-1 116 -1 194c0 76.667 0.333008 141.167 1 193.5
s2 98.666 4 138.999s4.66699 79.833 8 118.5s7.33301 82.334 12 131.001c-41.333 -2.66699 -88.333 -5.33398 -141 -8.00098s-126.667 -4 -222 -4c-94.667 0 -167.5 1.33301 -218.5 4s-97.5 5.33398 -139.5 8.00098c5.33301 -48 9.66602 -91.333 12.999 -130
s5.83301 -78.167 7.5 -118.5s2.83398 -86.833 3.50098 -139.5s1 -117.334 1 -194.001c0 -78 -0.333008 -142.833 -1 -194.5s-1.83398 -96.667 -3.50098 -135s-4.16699 -76 -7.5 -113s-7.66602 -80.167 -12.999 -129.5z" />
    <glyph glyph-name="f_f" unicode="ff" horiz-adv-x="1277" 
d="M300 985l322 3h42l247 -3l372 4c5.33301 -25.333 8 -50.333 8 -75c0 -28 -2.66699 -53.667 -8 -77l-373 4l-246 -3h-42l-322 3l-270 -4c-6 25.333 -9 51 -9 77c0 24 3 49 9 75zM812 898c-4 48 -8.66602 94.5 -13.999 139.5s-8 88.167 -8 129.5
c0 58.667 12.167 111.5 36.5 158.5s59.5 84.333 105.5 112s101.667 41.5 167 41.5c45.333 0 91.5 -5 138.5 -15s86.167 -21 117.5 -33c0 -24 -4.33301 -49.167 -13 -75.5s-20 -47.5 -34 -63.5c-26 8 -54.333 15 -85 21s-60.334 9 -89.001 9
c-46 0 -82.167 -14.333 -108.5 -43s-39.5 -70 -39.5 -124c0 -40 3.16699 -82 9.5 -126l18.5 -134v-895c-30.667 -5.33301 -64.667 -8 -102 -8c-36 0 -69.333 2.66699 -100 8v898zM202.001 898c-5.33301 46.667 -11.667 92.834 -19 138.501s-11 89.167 -11 130.5
c0 58.667 12.167 111.5 36.5 158.5s59.666 84.333 105.999 112s102.166 41.5 167.499 41.5c36 0 72.167 -3.16699 108.5 -9.5s67.5 -13.5 93.5 -21.5c0.666992 -15.333 -0.666016 -32.333 -3.99902 -51s-8 -36.334 -14 -53.001s-13.667 -29.667 -23 -39
c-18 4.66699 -37.667 8.66699 -59 12s-43.666 5 -66.999 5c-46 0 -82.167 -14.333 -108.5 -43s-39.5 -70 -39.5 -124c0 -40 4.16699 -81.833 12.5 -125.5s15.833 -88.5 22.5 -134.5v-895c-18.667 -2.66699 -36.167 -4.5 -52.5 -5.5s-32.833 -1.5 -49.5 -1.5
c-15.333 0 -31.5 0.5 -48.5 1.5s-34.167 2.83301 -51.5 5.5v898z" />
    <glyph glyph-name="f_i" unicode="fi" horiz-adv-x="1159" 
d="M1006 0c-17.333 -2.66699 -34.499 -4.49902 -51.499 -5.49902s-34.5 -1.5 -52.5 -1.5c-17.333 0 -34.5 0.5 -51.5 1.5s-34.167 2.83301 -51.5 5.5v733c0 35.333 -6.16699 61.666 -18.5 78.999s-35.166 26 -68.499 26h-166c-40.667 0 -81.5 0.333008 -122.5 1l-122.5 2
l-270 -4c-6 25.333 -9 51 -9 77c0 24 3 49 9 75l270 -4c92 1.33301 180.667 2.83301 266 4.5s169.666 2.5 252.999 2.5h27c49.333 0 88.166 -16 116.499 -48s42.5 -74.667 42.5 -128v-816zM202.001 898.001c-5.33301 46.667 -12.001 92.833 -20.001 138.5
s-12 89.167 -12 130.5c0 58.667 12.167 111.5 36.5 158.5s59.5 84.333 105.5 112s101.667 41.5 167 41.5c30 0 61.167 -2.5 93.5 -7.5s60.5 -10.833 84.5 -17.5c1.33301 -14.667 0.5 -31.334 -2.5 -50.001s-7.66699 -36.5 -14 -53.5s-13.5 -30.5 -21.5 -40.5
c-20 4.66699 -38.333 7.83398 -55 9.50098s-33.667 2.5 -51 2.5c-45.333 0 -81.166 -14.333 -107.499 -43s-39.5 -70 -39.5 -124c0 -40 4.66699 -81.833 14 -125.5s17.333 -88.5 24 -134.5v-895c-18.667 -2.66699 -36.167 -4.5 -52.5 -5.5s-32.833 -1.5 -49.5 -1.5
c-15.333 0 -31.5 0.5 -48.5 1.5s-34.167 2.83301 -51.5 5.5v898zM755 1252c0 34 5.33203 63.667 15.999 89c12 8 28.333 14.167 49 18.5s40.667 6.5 60 6.5c18 0 37.833 -2.16699 59.5 -6.5s37.834 -10.5 48.501 -18.5c5.33301 -11.333 9.5 -25.5 12.5 -42.5
s4.5 -32.5 4.5 -46.5c0 -34 -5.66699 -63.333 -17 -88c-10 -8 -26 -14.167 -48 -18.5s-42 -6.5 -60 -6.5c-19.333 0 -39.5 2.16699 -60.5 6.5s-37.167 10.5 -48.5 18.5c-10.667 24.667 -16 54 -16 88z" />
    <glyph glyph-name="f_l" unicode="fl" horiz-adv-x="1234" 
d="M1156 155c11.333 -31.333 17.001 -66.001 17.001 -104.001c0 -7.33301 -0.333008 -15 -1 -23s-2 -15.333 -4 -22c-22.667 -3.33301 -49.834 -6.66602 -81.501 -9.99902s-61.167 -5 -88.5 -5c-64.667 0 -113.667 17.167 -147 51.5s-50 85.833 -50 154.5v1167l202 61v-1182
c0 -28.667 6.5 -50.5 19.5 -65.5s32.833 -22.5 59.5 -22.5h74zM300.001 984.999l347 4c6 -25.333 9 -50.333 9 -75c0 -13.333 -0.666992 -26.5 -2 -39.5s-3.66602 -25.5 -6.99902 -37.5l-347 4l-270 -4c-2.66699 12 -4.83398 24.5 -6.50098 37.5s-2.5 26.167 -2.5 39.5
c0 24.667 3 49.667 9 75zM202.001 897.999c-4 48 -8.83105 94.499 -14.498 139.499s-8.5 88.167 -8.5 129.5c0 96 33.167 172 99.5 228s158.833 84 277.5 84c41.333 0 88.166 -2.66699 140.499 -8s105.166 -12.166 158.499 -20.499s102.666 -16.833 147.999 -25.5l-72 -147
c-36 8.66699 -74.833 16.167 -116.5 22.5s-82.667 11.5 -123 15.5s-76.166 6 -107.499 6c-65.333 0 -116.333 -12.667 -153 -38s-55 -68.333 -55 -129c0 -40 3 -82 9 -126l19 -134v-895c-30.667 -5.33301 -64.667 -8 -102 -8c-36 0 -69.333 2.66699 -100 8v898z" />
    <glyph glyph-name="f_f_i" unicode="ffi" horiz-adv-x="1769" 
d="M202 898c-5.33301 46.667 -11.667 92.834 -19 138.501s-11 89.167 -11 130.5c0 58.667 12.167 111.5 36.5 158.5s59.666 84.333 105.999 112s102.166 41.5 167.499 41.5c36 0 72.167 -3.16699 108.5 -9.5s67.5 -13.5 93.5 -21.5
c0.666992 -15.333 -0.666016 -32.333 -3.99902 -51s-8 -36.334 -14 -53.001s-13.667 -29.667 -23 -39c-18 4.66699 -37.667 8.66699 -59 12s-43.666 5 -66.999 5c-46 0 -82.167 -14.333 -108.5 -43s-39.5 -70 -39.5 -124c0 -40 4.16699 -81.833 12.5 -125.5
s15.833 -88.5 22.5 -134.5v-895c-18.667 -2.66699 -36.167 -4.5 -52.5 -5.5s-32.833 -1.5 -49.5 -1.5c-15.333 0 -31.5 0.5 -48.5 1.5s-34.167 2.83301 -51.5 5.5v898zM811.999 898c-4.66699 46.667 -11.0029 92.833 -19.0029 138.5s-12 89.167 -12 130.5
c0 58.667 12.167 111.5 36.5 158.5s59.5 84.333 105.5 112s101.667 41.5 167 41.5c30 0 61 -2.5 93 -7.5s60.333 -10.833 85 -17.5c1.33301 -14.667 0.5 -31.334 -2.5 -50.001s-7.66699 -36.5 -14 -53.5s-13.833 -30.5 -22.5 -40.5
c-20 4.66699 -38.167 7.83398 -54.5 9.50098s-33.166 2.5 -50.499 2.5c-46 0 -82 -14.333 -108 -43s-39 -70 -39 -124c0 -40 4.66699 -81.833 14 -125.5s17 -88.5 23 -134.5v-895c-18 -2.66699 -35.333 -4.5 -52 -5.5s-33 -1.5 -49 -1.5c-15.333 0 -31.666 0.5 -48.999 1.5
s-34.666 2.83301 -51.999 5.5v898zM1616 -0.000976562c-16.667 -2.66699 -33.5 -4.5 -50.5 -5.5s-34.5 -1.5 -52.5 -1.5s-35.5 0.5 -52.5 1.5s-33.833 2.83301 -50.5 5.5v733c0 34 -6.33301 60 -19 78s-35.334 27 -68.001 27h-167c-41.333 0 -82.333 0.333008 -123 1l-123 2
l-246 -3h-42l-322 3l-270 -4c-6 25.333 -9 51 -9 77c0 24 3 49 9 75l270 -4l322 3h42l247 -3c86 1.33301 172.333 2.83301 259 4.5s173.334 2.5 260.001 2.5h28c49.333 0 88 -16 116 -48s42 -74.667 42 -128v-816zM1365 1250c0 33.333 5.66602 63.002 16.999 89.002
c12 6.66699 28.333 12.5 49 17.5s40.334 7.5 59.001 7.5c18 0 38 -2.5 60 -7.5s38.333 -10.833 49 -17.5c5.33301 -12 9.5 -26.333 12.5 -43s4.5 -32 4.5 -46c0 -34 -5.66699 -64 -17 -90c-10.667 -6.66699 -27 -12.334 -49 -17.001s-42 -7 -60 -7
c-18.667 0 -38.5 2.16699 -59.5 6.5s-37.167 10.166 -48.5 17.499c-11.333 26 -17 56 -17 90z" />
    <glyph glyph-name="f_f_l" unicode="ffl" horiz-adv-x="1845" 
d="M300 985l322 3h42l247 -3l347 4c5.33301 -25.333 8 -50.333 8 -75c0 -28 -2.66699 -53.667 -8 -77l-348 4l-246 -3h-42l-322 3l-270 -4c-6 25.333 -9 51 -9 77c0 24 3 49 9 75zM1765 155c11.333 -31.333 17 -66.001 17 -104.001c0 -7.33301 -0.333008 -15 -1 -23
s-1.66699 -15.333 -3 -22c-23.333 -3.33301 -50.833 -6.66602 -82.5 -9.99902s-61.167 -5 -88.5 -5c-64.667 0 -113.667 17.167 -147 51.5s-50 85.833 -50 154.5v1167l202 61v-1182c0 -28.667 6.5 -50.5 19.5 -65.5s33.167 -22.5 60.5 -22.5h73zM811 897.999
c-4 48 -8.66699 94.499 -14 139.499s-8 88.167 -8 129.5c0 96 33.167 172 99.5 228s158.5 84 276.5 84c42 0 89.167 -2.66699 141.5 -8s105 -12.166 158 -20.499s102.167 -16.833 147.5 -25.5l-71 -147c-36 8.66699 -75 16.167 -117 22.5s-83.167 11.5 -123.5 15.5
s-75.833 6 -106.5 6c-65.333 0 -116.5 -12.667 -153.5 -38s-55.5 -68.333 -55.5 -129c0 -40 3.16699 -82 9.5 -126l18.5 -134v-895c-30.667 -5.33301 -64.667 -8 -102 -8c-36 0 -69.333 2.66699 -100 8v898zM202 897.998c-5.33301 46.667 -11.667 92.834 -19 138.501
s-11 89.167 -11 130.5c0 58.667 12.167 111.5 36.5 158.5s59.666 84.333 105.999 112s102.166 41.5 167.499 41.5c36 0 72.167 -3.16699 108.5 -9.5s67.5 -13.5 93.5 -21.5c0.666992 -15.333 -0.666016 -32.333 -3.99902 -51s-8 -36.334 -14 -53.001
s-13.667 -29.667 -23 -39c-18 4.66699 -37.667 8.66699 -59 12s-43.666 5 -66.999 5c-46 0 -82.167 -14.333 -108.5 -43s-39.5 -70 -39.5 -124c0 -40 4.16699 -81.833 12.5 -125.5s15.833 -88.5 22.5 -134.5v-895c-18.667 -2.66699 -36.167 -4.5 -52.5 -5.5
s-32.833 -1.5 -49.5 -1.5c-15.333 0 -31.5 0.5 -48.5 1.5s-34.167 2.83301 -51.5 5.5v898z" />
    <glyph glyph-name="f_f_j" unicode="ffj" horiz-adv-x="1774" 
d="M911 985c70 0 135.499 0.667969 196.499 2.00098s118.5 2.5 172.5 3.5s106 1.5 156 1.5h27c48.667 0 87.167 -15.5 115.5 -46.5s42.5 -73.833 42.5 -128.5v-780c0 -66 -2.5 -124.667 -7.5 -176s-16.667 -96.166 -35 -134.499s-47.166 -71 -86.499 -98
s-92.666 -49.5 -159.999 -67.5c-14.667 12.667 -27.5 30.667 -38.5 54s-18.5 47.666 -22.5 72.999c56 28.667 94.333 60 115 94s31 85 31 153v798c0 35.333 -6.33301 61.666 -19 78.999s-35.334 26 -68.001 26h-174l-246 3l-246 -3h-42l-322 3l-270 -4
c-6 25.333 -9 51 -9 77c0 24 3 49 9 75l270 -4l322 3h42zM201.999 898.001c-5.33301 46.667 -11.667 92.834 -19 138.501s-11 89.167 -11 130.5c0 58.667 12.167 111.5 36.5 158.5s59.666 84.333 105.999 112s102.166 41.5 167.499 41.5c36 0 72.167 -3.16699 108.5 -9.5
s67.5 -13.5 93.5 -21.5c0.666992 -15.333 -0.666016 -32.333 -3.99902 -51s-8 -36.334 -14 -53.001s-13.667 -29.667 -23 -39c-18 4.66699 -37.667 8.66699 -59 12s-43.666 5 -66.999 5c-46 0 -82.167 -14.333 -108.5 -43s-39.5 -70 -39.5 -124
c0 -40 4.16699 -81.833 12.5 -125.5s15.833 -88.5 22.5 -134.5v-895c-18.667 -2.66699 -36.167 -4.5 -52.5 -5.5s-32.833 -1.5 -49.5 -1.5c-15.333 0 -31.5 0.5 -48.5 1.5s-34.167 2.83301 -51.5 5.5v898zM811.998 898.001c-4.66699 46.667 -11.0029 92.833 -19.0029 138.5
s-12 89.167 -12 130.5c0 58.667 12.167 111.5 36.5 158.5s59.5 84.333 105.5 112s101.667 41.5 167 41.5c30 0 61 -2.5 93 -7.5s60.333 -10.833 85 -17.5c1.33301 -14.667 0.5 -31.334 -2.5 -50.001s-7.66699 -36.5 -14 -53.5s-13.833 -30.5 -22.5 -40.5
c-20 4.66699 -38.167 7.83398 -54.5 9.50098s-33.166 2.5 -50.499 2.5c-46 0 -82 -14.333 -108 -43s-39 -70 -39 -124c0 -40 4.66699 -81.833 14 -125.5s17 -88.5 23 -134.5v-895c-18 -2.66699 -35.333 -4.5 -52 -5.5s-33 -1.5 -49 -1.5c-15.333 0 -31.666 0.5 -48.999 1.5
s-34.666 2.83301 -51.999 5.5v898zM1370 1252c0 34 5.66797 63.667 17.001 89c12 8 28.167 14.167 48.5 18.5s40.166 6.5 59.499 6.5c18 0 38 -2.16699 60 -6.5s38 -10.5 48 -18.5c6 -11.333 10.5 -25.5 13.5 -42.5s4.5 -32.5 4.5 -46.5c0 -34 -6 -63.333 -18 -88
c-10 -8 -26 -14.167 -48 -18.5s-42 -6.5 -60 -6.5c-19.333 0 -39.333 2.16699 -60 6.5s-36.667 10.5 -48 18.5c-11.333 24.667 -17 54 -17 88z" />
    <glyph glyph-name="f_f_t" unicode="fft" horiz-adv-x="1923" 
d="M1227 838l-318 3l-245 -3h-42l-322 3l-270 -4c-6 25.333 -9 51 -9 77c0 24 3 49 9 75l270 -4l322 3h42l247 -3l316 3h47l260 -3l325 4c6 -26 9 -51 9 -75c0 -27.333 -3 -53 -9 -77l-327 4l-257 -3h-48zM1410 1162c0 46 7.66699 79.502 23 100.502
s44.666 31.5 87.999 31.5h78l13 -14v-1038c0 -26.667 6.16699 -47.834 18.5 -63.501s33.5 -23.5 63.5 -23.5h137c11.333 -31.333 17 -66 17 -104c0 -7.33301 -0.166992 -15 -0.5 -23s-1.5 -15.333 -3.5 -22c-32.667 -4.66699 -68.167 -8.33398 -106.5 -11.001
s-77.166 -4 -116.499 -4c-68 0 -120.167 17.167 -156.5 51.5s-54.5 85.833 -54.5 154.5v965zM812 898.002c-4 48 -8.66602 94.501 -13.999 139.501s-8 88.167 -8 129.5c0 58.667 12.167 111.5 36.5 158.5s59.5 84.333 105.5 112s101.667 41.5 167 41.5
c36.667 0 75 -3.5 115 -10.5s73.667 -15.5 101 -25.5c1.33301 -24.667 -2 -50.334 -10 -77.001s-19.333 -47.667 -34 -63c-21.333 4.66699 -43.833 9 -67.5 13s-46.834 6 -69.501 6c-46 0 -82.167 -14.333 -108.5 -43s-39.5 -70 -39.5 -124c0 -40 3.16699 -82 9.5 -126
l18.5 -134v-895c-30.667 -5.33301 -64.667 -8 -102 -8c-36 0 -69.333 2.66699 -100 8v898zM202.001 898.003c-5.33301 46.667 -11.667 92.834 -19 138.501s-11 89.167 -11 130.5c0 58.667 12.167 111.5 36.5 158.5s59.666 84.333 105.999 112s102.166 41.5 167.499 41.5
c36 0 72.167 -3.16699 108.5 -9.5s67.5 -13.5 93.5 -21.5c0.666992 -15.333 -0.666016 -32.333 -3.99902 -51s-8 -36.334 -14 -53.001s-13.667 -29.667 -23 -39c-18 4.66699 -37.667 8.66699 -59 12s-43.666 5 -66.999 5c-46 0 -82.167 -14.333 -108.5 -43
s-39.5 -70 -39.5 -124c0 -40 4.16699 -81.833 12.5 -125.5s15.833 -88.5 22.5 -134.5v-895c-18.667 -2.66699 -36.167 -4.5 -52.5 -5.5s-32.833 -1.5 -49.5 -1.5c-15.333 0 -31.5 0.5 -48.5 1.5s-34.167 2.83301 -51.5 5.5v898z" />
    <glyph glyph-name="f_j" unicode="fj" horiz-adv-x="1164" 
d="M300 985c105.333 0.666992 202.167 2.00098 290.5 4.00098s166.5 3 234.5 3h27c49.333 0 88 -15.5 116 -46.5s42 -73.833 42 -128.5v-780c0 -66 -2.5 -124.667 -7.5 -176s-16.667 -96.166 -35 -134.499s-47 -71 -86 -98s-92.5 -49.5 -160.5 -67.5
c-14.667 12.667 -27.667 30.667 -39 54s-18.666 47.666 -21.999 72.999c56.667 28.667 95.167 60 115.5 94s30.5 85 30.5 153v798c0 35.333 -6.33301 61.666 -19 78.999s-35.334 26 -68.001 26h-174c-40.667 0.666992 -81.5 1.16699 -122.5 1.5s-81.833 0.833008 -122.5 1.5
l-270 -4c-6 25.333 -9 51 -9 77c0 24 3 49 9 75zM202.001 898.001c-5.33301 46.667 -12.001 92.833 -20.001 138.5s-12 89.167 -12 130.5c0 58.667 12.167 111.5 36.5 158.5s59.5 84.333 105.5 112s101.667 41.5 167 41.5c30 0 61.167 -2.5 93.5 -7.5
s60.5 -10.833 84.5 -17.5c1.33301 -14.667 0.5 -31.334 -2.5 -50.001s-7.66699 -36.5 -14 -53.5s-13.5 -30.5 -21.5 -40.5c-20 4.66699 -38.333 7.83398 -55 9.50098s-33.667 2.5 -51 2.5c-45.333 0 -81.166 -14.333 -107.499 -43s-39.5 -70 -39.5 -124
c0 -40 4.66699 -81.833 14 -125.5s17.333 -88.5 24 -134.5v-895c-18.667 -2.66699 -36.167 -4.5 -52.5 -5.5s-32.833 -1.5 -49.5 -1.5c-15.333 0 -31.5 0.5 -48.5 1.5s-34.167 2.83301 -51.5 5.5v898zM754 1252c0 34 5.66699 63.667 17 89c12 8 28.5 14.167 49.5 18.5
s41.5 6.5 61.5 6.5c18 0 38.167 -2.16699 60.5 -6.5s38.833 -10.5 49.5 -18.5c5.33301 -11.333 9.66602 -25.5 12.999 -42.5s5 -32.5 5 -46.5c0 -34 -6 -63.333 -18 -88c-10.667 -8 -27.167 -14.167 -49.5 -18.5s-42.5 -6.5 -60.5 -6.5c-20 0 -40.667 2.16699 -62 6.5
s-37.666 10.5 -48.999 18.5c-11.333 24.667 -17 54 -17 88z" />
    <glyph glyph-name="f_t" unicode="ft" horiz-adv-x="1312" 
d="M799 1162c0 46 7.66602 79.502 22.999 100.502s44.666 31.5 87.999 31.5h78l13 -14v-1038c0 -26.667 6.16699 -47.834 18.5 -63.501s33.5 -23.5 63.5 -23.5h137c12 -31.333 18 -66 18 -104c0 -7.33301 -0.333008 -15 -1 -23s-1.66699 -15.333 -3 -22
c-33.333 -4.66699 -69.166 -8.33398 -107.499 -11.001s-77.166 -4 -116.499 -4c-68.667 0 -121 17.167 -157 51.5s-54 85.833 -54 154.5v965zM293.999 985.002l306 3h61l259 -3l329 4c5.33301 -25.333 8 -50.333 8 -75c0 -28 -2.66699 -53.667 -8 -77l-332 4l-256 -3h-61
l-306 3l-264 -4c-6 25.333 -9 51 -9 77c0 24 3 49 9 75zM798.999 1162c0 46 7.66602 79.502 22.999 100.502s44.666 31.5 87.999 31.5h78l13 -14v-1038c0 -26.667 6.16699 -47.834 18.5 -63.501s33.5 -23.5 63.5 -23.5h137c12 -31.333 18 -66 18 -104
c0 -7.33301 -0.333008 -15 -1 -23s-1.66699 -15.333 -3 -22c-33.333 -4.66699 -69.166 -8.33398 -107.499 -11.001s-77.166 -4 -116.499 -4c-68.667 0 -121 17.167 -157 51.5s-54 85.833 -54 154.5v965zM201.998 898.004c-4 48 -8.83301 94.501 -14.5 139.501
s-8.5 88.167 -8.5 129.5c0 58.667 12.167 111.5 36.5 158.5s59.5 84.333 105.5 112s102 41.5 168 41.5c36 0 74 -3.5 114 -10.5s73.667 -15.5 101 -25.5c1.33301 -24.667 -2 -50.334 -10 -77.001s-19.333 -47.667 -34 -63c-21.333 4.66699 -43.833 9 -67.5 13
s-46.5 6 -68.5 6c-46.667 0 -83 -14.333 -109 -43s-39 -70 -39 -124c0 -40 3 -82 9 -126l19 -134v-895c-30.667 -5.33301 -64.667 -8 -102 -8c-36 0 -69.333 2.66699 -100 8v898z" />
    <glyph glyph-name="v_i" unicode="vi" horiz-adv-x="1426" 
d="M1273 0c-14 -2.66699 -29.998 -4.66602 -47.998 -5.99902s-36 -2 -54 -2c-18.667 0 -37.167 0.666992 -55.5 2s-34.833 3.33301 -49.5 6v733c0 35.333 -6.16699 61.666 -18.5 78.999s-34.833 26 -67.5 26h-121l-269 -838c-23.333 -4 -48.5 -6.83301 -75.5 -8.5
s-52.5 -2.5 -76.5 -2.5c-40.667 0 -71.834 7 -93.501 21s-40.167 45.667 -55.5 95l-278 866c23.333 10.667 44.833 18.5 64.5 23.5s38.167 7.5 55.5 7.5c29.333 0 53.166 -6.5 71.499 -19.5s31.833 -35.833 40.5 -68.5l134 -440c10 -32.667 20.167 -67.667 30.5 -105
s19.5 -72.5 27.5 -105.5l19 -80.5c2.66699 -10.667 8.66699 -16 18 -16l232 812c14 4 30.5 6.83301 49.5 8.5s35.5 2.5 49.5 2.5h312c48 0 86.333 -15.5 115 -46.5s43 -73.167 43 -126.5v-817zM1005 1254c0 34 5.99805 64.001 17.998 90.001
c12 6.66699 28.5 12.334 49.5 17.001s41.167 7 60.5 7c18.667 0 39.167 -2.33301 61.5 -7s38.833 -10.334 49.5 -17.001c5.33301 -12 9.5 -26.333 12.5 -43s4.5 -32.334 4.5 -47.001c0 -34 -5.66699 -63.667 -17 -89c-10.667 -6.66699 -27.167 -12.5 -49.5 -17.5
s-42.833 -7.5 -61.5 -7.5c-19.333 0 -39.666 2.33301 -60.999 7s-37.666 10.667 -48.999 18c-12 25.333 -18 55 -18 89z" />
    <glyph glyph-name="v_j" unicode="vj" horiz-adv-x="1435" 
d="M1012 1254c0 34 5.66602 64.001 16.999 90.001c12 7.33301 28.5 13.166 49.5 17.499s41.5 6.5 61.5 6.5c18 0 38.167 -2.16699 60.5 -6.5s38.833 -10.166 49.5 -17.499c5.33301 -12 9.5 -26.333 12.5 -43s4.5 -32.334 4.5 -47.001c0 -33.333 -5.66699 -63 -17 -89
c-10 -6.66699 -26.333 -12.334 -49 -17.001s-43 -7 -61 -7c-20 0 -40.667 2.33301 -62 7s-37.666 10.334 -48.999 17.001c-11.333 26 -17 55.667 -17 89zM1121 990.001c49.333 0 88.002 -15.165 116.002 -45.498s42 -72.833 42 -127.5v-851
c0 -82.667 -8.66699 -150.5 -26 -203.5s-47 -95.167 -89 -126.5s-100 -56.333 -174 -75c-14.667 12.667 -27.5 30.667 -38.5 54s-18.167 47.666 -21.5 72.999c56 28.667 94.167 60 114.5 94s30.5 85 30.5 153v798c0 35.333 -6.33301 61.666 -19 78.999
s-35.334 26 -68.001 26h-129l-269 -838c-23.333 -4 -48.5 -6.83301 -75.5 -8.5s-52.5 -2.5 -76.5 -2.5c-40.667 0 -72 7 -94 21s-40.333 45.667 -55 95l-278 866c23.333 10.667 44.833 18.5 64.5 23.5s38.167 7.5 55.5 7.5c29.333 0 53.166 -6.5 71.499 -19.5
s31.833 -35.833 40.5 -68.5l134 -440c10 -32.667 20.167 -67.667 30.5 -105s19.5 -72.5 27.5 -105.5l19 -80.5c2.66699 -10.667 8.66699 -16 18 -16l232 812c14 4 30.5 6.83301 49.5 8.5s35.5 2.5 49.5 2.5h318z" />
    <glyph glyph-name=".notdef" horiz-adv-x="1282" 
d="M277 0c-64 0 -96 32 -96 96v1178c0 64 32 96 96 96h727c64 0 96 -32 96 -96v-1178c0 -64 -32 -96 -96 -96h-727zM290 17l-72 232l88 -20c10 24 20 46.5 30 67.5s24 47 42 78l76 126l131 211.5l50 56l357 575l82 -216l-87 20c-10 -24 -20 -46.5 -30 -67.5s-24 -47 -42 -78
l-76 -126l-132 -211.5l-50 -56zM991 28l-386 610l-144 229l-81.5 133c-19 32 -33.667 58.5 -44 79.5s-20.833 43.5 -31.5 67.5l-97 -20l91 219l386 -610l145 -229l81.5 -133c19 -32 33.5 -58.5 43.5 -79.5s20 -43.5 30 -67.5l98 20zM285 108
c42 4.66699 88.501 7.83691 139.501 9.50391s123.833 2.5 218.5 2.5c95.333 0 169.166 -0.833008 221.499 -2.5s99.5 -4.83398 141.5 -9.50098l-12 130c-3.33301 37.333 -6 75.166 -8 113.499s-3.33301 83.166 -4 134.499s-1 116 -1 194c0 76.667 0.333008 141.167 1 193.5
s2 98.666 4 138.999s4.66699 79.833 8 118.5s7.33301 82.334 12 131.001c-41.333 -2.66699 -88.333 -5.33398 -141 -8.00098s-126.667 -4 -222 -4c-94.667 0 -167.5 1.33301 -218.5 4s-97.5 5.33398 -139.5 8.00098c5.33301 -48 9.66602 -91.333 12.999 -130
s5.83301 -78.167 7.5 -118.5s2.83398 -86.833 3.50098 -139.5s1 -117.334 1 -194.001c0 -78 -0.333008 -142.833 -1 -194.5s-1.83398 -96.667 -3.50098 -135s-4.16699 -76 -7.5 -113s-7.66602 -80.167 -12.999 -129.5z" />
    <glyph glyph-name="CR" unicode="&#xd;" horiz-adv-x="0" 
 />
    <glyph glyph-name="space" unicode=" " horiz-adv-x="440" 
 />
    <glyph glyph-name="exclam" unicode="!" horiz-adv-x="576" 
d="M204 389l-24.498 396.999c-8.33301 132 -12.5 265 -12.5 399v180c20 5.33301 44.5 9 73.5 11s58.167 1.83301 87.5 -0.5s53.666 -6.16602 72.999 -11.499v-182c0 -132 -4.33301 -264 -13 -396s-16.667 -264.333 -24 -397c-13.333 -4 -27 -6.83301 -41 -8.5
s-27 -2.5 -39 -2.5c-11.333 0 -24.333 0.833008 -39 2.5s-28.334 4.5 -41.001 8.5zM284.002 218.999c20 0 40.5 -2.16699 61.5 -6.5s38.167 -10.166 51.5 -17.499c5.33301 -9.33301 9.5 -24 12.5 -44s4.5 -37 4.5 -51c0 -13.333 -1.5 -29.833 -4.5 -49.5
s-7.16699 -34.167 -12.5 -43.5c-13.333 -7.33301 -30.5 -13.166 -51.5 -17.499s-41.5 -6.5 -61.5 -6.5c-20.667 0 -41.167 2.16699 -61.5 6.5s-37.5 10.166 -51.5 17.499c-4.66699 9.33301 -8.66699 23.833 -12 43.5s-5 36.167 -5 49.5c0 14 1.66699 31 5 51
s7.33301 34.667 12 44c14 7.33301 31.167 13.166 51.5 17.499s40.833 6.5 61.5 6.5z" />
    <glyph glyph-name="quotedbl" unicode="&#x22;" horiz-adv-x="779" 
d="M457 1407c0 16 1.16406 31.8359 3.49707 47.5029s5.5 31.834 9.5 48.501c12.667 7.33301 27.334 13.5 44.001 18.5s35.334 7.5 56.001 7.5c19.333 0 37.833 -2.5 55.5 -7.5s32.834 -11.167 45.501 -18.5c3.33301 -16.667 6 -32.834 8 -48.501s3 -31.5 3 -47.5
c0 -11.333 -2.83301 -38.333 -8.5 -81s-13 -94.167 -22 -154.5l-28.5 -187.5c-12.667 -7.33301 -30.167 -11 -52.5 -11s-39.833 3.66699 -52.5 11c-11.333 65.333 -21.5 128.166 -30.5 188.499s-16.333 111.666 -22 153.999s-8.5 69.166 -8.5 80.499zM96.9971 1407
c0 16 1.16406 31.8359 3.49707 47.5029s5.5 31.834 9.5 48.501c12.667 7.33301 27.334 13.5 44.001 18.5s35.334 7.5 56.001 7.5c19.333 0 37.833 -2.5 55.5 -7.5s32.834 -11.167 45.501 -18.5c3.33301 -16.667 6 -32.834 8 -48.501s3 -31.5 3 -47.5
c0 -11.333 -2.83301 -38.333 -8.5 -81s-13 -94.167 -22 -154.5l-28.5 -187.5c-12.667 -7.33301 -30.167 -11 -52.5 -11s-39.833 3.66699 -52.5 11c-11.333 65.333 -21.5 128.166 -30.5 188.499s-16.333 111.666 -22 153.999s-8.5 69.166 -8.5 80.499z" />
    <glyph glyph-name="numbersign" unicode="#" horiz-adv-x="1291" 
d="M201 27c10.667 -5.33301 24.332 -9.33301 40.999 -12s34 -4 52 -4s35.333 1.33301 52 4s30.667 6.66699 42 12l280 1251c-11.333 4 -25.166 7.33301 -41.499 10s-33.5 4 -51.5 4c-17.333 0 -34.333 -1.33301 -51 -4s-30.667 -6 -42 -10zM637.998 27
c10.667 -5.33301 24.498 -9.33301 41.498 -12s34.167 -4 51.5 -4c18.667 0 36.334 1.33301 53.001 4s30.667 6.66699 42 12l280 1251c-11.333 4 -25.166 7.33301 -41.499 10s-33.5 4 -51.5 4c-17.333 0 -34.333 -1.33301 -51 -4s-31 -6 -43 -10zM1142 309
c8.66699 24 13 52.667 13 86s-4.33301 62 -13 86h-1082c-9.33301 -23.333 -14 -52 -14 -86c0 -15.333 1.16699 -30.5 3.5 -45.5s5.83301 -28.5 10.5 -40.5h1082zM1237 823c8.66699 24 13 52.999 13 86.999c0 32.667 -4.33301 61 -13 85h-1082
c-8.66699 -23.333 -13 -51.666 -13 -84.999c0 -16 1 -31.5 3 -46.5s5.33301 -28.5 10 -40.5h1082z" />
    <glyph glyph-name="dollar" unicode="$" horiz-adv-x="1080" 
d="M523 55c-55.333 0 -109.668 6.17285 -163.001 18.5059s-102 28 -146 47s-80 38.5 -108 58.5c0.666992 18.667 4.83398 38.667 12.501 60s17.667 41.166 30 59.499s25.5 31.833 39.5 40.5c45.333 -29.333 97.666 -55.333 156.999 -78s118 -34 176 -34
c56 -0.666992 102.5 11 139.5 35s55.833 58.667 56.5 104c0.666992 36.667 -10.333 69.167 -33 97.5s-59 51.166 -109 68.499l-194 69c-72.667 26 -130.5 62.667 -173.5 110s-64.5 107.333 -64.5 180c0 62.667 15.833 118.667 47.5 168s75.834 88.166 132.501 116.499
s122.334 42.5 197.001 42.5c75.333 0 144.833 -8.83301 208.5 -26.5s119.5 -39.5 167.5 -65.5c0 -28.667 -6.83301 -58 -20.5 -88s-31.167 -54.333 -52.5 -73c-46.667 24.667 -94.334 44.167 -143.001 58.5s-97 21.5 -145 21.5c-54.667 0 -98.334 -11.833 -131.001 -35.5
s-49 -55.834 -49 -96.501c0 -38.667 12.667 -67.834 38 -87.501s58.666 -36.834 99.999 -51.501l183 -67c78 -28 140.167 -68.667 186.5 -122s69.5 -122.666 69.5 -207.999c0 -62.667 -16.667 -118.334 -50 -167.001s-80.666 -86.667 -141.999 -114
s-133.666 -41 -216.999 -41zM510.998 -124.994c-34.667 0 -62.333 2.66699 -83 8v229h165v-229c-10 -2.66699 -22.333 -4.66699 -37 -6s-29.667 -2 -45 -2zM447.999 1154.01l-0.000976562 235c11.333 2.66699 24.5 4.66699 39.5 6s29.5 2 43.5 2
c14.667 0 29.334 -0.666992 44.001 -2s27.667 -3.33301 39 -6v-235h-166z" />
    <glyph glyph-name="percent" unicode="%" horiz-adv-x="1815" 
d="M1718 386c0 -122 -24.167 -221 -72.5 -297s-129.166 -114 -242.499 -114c-76 0 -137.167 17.5 -183.5 52.5s-79.833 83.5 -100.5 145.5s-31 133 -31 213c0 122 24.167 220.667 72.5 296s129.166 113 242.499 113c76 0 137.167 -17.333 183.5 -52
s79.833 -82.667 100.5 -144s31 -132.333 31 -213zM1266 386c0 -48 3.5 -92.833 10.5 -134.5s20.5 -75.334 40.5 -101.001s49 -38.5 87 -38.5s66.833 12.833 86.5 38.5s33.167 59.334 40.5 101.001s11 86.5 11 134.5s-3.66699 92.667 -11 134s-20.833 74.833 -40.5 100.5
s-48.5 38.5 -86.5 38.5s-67 -12.833 -87 -38.5s-33.5 -59.167 -40.5 -100.5s-10.5 -86 -10.5 -134zM727 882c0 -122 -24.3301 -221.169 -72.9971 -297.502s-129.334 -114.5 -242.001 -114.5c-76.667 0 -138 17.667 -184 53s-79.333 84 -100 146s-31 133 -31 213
c0 120.667 24.167 218.834 72.5 294.501s129.166 113.5 242.499 113.5c75.333 0 136.166 -17.167 182.499 -51.5s80 -82.166 101 -143.499s31.5 -132.333 31.5 -213zM275.003 881.998c0 -48 3.5 -93 10.5 -135s20.5 -75.833 40.5 -101.5s49 -38.5 87 -38.5
s66.833 12.833 86.5 38.5s33 59.5 40 101.5s10.5 87 10.5 135c0 47.333 -3.5 91.666 -10.5 132.999s-20.333 75 -40 101s-48.5 39 -86.5 39s-67 -13 -87 -39s-33.5 -59.667 -40.5 -101s-10.5 -85.666 -10.5 -132.999zM1162 1277
c16.667 5.33301 38.666 8.66895 65.999 10.002s53.833 1.16602 79.5 -0.500977s44.834 -4.83398 57.501 -9.50098l-704 -1277c-17.333 -5.33301 -39.666 -8.83301 -66.999 -10.5s-53.833 -1.5 -79.5 0.5s-44.834 5.33301 -57.501 10z" />
    <glyph glyph-name="ampersand" unicode="&#x26;" horiz-adv-x="1245" 
d="M993 813c36.667 0 72.002 2.50098 106.002 7.50098s62.333 12.833 85 23.5c8.66699 -11.333 15.5 -26.333 20.5 -45s7.5 -36.667 7.5 -54c0 -42 -14.167 -70.833 -42.5 -86.5s-64.5 -23.5 -108.5 -23.5h-456c-68 0 -122.833 -12.833 -164.5 -38.5
s-72 -58.834 -91 -99.501s-28.5 -82.667 -28.5 -126c0 -72.667 19.167 -129 57.5 -169s89.5 -60 153.5 -60c54.667 0 105.167 9.66699 151.5 29s83.5 41 111.5 65v273c0 28.667 0.5 64.167 1.5 106.5s2.83301 80.166 5.5 113.499h192c2.66699 -33.333 4.5 -71.333 5.5 -114
s1.5 -77.667 1.5 -105v-207c0 -46 1.16699 -96.667 3.5 -152s5.5 -105.666 9.5 -150.999c-13.333 -3.33301 -28.166 -6 -44.499 -8s-34.166 -3 -53.499 -3c-18.667 0 -36.334 0.833008 -53.001 2.5s-31.334 4.16699 -44.001 7.5l-15 81
c-43.333 -32 -92.833 -57.667 -148.5 -77s-112.834 -29 -171.501 -29c-84 0 -154.5 17 -211.5 51s-100 80 -129 138s-43.5 123.333 -43.5 196c0 74 17.167 140 51.5 198s78 103.667 131 137s107.833 50.333 164.5 51v-29c-52.667 2 -100.834 17.333 -144.501 46
s-78.667 66.834 -105 114.501s-39.5 100.834 -39.5 159.501c0 65.333 16.5 125.166 49.5 179.499s80.667 97.333 143 129s137.833 47.5 226.5 47.5c67.333 0 133.833 -5.66699 199.5 -17s121.167 -25 166.5 -41c0.666992 -28 -3.83301 -57.333 -13.5 -88
s-23.5 -56 -41.5 -76c-44.667 13.333 -91 25.333 -139 36s-99 16 -153 16c-70 0 -123.833 -18.833 -161.5 -56.5s-56.5 -85.834 -56.5 -144.501c0 -62.667 19.833 -113 59.5 -151s102.167 -57 187.5 -57h368z" />
    <glyph glyph-name="quotesingle" unicode="'" horiz-adv-x="422" 
d="M90 1407c0 16 1.16406 31.8359 3.49707 47.5029s5.5 31.834 9.5 48.501c12.667 7.33301 27.334 13.5 44.001 18.5s35.334 7.5 56.001 7.5c19.333 0 37.833 -2.5 55.5 -7.5s32.834 -11.167 45.501 -18.5c3.33301 -16.667 6 -32.834 8 -48.501s3 -31.5 3 -47.5
c0 -11.333 -2.83301 -38.333 -8.5 -81s-13 -94.167 -22 -154.5l-28.5 -187.5c-12.667 -7.33301 -30.167 -11 -52.5 -11s-39.833 3.66699 -52.5 11c-11.333 65.333 -21.5 128.166 -30.5 188.499s-16.333 111.666 -22 153.999s-8.5 69.166 -8.5 80.499z" />
    <glyph glyph-name="parenleft" unicode="(" horiz-adv-x="664" 
d="M347 550c0 -104 10.167 -208.5 30.5 -313.5s51.5 -207.167 93.5 -306.5s95.667 -192 161 -278c-13.333 -30 -31.166 -54.167 -53.499 -72.5s-45.833 -31.5 -70.5 -39.5c-82.667 81.333 -152.5 178.333 -209.5 291s-100.167 231.167 -129.5 355.5s-44 245.5 -44 363.5
c0 116.667 14.667 237.167 44 361.5s72.5 242.833 129.5 355.5s126.833 209.667 209.5 291c24.667 -8 48.167 -21.167 70.5 -39.5s40.166 -42.5 53.499 -72.5c-65.333 -86 -119 -178.5 -161 -277.5s-73.167 -201.167 -93.5 -306.5s-30.5 -209.333 -30.5 -312z" />
    <glyph glyph-name="parenright" unicode=")" horiz-adv-x="664" 
d="M316 550c0 -104 -10 -208.5 -30 -313.5s-51 -207.167 -93 -306.5s-96 -192 -162 -278c13.333 -30 31.166 -54.167 53.499 -72.5s45.833 -31.5 70.5 -39.5c83.333 81.333 153.5 178.333 210.5 291s100 231.167 129 355.5s43.5 245.5 43.5 363.5
c0 116.667 -14.5 237.167 -43.5 361.5s-72 242.833 -129 355.5s-127.167 209.667 -210.5 291c-24.667 -8 -48.167 -21.167 -70.5 -39.5s-40.166 -42.5 -53.499 -72.5c66 -86 120 -178.5 162 -277.5s73 -201.167 93 -306.5s30 -209.333 30 -312z" />
    <glyph glyph-name="asterisk" unicode="*" horiz-adv-x="1009" 
d="M414 1461c14 6.66699 32.501 11 55.501 13s45.833 2 68.5 0s41.667 -6.33301 57 -13l-2 -111c-0.666992 -46 -6.83398 -93 -18.501 -141l-31.5 -133c-12.667 -14.667 -25.667 -22 -39 -22c-14.667 0 -27.667 7.33301 -39 22l-32 133c-11.333 48 -17 95 -17 141z
M89.001 1094c-2 16 -0.332031 34.999 5.00098 56.999s12.666 43.667 21.999 65s19.333 38 30 50l104 -36c44 -14 87 -34.167 129 -60.5l117 -71.5c10 -16.667 12.667 -31.334 8 -44.001c-2.66699 -6.66699 -6.5 -12.5 -11.5 -17.5s-12.5 -8.83301 -22.5 -11.5
c-41.333 2.66699 -86.5 5.83398 -135.5 9.50098s-95.5 12.834 -139.5 27.501zM338.002 672.999c-15.333 3.33301 -32.833 10.668 -52.5 22.001s-38 24.5 -55 39.5s-29.833 29.833 -38.5 44.5l65 88c28 36.667 60.833 71.167 98.5 103.5l103.5 88.5
c18.667 5.33301 33.667 3.66602 45 -5.00098c5.33301 -4 9.83301 -9.33301 13.5 -16s5.16699 -14.667 4.5 -24l-52 -126.5c-19.333 -45.667 -42.333 -87.167 -69 -124.5zM815.002 778.001c-8 -14 -20.334 -28.3359 -37.001 -43.0029s-34.667 -28 -54 -40
s-37.666 -19.667 -54.999 -23l-62 91c-28 36.667 -51.167 77.834 -69.5 123.501l-51.5 126.5c0.666992 18.667 6.66699 32.334 18 41.001c5.33301 4.66699 11.833 7.5 19.5 8.5s15.834 -0.166992 24.501 -3.5l105 -88.5c37.333 -32.333 69.666 -67.166 96.999 -104.499z
M863.001 1264c10 -10.667 19.5 -26.334 28.5 -47.001s16.167 -42.167 21.5 -64.5s7.33301 -41.833 6 -58.5l-106 -34c-44 -13.333 -90.5 -21.666 -139.5 -24.999s-93.833 -6.66602 -134.5 -9.99902c-18 6 -29.667 15.667 -35 29c-4.66699 13.333 -2 27.666 8 42.999l118 73
c42 25.333 84.667 45 128 59z" />
    <glyph glyph-name="plus" unicode="+" horiz-adv-x="1080" 
d="M123 716c-6 -26.667 -8.99902 -56.334 -8.99902 -89.001c0 -16.667 0.666992 -32.5 2 -47.5s3.66602 -28.833 6.99902 -41.5h227c16.667 0 34.334 0.333008 53.001 1s36.334 1 53.001 1h168c16.667 0 34.334 -0.333008 53.001 -1s36.334 -1 53.001 -1h227
c6 25.333 9 55 9 89c0 30.667 -3 60.334 -9 89.001h-227c-16.667 0 -34.334 -0.333008 -53.001 -1s-36.334 -1 -53.001 -1h-168c-16.667 0 -34.334 0.333008 -53.001 1s-36.334 1 -53.001 1h-227zM446.001 812c0 -16.667 0.331055 -34.167 0.998047 -52.5s1 -35.833 1 -52.5
v-159c0 -16 -0.333008 -33.167 -1 -51.5s-1 -36.166 -1 -53.499v-247c14.667 -2.66699 30 -4.5 46 -5.5s32.333 -1.5 49 -1.5s32.834 0.5 48.501 1.5s30.5 2.83301 44.5 5.5v247c0 17.333 -0.333008 35.166 -1 53.499s-1 35.5 -1 51.5v159c0 16.667 0.333008 34.167 1 52.5
s1 35.833 1 52.5v247c-14 2.66699 -29 4.5 -45 5.5s-32.333 1.5 -49 1.5c-17.333 0 -33.666 -0.5 -48.999 -1.5s-30.333 -2.83301 -45 -5.5v-247z" />
    <glyph glyph-name="comma" unicode="," horiz-adv-x="538" 
d="M394 208c7.33301 -17.333 12.8369 -37.6689 16.5039 -61.002s5.5 -47 5.5 -71c0 -56 -10.833 -110.167 -32.5 -162.5s-54.334 -99.166 -98.001 -140.499s-98.5 -73 -164.5 -95c-18.667 9.33301 -32.834 24 -42.501 44s-13.5 39.667 -11.5 59c46 20 84.333 47.667 115 83
s47.667 75 51 119c-13.333 2 -28 5.5 -44 10.5s-28.333 10.5 -37 16.5c-4.66699 9.33301 -8.83398 23.5 -12.501 42.5s-5.5 36.833 -5.5 53.5c0 17.333 1.66699 36.5 5 57.5s7.66602 35.833 12.999 44.5c12 6.66699 30.333 12.834 55 18.501s47 8.5 67 8.5s42 -2.5 66 -7.5
s42 -11.5 54 -19.5z" />
    <glyph glyph-name="hyphen" unicode="-" horiz-adv-x="700" 
d="M101 444c-3.33301 14 -5.5 28.833 -6.5 44.5s-1.5 30.5 -1.5 44.5s0.5 28.833 1.5 44.5s3.16699 30.834 6.5 45.501h497c4 -14.667 6.5 -29.834 7.5 -45.501s1.5 -30.5 1.5 -44.5s-0.5 -28.833 -1.5 -44.5s-3.5 -30.5 -7.5 -44.5h-497z" />
    <glyph glyph-name="period" unicode="." horiz-adv-x="526" 
d="M122 109c0 12 1.5 28.667 4.5 50s7.83301 38 14.5 50c13.333 7.33301 31.666 13.5 54.999 18.5s45.666 7.5 66.999 7.5c20 0 42.167 -2.5 66.5 -7.5s42.833 -11.167 55.5 -18.5c6.66699 -12 11.667 -28.667 15 -50s5 -38 5 -50s-1.66699 -28.667 -5 -50
s-8.33301 -37.666 -15 -48.999c-11.333 -8 -29.5 -14.333 -54.5 -19s-47.5 -7 -67.5 -7c-21.333 0 -43.666 2.33301 -66.999 7s-41.666 11 -54.999 19c-6.66699 11.333 -11.5 27.666 -14.5 48.999s-4.5 38 -4.5 50z" />
    <glyph glyph-name="slash" unicode="/" horiz-adv-x="845" 
d="M646 1422c29.333 -2.66699 60.333 -9.66797 93 -21.001s61.334 -26.666 86.001 -45.999l-631 -1677c-30.667 2.66699 -61.834 9.66699 -93.501 21s-60.5 27 -86.5 47z" />
    <glyph glyph-name="zero" unicode="0" horiz-adv-x="1080" 
d="M102 633c0 122 8.99805 227.667 26.998 317s57.667 165.666 119 228.999c34.667 34 74.834 61.333 120.501 82s103.167 31 172.5 31s126.333 -10.333 171 -31s84.667 -48 120 -82c60 -63.333 99.333 -139.666 118 -228.999s28 -195 28 -317s-9.33301 -227.667 -28 -317
s-58 -165.666 -118 -228.999c-35.333 -34 -75.5 -61.333 -120.5 -82s-102.167 -31 -171.5 -31c-68.667 0 -125.667 10.333 -171 31s-85.666 48 -120.999 82c-60 63.333 -99.333 139.666 -118 228.999s-28 195 -28 317zM318.998 633c0 -112 5.83203 -202 17.499 -270
s31.5 -120 59.5 -156c16 -23.333 36.167 -40.833 60.5 -52.5s52.166 -17.5 83.499 -17.5s59.333 5.83301 84 17.5s44.667 29.167 60 52.5c28 36 47.833 88 59.5 156s17.5 158 17.5 270c0 112.667 -5.83301 202.834 -17.5 270.501s-31.5 119.5 -59.5 155.5
c-16 23.333 -36.167 40.833 -60.5 52.5s-52.166 17.5 -83.499 17.5s-59.166 -5.83301 -83.499 -17.5s-44.5 -29.167 -60.5 -52.5c-28 -36 -47.833 -87.833 -59.5 -155.5s-17.5 -157.834 -17.5 -270.501z" />
    <glyph glyph-name="one" unicode="1" horiz-adv-x="1080" 
d="M699 306c0 -27.333 -0.333008 -53.001 -1 -77.001s-1 -50 -1 -78v-68h-200v68c0 28 -0.333008 54 -1 78s-1 49.667 -1 77v425c0 22.667 0.833008 54.334 2.5 95.001s3.5 81.667 5.5 123s3 74.333 3 99l-4 218c17.333 4 34.333 6.5 51 7.5s32.334 1.5 47.001 1.5
c15.333 0 31.166 -0.5 47.499 -1.5s33.5 -3.5 51.5 -7.5v-960zM382 172.999c13.333 0 33 -0.333008 59 -1s46 -1 60 -1h192c13.333 0 33.5 0.333008 60.5 1s47.167 1 60.5 1h138c6 -28 9 -56.667 9 -86c0 -28 -3 -57 -9 -87h-753c-6.66699 30.667 -10 59.667 -10 87
c0 29.333 3.33301 58 10 86h183zM128 881.999c96.667 60 176.333 123.668 239 191.001s107.667 131.666 135 192.999l77 -166c-18 -48.667 -46.333 -95 -85 -139s-82.667 -83.5 -132 -118.5s-98 -63.167 -146 -84.5c-22 12.667 -41 30 -57 52s-26.333 46 -31 72z" />
    <glyph glyph-name="two" unicode="2" horiz-adv-x="1080" 
d="M132 1000c19.333 52.667 47.6689 101.001 85.002 145.001s83.166 79.5 137.499 106.5s115.5 40.5 183.5 40.5c80 0 149 -15.667 207 -47s103 -75 135 -131s48 -120.667 48 -194c0 -64 -11.833 -119.667 -35.5 -167s-54.334 -90 -92.001 -128s-78.5 -75.333 -122.5 -112
l-153 -126c-38 -32.667 -72 -63.834 -102 -93.501s-53.667 -57 -71 -82s-26.333 -46.167 -27 -63.5l-4 -149h-121c-20.667 22 -39.667 44.167 -57 66.5s-26 47.5 -26 75.5c0 38 11.833 77.667 35.5 119s54.5 82.5 92.5 123.5s78.667 80.167 122 117.5l196 166
c46.667 39.333 83.5 78.5 110.5 117.5s40.5 84.833 40.5 137.5c0 60.667 -18.167 109 -54.5 145s-82.833 54 -139.5 54c-55.333 0 -103.5 -18.667 -144.5 -56s-72.5 -82.333 -94.5 -135c-25.333 1.33301 -53 7.83301 -83 19.5s-52 28.5 -66 50.5zM959.003 181.001
c0 -70.667 -10.499 -118.667 -31.499 -144s-56.5 -38 -106.5 -38h-607l-60 136c39.333 11.333 86.666 20.5 141.999 27.5s109.833 11.833 163.5 14.5s98.167 4 133.5 4h366z" />
    <glyph glyph-name="three" unicode="3" horiz-adv-x="1080" 
d="M744 404c0 70.667 -20.499 125.17 -61.499 163.503s-95.833 57.5 -164.5 57.5c-21.333 0 -44.333 -2.83301 -69 -8.5s-46.667 -13.834 -66 -24.501c-19.333 10 -37 25.667 -53 47s-26.667 43.333 -32 66c36.667 17.333 78.167 31.666 124.5 42.999s96.5 17 150.5 17
c69.333 0 133.5 -13.333 192.5 -40s106.167 -67.167 141.5 -121.5s53 -123.5 53 -207.5c0 -71.333 -13 -133.333 -39 -186s-60.833 -96.5 -104.5 -131.5s-92.5 -61.167 -146.5 -78.5s-108.667 -26 -164 -26c-85.333 0 -162.166 12.5 -230.499 37.5
s-124.5 56.167 -168.5 93.5c5.33301 24.667 16.5 50 33.5 76s36.167 47.333 57.5 64c39.333 -29.333 82.166 -53.5 128.499 -72.5s97.166 -28.5 152.499 -28.5c50 0 95 9.83301 135 29.5s71.667 48.667 95 87s35 86.166 35 143.499zM659.001 828.003
c-22.667 -23.333 -48.667 -45.665 -78 -66.998s-58.333 -40.5 -87 -57.5s-53.667 -30.833 -75 -41.5l-121 43l250 260c10 10.667 23.667 24.5 41 41.5l52 50.5c17.333 16.667 31.666 29.667 42.999 39l-6 9c-24 -5.33301 -58.167 -9.66602 -102.5 -12.999
s-87.166 -5 -128.499 -5h-283c-5.33301 14.667 -8.66602 28.667 -9.99902 42s-2 24.666 -2 33.999c0 15.333 1.16699 32 3.5 50s7.16602 35.667 14.499 53h697c16 -30 27.5 -55.833 34.5 -77.5s10.5 -39.834 10.5 -54.501c0 -15.333 -3.16699 -30.333 -9.5 -45
s-17.5 -30.334 -33.5 -47.001z" />
    <glyph glyph-name="four" unicode="4" horiz-adv-x="1080" 
d="M134 275c-14 20.667 -25.334 41.832 -34.001 63.499s-13 42.5 -13 62.5c0 15.333 3.83301 33.666 11.5 54.999s17.167 44.333 28.5 69l341 753c20 4.66699 42.667 5.83398 68 3.50098s49.5 -7 72.5 -14s40.5 -16.167 52.5 -27.5l-231 -506l-42.5 -94.5
c-16.333 -35.667 -33.333 -70.667 -51 -105s-33.5 -63.166 -47.5 -86.499l4 -7c26 2 54 3.66699 84 5s58.167 2.16602 84.5 2.49902s46.5 0.5 60.5 0.5h278c16 0 31.167 0.333008 45.5 1s29.833 1 46.5 1h106c2.66699 -14 4.33398 -27.667 5.00098 -41s1 -26 1 -38
c0 -13.333 -1 -28.666 -3 -45.999s-5.66699 -34 -11 -50h-98c-16.667 0 -32.167 0.166992 -46.5 0.5s-29.5 0.5 -45.5 0.5h-198c-16 0 -33.833 -0.333008 -53.5 -1s-37.5 -1 -53.5 -1h-361zM599.999 169.998c0 16.667 0.333008 34.5 1 53.5s1 36.833 1 53.5v153
c0 8.66699 -0.333008 22.5 -1 41.5s-1 33.167 -1 42.5v157c0 50 12.333 88.833 37 116.5s58 41.5 100 41.5h56l9 -9v-264c0 -16.667 -0.333008 -34.667 -1 -54s-1 -37 -1 -53v-172c0 -16.667 0.333008 -34.5 1 -53.5s1 -36.833 1 -53.5v-170
c-17.333 -2.66699 -34.333 -4.66699 -51 -6s-33.667 -2 -51 -2c-16.667 0 -33.5 0.666992 -50.5 2s-33.5 3.33301 -49.5 6v170z" />
    <glyph glyph-name="five" unicode="5" horiz-adv-x="1080" 
d="M379 858c-1.33301 -26.667 -4.16602 -54.001 -8.49902 -82.001s-10.5 -54.333 -18.5 -79c-26 -10 -54.167 -17.833 -84.5 -23.5s-63.833 -10.167 -100.5 -13.5l30 593l184 -29c2 -19.333 3.66699 -44.166 5 -74.499s2.16602 -60.5 2.49902 -90.5
s-0.166992 -53.667 -1.5 -71zM122 100.999c3.33301 21.333 13.501 46.001 30.501 74.001s36.167 49.667 57.5 65c40 -28 82.167 -51 126.5 -69s93.5 -27 147.5 -27c44.667 0 86.334 10 125.001 30s70.167 50.667 94.5 92s36.5 94.333 36.5 159s-12.5 115.167 -37.5 151.5
s-56.333 62.166 -94 77.499s-75.834 23 -114.501 23s-77.5 -7.5 -116.5 -22.5s-75.5 -36.833 -109.5 -65.5c-18.667 4 -37.834 13 -57.501 27s-34.167 28.667 -43.5 44c26 29.333 58.333 57.833 97 85.5s82.334 50.667 131.001 69s100 27.5 154 27.5
c122.667 0 221.167 -36.167 295.5 -108.5s111.5 -171.5 111.5 -297.5c0 -106 -22.333 -193 -67 -261s-101.834 -118.5 -171.501 -151.5s-142.834 -49.5 -219.501 -49.5c-79.333 0 -151.166 12.167 -215.499 36.5s-117.833 54.5 -160.5 90.5zM888.001 1266
c5.33301 -15.333 9 -30.668 11 -46.001s3 -28.666 3 -39.999c0 -61.333 -30.667 -92 -92 -92h-345c-34.667 0 -69.167 0.666992 -103.5 2s-65.5 2.83301 -93.5 4.5s-49.333 3.5 -64 5.5l-7 153l13 13h678z" />
    <glyph glyph-name="six" unicode="6" horiz-adv-x="1080" 
d="M553 -26c-58.667 0 -108.166 7.66504 -148.499 22.998s-73 33 -98 53s-43.5 37.333 -55.5 52c-9.33301 10.667 -21.666 26.834 -36.999 48.501s-31 52 -47 91s-29.5 90.333 -40.5 154s-16.5 143.167 -16.5 238.5c0 134 19.5 250.167 58.5 348.5s96.833 174.5 173.5 228.5
s171.334 81 284.001 81c56.667 0 110.334 -5.66699 161.001 -17s93.334 -26.666 128.001 -45.999c-2.66699 -26.667 -10.334 -54 -23.001 -82s-29.667 -49.667 -51 -65c-26 10.667 -55.667 20.5 -89 29.5s-71.333 13.5 -114 13.5c-74.667 0 -134.834 -18.833 -180.501 -56.5
s-78.834 -88.5 -99.501 -152.5s-31 -136 -31 -216v-172c0 -34 2.66699 -71 8 -111s14 -78.5 26 -115.5s28 -68.5 48 -94.5c16 -20 36.167 -37 60.5 -51s53.166 -21 86.499 -21c69.333 0 122.166 25 158.499 75s54.5 116 54.5 198c0 66 -9 118.167 -27 156.5
s-42.5 65.833 -73.5 82.5s-66.167 25 -105.5 25c-35.333 0 -71 -7.5 -107 -22.5s-70 -36.333 -102 -64s-59.333 -59.834 -82 -96.501l-42 114c20 42.667 49.167 82.5 87.5 119.5s83 66.833 134 89.5s105.833 34 164.5 34c108.667 0 196.5 -34.5 263.5 -103.5
s100.5 -176.167 100.5 -321.5c0 -88.667 -18.333 -166.667 -55 -234s-87.167 -119.666 -151.5 -156.999s-137.833 -56 -220.5 -56z" />
    <glyph glyph-name="seven" unicode="7" horiz-adv-x="1080" 
d="M940 1266c9.33301 -20 18.0039 -42.167 26.0039 -66.5s12 -45.5 12 -63.5c0 -12.667 -2.83301 -26.834 -8.5 -42.501s-15.167 -32.5 -28.5 -50.5c-65.333 -88 -121.833 -171.167 -169.5 -249.5s-87.5 -155.333 -119.5 -231s-57.5 -153.5 -76.5 -233.5
s-32.5 -165.667 -40.5 -257l-7 -72c-14 -3.33301 -30.333 -5.66602 -49 -6.99902s-38.334 -2 -59.001 -2c-18 0 -36.667 0.666992 -56 2s-36.333 3.66602 -51 6.99902l8 82c11.333 122 37.666 244.333 78.999 367s94.333 239.5 159 350.5s138.334 209.833 221.001 296.5
l-7 8c-14 -2.66699 -35 -5.16699 -63 -7.5s-58.333 -4.16602 -91 -5.49902s-62.834 -2.33301 -90.501 -3s-47.834 -1 -60.501 -1h-328c-6.66699 22.667 -10 46.667 -10 72c0 18.667 1.66699 37.167 5 55.5s7.66602 35.5 12.999 51.5h792z" />
    <glyph glyph-name="eight" unicode="8" horiz-adv-x="1080" 
d="M98 318c0 62.667 15.501 119.502 46.501 170.502s71 94.167 120 129.5s100.167 61 153.5 77l157 -60c-88 -26 -154.167 -67.167 -198.5 -123.5s-66.5 -115.5 -66.5 -177.5c0 -67.333 22 -119.166 66 -155.499s97.667 -54.5 161 -54.5
c42.667 0 81.334 8.83301 116.001 26.5s62.167 42.167 82.5 73.5s30.5 68.666 30.5 111.999c0 44 -11.667 82 -35 114s-53.833 58.833 -91.5 80.5s-78.167 39.167 -121.5 52.5l-34 11c-67.333 21.333 -127.5 48.166 -180.5 80.499s-94.667 71.666 -125 117.999
s-45.5 100.833 -45.5 163.5c0 65.333 18 123.333 54 174s84.5 90.334 145.5 119.001s129.833 43 206.5 43c80 0 150.5 -13.833 211.5 -41.5s108.5 -66.167 142.5 -115.5s51 -105.666 51 -168.999c0 -54 -13.167 -102.5 -39.5 -145.5s-61 -79.333 -104 -109
s-88.5 -51.5 -136.5 -65.5l-151 61c70.667 20 126 52.5 166 97.5s60 95.833 60 152.5s-19.5 101.167 -58.5 133.5s-86.5 48.5 -142.5 48.5c-54.667 0 -101.167 -16.333 -139.5 -49s-57.5 -76.334 -57.5 -131.001c0 -54 20.833 -97.5 62.5 -130.5s97.5 -59.167 167.5 -78.5
l35 -11c70 -20.667 133.167 -49 189.5 -85s101.166 -80.333 134.499 -133s50 -115 50 -187c0 -75.333 -20.333 -139.833 -61 -193.5s-95.167 -94.834 -163.5 -123.501s-143.5 -43 -225.5 -43c-128.667 0 -232.834 30 -312.501 90s-119.5 144.667 -119.5 254z" />
    <glyph glyph-name="nine" unicode="9" horiz-adv-x="1080" 
d="M527 1292c58.667 0 108.168 -7.49902 148.501 -22.499s73.166 -32.667 98.499 -53s43.666 -37.833 54.999 -52.5c9.33301 -10.667 21.666 -26.834 36.999 -48.501s31 -52 47 -91s29.5 -90.333 40.5 -154s16.5 -143.167 16.5 -238.5c0 -134 -19.5 -250.167 -58.5 -348.5
s-96.833 -174.5 -173.5 -228.5s-171.334 -81 -284.001 -81c-56.667 0 -110.334 5.66699 -161.001 17s-93.334 26.666 -128.001 45.999c2.66699 26.667 10.334 54 23.001 82s29.667 49.667 51 65c26 -10.667 55.667 -20.5 89 -29.5s71.333 -13.5 114 -13.5
c74.667 0 134.834 18.833 180.501 56.5s78.834 88.5 99.501 152.5s31 136 31 216v172c0 34 -2.66699 71.167 -8 111.5s-14 78.833 -26 115.5s-28 68 -48 94c-16 20.667 -36.167 37.834 -60.5 51.501s-53.166 20.5 -86.499 20.5c-69.333 0 -122.166 -25 -158.499 -75
s-54.5 -116 -54.5 -198c0 -66 9 -118.167 27 -156.5s42.5 -65.833 73.5 -82.5s66.167 -25 105.5 -25c35.333 0 71 7.5 107 22.5s70 36.333 102 64s59.333 59.834 82 96.501l42 -114c-20 -42.667 -49.167 -82.5 -87.5 -119.5s-83 -66.667 -134 -89
s-105.833 -33.5 -164.5 -33.5c-108.667 0 -196.5 34.333 -263.5 103s-100.5 175.667 -100.5 321c0 88.667 18.333 166.667 55 234s87.167 119.666 151.5 156.999s137.833 56 220.5 56z" />
    <glyph glyph-name="colon" unicode=":" horiz-adv-x="538" 
d="M127 109c0 12 1.5 28.667 4.5 50s7.83301 38 14.5 50c13.333 7.33301 31.666 13.5 54.999 18.5s45.666 7.5 66.999 7.5c20 0 42.167 -2.5 66.5 -7.5s42.833 -11.167 55.5 -18.5c6.66699 -12 11.667 -28.667 15 -50s5 -38 5 -50s-1.66699 -28.667 -5 -50
s-8.33301 -37.666 -15 -48.999c-11.333 -8 -29.5 -14.333 -54.5 -19s-47.5 -7 -67.5 -7c-21.333 0 -43.666 2.33301 -66.999 7s-41.666 11 -54.999 19c-6.66699 11.333 -11.5 27.666 -14.5 48.999s-4.5 38 -4.5 50zM127 767c0 12 1.5 28.667 4.5 50s7.83301 38 14.5 50
c13.333 7.33301 31.666 13.5 54.999 18.5s45.666 7.5 66.999 7.5c20 0 42.167 -2.5 66.5 -7.5s42.833 -11.167 55.5 -18.5c6.66699 -12 11.667 -28.667 15 -50s5 -38 5 -50s-1.66699 -28.667 -5 -50s-8.33301 -37.666 -15 -48.999c-11.333 -8 -29.5 -14.333 -54.5 -19
s-47.5 -7 -67.5 -7c-21.333 0 -43.666 2.33301 -66.999 7s-41.666 11 -54.999 19c-6.66699 11.333 -11.5 27.666 -14.5 48.999s-4.5 38 -4.5 50z" />
    <glyph glyph-name="semicolon" unicode=";" horiz-adv-x="546" 
d="M391 208c7.33301 -17.333 12.8369 -37.6689 16.5039 -61.002s5.5 -47 5.5 -71c0 -56 -10.833 -110.167 -32.5 -162.5s-54.334 -99.166 -98.001 -140.499s-98.5 -73 -164.5 -95c-18.667 9.33301 -32.834 24 -42.501 44s-13.5 39.667 -11.5 59c46 20 84.333 47.667 115 83
s47.667 75 51 119c-13.333 2 -28 5.5 -44 10.5s-28.333 10.5 -37 16.5c-4.66699 9.33301 -8.83398 23.5 -12.501 42.5s-5.5 36.833 -5.5 53.5c0 17.333 1.66699 36.5 5 57.5s7.66602 35.833 12.999 44.5c12 6.66699 30.333 12.834 55 18.501s47 8.5 67 8.5s42 -2.5 66 -7.5
s42 -11.5 54 -19.5zM131.004 766.997c0 12 1.5 28.667 4.5 50s7.83301 38 14.5 50c13.333 7.33301 31.666 13.5 54.999 18.5s45.666 7.5 66.999 7.5c20 0 42.167 -2.5 66.5 -7.5s42.833 -11.167 55.5 -18.5c6.66699 -12 11.667 -28.667 15 -50s5 -38 5 -50
s-1.66699 -28.667 -5 -50s-8.33301 -37.666 -15 -48.999c-11.333 -8 -29.5 -14.333 -54.5 -19s-47.5 -7 -67.5 -7c-21.333 0 -43.666 2.33301 -66.999 7s-41.666 11 -54.999 19c-6.66699 11.333 -11.5 27.666 -14.5 48.999s-4.5 38 -4.5 50z" />
    <glyph glyph-name="less" unicode="&#x3c;" horiz-adv-x="1080" 
d="M856 1112c24.667 -14.667 46.168 -36.666 64.501 -65.999s28.833 -61.333 31.5 -96l-475 -249c-18.667 -10 -43.834 -22.167 -75.501 -36.5l-71.5 -32.5v-13c16 -6.66699 39.833 -17.334 71.5 -32.001l75.5 -36l475 -249c-3.33301 -34 -14.333 -66.167 -33 -96.5
s-39.667 -52.833 -63 -67.5l-738 405c-6.66699 24.667 -10.5 52 -11.5 82s2.83301 57.667 11.5 83z" />
    <glyph glyph-name="equal" unicode="=" horiz-adv-x="1080" 
d="M123 349c-3.33301 13.333 -5.66602 27.833 -6.99902 43.5s-2 30.167 -2 43.5c0 14 0.666992 29 2 45s3.66602 31.333 6.99902 46h834c3.33301 -14.667 5.66602 -30 6.99902 -46s2 -31 2 -45c0 -13.333 -0.666992 -27.833 -2 -43.5s-3.66602 -30.167 -6.99902 -43.5h-834z
M123 733c-3.33301 13.333 -5.66602 28 -6.99902 44s-2 30.667 -2 44c0 14 0.666992 29 2 45s3.66602 31 6.99902 45h834c3.33301 -14 5.66602 -29 6.99902 -45s2 -31 2 -45c0 -13.333 -0.666992 -28 -2 -44s-3.66602 -30.667 -6.99902 -44h-834z" />
    <glyph glyph-name="greater" unicode="&#x3e;" horiz-adv-x="1067" 
d="M217 141c-24 14.667 -45.168 36.834 -63.501 66.501s-29.166 61.5 -32.499 95.5l476 250c18 9.33301 42.833 21.166 74.5 35.499l72.5 32.5v13l-72.5 32.5c-31.667 14.333 -56.5 26.166 -74.5 35.499l-476 249c4 34.667 15.167 67 33.5 97s39.5 52.333 63.5 67l739 -405
c6 -24 9.5 -51.167 10.5 -81.5s-2.5 -58.166 -10.5 -83.499z" />
    <glyph glyph-name="question" unicode="?" horiz-adv-x="791" 
d="M22 1290c54 29.333 113.666 53.666 178.999 72.999s132.666 29 201.999 29c114 0 204.5 -31.167 271.5 -93.5s100.5 -145.166 100.5 -248.499c0 -92.667 -25.167 -170.167 -75.5 -232.5s-112.166 -113.833 -185.499 -154.5l-125 -70l-16 -203
c-12 -4.66699 -24.5 -7.83398 -37.5 -9.50098s-26.167 -2.5 -39.5 -2.5s-27.333 0.833008 -42 2.5s-28 4.83398 -40 9.50098l-12 298l17 22l98 49c70.667 36 127.834 75.667 171.501 119s65.5 94 65.5 152c0 53.333 -17.333 96.5 -52 129.5s-82.667 49.5 -144 49.5
c-46 0 -91 -7.16699 -135 -21.5s-85.667 -31.833 -125 -52.5c-18.667 15.333 -35.5 38 -50.5 68s-23.5 59 -25.5 87zM294.999 217c20 0 40.667 -2.16699 62 -6.5s38.666 -10.5 51.999 -18.5c5.33301 -8.66699 9.5 -23 12.5 -43s4.5 -37 4.5 -51
c0 -13.333 -1.5 -29.833 -4.5 -49.5s-7.16699 -34.167 -12.5 -43.5c-13.333 -7.33301 -30.666 -13.333 -51.999 -18s-42 -7 -62 -7c-21.333 0 -42.166 2.33301 -62.499 7s-37.166 10.667 -50.499 18c-5.33301 9.33301 -9.5 23.833 -12.5 43.5s-4.5 36.167 -4.5 49.5
c0 14 1.5 31 4.5 51s7.16699 34.333 12.5 43c13.333 8 30.166 14.167 50.499 18.5s41.166 6.5 62.499 6.5z" />
    <glyph glyph-name="at" unicode="@" horiz-adv-x="1898" 
d="M1325 314c0 -50 7.00293 -85.502 21.0029 -106.502s36 -31.5 66 -31.5c32.667 0 64.167 12.833 94.5 38.5s55.166 68.5 74.499 128.5s29 141 29 243c0 124 -25.833 232 -77.5 324s-124.667 163.5 -219 214.5s-204.833 76.5 -331.5 76.5
c-102 0 -194.5 -18.833 -277.5 -56.5s-154 -90.334 -213 -158.001s-104.333 -147 -136 -238s-47.5 -190.167 -47.5 -297.5c0 -145.333 25 -267.5 75 -366.5s119.833 -173.833 209.5 -224.5s194.167 -76 313.5 -76c72.667 0 143.167 6.16699 211.5 18.5
s132.833 30.5 193.5 54.5c16.667 -16.667 30.167 -38.667 40.5 -66s15.5 -53.666 15.5 -78.999c-46.667 -18 -96.5 -33.667 -149.5 -47s-106.833 -23.666 -161.5 -30.999s-109 -11 -163 -11c-153.333 0 -289.5 31 -408.5 93s-212.667 154.5 -281 277.5
s-102.5 275.5 -102.5 457.5c0 129.333 21.667 249 65 359s104.166 205.833 182.499 287.5s171.166 145 278.499 190s225.666 67.5 354.999 67.5c121.333 0 232.833 -18 334.5 -54s189.667 -87.833 264 -155.5s131.833 -149.167 172.5 -244.5s61 -202.333 61 -321
c0 -124 -19.833 -227.667 -59.5 -311s-90.5 -146 -152.5 -188s-127.667 -63 -197 -63c-56.667 0 -105.667 11.667 -147 35s-73.166 55 -95.499 95s-33.5 86 -33.5 138v466c-16.667 16.667 -38.5 30.834 -65.5 42.501s-56.167 17.5 -87.5 17.5
c-47.333 0 -86.166 -16 -116.499 -48s-53 -74.833 -68 -128.5s-22.5 -112.5 -22.5 -176.5c0 -86.667 12.333 -156 37 -208s66 -78 124 -78c30 0 60.833 9 92.5 27s60.5 41.167 86.5 69.5s45.333 58.166 58 89.499l76 -102c-16.667 -39.333 -43 -77.833 -79 -115.5
s-78.167 -69 -126.5 -94s-98.833 -37.5 -151.5 -37.5c-66.667 0 -123.834 18.333 -171.501 55s-84.167 88 -109.5 154s-38 144 -38 234c0 94 15.667 179.667 47 257s77.5 138.833 138.5 184.5s135.5 68.5 223.5 68.5c70.667 0 136.5 -13.667 197.5 -41
s111.5 -59.666 151.5 -96.999v-511z" />
    <glyph glyph-name="A" unicode="A" horiz-adv-x="1223" 
d="M491 1366c16.667 2.66699 36.999 4.66504 60.999 5.99805s45 2 63 2c16.667 0 37 -0.666992 61 -2s43.333 -3.66602 58 -6.99902l449 -1352c-15.333 -9.33301 -34.166 -16.166 -56.499 -20.499s-44.833 -6.5 -67.5 -6.5c-34 0 -60.167 7.66699 -78.5 23
s-34.5 45.333 -48.5 90l-220 695c-18.667 58 -37.5 119.667 -56.5 185s-35.5 124.333 -49.5 177h-10c-6.66699 -30 -14.834 -62.833 -24.501 -98.5l-28.5 -104c-9.33301 -33.667 -17.666 -62.5 -24.999 -86.5l-276 -869c-13.333 -2.66699 -28 -4.66699 -44 -6s-32 -2 -48 -2
c-18.667 0 -37 1.33301 -55 4s-34.333 6 -49 10l-6 11zM463.999 329.998c-6 0 -18.501 0.166992 -37.501 0.5l-57.5 1c-19.333 0.333008 -32 0.5 -38 0.5h-99l66 173h87c6.66699 0 18.334 0.166992 35.001 0.5l50 1c16.667 0.333008 28.334 0.5 35.001 0.5h199
c6 0 17.5 -0.166992 34.5 -0.5l52 -1c17.667 -0.333008 29.5 -0.5 35.5 -0.5h90l57 -173h-99c-6.66699 0 -19.834 -0.166992 -39.501 -0.5l-58 -1c-19 -0.333008 -31.5 -0.5 -37.5 -0.5h-275z" />
    <glyph glyph-name="B" unicode="B" horiz-adv-x="1210" 
d="M194 1367c73.333 2 144.33 3.66797 212.997 5.00098s136.334 2 203.001 2c98 0 179.333 -14.5 244 -43.5s113 -70.5 145 -124.5s48 -118.333 48 -193c0 -51.333 -11.167 -98.5 -33.5 -141.5s-53.166 -78.5 -92.499 -106.5s-84.666 -44.667 -135.999 -50v29
c55.333 -1.33301 108 -18 158 -50s90.667 -75 122 -129s47 -114.667 47 -182c0 -74.667 -16.667 -141.334 -50 -200.001s-85 -105.167 -155 -139.5s-160.667 -51.5 -272 -51.5c-80.667 0 -155.5 0.666992 -224.5 2s-141.167 3 -216.5 5l-13 12v1344zM391.997 152.001
c42 0 83.499 0.333984 124.499 1.00098s80.5 1 118.5 1c54 0 98 7.5 132 22.5s60.167 34.667 78.5 59s31 50.5 38 78.5s10.5 54.667 10.5 80c0 33.333 -7.83301 68.666 -23.5 105.999s-43.167 69.166 -82.5 95.499s-94.666 39.5 -165.999 39.5h-314v165h294
c62 0 109.667 10.5 143 31.5s56.333 47.5 69 79.5s19 64 19 96s-6 63.833 -18 95.5s-34.167 57.834 -66.5 78.501s-79.833 31 -142.5 31h-103.5c-41 0 -77.833 0.666992 -110.5 2v-1062z" />
    <glyph glyph-name="C" unicode="C" horiz-adv-x="1207" 
d="M921 894c0 50 -8.16992 100.165 -24.5029 150.498s-44.833 92 -85.5 125s-97 49.5 -169 49.5c-105.333 0 -184.833 -46 -238.5 -138s-80.5 -227 -80.5 -405c0 -165.333 29.333 -292.666 88 -381.999s139.667 -134 243 -134c62 0 122.667 13.167 182 39.5
s117.666 63.833 174.999 112.5c23.333 -15.333 45.333 -36 66 -62s34.334 -51.333 41.001 -76c-37.333 -36.667 -81.666 -70.167 -132.999 -100.5s-108.166 -54.5 -170.499 -72.5s-127.833 -27 -196.5 -27c-95.333 0 -176.166 19.667 -242.499 59
s-119.833 92.5 -160.5 159.5s-70.167 142.333 -88.5 226s-27.5 169.834 -27.5 258.501c0 165.333 25.167 300.833 75.5 406.5s117 183.5 200 233.5s173.833 75 272.5 75s184 -18.333 256 -55s127.667 -84.667 167 -144s59 -123 59 -191c0 -36 -9.33301 -65.167 -28 -87.5
s-49.667 -33.5 -93 -33.5c-16 0 -30.5 1.16699 -43.5 3.5s-27.5 5.5 -43.5 9.5z" />
    <glyph glyph-name="D" unicode="D" horiz-adv-x="1296" 
d="M1195 683c0 -78 -5.16699 -152.832 -15.5 -224.499s-30.666 -138.334 -60.999 -200.001s-75.5 -117.167 -135.5 -166.5c-29.333 -24 -64.5 -43.5 -105.5 -58.5s-83 -25.833 -126 -32.5s-82.167 -10 -117.5 -10c-54 0 -103.333 0.333008 -148 1s-90 1.66699 -136 3
s-98 2.66602 -156 3.99902l-13 12v1344l13 12c57.333 2 109 3.5 155 4.5s91.5 1.66699 136.5 2s94.5 0.5 148.5 0.5c35.333 0 74.5 -3.5 117.5 -10.5s85.167 -18 126.5 -33s76.333 -34.5 105 -58.5c59.333 -49.333 104.166 -104.833 134.499 -166.5
s50.833 -128.167 61.5 -199.5s16 -145.666 16 -222.999zM973 683.001c0 59.333 -4 119.67 -12 181.003s-23.5 117.5 -46.5 168.5s-57.167 92 -102.5 123s-105 46.5 -179 46.5c-42 0 -81 0.333008 -117 1s-76.667 1 -122 1v-1041c45.333 0.666992 86 0.666992 122 0
s75 -1 117 -1c74 0 133.667 15.667 179 47s79.5 72.666 102.5 123.999s38.5 107.666 46.5 168.999s12 121.666 12 180.999z" />
    <glyph glyph-name="E" unicode="E" horiz-adv-x="1132" 
d="M180 1353l13 13.001h195v-175c0 -28 0.333008 -50.833 1 -68.5s1 -40.167 1 -67.5v-779c0 -18 -0.333008 -34.667 -1 -50s-1 -32.333 -1 -51v-177h-86c-37.333 0 -67 11.667 -89 35s-33 55.666 -33 96.999v1223zM890 778.001c3.33301 -14 5.83301 -29.333 7.5 -46
s2.5 -30.667 2.5 -42c0 -12 -0.833008 -26.167 -2.5 -42.5s-4.16699 -31.833 -7.5 -46.5h-376c-15.333 0 -34.666 0.166992 -57.999 0.5l-72.5 1c-25 0.333008 -47.5 0.833008 -67.5 1.5v172c20 0 42.5 0.166992 67.5 0.5l72.5 1c23.333 0.333008 42.666 0.5 57.999 0.5h376
zM998 1366c3.33301 -16 5.33301 -31.167 6 -45.5s1 -27.5 1 -39.5s-1.33301 -26.833 -4 -44.5s-7 -34.5 -13 -50.5h-474h-58c-23.333 0 -47.5 0.166992 -72.5 0.5s-47.5 0.833008 -67.5 1.5v178h682zM1037 179.001c0 -64.667 -9.99902 -111 -29.999 -139s-57 -42 -111 -42
h-580v172l95 6c31.333 2 67.666 3 108.999 3h517z" />
    <glyph glyph-name="F" unicode="F" horiz-adv-x="1043" 
d="M394 0c-16 -2.66699 -33.333 -4.66699 -52 -6s-36.667 -2 -54 -2c-16.667 0 -34.667 0.666992 -54 2s-37 3.33301 -53 6v1354l13 12h198v-105c0 -52 0.333008 -104.167 1 -156.5s1 -103.833 1 -154.5v-950zM986 1366c4 -12 7 -25.8311 9 -41.498s3 -29.834 3 -42.501
c0 -34.667 -10 -59.834 -30 -75.501s-50 -23.5 -90 -23.5h-294c-55.333 0 -105.333 0.5 -150 1.5s-86 2.5 -124 4.5v177h676zM880 776.002c3.33301 -13.333 5.83301 -28.5 7.5 -45.5s2.5 -31.5 2.5 -43.5c0 -11.333 -0.833008 -25.333 -2.5 -42s-4.16699 -32 -7.5 -46h-401
c-24.667 0 -52 0.333008 -82 1s-57.667 1 -83 1v173c25.333 0 53 0.333008 83 1s57.333 1 82 1h401z" />
    <glyph glyph-name="G" unicode="G" horiz-adv-x="1286" 
d="M1157 1245c-5.33301 -32.667 -18.501 -63.666 -39.501 -92.999s-42.167 -51 -63.5 -65c-47.333 36 -102.333 65.5 -165 88.5s-126 34.5 -190 34.5c-71.333 0 -135.833 -17.5 -193.5 -52.5s-103.167 -91.833 -136.5 -170.5s-50 -184 -50 -316
c0 -177.333 33 -308.5 99 -393.5s165 -127.5 297 -127.5c70.667 0 136.167 7.83301 196.5 23.5s106.5 30.167 138.5 43.5l109 -158c-40 -15.333 -86.333 -29.333 -139 -42s-108.5 -23 -167.5 -31s-117.5 -12 -175.5 -12c-107.333 0 -197.833 18.5 -271.5 55.5
s-133 88.167 -178 153.5s-77.667 140 -98 224s-30.5 172.667 -30.5 266c0 127.333 16.667 236.5 50 327.5s78.5 165.333 135.5 223s121 100.167 192 127.5s144.167 41 219.5 41c82.667 0 165.334 -13.333 248.001 -40s153.667 -62.334 213 -107.001zM955.999 408.001
c0 46.667 1.16699 89.833 3.5 129.5s7.5 75.167 15.5 106.5l184 -63v-522l-203 -4v353zM1008 719c56 0 95.166 -12.166 117.499 -36.499s33.5 -58.166 33.5 -101.499v-45h-370c-17.333 0 -34.166 2.16699 -50.499 6.5s-29.5 13 -39.5 26s-15 32.5 -15 58.5
c0 15.333 1.5 31.166 4.5 47.499s6.83301 31.166 11.5 44.499h308z" />
    <glyph glyph-name="H" unicode="H" horiz-adv-x="1349" 
d="M506 614c-6.66699 0 -17.667 0.166992 -33 0.5l-47 1c-16 0.333008 -27.333 0.5 -34 0.5c-20 0 -40.833 -0.333008 -62.5 -1s-42.834 -1 -63.501 -1v183c20.667 0 41.834 -0.333008 63.501 -1s42.5 -1 62.5 -1c6.66699 0 18 0.166992 34 0.5l47 1
c15.333 0.333008 26.333 0.5 33 0.5h337c6.66699 0 17.834 -0.166992 33.501 -0.5l47 -1c15.667 -0.333008 26.834 -0.5 33.501 -0.5c20.667 0 41.667 0.333008 63 1s42.333 1 63 1v-183c-20.667 0 -41.667 0.333008 -63 1s-42.333 1 -63 1
c-6.66699 0 -17.834 -0.166992 -33.501 -0.5l-47 -1c-15.667 -0.333008 -26.834 -0.5 -33.501 -0.5h-337zM394 0c-16 -2.66699 -33.667 -4.66699 -53 -6s-37.666 -2 -54.999 -2c-15.333 0 -32.666 0.666992 -51.999 2s-37 3.33301 -53 6v1366
c16 2.66699 33.667 4.66699 53 6s36.666 2 51.999 2c17.333 0 35.666 -0.666992 54.999 -2s37 -3.33301 53 -6v-423c0 -28 -0.333008 -53 -1 -75s-1 -46.333 -1 -73v-179c0 -26.667 0.333008 -51 1 -73s1 -47 1 -75v-468zM955 468c0 28 0.330078 53 0.99707 75
s1 46.333 1 73v179c0 26.667 -0.333008 51 -1 73s-1 47 -1 75v423c16 2.66699 33.5 4.66699 52.5 6s36.5 2 52.5 2s33.833 -0.666992 53.5 -2s37.834 -3.33301 54.501 -6v-1366c-17.333 -2.66699 -35.166 -4.66699 -53.499 -6s-36.166 -2 -53.499 -2
c-16.667 0 -34.5 0.666992 -53.5 2s-36.5 3.33301 -52.5 6v468z" />
    <glyph glyph-name="I" unicode="I" horiz-adv-x="589" 
d="M188 1366c15.333 2.66699 32.833 4.66699 52.5 6s37.167 2 52.5 2c17.333 0 35.5 -0.666992 54.5 -2s36.833 -3.33301 53.5 -6v-1366c-16.667 -2.66699 -34.5 -4.66699 -53.5 -6s-37.167 -2 -54.5 -2c-15.333 0 -32.833 0.666992 -52.5 2s-37.167 3.33301 -52.5 6v1366z
" />
    <glyph glyph-name="J" unicode="J" horiz-adv-x="897" 
d="M100 224c29.333 -18 62.998 -33.334 100.998 -46.001s75.667 -19 113 -19c81.333 0 137.333 24.667 168 74s46 127.333 46 234v899c16 2.66699 33.833 4.66699 53.5 6s37.5 2 53.5 2s33.667 -0.666992 53 -2s36.666 -3.33301 51.999 -6v-869
c0 -73.333 -5.16699 -141.333 -15.5 -204s-29.833 -117.5 -58.5 -164.5s-70 -83.5 -124 -109.5s-124.333 -39 -211 -39c-51.333 0 -105.166 7.33301 -161.499 22s-106.166 35.334 -149.499 62.001c5.33301 29.333 14.833 57.833 28.5 85.5s30.834 52.5 51.501 74.5z" />
    <glyph glyph-name="K" unicode="K" horiz-adv-x="1193" 
d="M181 1366c16 2.66699 33.667 4.66699 53 6s36.666 2 51.999 2c17.333 0 35.666 -0.666992 54.999 -2s37 -3.33301 53 -6v-1366c-16 -2.66699 -33.667 -4.66699 -53 -6s-37.666 -2 -54.999 -2c-15.333 0 -32.666 0.666992 -51.999 2s-37 3.33301 -53 6v1366zM1160 55
c-14.667 -21.333 -35.6689 -37.8281 -63.002 -49.4951s-54.333 -17.5 -81 -17.5c-42 0 -72.167 10.667 -90.5 32s-35.166 53.666 -50.499 96.999l-108 292c-28 76 -59.667 129.167 -95 159.5s-82.666 45.5 -141.999 45.5c-21.333 0 -52.5 -0.833008 -93.5 -2.5
s-91.833 -4.16699 -152.5 -7.5v140h344c68 0 122.667 -9.83301 164 -29.5s75 -48.334 101 -86.001s49 -83.834 69 -138.501l109 -289c10 -28.667 19.5 -51.834 28.5 -69.501s18.5 -32.334 28.5 -44.001s20.667 -22.5 32 -32.5zM838.998 1286
c16 28.667 32.3301 50.167 48.9971 64.5s43 21.5 79 21.5c18 0 37.5 -0.5 58.5 -1.5s41.833 -2.16699 62.5 -3.5l14 -18l-303 -513c-29.333 -52 -66.166 -93 -110.499 -123s-100.166 -45 -167.499 -45h-237v123c34 1.33301 71.333 2.5 112 3.5s77.334 1.5 110.001 1.5
c20 0 34.833 4.16699 44.5 12.5s20.167 22.833 31.5 43.5z" />
    <glyph glyph-name="L" unicode="L" horiz-adv-x="1024" 
d="M394 -2h-90c-36 0 -65.667 11.333 -89 34s-35 55.667 -35 99v1231l13 12h82c43.333 0 74 -11 92 -33s27 -56 27 -102v-1241zM969 184c0 -72 -10.999 -121.001 -32.999 -147.001s-58.667 -39 -110 -39h-522l-110 156c62 10.667 126.667 18.334 194 23.001
s128.666 7 183.999 7h397z" />
    <glyph glyph-name="M" unicode="M" horiz-adv-x="1616" 
d="M254 1365c24 4.66699 49.6689 7.33496 77.002 8.00195s49.666 1 66.999 1s38.166 -0.333008 62.499 -1s48.5 -3.33398 72.5 -8.00098l190 -626c4.66699 -15.333 10.834 -37.5 18.501 -66.5l24 -94l22.5 -93.5c6.66699 -28.667 11.334 -49.667 14.001 -63h11
c2 13.333 6.33301 34.333 13 63l22.5 93.5c8.33301 33.667 16.5 65 24.5 94s14.333 51.167 19 66.5l191 626c25.333 4.66699 49.666 7.33398 72.999 8.00098s44 1 62 1c16.667 0 38.5 -0.333008 65.5 -1s53.167 -3.33398 78.5 -8.00098l106 -1362
c-15.333 -4.66699 -33 -7.83398 -53 -9.50098s-38.667 -2.5 -56 -2.5c-16.667 0 -32.667 0.5 -48 1.5s-31 2.83301 -47 5.5l-47 731c-2 36.667 -4 79.167 -6 127.5s-3.83301 97.166 -5.5 146.499l-4.5 133h-11l-275 -927c-16 -2.66699 -34 -4.66699 -54 -6
s-38.333 -2 -55 -2c-15.333 0 -33 0.666992 -53 2s-37.667 3.33301 -53 6l-275 927h-11l-4.5 -133l-5 -146.5c-1.66699 -48.333 -3.83398 -90.833 -6.50098 -127.5l-48 -731c-15.333 -2.66699 -31 -4.5 -47 -5.5s-32.333 -1.5 -49 -1.5c-18 0 -36.667 0.833008 -56 2.5
s-36 4.83398 -50 9.50098z" />
    <glyph glyph-name="N" unicode="N" horiz-adv-x="1360" 
d="M181 1364c16.667 3.33301 38 5.83203 64 7.49902s47 2.5 63 2.5c16.667 0 36.667 -0.666992 60 -2s45.666 -3.33301 66.999 -6l-56 -248l-16 -3c2.66699 -46.667 5.16699 -98.5 7.5 -155.5s4.33301 -114.667 6 -173s2.5 -112.166 2.5 -161.499v-625
c-18 -2.66699 -35.333 -4.66699 -52 -6s-32 -2 -46 -2c-13.333 0 -29.166 0.666992 -47.499 2s-35.833 3.33301 -52.5 6v1364zM497 838.999l-68 144l-60 134l-100 120l166 129l423 -838l71.5 -153.5l62.5 -135.5l105 -111l-174 -128zM1178 1363v-1361
c-16.667 -3.33301 -37.334 -5.83301 -62.001 -7.5s-46.667 -2.5 -66 -2.5c-20 0 -41 0.666992 -63 2s-43.333 3.33301 -64 6l58 238l17 2c-3.33301 53.333 -6.16602 110.166 -8.49902 170.499s-4.16602 119.5 -5.49902 177.5s-2 110 -2 156v498
c0 46.667 8.16699 80.334 24.5 101.001s46.166 31 89.499 31h70z" />
    <glyph glyph-name="O" unicode="O" horiz-adv-x="1316" 
d="M322 684c0 -60.667 4.5 -122.5 13.5 -185.5s25.5 -121.333 49.5 -175s58 -97 102 -130s101 -49.5 171 -49.5c69.333 0 126 16.5 170 49.5s77.833 76.333 101.5 130s40 112 49 175s13.5 124.833 13.5 185.5s-4.5 122.5 -13.5 185.5s-25.333 121.167 -49 174.5
s-57.5 96.333 -101.5 129s-100.667 49 -170 49c-70 0 -127 -16.333 -171 -49s-78 -75.667 -102 -129s-40.5 -111.5 -49.5 -174.5s-13.5 -124.833 -13.5 -185.5zM99 684c0 134.667 20.166 255.333 60.499 362s101.833 191 184.5 253s187.334 93 314.001 93
c95.333 0 178 -17.833 248 -53.5s128 -85.667 174 -150s80.333 -139.333 103 -225s34 -178.834 34 -279.501c0 -135.333 -20.333 -256.5 -61 -363.5s-102.167 -191.5 -184.5 -253.5s-186.833 -93 -313.5 -93c-96 0 -179 17.833 -249 53.5s-128 85.834 -174 150.501
s-80.167 140 -102.5 226s-33.5 179.333 -33.5 280z" />
    <glyph glyph-name="P" unicode="P" horiz-adv-x="1136" 
d="M1064 929c0 -98 -19.5049 -180.001 -58.5049 -246.001s-93 -115.833 -162 -149.5s-148.167 -50.5 -237.5 -50.5h-301v164c22 1.33301 52.5 2.33301 91.5 3s77.667 1.16699 116 1.5s66.833 0.5 85.5 0.5c66.667 0 117.667 14.833 153 44.5s59.5 65.834 72.5 108.501
s19.5 84 19.5 124c0 40.667 -6.5 82.167 -19.5 124.5s-37.167 78 -72.5 107s-86.333 43.5 -153 43.5h-98c-37.333 0 -72.666 0.666992 -105.999 2v-1206c-16 -2.66699 -33.667 -4.66699 -53 -6s-37.666 -2 -54.999 -2c-15.333 0 -32.666 0.666992 -51.999 2
s-37 3.33301 -53 6v1355l13 12c75.333 2 145.833 3.66699 211.5 5s132.5 2 200.5 2c88.667 0 167.334 -16.333 236.001 -49s122.834 -82 162.501 -148s59.5 -148.667 59.5 -248z" />
    <glyph glyph-name="Q" unicode="Q" horiz-adv-x="1303" 
d="M320 684c0 -61.333 4.33301 -123.333 13 -186s24.667 -120.5 48 -173.5s56.833 -95.667 100.5 -128s100.5 -48.5 170.5 -48.5c69.333 0 125.833 16.167 169.5 48.5s77 75 100 128s38.667 110.833 47 173.5s12.5 124.667 12.5 186s-4.16699 123.5 -12.5 186.5
s-24 121.167 -47 174.5s-56.333 96.166 -100 128.499s-100.167 48.5 -169.5 48.5c-70 0 -126.833 -16.167 -170.5 -48.5s-77.167 -75.166 -100.5 -128.499s-39.333 -111.5 -48 -174.5s-13 -125.167 -13 -186.5zM99 684c0 135.333 19.332 256.334 57.999 363.001
s98.667 190.834 180 252.501s186.333 92.5 315 92.5c129.333 0 234.5 -31 315.5 -93s140.833 -146.5 179.5 -253.5s58 -227.833 58 -362.5c0 -80 -8.16699 -158.833 -24.5 -236.5s-41.166 -148.334 -74.499 -212.001s-75.833 -114.834 -127.5 -153.501
s-112.834 -58.667 -183.501 -60c-19.333 -12 -38.833 -22.833 -58.5 -32.5s-45.5 -14.5 -77.5 -14.5c-132 0 -239.167 30.833 -321.5 92.5s-142.666 146 -180.999 253s-57.5 228.5 -57.5 364.5zM589.999 42.001l216.997 71l143 -103c42.667 -29.333 78.334 -52 107.001 -68
s54.334 -27.167 77.001 -33.5s45.667 -9.5 69 -9.5c-2 -52 -17.667 -90.833 -47 -116.5s-61.333 -38.5 -96 -38.5c-32.667 0 -61.167 5 -85.5 15s-47.166 23.333 -68.499 40z" />
    <glyph glyph-name="R" unicode="R" horiz-adv-x="1201" 
d="M1079 964c0 -61.333 -11.332 -116.671 -33.999 -166.004s-53.334 -90.833 -92.001 -124.5s-82 -58.167 -130 -73.5c32.667 -11.333 60.834 -32.666 84.501 -63.999s42.5 -66.666 56.5 -105.999l89 -234c14.667 -39.333 28.667 -69.666 42 -90.999s29 -39 47 -53
c-14 -20.667 -34.833 -36.834 -62.5 -48.501s-54.834 -17.5 -81.501 -17.5c-40 0 -69.333 11 -88 33s-36 54.667 -52 98l-100 270c-16.667 46 -39 84.5 -67 115.5s-73 46.5 -135 46.5h-250v167c29.333 1.33301 63 2.5 101 3.5s75.5 1.83301 112.5 2.5s68.5 1 94.5 1
c65.333 0 115.666 12 150.999 36s59.666 54.5 72.999 91.5s20 74.833 20 113.5c0 40.667 -6.66699 79.334 -20 116.001s-37.666 66.834 -72.999 90.501s-85.666 35.5 -150.999 35.5h-67.5c-25.667 0 -52 0.166992 -79 0.5s-51.833 0.833008 -74.5 1.5v-1208
c-16.667 -2.66699 -34.5 -4.66699 -53.5 -6s-36.833 -2 -53.5 -2c-16 0 -33.5 0.666992 -52.5 2s-36.5 3.33301 -52.5 6v1355l13 12c75.333 2 149 3.66699 221 5s142 2 210 2c92.667 0 173 -15.667 241 -47s120.5 -77.5 157.5 -138.5s55.5 -135.833 55.5 -224.5z" />
    <glyph glyph-name="S" unicode="S" horiz-adv-x="1111" 
d="M60 124c2.66699 30 12.833 60.3311 30.5 90.998s37.5 54.667 59.5 72c58 -38 122.333 -70 193 -96s140.667 -39 210 -39c80 0 142.333 17.667 187 53s67 80.333 67 135c0 47.333 -15.667 89 -47 125s-76.333 66.333 -135 91l-242 101c-84 36 -150.833 81.667 -200.5 137
s-74.5 125.666 -74.5 210.999c0 72.667 19.167 138.334 57.5 197.001s91.333 105 159 139s146.5 51 236.5 51c82.667 0 160.834 -10.833 234.501 -32.5s136.5 -45.167 188.5 -70.5c-1.33301 -30.667 -8.83301 -61.167 -22.5 -91.5s-31.834 -55.5 -54.501 -75.5
c-52 26 -109.167 48.167 -171.5 66.5s-119.5 27.5 -171.5 27.5c-74 0 -132.167 -18.167 -174.5 -54.5s-63.5 -80.5 -63.5 -132.5c0 -44 15.333 -80 46 -108s70.667 -52.333 120 -73l239 -99c56.667 -24 107.667 -53.667 153 -89s81 -76.666 107 -123.999s39 -101 39 -161
c0 -76 -18 -144.333 -54 -205s-90.167 -108.5 -162.5 -143.5s-163.5 -52.5 -273.5 -52.5c-82.667 0 -166.667 13.333 -252 40s-161.333 63.334 -228 110.001z" />
    <glyph glyph-name="T" unicode="T" horiz-adv-x="984" 
d="M35 1186c-3.33301 15.333 -5.66602 30.834 -6.99902 46.501s-2 30.167 -2 43.5s0.666992 27.666 2 42.999s3.66602 31 6.99902 47h919c4 -12 7 -25.667 9 -41s3 -29.666 3 -42.999c0 -34.667 -9.66699 -59.334 -29 -74.001s-49.333 -22 -90 -22h-131
c-13.333 0 -32.5 0.333008 -57.5 1s-44.167 1 -57.5 1h-213c-14 0 -33.333 -0.333008 -58 -1s-43.667 -1 -57 -1h-238zM388 1040l-0.000976562 73.5v74.5v88h212v-88c0 -28 0.166992 -52.833 0.5 -74.5s0.5 -46.167 0.5 -73.5v-1040
c-16.667 -2.66699 -34.667 -4.66699 -54 -6s-36.666 -2 -51.999 -2c-16.667 0 -34.5 0.666992 -53.5 2s-36.833 3.33301 -53.5 6v1040z" />
    <glyph glyph-name="U" unicode="U" horiz-adv-x="1338" 
d="M1174 480c0 -110.667 -20.832 -203.5 -62.499 -278.5s-100.5 -131.667 -176.5 -170s-165 -57.5 -267 -57.5s-190.667 19.167 -266 57.5s-133.833 95 -175.5 170s-62.5 167.833 -62.5 278.5v882l12 12h82c43.333 0 74 -11 92 -33s27 -56 27 -102v-759
c0 -109.333 24.667 -192.333 74 -249s121.666 -85 216.999 -85c96.667 0 169.667 28.333 219 85s74 139.667 74 249v886c15.333 2.66699 32.5 4.66699 51.5 6s36.5 2 52.5 2s34.167 -0.666992 54.5 -2s38.5 -3.33301 54.5 -6v-886z" />
    <glyph glyph-name="V" unicode="V" horiz-adv-x="1149" 
d="M917 1366c14 3.33301 28.8389 5.50098 44.5059 6.50098s31.5 1.5 47.5 1.5c15.333 0 32.166 -1.16699 50.499 -3.5s34.166 -5.16602 47.499 -8.49902l9 -15l-397 -1348c-26 -2.66699 -53 -4.66699 -81 -6s-55.667 -2 -83 -2c-41.333 0 -73.333 7.16699 -96 21.5
s-39.334 41.166 -50.001 80.499l-368 1254c19.333 9.33301 40.166 17.166 62.499 23.499s44.833 9.5 67.5 9.5c30 0 54.333 -7.83301 73 -23.5s33 -42.5 43 -80.5l208 -721c9.33301 -32.667 19.166 -69 29.499 -109l30 -121.5l27.5 -114.5c2 -8 4.16699 -13.167 6.5 -15.5
s6.16602 -3.5 11.499 -3.5z" />
    <glyph glyph-name="W" unicode="W" horiz-adv-x="1701" 
d="M60 1355c19.333 8.66699 39.001 15.001 59.001 19.001s39.667 6 59 6c35.333 0 61.333 -8.33301 78 -25s28.667 -46.667 36 -90l126 -678l21 -124.5l23.5 -144l19.5 -119.5c1.33301 -11.333 3.16602 -18 5.49902 -20s6.16602 -3 11.499 -3l218 1161
c21.333 4 44.833 6.66699 70.5 8s48.167 2 67.5 2c20.667 0 44.334 -0.666992 71.001 -2s48.667 -4 66 -8l200 -1138c2 -10.667 4.33301 -17.167 7 -19.5s6.66699 -3.5 12 -3.5c5.33301 41.333 12.333 87.333 21 138l26 149c8.66699 48.667 16.667 90.667 24 126l154 777
c14.667 2.66699 30.5 4.66699 47.5 6s33.167 2 48.5 2c16.667 0 34 -1 52 -3s34.667 -5 50 -9l11 -15l-287 -1345c-25.333 -4 -56.666 -6.83301 -93.999 -8.5s-69.333 -2.5 -96 -2.5c-32.667 0 -60.834 5.83301 -84.501 17.5s-39.167 40.167 -46.5 85.5l-97 536l-38.5 232
l-42.5 262h-13l-44.5 -261c-15.667 -88.667 -30.167 -166.334 -43.5 -233.001l-123 -629c-26 -3.33301 -56 -5.83301 -90 -7.5s-64.667 -2.5 -92 -2.5c-34 0 -63.833 6 -89.5 18s-43.167 41 -52.5 87z" />
    <glyph glyph-name="X" unicode="X" horiz-adv-x="1175" 
d="M84 1333c22 15.333 45.501 26.999 70.501 34.999s48.5 12 70.5 12c26.667 0 50.667 -6.16699 72 -18.5s42 -34.166 62 -65.499l780 -1263c-22 -15.333 -45.5 -27 -70.5 -35s-48.5 -12 -70.5 -12c-26.667 0 -50.834 6.16699 -72.501 18.5s-42.5 34.5 -62.5 66.5z
M890.001 1366c10 2.66699 22.9971 4.83301 38.9971 6.5s32.667 2.5 50 2.5c21.333 0 42 -1.66699 62 -5s36.333 -7.66602 49 -12.999l6 -14l-413 -671l-88 -94l-349 -578c-9.33301 -2.66699 -22.666 -4.83398 -39.999 -6.50098s-34.333 -2.5 -51 -2.5
c-21.333 0 -42.166 1.66699 -62.499 5s-37.166 8 -50.499 14l-6 14l462 743l87 95z" />
    <glyph glyph-name="Y" unicode="Y" horiz-adv-x="1006" 
d="M398 567h213v-567c-16.667 -2.66699 -34.5 -4.66699 -53.5 -6s-36.833 -2 -53.5 -2c-15.333 0 -33 0.666992 -53 2s-37.667 3.33301 -53 6v567zM789 1366c14.667 4 29.668 6.49902 45.001 7.49902s30.333 1.5 45 1.5c18 0 36 -1.33301 54 -4s34.333 -6 49 -10l10 -15
l-398 -950h-176l-400 946c23.333 12.667 46.166 22.334 68.499 29.001s43.833 10 64.5 10c30 0 53.5 -7.5 70.5 -22.5s31.833 -38.5 44.5 -70.5l158 -384c14.667 -35.333 29.5 -75.666 44.5 -120.999s28.167 -88.333 39.5 -129h10c8 26.667 17.333 56.167 28 88.5
s21.667 63.166 33 92.499l28 74z" />
    <glyph glyph-name="Z" unicode="Z" horiz-adv-x="1124" 
d="M629 983c20.667 32 44.835 66.166 72.502 102.499l83.5 110.5l-6 6c-16 -2.66699 -38.167 -5 -66.5 -7s-58.5 -3.66699 -90.5 -5s-62 -2.33301 -90 -3s-49.667 -1 -65 -1h-321c-3.33301 12.667 -5.5 25 -6.5 37s-1.5 24 -1.5 36c0 18.667 1.33301 36.5 4 53.5
s6.66699 34.833 12 53.5h824c9.33301 -31.333 16.166 -55.833 20.499 -73.5s7.16602 -31 8.49902 -40s2 -16.833 2 -23.5c0 -13.333 -2.16699 -27.166 -6.5 -41.499s-11.5 -29.166 -21.5 -44.499l-502 -750c-21.333 -32.667 -46.333 -68.334 -75 -107.001l-82 -108l6 -6
c42 3.33301 84.833 6 128.5 8s81.167 3 112.5 3h207c52.667 0 98.5 3.33301 137.5 10s72.167 16 99.5 28c4.66699 -14.667 8.5 -31 11.5 -49s4.5 -35.667 4.5 -53c0 -38.667 -12.333 -68.167 -37 -88.5s-61.667 -30.5 -111 -30.5h-759l-18 72c-4 16.667 -6.5 29.5 -7.5 38.5
s-1.5 17.167 -1.5 24.5c0 14 2.33301 29 7 45s11.667 31.333 21 46z" />
    <glyph glyph-name="bracketleft" unicode="[" horiz-adv-x="687" 
d="M199 1517l206 -73v-1770l-206 -59v1902zM213 -399l-14 14l17 161l393 -10c4 -10 7.83301 -23.333 11.5 -40s5.5 -33 5.5 -49c0 -8.66699 -0.5 -18.667 -1.5 -30s-3.16699 -21.333 -6.5 -30zM618 1515c3.33301 -8.66699 5.5 -18.667 6.5 -30s1.5 -21.333 1.5 -30
c0 -16 -1.83301 -32.333 -5.5 -49s-7.5 -30 -11.5 -40l-393 -10l-17 161l14 13z" />
    <glyph glyph-name="backslash" unicode="\" horiz-adv-x="845" 
d="M651 -322c29.333 3.33301 60.333 10.668 93 22.001s61.334 26.666 86.001 45.999l-631 1676c-30.667 -1.33301 -61.834 -7.83301 -93.501 -19.5s-60.167 -27.5 -85.5 -47.5z" />
    <glyph glyph-name="bracketright" unicode="]" horiz-adv-x="687" 
d="M489 1517l-206 -73v-1770l206 -59v1902zM475 -399l14 14l-17 161l-393 -10c-4 -10 -7.83301 -23.333 -11.5 -40s-5.5 -33 -5.5 -49c0 -8.66699 0.5 -18.667 1.5 -30s2.83301 -21.333 5.5 -30zM69 1515c-2.66699 -8.66699 -4.5 -18.667 -5.5 -30s-1.5 -21.333 -1.5 -30
c0 -16 1.83301 -32.333 5.5 -49s7.5 -30 11.5 -40l393 -10l17 161l-14 13z" />
    <glyph glyph-name="asciicircum" unicode="^" horiz-adv-x="1060" 
d="M972 612c-24.667 -6.66699 -58.999 -10 -102.999 -10c-18.667 0 -36.834 0.666992 -54.501 2s-32.834 4 -45.501 8l-164 351c-7.33301 16 -15.166 34.167 -23.499 54.5s-16.333 40.833 -24 61.5s-14.5 38.334 -20.5 53.001h-14c-6 -14.667 -12.833 -32.334 -20.5 -53.001
s-15.667 -41.167 -24 -61.5s-16.166 -38.5 -23.499 -54.5l-163 -351c-13.333 -4 -28.833 -6.66699 -46.5 -8s-35.834 -2 -54.501 -2c-44 0 -78.333 3.33301 -103 10l331 684c12.667 3.33301 29.167 5.83301 49.5 7.5s41.166 2.5 62.499 2.5s41.833 -0.833008 61.5 -2.5
s35.834 -4.16699 48.501 -7.5z" />
    <glyph glyph-name="underscore" unicode="_" horiz-adv-x="1059" 
d="M-1 -310c-2.66699 12 -4.66699 25.166 -6 39.499s-2 27.5 -2 39.5c0 12.667 0.666992 26.334 2 41.001s3.33301 28.667 6 42h1061c6 -24.667 9 -52.334 9 -83.001c0 -29.333 -3 -55.666 -9 -78.999h-1061z" />
    <glyph glyph-name="grave" unicode="`" horiz-adv-x="796" 
d="M327 1478c-30 -10 -59 -27.833 -87 -53.5s-47.333 -53.167 -58 -82.5l342 -266c18.667 5.33301 36.5 15.833 53.5 31.5s29.167 33.167 36.5 52.5z" />
    <glyph glyph-name="a" unicode="a" horiz-adv-x="1014" 
d="M87 268c0 76.667 16.668 139.333 50.001 188s79 84.834 137 108.501s123.333 35.5 196 35.5c36.667 0 78.667 -1.66699 126 -5s91.333 -9.66602 132 -18.999v-139c-36 8.66699 -76.333 14.167 -121 16.5s-86 3.5 -124 3.5c-61.333 0 -108.5 -15.5 -141.5 -46.5
s-49.5 -73.5 -49.5 -127.5c0 -40.667 11.667 -75.167 35 -103.5s56.666 -42.5 99.999 -42.5c48 0 99.167 17 153.5 51s100.166 84 137.499 150l32 -158c-24 -28.667 -53.667 -58.834 -89 -90.501s-76.166 -58.834 -122.499 -81.501s-98.833 -34 -157.5 -34
c-66 0 -120.833 14.667 -164.5 44s-76.167 66.5 -97.5 111.5s-32 91.167 -32 138.5zM921.001 91.999c-4.66699 -18.667 -14.5 -38.5039 -29.5 -59.5039s-30.833 -36.833 -47.5 -47.5c-42 8.66699 -76 24.334 -102 47.001s-45.333 49.834 -58 81.501
s-20.334 65.167 -23.001 100.5v451c0 62.667 -14.167 107.834 -42.5 135.501s-68.5 41.5 -120.5 41.5c-50 0 -101.667 -7.66699 -155 -23s-106.666 -33.333 -159.999 -54c-16 16.667 -29.5 39.5 -40.5 68.5s-17.167 56.833 -18.5 83.5c37.333 16 79.5 31 126.5 45
s95.5 25.167 145.5 33.5s97.667 12.5 143 12.5c65.333 0 122.5 -12 171.5 -36s87 -60.667 114 -110s40.5 -112.333 40.5 -189v-410c0 -37.333 3.66699 -70.166 11 -98.499s22.333 -52.5 45 -72.5z" />
    <glyph glyph-name="b" unicode="b" horiz-adv-x="1055" 
d="M359 50h-203v1408l13 13h77c43.333 0 73 -10.5 89 -31.5s24 -54.5 24 -100.5v-1289zM969 507c0 -117.333 -20.334 -214.5 -61.001 -291.5s-95 -134.667 -163 -173s-143 -57.5 -225 -57.5c-64 0 -126.667 5.66699 -188 17s-120 27.333 -176 48l102 159
c41.333 -24 82.833 -41.833 124.5 -53.5s88.167 -17.5 139.5 -17.5c45.333 0 85.833 13.667 121.5 41s63.667 68 84 122s30.5 121.667 30.5 203c0 116 -17.5 199.667 -52.5 251s-78.167 77 -129.5 77c-49.333 0.666992 -97.666 -15 -144.999 -47s-85 -73.333 -113 -124
l-30 169c20.667 26 47 52.333 79 79s69.5 49.167 112.5 67.5s90.833 27.5 143.5 27.5c76 0 139.667 -21.167 191 -63.5s90 -101 116 -176s39 -160.833 39 -257.5z" />
    <glyph glyph-name="c" unicode="c" horiz-adv-x="943" 
d="M678 606c1.33301 43.333 -2.50098 83.832 -11.501 121.499s-26.5 68.334 -52.5 92.001s-63.333 35.5 -112 35.5c-63.333 0 -112.5 -30.667 -147.5 -92s-52.5 -153 -52.5 -275c0 -120 19.833 -207.5 59.5 -262.5s95.167 -82.5 166.5 -82.5c45.333 0 88.5 10.5 129.5 31.5
s78.833 44.5 113.5 70.5c18 -11.333 35.833 -29.166 53.5 -53.499s28.834 -47.833 33.501 -70.5c-45.333 -44 -99 -79.5 -161 -106.5s-129 -40.5 -201 -40.5c-71.333 0 -132.666 13.667 -183.999 41s-93.5 64.833 -126.5 112.5s-57.5 102.334 -73.5 164.001
s-24 127.167 -24 196.5c0 92.667 11.667 172.167 35 238.5s55 120.666 95 162.999s85 73.5 135 93.5s101.333 30 154 30c60.667 0 113.667 -9 159 -27s83 -41.833 113 -71.5s52.5 -62.167 67.5 -97.5s22.5 -70.333 22.5 -105c0 -35.333 -8.33301 -63.333 -25 -84
s-43.334 -31 -80.001 -31c-16.667 0 -31.667 0.666992 -45 2s-27 3.66602 -41 6.99902z" />
    <glyph glyph-name="d" unicode="d" horiz-adv-x="1060" 
d="M901 281c0 -38.667 3.83203 -75.001 11.499 -109.001s22.5 -60.667 44.5 -80c-6 -18.667 -16.333 -38.5 -31 -59.5s-30.334 -36.833 -47.001 -47.5c-65.333 12.667 -111.666 43.834 -138.999 93.501s-41 106.5 -41 170.5v1209l12 13h79
c42.667 0 71.834 -10.5 87.501 -31.5s23.5 -54.5 23.5 -100.5v-1058zM87.999 481.999c0 118.667 18.8379 216.669 56.5049 294.002s85.667 134.666 144 171.999s119.166 56 182.499 56c64 0 122.667 -13 176 -39s103.333 -56 150 -90l-23 -164
c-38.667 30.667 -81.5 59.667 -128.5 87s-95.5 41 -145.5 41c-37.333 0 -71.333 -12.833 -102 -38.5s-54.834 -65 -72.501 -118s-26.5 -120.5 -26.5 -202.5c0 -78.667 8.33301 -142.667 25 -192s38.667 -85.333 66 -108s57.333 -34 90 -34c33.333 0 68.333 9.16699 105 27.5
s70.667 46.5 102 84.5s55.666 86.667 72.999 146l42 -153c-12.667 -44.667 -36.334 -88.334 -71.001 -131.001s-77.334 -77.667 -128.001 -105s-107.667 -41 -171 -41c-76 0 -139.5 21.5 -190.5 64.5s-89.333 102.5 -115 178.5s-38.5 164.333 -38.5 265z" />
    <glyph glyph-name="e" unicode="e" horiz-adv-x="1001" 
d="M218 428l-0.00390625 149.998h485v26c0 46.667 -6.5 89.5 -19.5 128.5s-34.167 70.167 -63.5 93.5s-67.666 35 -114.999 35c-68.667 0 -119.834 -28.667 -153.501 -86s-50.5 -136.333 -50.5 -237v-63c0 -62.667 6.5 -119.167 19.5 -169.5s36.167 -90 69.5 -119
s80.666 -43.5 141.999 -43.5c50 0 98.333 7.16699 145 21.5s91 32.5 133 54.5c17.333 -16.667 31.833 -37.667 43.5 -63s18.834 -48.333 21.501 -69c-47.333 -34.667 -104.166 -62.167 -170.499 -82.5s-134.5 -30.5 -204.5 -30.5c-78.667 0 -144.667 14.167 -198 42.5
s-95.666 66.833 -126.999 115.5s-53.666 103.834 -66.999 165.501s-20 126.5 -20 194.5c0 99.333 15.5 188.333 46.5 267s77.333 140.667 139 186s138.834 68 231.501 68c86 0 158.667 -19 218 -57s104 -89.167 134 -153.5s45 -136.166 45 -215.499c0 -32 -1 -59.5 -3 -82.5
s-6 -48.5 -12 -76.5h-669z" />
    <glyph glyph-name="f" unicode="f" horiz-adv-x="667" 
d="M300 985l371 4c6 -25.333 9 -50.333 9 -75c0 -13.333 -0.666992 -26.5 -2 -39.5s-3.66602 -25.5 -6.99902 -37.5l-371 4l-270 -4c-2.66699 12 -4.83398 24.5 -6.50098 37.5s-2.5 26.167 -2.5 39.5c0 24.667 3 49.667 9 75zM202 898c-4 48 -8.83301 94.5 -14.5 139.5
s-8.5 88.167 -8.5 129.5c0 58.667 12.167 111.5 36.5 158.5s59.5 84.333 105.5 112s102 41.5 168 41.5c44.667 0 90.667 -5 138 -15s86.333 -21 117 -33c0.666992 -24 -3.5 -49.167 -12.5 -75.5s-20.5 -47.5 -34.5 -63.5c-26 8 -54.167 15 -84.5 21s-59.833 9 -88.5 9
c-46.667 0 -83 -14.333 -109 -43s-39 -70 -39 -124c0 -40 3 -82 9 -126l19 -134v-895c-30.667 -5.33301 -64.667 -8 -102 -8c-36 0 -69.333 2.66699 -100 8v898z" />
    <glyph glyph-name="g" unicode="g" horiz-adv-x="1056" 
d="M959 895c-22 -19.333 -36.8311 -45.999 -44.498 -79.999s-11.5 -70.333 -11.5 -109v-592c0 -76.667 -3.66699 -141.5 -11 -194.5s-18 -97.667 -32 -134s-31.667 -67.5 -53 -93.5c-31.333 -40 -75.333 -72.167 -132 -96.5s-122.667 -36.5 -198 -36.5
c-62 0 -123.833 6.66699 -185.5 20s-115.5 29.333 -161.5 48c0.666992 25.333 6 53 16 83s23 54 39 72c41.333 -20 87.166 -35.5 137.499 -46.5s95.166 -16.5 134.499 -16.5c68 0 119.5 12.5 154.5 37.5s58.833 58.667 71.5 101s19 89.166 19 140.499v740
c0 64 13.5 120.833 40.5 170.5s73.167 80.834 138.5 93.501c16.667 -10.667 32.5 -26.334 47.5 -47.001s25.167 -40.667 30.5 -60zM88.002 492.001c0 118 18.8359 215.5 56.5029 292.5s85.667 134.333 144 172s119.166 56.5 182.499 56.5c57.333 0 107.5 -8.66699 150.5 -26
s79.833 -39.333 110.5 -66s57.334 -54 80.001 -82l-28 -177c-35.333 54.667 -78.5 99.334 -129.5 134.001s-101.5 52 -151.5 52c-39.333 0 -74.333 -12.833 -105 -38.5s-54.834 -65 -72.501 -118s-26.5 -120.167 -26.5 -201.5c0 -118.667 17.5 -204.167 52.5 -256.5
s77.167 -78.5 126.5 -78.5c52.667 0 103.667 17.5 153 52.5s87.666 79.5 114.999 133.5l31 -159c-18 -30.667 -43.833 -61.334 -77.5 -92.001s-72.834 -56.167 -117.501 -76.5s-93.334 -30.5 -146.001 -30.5c-77.333 0 -141.666 21.167 -192.999 63.5
s-90 101.833 -116 178.5s-39 165.667 -39 267z" />
    <glyph glyph-name="h" unicode="h" horiz-adv-x="1087" 
d="M359 0c-28 -5.33301 -62.334 -8 -103.001 -8c-37.333 0 -70.666 2.66699 -99.999 8v1458l13 13h78c43.333 0 72.833 -10.5 88.5 -31.5s23.5 -54.5 23.5 -100.5v-1339zM939.999 211c0 -34.667 2.33105 -67.502 6.99805 -98.502s13.334 -58.167 26.001 -81.5
c-15.333 -13.333 -34.666 -24 -57.999 -32s-47.333 -12 -72 -12c-40 0 -68.167 11 -84.5 33s-24.5 54.667 -24.5 98v508c0 66.667 -8.66699 115.334 -26 146.001s-50.333 46 -99 46c-33.333 0 -69.5 -8.16699 -108.5 -24.5s-75.833 -39.166 -110.5 -68.499
s-62.667 -64 -84 -104v199c44.667 50.667 99.167 94 163.5 130s132.833 54 205.5 54c62 0 112.5 -14.5 151.5 -43.5s67.667 -68.333 86 -118s27.5 -105.167 27.5 -166.5v-465z" />
    <glyph glyph-name="i" unicode="i" horiz-adv-x="543" 
d="M390 0c-14.667 -2.66699 -30.8311 -4.66309 -48.498 -5.99609s-35.834 -2 -54.501 -2s-37 0.666992 -55 2s-34.333 3.33301 -49 6v733c0 35.333 -6.16699 61.5 -18.5 78.5s-35.166 25.5 -68.499 25.5h-22c-6 23.333 -9 47.666 -9 72.999c0 12 0.666992 24.167 2 36.5
s3.66602 25.166 6.99902 38.499c25.333 3.33301 49.166 5.66602 71.499 6.99902s40.833 2 55.5 2h27c50 0 89.5 -15.833 118.5 -47.5s43.5 -74.834 43.5 -129.501v-817zM122.003 1254c0 34 5.99805 64.001 17.998 90.001c12 6.66699 28.5 12.334 49.5 17.001
s41.167 7 60.5 7c18.667 0 39 -2.33301 61 -7s38.333 -10.334 49 -17.001c6 -12 10.5 -26.333 13.5 -43s4.5 -32.334 4.5 -47.001c0 -34 -6 -63.667 -18 -89c-10 -6.66699 -26.167 -12.5 -48.5 -17.5s-42.833 -7.5 -61.5 -7.5c-19.333 0 -39.666 2.33301 -60.999 7
s-37.666 10.667 -48.999 18c-12 25.333 -18 55 -18 89z" />
    <glyph glyph-name="j" unicode="j" horiz-adv-x="556" 
d="M403 -39c0 -80 -8.50098 -145.993 -25.501 -197.993s-46.5 -94 -88.5 -126s-100.333 -57.333 -175 -76c-14.667 12.667 -27.5 30.667 -38.5 54s-18.5 47.666 -22.5 72.999c38 19.333 67.5 38.666 88.5 57.999s35.833 43.666 44.5 72.999s13 68 13 116v798
c0 35.333 -6.33301 61.5 -19 78.5s-35.334 25.5 -68.001 25.5h-41c-6 23.333 -9 47.666 -9 72.999c0 12 0.833008 24.167 2.5 36.5s3.83398 25.166 6.50098 38.499c26.667 3.33301 53.834 5.66602 81.501 6.99902s49.5 2 65.5 2h27c48.667 0 87.167 -15.833 115.5 -47.5
s42.5 -74.834 42.5 -129.501v-856zM132.999 1254.01c0 34 5.99805 64.001 17.998 90.001c12 6.66699 28.5 12.334 49.5 17.001s41.167 7 60.5 7c18.667 0 39 -2.33301 61 -7s38.333 -10.334 49 -17.001c6 -12 10.5 -26.333 13.5 -43s4.5 -32.334 4.5 -47.001
c0 -34 -6 -63.667 -18 -89c-10 -6.66699 -26.167 -12.5 -48.5 -17.5s-42.833 -7.5 -61.5 -7.5c-19.333 0 -39.666 2.33301 -60.999 7s-37.666 10.667 -48.999 18c-12 25.333 -18 55 -18 89z" />
    <glyph glyph-name="k" unicode="k" horiz-adv-x="1004" 
d="M359 0c-14.667 -2.66699 -30.833 -4.66699 -48.5 -6s-35.834 -2 -54.501 -2c-37.333 0 -70.666 2.66699 -99.999 8v1458l13 13h78c43.333 0 72.833 -10.5 88.5 -31.5s23.5 -54.5 23.5 -100.5v-1339zM874.001 207c15.333 -40.667 30.498 -73.6689 45.498 -99.002
s31.833 -44.666 50.5 -57.999c-14.667 -17.333 -34.667 -32.166 -60 -44.499s-51.666 -18.5 -78.999 -18.5c-36.667 0 -63.667 9.66699 -81 29s-33.666 48.333 -48.999 87l-81 196c-21.333 52 -43.5 86.833 -66.5 104.5s-57.5 26.5 -103.5 26.5
c-19.333 0 -39 -0.666992 -59 -2s-41.667 -3.33301 -65 -6l-72 -7v150h267c72.667 0 131.167 -15 175.5 -45s80.833 -79.333 109.5 -148zM687.999 628.998c-27.333 -45.333 -61.0039 -78.001 -101.004 -98.001s-88.667 -30 -146 -30h-166v94l151 6
c10.667 0 19.667 2.33301 27 7s14.333 12 21 22l175 277c16.667 28 34.834 49.5 54.501 64.5s46.834 22.5 81.501 22.5c20.667 0 39.334 -0.166992 56.001 -0.5s34.334 -1.16602 53.001 -2.49902l12 -16z" />
    <glyph glyph-name="l" unicode="l" horiz-adv-x="587" 
d="M508 155c11.333 -31.333 17.002 -66.001 17.002 -104.001c0 -7.33301 -0.166992 -15 -0.5 -23s-1.83301 -15.333 -4.5 -22c-22.667 -3.33301 -49.834 -6.66602 -81.501 -9.99902s-61.167 -5 -88.5 -5c-64.667 0 -113.667 17.167 -147 51.5s-50 85.833 -50 154.5v1261
l13 13h78c43.333 0 72.666 -10.5 87.999 -31.5s23 -54.5 23 -100.5v-1096c0 -28.667 6.5 -50.5 19.5 -65.5s32.833 -22.5 59.5 -22.5h74z" />
    <glyph glyph-name="m" unicode="m" horiz-adv-x="1594" 
d="M246 996c43.333 0 73.5 -13 90.5 -39s25.5 -62 25.5 -108v-849c-13.333 -2.66699 -29 -4.66699 -47 -6s-36.333 -2 -55 -2s-37.167 0.666992 -55.5 2s-34.5 3.33301 -48.5 6v982l13 14h77zM698 626c0 70.667 -9.99902 120.501 -29.999 149.501s-49.667 43.5 -89 43.5
c-33.333 0 -68.833 -10.5 -106.5 -31.5s-72.5 -49 -104.5 -84s-57.333 -73.5 -76 -115.5v201c29.333 41.333 62.833 78.166 100.5 110.499s78 58 121 77s86.833 28.5 131.5 28.5c58 0 106.167 -13.833 144.5 -41.5s67.166 -65 86.499 -112s29 -99.167 29 -156.5v-695
c-14.667 -2.66699 -31 -4.66699 -49 -6s-36 -2 -54 -2c-18.667 0 -37 0.666992 -55 2s-34.333 3.33301 -49 6v626zM1240 628.001c0 70.667 -10.168 120.167 -30.501 148.5s-50.166 42.5 -89.499 42.5c-31.333 0 -65.5 -10.167 -102.5 -30.5s-72.167 -48.333 -105.5 -84
s-61 -76.167 -83 -121.5v230c32.667 36 68.5 68.5 107.5 97.5s80 52 123 69s86.833 25.5 131.5 25.5c58 0 106 -14 144 -42s66.167 -65.5 84.5 -112.5s27.5 -99.833 27.5 -158.5v-481c0 -34.667 2.33301 -67.5 7 -98.5s13.334 -58.167 26.001 -81.5
c-15.333 -13.333 -34.5 -24 -57.5 -32s-46.833 -12 -71.5 -12c-40.667 0 -69.334 11 -86.001 33s-25 54.667 -25 98v510z" />
    <glyph glyph-name="n" unicode="n" horiz-adv-x="1091" 
d="M246 996c43.333 0 73.5 -13 90.5 -39s25.5 -62 25.5 -108v-849c-13.333 -2.66699 -29 -4.66699 -47 -6s-36.333 -2 -55 -2s-37.167 0.666992 -55.5 2s-34.5 3.33301 -48.5 6v983l13 13h77zM944 211c0 -34.667 2.33105 -67.5029 6.99805 -98.5029s13.667 -58.167 27 -81.5
c-15.333 -13.333 -34.666 -24 -57.999 -32s-47.333 -12 -72 -12c-40.667 0 -69.167 11 -85.5 33s-24.5 54.667 -24.5 98v509c0 66.667 -8.5 115.334 -25.5 146.001s-50.167 46 -99.5 46c-33.333 0 -69.5 -8.16699 -108.5 -24.5s-75.833 -39.166 -110.5 -68.499
s-62.667 -63.666 -84 -102.999v198c44.667 51.333 99.167 94.833 163.5 130.5s132.833 53.5 205.5 53.5c62.667 0 113.334 -14.5 152.001 -43.5s67.167 -68.167 85.5 -117.5s27.5 -105 27.5 -167v-466z" />
    <glyph glyph-name="o" unicode="o" horiz-adv-x="1040" 
d="M952 494c0 -102.667 -16.333 -192.999 -49 -270.999s-81.167 -139 -145.5 -183s-143.833 -66 -238.5 -66c-95.333 0 -174.833 22.167 -238.5 66.5s-111.667 105.666 -144 183.999s-48.5 168.166 -48.5 269.499s16.333 191 49 269s81 139.167 145 183.5s143 66.5 237 66.5
c96 0 176 -22.167 240 -66.5s112.167 -105.666 144.5 -183.999s48.5 -167.833 48.5 -268.5zM301 494.001c0 -62.667 6.33301 -121.5 19 -176.5s34.834 -99.667 66.501 -134s76.5 -51.5 134.5 -51.5c56.667 0 100.834 17.167 132.501 51.5s53.834 79 66.501 134
s19 113.833 19 176.5c0 62 -6.33301 120.5 -19 175.5s-34.834 100 -66.501 135s-75.834 52.5 -132.501 52.5c-58 0 -102.833 -17.5 -134.5 -52.5s-53.834 -80 -66.501 -135s-19 -113.5 -19 -175.5z" />
    <glyph glyph-name="p" unicode="p" horiz-adv-x="1060" 
d="M232 996c44 0 76.167 -14.168 96.5 -42.501s30.5 -68.166 30.5 -119.499v-1133c0 -46 -7.83301 -79.5 -23.5 -100.5s-45.167 -31.5 -88.5 -31.5h-78l-13 13v1401l13 13h63zM972 505.999c0 -119.333 -18.667 -217.67 -56 -295.003s-85.333 -134.666 -144 -171.999
s-120 -56 -184 -56c-63.333 0 -121.833 13 -175.5 39s-103.5 56.333 -149.5 91l23 163c38.667 -30 81.5 -58.833 128.5 -86.5s95.5 -41.5 145.5 -41.5c37.333 0 71.166 12.833 101.499 38.5s54.666 65 72.999 118s27.5 120.5 27.5 202.5c0 78.667 -8.5 142.667 -25.5 192
s-39.167 85.333 -66.5 108s-57.333 34 -90 34c-33.333 0 -68.333 -9 -105 -27s-70.667 -46.167 -102 -84.5s-55.666 -87.166 -72.999 -146.499l-42 153c12.667 44.667 36.334 88.334 71.001 131.001s77.5 77.667 128.5 105s107.833 41 170.5 41
c76 0 139.5 -21.5 190.5 -64.5s89.333 -102.5 115 -178.5s38.5 -164 38.5 -264z" />
    <glyph glyph-name="q" unicode="q" horiz-adv-x="1058" 
d="M88 492c0 118 18.8359 215.499 56.5029 292.499s85.667 134.333 144 172s119.166 56.5 182.499 56.5c57.333 0 107.5 -8.5 150.5 -25.5s79.833 -38.5 110.5 -64.5s57.334 -53 80.001 -81l-28 -180c-35.333 54.667 -78.5 99.334 -129.5 134.001s-101.5 52 -151.5 52
c-38.667 0 -73.334 -12.833 -104.001 -38.5s-55 -65 -73 -118s-27 -120.167 -27 -201.5c0 -78.667 8.16699 -142.667 24.5 -192s38 -85.5 65 -108.5s56.833 -34.5 89.5 -34.5c52.667 0 103.667 17.5 153 52.5s87.666 79.5 114.999 133.5l31 -162
c-18 -30 -43.833 -60.167 -77.5 -90.5s-72.834 -55.5 -117.501 -75.5s-93.334 -30 -146.001 -30c-77.333 0 -141.666 21.167 -192.999 63.5s-90 101.833 -116 178.5s-39 165.667 -39 267zM700.003 737.999c0 64 13.667 120.833 41 170.5s73.666 80.834 138.999 93.501
c16.667 -10.667 32.5 -26.334 47.5 -47.001s25.167 -40.667 30.5 -60c-22 -19.333 -36.833 -46 -44.5 -80s-11.5 -70.333 -11.5 -109v-1124l-12 -13h-79c-43.333 0 -72.666 10.5 -87.999 31.5s-23 54.5 -23 100.5v1037z" />
    <glyph glyph-name="r" unicode="r" horiz-adv-x="737" 
d="M727 990c0 -28 -3.99805 -60.501 -11.998 -97.501s-21 -69.5 -39 -97.5c-13.333 3.33301 -26.833 5.5 -40.5 6.5s-27.167 1.83301 -40.5 2.5c-38 0 -71.167 -7.83301 -99.5 -23.5s-52.5 -36 -72.5 -61s-36.833 -52.5 -50.5 -82.5s-24.834 -59.333 -33.501 -88l-30 38
c1.33301 46.667 7.66602 94.334 18.999 143.001s29 93.5 53 134.5s55.5 74 94.5 99s87.167 37.5 144.5 37.5c18 0 35.333 -1 52 -3s35 -4.66699 55 -8zM100.002 891.999c5.33301 18 15.165 38.167 29.498 60.5s29.5 38.833 45.5 49.5
c66.667 -14 116.334 -47.333 149.001 -100s51.334 -118.667 56.001 -198v-704c-14 -2.66699 -30 -4.66699 -48 -6s-36.333 -2 -55 -2s-37 0.666992 -55 2s-34 3.33301 -48 6v686c0 53.333 -8 97 -24 131s-32.667 59 -50 75z" />
    <glyph glyph-name="s" unicode="s" horiz-adv-x="875" 
d="M62 74c1.33301 22.667 8.66895 48.165 22.002 76.498s28.666 50.833 45.999 67.5c42 -23.333 87 -44 135 -62s96.667 -27 146 -27c54.667 0 97.834 11.667 129.501 35s48.167 53.333 49.5 90c0 28 -10.833 54 -32.5 78s-52.834 43.333 -93.501 58l-116 43
c-46 16.667 -88.167 37.667 -126.5 63s-69.166 56.166 -92.499 92.499s-35 79.5 -35 129.5c0 61.333 15.5 114 46.5 158s73.167 77.833 126.5 101.5s113.666 35.5 180.999 35.5c54 0 111.5 -7 172.5 -21s112.167 -31 153.5 -51c0.666992 -17.333 -1.5 -35.666 -6.5 -54.999
s-12.167 -37.5 -21.5 -54.5s-20 -31.167 -32 -42.5c-35.333 16.667 -76.333 31.834 -123 45.501s-95 20.5 -145 20.5c-43.333 0 -78 -10.5 -104 -31.5s-39 -49.167 -39 -84.5c0 -28 10.167 -51.333 30.5 -70s51.166 -35.667 92.499 -51l123 -45
c75.333 -27.333 136.5 -65.166 183.5 -113.499s70.5 -110.833 70.5 -187.5c0 -92.667 -36 -165.5 -108 -218.5s-166.667 -79.5 -284 -79.5c-70 0 -134.833 10 -194.5 30s-111.167 43.333 -154.5 70z" />
    <glyph glyph-name="t" unicode="t" horiz-adv-x="701" 
d="M193 1162c0 46 7.66797 79.502 23.001 100.502s44.666 31.5 87.999 31.5h78l13 -14v-1038c0 -26.667 6.16699 -47.834 18.5 -63.501s33.833 -23.5 64.5 -23.5h138c10.667 -31.333 16 -66 16 -104c0 -7.33301 -0.166992 -15 -0.5 -23s-1.5 -15.333 -3.5 -22
c-33.333 -4.66699 -69 -8.33398 -107 -11.001s-76.667 -4 -116 -4c-68 0 -120.333 17.167 -157 51.5s-55 85.833 -55 154.5v965zM642.001 989.002c6.66699 -26 10 -51 10 -75c0 -27.333 -3.33301 -53 -10 -77l-327 4l-269 -4c-5.33301 24 -8 49.667 -8 77
c0 24 2.66699 49 8 75l272 -4z" />
    <glyph glyph-name="u" unicode="u" horiz-adv-x="1094" 
d="M935 280c0 -38.667 4.00098 -75.001 12.001 -109.001s22.667 -60.667 44 -80c-5.33301 -19.333 -15.333 -39.166 -30 -59.499s-30.334 -35.833 -47.001 -46.5c-66 12.667 -113.333 44 -142 94s-43 107 -43 171v737c14 2.66699 30 4.66699 48 6s36.333 2 55 2
s37 -0.666992 55 -2s34 -3.33301 48 -6v-707zM147.001 775.999c0 34.667 -2.33398 67.5029 -7.00098 98.5029s-13 58.167 -25 81.5c14.667 13.333 33.667 24 57 32s47.333 12 72 12c40 0 68.333 -11 85 -33s25 -54.667 25 -98v-509c0 -66.667 8.5 -115.334 25.5 -146.001
s49.833 -46 98.5 -46c34 0 70.333 8.16699 109 24.5s75.334 39.166 110.001 68.499s62.667 63.666 84 102.999v-197c-44.667 -52 -99.167 -95.833 -163.5 -131.5s-132.833 -53.5 -205.5 -53.5c-62 0 -112.5 14.5 -151.5 43.5s-67.667 68.333 -86 118
s-27.5 105.167 -27.5 166.5v466z" />
    <glyph glyph-name="v" unicode="v" horiz-adv-x="911" 
d="M708 988c13.333 3.33301 26.5029 5.5 39.5029 6.5s25.833 1.5 38.5 1.5c18.667 0 36.834 -1.33301 54.501 -4s34.5 -6.66699 50.5 -12l5 -9l-76 -249l-85 -269l-81 -253l-66 -200c-22.667 -4 -47.334 -6.83301 -74.001 -8.5s-52 -2.5 -76 -2.5
c-40.667 0 -71.834 6.83301 -93.501 20.5s-40.167 45.5 -55.5 95.5l-278 866c23.333 10.667 44.833 18.5 64.5 23.5s38.167 7.5 55.5 7.5c29.333 0 53.166 -6.5 71.499 -19.5s31.833 -35.833 40.5 -68.5l134 -440c10.667 -32.667 21 -67.667 31 -105s19 -72.5 27 -105.5
l19 -80.5c1.33301 -7.33301 3.16602 -11.833 5.49902 -13.5s6.5 -2.5 12.5 -2.5z" />
    <glyph glyph-name="w" unicode="w" horiz-adv-x="1445" 
d="M45 974c23.333 10.667 44.835 18.001 64.502 22.001s38.5 6 56.5 6c27.333 0 48.666 -6.5 63.999 -19.5s26 -34.5 32 -64.5l91 -415c13.333 -62.667 25.833 -124.167 37.5 -184.5s20.834 -109.5 27.501 -147.5c2.66699 -11.333 8 -17 16 -17l168 828
c16 4 37 6.83301 63 8.5s46 2.5 60 2.5c15.333 0 36.166 -0.833008 62.499 -2.5s46.833 -4.5 61.5 -8.5l162 -811c2.66699 -11.333 8 -17 16 -17l35 173.5l38 175.5l109 485c11.333 2.66699 25 4.66699 41 6s31.667 2 47 2c16 0 33.833 -1.16699 53.5 -3.5
s36.167 -6.5 49.5 -12.5l7 -10l-243 -971c-20.667 -3.33301 -45.667 -5.5 -75 -6.5s-56.333 -1.5 -81 -1.5c-40 0 -71.833 6.16699 -95.5 18.5s-39.834 43.166 -48.501 92.499l-58 278c-6 35.333 -13.333 76.166 -22 122.499l-27 145.5l-27 147h-10l-27.5 -146.5l-28.5 -145
l-25 -122.5l-82 -381c-22.667 -3.33301 -49.5 -5.66602 -80.5 -6.99902s-59.167 -2 -84.5 -2c-35.333 0 -64.5 6.66699 -87.5 20s-40.167 44.333 -51.5 93z" />
    <glyph glyph-name="x" unicode="x" horiz-adv-x="921" 
d="M55 957c20.667 14.667 43.834 26.168 69.501 34.501s49.834 12.5 72.501 12.5c25.333 0 45.666 -5.33301 60.999 -16s29.666 -26.334 42.999 -47.001l593 -909c-20 -12.667 -42.833 -23.667 -68.5 -33s-50.5 -14 -74.5 -14c-25.333 0 -46 5.33301 -62 16
s-30.667 26 -44 46zM662 987.001c9.33301 2.66699 22 4.83398 38 6.50098s31.333 2.5 46 2.5c20.667 0 39.5 -1.33301 56.5 -4s32.167 -6.33398 45.5 -11.001l6 -16l-313 -488l-55 -58l-258 -420c-9.33301 -3.33301 -22.333 -5.83301 -39 -7.5s-32.334 -2.5 -47.001 -2.5
c-20 0 -39.167 1.5 -57.5 4.5s-34.166 7.16699 -47.499 12.5l-7 16l346 539l62 61z" />
    <glyph glyph-name="y" unicode="y" horiz-adv-x="935" 
d="M648 32c-29.333 -102 -61.3359 -187.669 -96.0029 -257.002s-79.5 -122 -134.5 -158s-126.833 -54 -215.5 -54c-31.333 0 -65.666 3.33301 -102.999 10s-66.666 14 -87.999 22c-2 24.667 1.5 51.5 10.5 80.5s20.167 51.5 33.5 67.5
c16 -5.33301 38.167 -10.666 66.5 -15.999s55.833 -8 82.5 -8c44 0 81 10 111 30s55.167 48.5 75.5 85.5s37.833 80.833 52.5 131.5l7 24c-41.333 1.33301 -74.333 9.33301 -99 24s-43.334 42.334 -56.001 83.001l-262 874c23.333 10.667 45.833 18.5 67.5 23.5
s40.834 7.5 57.501 7.5c24.667 0 45.834 -6.16699 63.501 -18.5s31.167 -36.833 40.5 -73.5l135 -460c10 -30.667 19.5 -64 28.5 -100l25.5 -104.5l21 -89.5c2.66699 -9.33301 9 -14 19 -14l219 846c12.667 2.66699 27 4.66699 43 6s31.333 2 46 2c18 0 36 -1 54 -3
s35.333 -5.66699 52 -11l7 -12z" />
    <glyph glyph-name="z" unicode="z" horiz-adv-x="893" 
d="M428 639c23.333 30.667 49.5 62.998 78.5 96.998l80.5 96l-6 7c-18.667 -2 -43.667 -4 -75 -6s-64 -3.33301 -98 -4s-64.667 -1 -92 -1h-210c-3.33301 10 -5.33301 21.333 -6 34s-1 23.334 -1 32.001c0 12.667 1 27.5 3 44.5s4.66699 33.167 8 48.5h669
c10.667 -29.333 18.5 -53.166 23.5 -71.499s7.5 -34.833 7.5 -49.5c0 -10.667 -2.33301 -22.167 -7 -34.5s-11.334 -24.166 -20.001 -35.499l-325 -440c-22.667 -31.333 -48 -64.5 -76 -99.5l-78 -95.5l6 -7c32 2.66699 64.5 4.66699 97.5 6s61.833 2 86.5 2h95
c46 0 87.333 2 124 6s67.334 11.333 92.001 22c6.66699 -16.667 11.667 -32.5 15 -47.5s5 -29.833 5 -44.5c0 -30 -9.33301 -53.833 -28 -71.5s-52.667 -26.5 -102 -26.5h-596c-10.667 29.333 -18.167 52 -22.5 68s-6.5 31 -6.5 45c0 11.333 2.33301 23.666 7 36.999
s13 28.333 25 45z" />
    <glyph glyph-name="braceleft" unicode="{" horiz-adv-x="693" 
d="M84 619c46.667 14 85.834 41.8311 117.501 83.498s47.5 92.167 47.5 151.5v340c0 95.333 26.667 170.166 80 224.499s121.333 88.5 204 102.5l102 17c10 -10.667 18.333 -24.667 25 -42s11.167 -35 13.5 -53s2.16602 -33.667 -0.500977 -47l-100 -32
c-36 -11.333 -64 -31.5 -84 -60.5s-30 -66.167 -30 -111.5v-334c0 -63.333 -15 -123.166 -45 -179.499s-70.667 -96.5 -122 -120.5v-16c51.333 -23.333 92 -63 122 -119s45 -116 45 -180v-334c0 -45.333 10 -82.666 30 -111.999s48 -49.333 84 -60l100 -32
c2.66699 -13.333 2.83398 -29.166 0.500977 -47.499s-6.83301 -36 -13.5 -53s-15 -30.833 -25 -41.5l-102 17c-82.667 13.333 -150.667 47.166 -204 101.499s-80 129.5 -80 225.5v340c0 59.333 -15.833 109.833 -47.5 151.5s-70.834 69.834 -117.501 84.501
c-6 16 -9 38.667 -9 68s3 52 9 68z" />
    <glyph glyph-name="bar" unicode="|" horiz-adv-x="511" 
d="M158 1549c14.667 3.33301 31.334 5.5 50.001 6.5s34.667 1.5 48 1.5c14.667 0 30.5 -0.5 47.5 -1.5s33.5 -3.16699 49.5 -6.5v-1830c-16 -3.33301 -32.5 -5.83301 -49.5 -7.5s-32.833 -2.5 -47.5 -2.5c-13.333 0 -29.333 0.833008 -48 2.5s-35.334 4.16699 -50.001 7.5
v1830z" />
    <glyph glyph-name="braceright" unicode="}" horiz-adv-x="693" 
d="M608 619c-46.667 14 -85.667 41.8311 -117 83.498s-47 92.167 -47 151.5v340c0 95.333 -26.833 170.166 -80.5 224.499s-121.5 88.5 -203.5 102.5l-102 17c-9.33301 -10.667 -17.5 -24.667 -24.5 -42s-11.833 -35 -14.5 -53s-2.33398 -33.667 0.999023 -47l100 -32
c36 -11.333 64 -31.5 84 -60.5s30 -66.167 30 -111.5v-334c0 -63.333 15 -123.166 45 -179.499s70.667 -96.5 122 -120.5v-16c-51.333 -23.333 -92 -63 -122 -119s-45 -116 -45 -180v-334c0 -45.333 -10 -82.666 -30 -111.999s-48 -49.333 -84 -60l-100 -32
c-3.33301 -13.333 -3.66602 -29.166 -0.999023 -47.499s7.5 -36 14.5 -53s15.167 -30.833 24.5 -41.5l102 17c82 13.333 149.833 47.166 203.5 101.499s80.5 129.5 80.5 225.5v340c0 59.333 15.667 109.833 47 151.5s70.333 69.834 117 84.501c6.66699 16 10 38.667 10 68
s-3.33301 52 -10 68z" />
    <glyph glyph-name="asciitilde" unicode="~" horiz-adv-x="1172" 
d="M708 641c18.667 -8 36.5 -14.167 53.5 -18.5s33.5 -6.5 49.5 -6.5c24 0 46.167 5.66699 66.5 17s38.5 27.333 54.5 48l38 44c22 -2 45.5 -10.167 70.5 -24.5s42.5 -33.166 52.5 -56.499l-27 -47c-31.333 -55.333 -70 -98.333 -116 -129s-99 -46 -159 -46
c-28 0 -56.333 3.66699 -85 11s-57 17.333 -85 30l-158 71c-18 7.33301 -35.5 13.166 -52.5 17.499s-33.833 6.5 -50.5 6.5c-23.333 0 -45 -5.66699 -65 -17s-38.667 -27 -56 -47l-38 -44c-22 2 -45.5 10.167 -70.5 24.5s-42.167 32.833 -51.5 55.5l27 47
c30.667 55.333 69.167 98.333 115.5 129s99.833 46 160.5 46c26.667 0 54.5 -3.66699 83.5 -11s57.833 -17.333 86.5 -30z" />
    <glyph glyph-name="uni00A0" unicode="&#xa0;" horiz-adv-x="440" 
 />
    <glyph glyph-name="exclamdown" unicode="&#xa1;" horiz-adv-x="576" 
d="M372 598l24.498 -396.999c8.33301 -132 12.5 -265 12.5 -399v-180c-20 -5.33301 -44.5 -9 -73.5 -11s-58.167 -1.83301 -87.5 0.5s-53.666 6.16602 -72.999 11.499v182c0 132 4.33301 264 13 396s16.667 264.333 24 397c13.333 4 27 6.83301 41 8.5s27 2.5 39 2.5
c11.333 0 24.333 -0.833008 39 -2.5s28.334 -4.5 41.001 -8.5zM291.998 768.001c-20 0 -40.5 2.16699 -61.5 6.5s-38.167 10.166 -51.5 17.499c-5.33301 9.33301 -9.5 24 -12.5 44s-4.5 37 -4.5 51c0 13.333 1.5 29.833 4.5 49.5s7.16699 34.167 12.5 43.5
c13.333 7.33301 30.5 13.166 51.5 17.499s41.5 6.5 61.5 6.5c20.667 0 41.167 -2.16699 61.5 -6.5s37.5 -10.166 51.5 -17.499c4.66699 -9.33301 8.66699 -23.833 12 -43.5s5 -36.167 5 -49.5c0 -14 -1.66699 -31 -5 -51s-7.33301 -34.667 -12 -44
c-14 -7.33301 -31.167 -13.166 -51.5 -17.499s-40.833 -6.5 -61.5 -6.5z" />
    <glyph glyph-name="cent" unicode="&#xa2;" horiz-adv-x="1080" 
d="M565 -50c-13.333 0 -27.6689 0.666992 -43.002 2s-28.666 3.33301 -39.999 6v283h165v-283c-10.667 -2.66699 -23.667 -4.66699 -39 -6s-29.666 -2 -42.999 -2zM487.997 1014v294c11.333 2.66699 24.5 4.66699 39.5 6s29.5 2 43.5 2s28.5 -0.666992 43.5 -2
s27.833 -3.33301 38.5 -6v-294h-165zM567.997 135c-84 0 -154.5 14.668 -211.5 44.001s-102.5 68.166 -136.5 116.499s-58.333 101.5 -73 159.5s-22 115.667 -22 173c0 116.667 21.5 212 64.5 286s98.833 128.667 167.5 164s141.667 53 219 53c64 0 120 -9 168 -27
s87.667 -41.667 119 -71s54.833 -61.166 70.5 -95.499s23.5 -67.833 23.5 -100.5c0 -38 -8.16699 -67.833 -24.5 -89.5s-44.833 -32.5 -85.5 -32.5c-13.333 0 -26.666 0.666992 -39.999 2s-25.666 4 -36.999 8c1.33301 38.667 -3.66699 77 -15 115s-31.833 69.5 -61.5 94.5
s-70.834 37.5 -123.501 37.5c-74 0 -131.167 -29.667 -171.5 -89s-60.5 -144.333 -60.5 -255c0 -109.333 23 -190.5 69 -243.5s109.333 -79.5 190 -79.5c48 0 94.5 10.5 139.5 31.5s85.167 46.5 120.5 76.5c18.667 -11.333 37.167 -28.5 55.5 -51.5
s31.166 -45.5 38.499 -67.5c-28.667 -32.667 -63.5 -60.834 -104.5 -84.501s-85.333 -42 -133 -55s-96.167 -19.5 -145.5 -19.5z" />
    <glyph glyph-name="sterling" unicode="&#xa3;" horiz-adv-x="1080" 
d="M176 0c-12 35.333 -19.667 61.666 -23 78.999s-5 32 -5 44c0 22 5.83301 41.333 17.5 58s24.167 32.334 37.5 47.001l24 27c29.333 32 54 65.833 74 101.5s30 78.167 30 127.5c0 52.667 -7.66699 103.167 -23 151.5l-46 144.5c-15.333 48 -23 98.333 -23 151
c0 62.667 15.167 121.667 45.5 177s74.333 100.333 132 135s128.167 52 211.5 52c73.333 0 138 -13.5 194 -40.5s102.667 -57.5 140 -91.5c-5.33301 -26 -17.5 -52.667 -36.5 -80s-40.833 -47.333 -65.5 -60c-33.333 30 -68.833 53.5 -106.5 70.5s-75.5 25.5 -113.5 25.5
c-50 0 -94 -16 -132 -48s-57 -82.667 -57 -152c0 -42 6.16699 -85 18.5 -129l37 -138c12.333 -48 18.5 -99 18.5 -153c0 -67.333 -16.5 -128.5 -49.5 -183.5s-72.167 -103.167 -117.5 -144.5l5 -5c44 3.33301 94 5.83301 150 7.5s114.333 2.5 175 2.5h289
c0 -70.667 -11.333 -117.667 -34 -141s-57 -35 -103 -35h-664zM155 533c-4.66699 21.333 -7 46.332 -7 74.999c0 28 2.33301 54 7 78l248 -2l408 2c2.66699 -10.667 4.83398 -22.667 6.50098 -36s2.5 -26.666 2.5 -39.999s-0.833008 -27 -2.5 -41s-3.83398 -26 -6.50098 -36
l-408 1z" />
    <glyph glyph-name="currency" unicode="&#xa4;" horiz-adv-x="1080" 
d="M538 245c-75.333 0 -142.166 16.667 -200.499 50s-104 79 -137 137s-49.5 124.667 -49.5 200c0 76 16.5 143.167 49.5 201.5s78.667 104.166 137 137.499s125.166 50 200.499 50c76 0 143.333 -16.667 202 -50s104.667 -79.166 138 -137.499s50 -125.5 50 -201.5
c0 -75.333 -16.667 -142 -50 -200s-79.333 -103.667 -138 -137s-126 -50 -202 -50zM538 395c64.667 0 114.167 23.1689 148.5 69.502s51.5 102.166 51.5 167.499s-17.167 121.5 -51.5 168.5s-83.833 70.5 -148.5 70.5c-63.333 0 -112 -23.5 -146 -70.5
s-51 -103.167 -51 -168.5c0 -64.667 17 -120.334 51 -167.001s82.667 -70 146 -70zM167 147.002c-22 12 -43.167 28.167 -63.5 48.5s-36.833 41.833 -49.5 64.5l207 224l131 -133zM261 780.002l-207 224c12 22.667 28.333 44 49 64s42 36.333 64 49l224 -204zM820 781.002
l-131 133l224 205c22 -12.667 43.167 -29 63.5 -49s36.833 -41.333 49.5 -64zM910 146.002l-223 205l131 131l205 -223c-25.333 -48 -63 -85.667 -113 -113z" />
    <glyph glyph-name="yen" unicode="&#xa5;" horiz-adv-x="1080" 
d="M439 443l-352.998 805.999c22 11.333 44.5 20.333 67.5 27s44.833 10 65.5 10c47.333 0 81.333 -27.333 102 -82l133 -317c15.333 -38.667 30 -78.167 44 -118.5s27.667 -82.833 41 -127.5h11c13.333 40.667 28.166 82.834 44.499 126.501l45.5 119.5l158 383
c14 4 28.167 6.66699 42.5 8s27.833 2 40.5 2c17.333 0 34.666 -1 51.999 -3s35 -5.33301 53 -10l8 -16l-357 -808h-198zM538.002 -8.00098c-14 0 -30.832 0.666992 -50.499 2s-37.167 3.33301 -52.5 6v507h205v-507c-16 -2.66699 -33.333 -4.66699 -52 -6
s-35.334 -2 -50.001 -2zM146.003 322.999c-2.66699 10.667 -4.66699 22.001 -6 34.001s-2 25 -2 39c0 13.333 0.666992 26.166 2 38.499s3.33301 23.833 6 34.5h783c6 -22 9 -46 9 -72s-3 -50.667 -9 -74h-783zM146.003 623c-2.66699 10.667 -4.66699 22.168 -6 34.501
s-2 25.5 -2 39.5c0 13.333 0.666992 26.166 2 38.499s3.33301 23.833 6 34.5h273v-147h-273zM656.003 623.001l-0.000976562 147h273c2.66699 -10 4.83398 -21.167 6.50098 -33.5s2.5 -25.5 2.5 -39.5c0 -25.333 -3 -50 -9 -74h-273z" />
    <glyph glyph-name="brokenbar" unicode="&#xa6;" horiz-adv-x="499" 
d="M153 493c14.667 3.33301 31.167 5.5 49.5 6.5s34.166 1.5 47.499 1.5c14.667 0 30.334 -0.5 47.001 -1.5s33 -3.16699 49 -6.5v-774c-16 -3.33301 -32.333 -5.83301 -49 -7.5s-32.334 -2.5 -47.001 -2.5c-13.333 0 -29.166 0.833008 -47.499 2.5
s-34.833 4.16699 -49.5 7.5v774zM153 1549c14.667 3.33301 31.167 5.5 49.5 6.5s34.166 1.5 47.499 1.5c14.667 0 30.334 -0.5 47.001 -1.5s33 -3.16699 49 -6.5v-774c-16 -4 -32.333 -6.66699 -49 -8s-32.334 -2 -47.001 -2c-13.333 0 -29.166 0.666992 -47.499 2
s-34.833 4 -49.5 8v774z" />
    <glyph glyph-name="section" unicode="&#xa7;" horiz-adv-x="971" 
d="M508 366c34 12 66.001 28.1641 96.001 48.4971s54.167 44 72.5 71s27.5 57.5 27.5 91.5c0 30.667 -9.5 57.334 -28.5 80.001s-44.333 42.5 -76 59.5s-65.5 32.5 -101.5 46.5l-104 41c-46.667 18 -89.334 40.333 -128.001 67s-69.667 58.834 -93 96.501
s-35 82.167 -35 133.5c0 57.333 15.667 107.833 47 151.5s73.833 77.834 127.5 102.501s114.5 37 182.5 37c53.333 0 108.5 -6.83301 165.5 -20.5s106.167 -30.167 147.5 -49.5c1.33301 -26 -3.83398 -53.667 -15.501 -83s-26.834 -51.333 -45.501 -66
c-34.667 14.667 -73.667 28.5 -117 41.5s-87.333 19.5 -132 19.5c-44 0 -80.333 -10.5 -109 -31.5s-43 -49.833 -43 -86.5c0 -30 11 -54.833 33 -74.5s52.667 -37.5 92 -53.5l117 -46c56 -23.333 108.5 -49.333 157.5 -78s88.667 -63.5 119 -104.5s45.5 -91.5 45.5 -151.5
c0 -54.667 -15.667 -105 -47 -151s-72.166 -85.5 -122.499 -118.5s-104.166 -58.167 -161.499 -75.5zM464.001 811.997c-34 -12.667 -65.668 -29 -95.001 -49s-53.5 -43.667 -72.5 -71s-28.5 -57.666 -28.5 -90.999c0 -30.667 9.5 -57.167 28.5 -79.5s44.167 -42 75.5 -59
s66 -33.167 104 -48.5l103 -40c46.667 -18.667 89.5 -41.5 128.5 -68.5s70 -59.333 93 -97s34.5 -82.167 34.5 -133.5c0 -57.333 -15.667 -107.833 -47 -151.5s-75 -77.834 -131 -102.501s-120.333 -37 -193 -37c-57.333 0 -116.5 7.5 -177.5 22.5s-112.5 35.5 -154.5 61.5
c-0.666992 25.333 5.83301 52.833 19.5 82.5s29.5 51.167 47.5 64.5c32.667 -16.667 72.167 -33.167 118.5 -49.5s96.5 -24.5 150.5 -24.5c48.667 0 87.5 10.667 116.5 32s43.5 50.333 43.5 87c0 30 -11 55 -33 75s-52.667 38 -92 54l-117 47
c-56.667 22.667 -109.5 48.334 -158.5 77.001s-88.667 63.5 -119 104.5s-45.5 91.5 -45.5 151.5c0 54.667 15.667 105 47 151s72.333 85.667 123 119s104.334 58.666 161.001 75.999z" />
    <glyph glyph-name="dieresis" unicode="&#xa8;" horiz-adv-x="796" 
d="M100 1229c0 12.667 1.16699 26.5 3.5 41.5s6.16602 28.167 11.499 39.5c11.333 6.66699 26.333 12.167 45 16.5s36 6.5 52 6.5c15.333 0 32.5 -2.16699 51.5 -6.5s34.167 -9.83301 45.5 -16.5c5.33301 -11.333 9.16602 -24.5 11.499 -39.5s3.5 -28.833 3.5 -41.5
c0 -12 -1.16699 -25.5 -3.5 -40.5s-6.16602 -28.167 -11.499 -39.5c-11.333 -6.66699 -26.5 -12.167 -45.5 -16.5s-36.167 -6.5 -51.5 -6.5c-16 0 -33.333 2.16699 -52 6.5s-33.667 9.83301 -45 16.5c-5.33301 11.333 -9.16602 24.5 -11.499 39.5s-3.5 28.5 -3.5 40.5z
M472 1229c0 12.667 1.16699 26.5 3.5 41.5s6.16602 28.167 11.499 39.5c11.333 6.66699 26.5 12.167 45.5 16.5s36.167 6.5 51.5 6.5c16 0 33.333 -2.16699 52 -6.5s33.667 -9.83301 45 -16.5c5.33301 -11.333 9.33301 -24.5 12 -39.5s4 -28.833 4 -41.5
c0 -12 -1.33301 -25.5 -4 -40.5s-6.66699 -28.167 -12 -39.5c-11.333 -6.66699 -26.333 -12.167 -45 -16.5s-36 -6.5 -52 -6.5c-15.333 0 -32.5 2.16699 -51.5 6.5s-34.167 9.83301 -45.5 16.5c-5.33301 11.333 -9.16602 24.5 -11.499 39.5s-3.5 28.5 -3.5 40.5z" />
    <glyph glyph-name="copyright" unicode="&#xa9;" horiz-adv-x="1605" 
d="M80 682c0 102 18.333 196.667 55 284s87.667 164 153 230s141.666 117.167 228.999 153.5s182.333 54.5 285 54.5c101.333 0 195.833 -18.167 283.5 -54.5s164.334 -87.5 230.001 -153.5s116.834 -142.667 153.501 -230s55 -182 55 -284s-18.333 -196.667 -55 -284
s-87.834 -163.666 -153.501 -228.999s-142.334 -116.166 -230.001 -152.499s-182.167 -54.5 -283.5 -54.5c-102.667 0 -197.667 18.167 -285 54.5s-163.666 87.166 -228.999 152.499s-116.333 141.666 -153 228.999s-55 182 -55 284zM254 682
c0 -79.333 13.5 -153.666 40.5 -222.999s65 -130.166 114 -182.499s106.833 -93.333 173.5 -123s140 -44.5 220 -44.5c79.333 0 152.5 14.833 219.5 44.5s125.167 70.667 174.5 123s87.666 113.166 114.999 182.499s41 143.666 41 222.999s-13.667 153.666 -41 222.999
s-65.666 130.333 -114.999 183s-107.5 94 -174.5 124s-140.167 45 -219.5 45c-80 0 -153.333 -15 -220 -45s-124.5 -71.333 -173.5 -124s-87 -113.667 -114 -183s-40.5 -143.666 -40.5 -222.999zM944 760c2 29.333 -1.16895 58.502 -9.50195 87.502
s-23.166 53.167 -44.499 72.5s-51 29 -89 29c-52 0 -92.667 -22.5 -122 -67.5s-44 -111.167 -44 -198.5c0 -84 16.833 -148 50.5 -192s80.167 -66 139.5 -66c33.333 0 67.5 7.83301 102.5 23.5s66.833 34.5 95.5 56.5c16 -8.66699 30.833 -22.667 44.5 -42
s22.834 -38 27.501 -56c-33.333 -34.667 -77.333 -63.334 -132 -86.001s-109.334 -34 -164.001 -34c-76.667 0 -140.5 17.5 -191.5 52.5s-89.167 82.5 -114.5 142.5s-38 127 -38 201c0 92 17.5 167.5 52.5 226.5s79.333 102.333 133 130s109.5 41.5 167.5 41.5
c64.667 0 119 -12.333 163 -37s77.333 -55.334 100 -92.001s34 -72.667 34 -108c0 -28.667 -7.16699 -51.667 -21.5 -69s-38.166 -26 -71.499 -26c-12 0 -24.167 1 -36.5 3s-22.833 4.66699 -31.5 8z" />
    <glyph glyph-name="ordfeminine" unicode="&#xaa;" horiz-adv-x="849" 
d="M79 717c0 59.333 13.167 108 39.5 146s62.5 65.833 108.5 83.5s98.333 26.5 157 26.5c31.333 0 66 -1.33301 104 -4s73.667 -6 107 -10v-123c-30 5.33301 -63.167 9.5 -99.5 12.5s-70.833 4.5 -103.5 4.5c-42.667 0 -76.167 -11.167 -100.5 -33.5
s-36.5 -52.5 -36.5 -90.5c0 -29.333 9 -54.666 27 -75.999s43.333 -32 76 -32c36 0 76.333 14 121 42s81.667 66.667 111 116l29 -128c-20 -23.333 -44.5 -47.833 -73.5 -73.5s-62.667 -47.667 -101 -66s-80.833 -27.5 -127.5 -27.5c-52.667 0 -96.5 11.333 -131.5 34
s-61.5 51.667 -79.5 87s-27 72.666 -27 111.999zM757 584c-2.66699 -16.667 -11.168 -34.002 -25.501 -52.002s-30.166 -31.333 -47.499 -40c-49.333 8.66699 -87 31.334 -113 68.001s-39 83.334 -39 140.001v322c0 45.333 -11.333 77.833 -34 97.5s-51 29.5 -85 29.5
c-42 0 -83.333 -5 -124 -15s-83 -23.333 -127 -40c-13.333 14 -25 32.333 -35 55s-15.333 46 -16 70c44.667 19.333 97.5 36.333 158.5 51s119.5 22 175.5 22c52 0 98 -9.33301 138 -28s71 -47.5 93 -86.5s33 -88.5 33 -148.5v-309c0 -30 3 -56.333 9 -79s19 -41.667 39 -57
z" />
    <glyph glyph-name="guillemotleft" unicode="&#xab;" horiz-adv-x="1116" 
d="M756 513l287.997 -331c-5.33301 -14.667 -14.166 -29.5 -26.499 -44.5s-26.666 -28.167 -42.999 -39.5s-32.166 -19.333 -47.499 -24l-396 371c-6.66699 17.333 -10 39 -10 65s3.33301 47.667 10 65l388 370c23.333 -8 46.333 -22.667 69 -44s37.667 -43.333 45 -66z
M301.997 513l287.997 -331c-5.33301 -14.667 -14.166 -29.5 -26.499 -44.5s-26.666 -28.167 -42.999 -39.5s-32.166 -19.333 -47.499 -24l-396 371c-6.66699 17.333 -10 39 -10 65s3.33301 47.667 10 65l388 370c23.333 -8 46.333 -22.667 69 -44s37.667 -43.333 45 -66z
" />
    <glyph glyph-name="logicalnot" unicode="&#xac;" horiz-adv-x="1080" 
d="M113 727c-3.33301 -14 -5.66699 -28.835 -7 -44.502s-2 -30.167 -2 -43.5s0.666992 -28.166 2 -44.499s3.66602 -31.166 6.99902 -44.499h558c16.667 0 34.334 0.333008 53.001 1s36 1 52 1l180 -2v165l-13 12h-830zM767.999 567.998
c0.666992 -16.667 0.500977 -35 -0.499023 -55s-1.5 -38 -1.5 -54v-189c16.667 -3.33301 32.667 -5.5 48 -6.5s31.666 -1.5 48.999 -1.5c16.667 0 33 0.5 49 1.5s30.667 3.16699 44 6.5v364h-190z" />
    <glyph glyph-name="uni00AD" unicode="&#xad;" horiz-adv-x="700" 
d="M101 444c-3.33301 14 -5.5 28.833 -6.5 44.5s-1.5 30.5 -1.5 44.5s0.5 28.833 1.5 44.5s3.16699 30.834 6.5 45.501h497c4 -14.667 6.5 -29.834 7.5 -45.501s1.5 -30.5 1.5 -44.5s-0.5 -28.833 -1.5 -44.5s-3.5 -30.5 -7.5 -44.5h-497z" />
    <glyph glyph-name="registered" unicode="&#xae;" horiz-adv-x="1186" 
d="M69 962c0 97.333 23.167 185.833 69.5 265.5s109 142.834 188 189.501s167.5 70 265.5 70c97.333 0 185.833 -23.333 265.5 -70s142.834 -109.834 189.501 -189.501s70 -168.167 70 -265.5c0 -98 -23.333 -186.5 -70 -265.5s-109.834 -141.667 -189.501 -188
s-168.167 -69.5 -265.5 -69.5c-98 0 -186.5 23.167 -265.5 69.5s-141.667 109 -188 188s-69.5 167.5 -69.5 265.5zM206 962c0 -74 16.833 -141 50.5 -201s79.5 -108 137.5 -144s124 -54 198 -54c73.333 0 139.333 18 198 54s104.834 84 138.501 144s50.5 127 50.5 201
c0 73.333 -16.833 140.166 -50.5 200.499s-79.834 108.666 -138.501 144.999s-124.667 54.5 -198 54.5c-74 0 -140 -18.167 -198 -54.5s-103.833 -84.666 -137.5 -144.999s-50.5 -127.166 -50.5 -200.499zM796 1073c0 -38 -10.5 -67.835 -31.5 -89.502
s-44.167 -36.167 -69.5 -43.5c14 -6 25.333 -14.667 34 -26s19.334 -28.666 32.001 -51.999l28 -52c6 -11.333 12.667 -22.166 20 -32.499s15.333 -18.5 24 -24.5c-8 -12 -19.667 -22.5 -35 -31.5s-31.666 -13.5 -48.999 -13.5c-18 0 -32.667 5.33301 -44 16
s-22 25.667 -32 45l-48 93c-6.66699 12 -14.5 21.5 -23.5 28.5s-21.5 10.5 -37.5 10.5h-100v94c17.333 1.33301 39.166 2 65.499 2h59.5c29.333 0 50.166 6.5 62.499 19.5s18.5 28.833 18.5 47.5c0 16.667 -5.83301 31.5 -17.5 44.5s-30.167 19.5 -55.5 19.5h-41h-36v-410
c-16.667 -4.66699 -37 -7 -61 -7s-44.333 2.33301 -61 7v494l6 6c32 0.666992 66 1.5 102 2.5s69 1.5 99 1.5c66 0 114.333 -13.833 145 -41.5s46 -63.5 46 -107.5z" />
    <glyph glyph-name="macron" unicode="&#xaf;" horiz-adv-x="796" 
d="M118 1151c-6.66699 25.333 -9.99902 52.335 -9.99902 81.002c0 29.333 3.33301 57.666 10 84.999h561c3.33301 -14.667 5.66602 -27.834 6.99902 -39.501s2 -26.167 2 -43.5c0 -30 -3 -57.667 -9 -83h-561z" />
    <glyph glyph-name="degree" unicode="&#xb0;" horiz-adv-x="741" 
d="M59 978c0 60 13.667 113.667 41 161s64.333 84.666 111 111.999s100 41 160 41c59.333 0 112.5 -13.667 159.5 -41s84 -64.666 111 -111.999s40.5 -101 40.5 -161s-13.5 -113.667 -40.5 -161s-64 -84.666 -111 -111.999s-100.167 -41 -159.5 -41
c-60 0 -113.333 13.667 -160 41s-83.667 64.666 -111 111.999s-41 101 -41 161zM217 978c0 -50.667 13.833 -92.167 41.5 -124.5s65.167 -48.5 112.5 -48.5c46 0 82.833 16.167 110.5 48.5s41.5 73.833 41.5 124.5c0 50 -13.833 91.333 -41.5 124s-64.5 49 -110.5 49
c-47.333 0 -84.833 -16.333 -112.5 -49s-41.5 -74 -41.5 -124z" />
    <glyph glyph-name="plusminus" unicode="&#xb1;" horiz-adv-x="1080" 
d="M143 774c-2.66699 -14.667 -4.66699 -28 -6 -40s-2 -26.333 -2 -43s0.666992 -31.334 2 -44.001s3.33301 -26.334 6 -41.001h210c16.667 0 34.334 0.333008 53.001 1s35.667 1 51 1h166c15.333 0 32.333 -0.333008 51 -1s36.334 -1 53.001 -1h210
c2.66699 14.667 4.66699 28.334 6 41.001s2 27.334 2 44.001s-0.666992 31 -2 43s-3.33301 25.333 -6 40h-210c-16.667 0 -34.334 -0.333008 -53.001 -1s-35.667 -1 -51 -1h-166c-15.333 0 -32.333 0.333008 -51 1s-36.334 1 -53.001 1h-210zM447 872
c0 -16.667 0.333008 -34.834 1 -54.501s1 -37.5 1 -53.5v-148c0 -16 -0.333008 -33.667 -1 -53s-1 -37.333 -1 -54v-206c14.667 -2.66699 29.834 -4.5 45.501 -5.5s31.834 -1.5 48.501 -1.5c16 0 32 0.5 48 1.5s31 2.83301 45 5.5v206c0 16.667 -0.333008 34.667 -1 54
s-1 37 -1 53v148c0 16 0.333008 33.833 1 53.5s1 37.834 1 54.501v211c-14 3.33301 -29 5.66602 -45 6.99902s-32 2 -48 2c-16.667 0 -32.834 -0.666992 -48.501 -2s-30.834 -3.66602 -45.501 -6.99902v-211zM143 0c-2.66699 15.333 -4.66699 29.5 -6 42.5s-2 27.5 -2 43.5
c0 17.333 0.666992 32 2 44s3.33301 26 6 42h794c2.66699 -16 4.66699 -30 6 -42s2 -26.667 2 -44c0 -16 -0.666992 -30.5 -2 -43.5s-3.33301 -27.167 -6 -42.5h-794z" />
    <glyph glyph-name="uni00B2" unicode="&#xb2;" horiz-adv-x="834" 
d="M122 1293c16.667 56.667 49.3311 105.169 97.998 145.502s110.334 60.5 185.001 60.5c82.667 0 148.834 -25 198.501 -75s74.5 -111.333 74.5 -184c0 -46 -9 -86.167 -27 -120.5s-40 -63.833 -66 -88.5s-50.667 -45.667 -74 -63l-95 -69
c-42 -30.667 -74.167 -58.334 -96.5 -83.001s-33.5 -47.667 -33.5 -69v-105h-119c-22 24 -37.167 43.833 -45.5 59.5s-12.5 32.167 -12.5 49.5c0 37.333 15.5 77 46.5 119s67.833 79.667 110.5 113l125 97c26 20 50 42.667 72 68s33 55.333 33 90
c0 32 -9.83301 58.167 -29.5 78.5s-45.167 30.166 -76.5 29.499c-31.333 0 -58.5 -11 -81.5 -33s-40.833 -49.333 -53.5 -82c-15.333 1.33301 -32 5 -50 11s-34.667 13.5 -50 22.5s-26.333 18.5 -33 28.5zM701.997 799.002c0 -44 -4.00098 -77.332 -12.001 -99.999
s-19.5 -37.834 -34.5 -45.501s-33.5 -11.5 -55.5 -11.5h-411l-22 108c28 12.667 59.333 22.5 94 29.5s71.334 12 110.001 15s77 4.5 115 4.5h216z" />
    <glyph glyph-name="uni00B3" unicode="&#xb3;" horiz-adv-x="834" 
d="M520 912c0 44 -13.5059 77.666 -40.5059 100.999s-58.833 35 -95.5 35c-14 0 -28.167 -1.5 -42.5 -4.5s-27.833 -7.83301 -40.5 -14.5c-15.333 6.66699 -29.666 19 -42.999 37s-21.666 37.333 -24.999 58c34 11.333 71 20.833 111 28.5s76.333 11.5 109 11.5
c44 0 84.833 -10.167 122.5 -30.5s67.834 -49.5 90.501 -87.5s34 -83.333 34 -136c0 -63.333 -15.667 -115.833 -47 -157.5s-71.666 -72.667 -120.999 -93s-100.666 -30.5 -153.999 -30.5c-57.333 0 -109.5 8.33301 -156.5 25s-85.5 37.334 -115.5 62.001
c4 22.667 12.5 45 25.5 67s27.5 40 43.5 54c26.667 -18.667 56.334 -34 89.001 -46s68 -18 106 -18c44 0 80 12.167 108 36.5s42 58.5 42 102.5zM522.994 1206c-22 -20.667 -50.999 -41.666 -86.999 -62.999s-71.333 -38.333 -106 -51l-97 32l154 155l36.5 33
c13.667 12 26.5 22 38.5 30l-4 6c-16.667 -3.33301 -40.834 -5.83301 -72.501 -7.5s-58.5 -2.5 -80.5 -2.5h-161c-2.66699 12.667 -4.66699 24.667 -6 36s-2 21.333 -2 30c0 12 1 25.167 3 39.5s5.66699 28.166 11 41.499h481c8 -14.667 15.5 -31.167 22.5 -49.5
s10.5 -35.5 10.5 -51.5c0 -14.667 -3 -27.667 -9 -39s-15.667 -23 -29 -35z" />
    <glyph glyph-name="acute" unicode="&#xb4;" horiz-adv-x="796" 
d="M469 1478c30 -10 58.833 -27.833 86.5 -53.5s47.167 -53.167 58.5 -82.5l-342 -266c-18.667 5.33301 -36.5 15.833 -53.5 31.5s-29.5 33.167 -37.5 52.5z" />
    <glyph glyph-name="uni00B5" unicode="&#xb5;" horiz-adv-x="1108" 
d="M229 456v-137c0 -62.667 11.5 -119.667 34.5 -171s55.833 -92 98.5 -122s93 -45 151 -45c66.667 0 124.167 18 172.5 54s86.166 81.333 113.499 136l-10 192c-28 -60.667 -63.333 -109.667 -106 -147s-91.667 -56 -147 -56c-53.333 0 -96.166 17.333 -128.499 52
s-48.5 84 -48.5 148v96h-130zM948 987c-14.667 2.66699 -31.001 4.66797 -49.001 6.00098s-36.333 2 -55 2s-37 -0.666992 -55 -2s-34 -3.33301 -48 -6v-736c0 -64 14.5 -121.167 43.5 -171.5s76.167 -81.833 141.5 -94.5c16.667 10.667 32.334 26.167 47.001 46.5
s25 40.166 31 59.499c-22 19.333 -36.833 46 -44.5 80s-11.5 70.667 -11.5 110v706zM358.999 987.001c-28.667 5.33301 -62.668 8 -102.001 8c-18.667 0 -36.834 -0.666992 -54.501 -2s-33.167 -3.33301 -46.5 -6v-1200c0 -29.333 -2.16699 -60.833 -6.5 -94.5
s-13.166 -62.834 -26.499 -87.501c16 -13.333 34.833 -23.666 56.5 -30.999s44.834 -11 69.501 -11c41.333 0 68.333 12.5 81 37.5s19 58.833 19 101.5v457h10v828z" />
    <glyph glyph-name="paragraph" unicode="&#xb6;" horiz-adv-x="1342" 
d="M574 121c0 -58.667 -5.00488 -107.998 -15.0049 -147.998s-28.833 -70 -56.5 -90s-68.167 -30 -121.5 -30c-30.667 0 -63.5 4.33301 -98.5 13s-65.833 18 -92.5 28c-15.333 -19.333 -27.666 -44.833 -36.999 -76.5s-13.666 -58.5 -12.999 -80.5
c28.667 -12 67.167 -23 115.5 -33s96.833 -15 145.5 -15c98.667 0 175.834 18.167 231.501 54.5s94.834 89.166 117.501 158.499s34 153.666 34 252.999v1200l-13 13c-43.333 2 -81.666 3.66699 -114.999 5s-71 2 -113 2c-88.667 0 -167.5 -15.333 -236.5 -46
s-123.333 -78 -163 -142s-59.5 -145.667 -59.5 -245c0 -97.333 19.667 -178.5 59 -243.5s93 -114 161 -147s145.333 -49.5 232 -49.5h38v-381zM913.995 1353l13.002 13h199v-1632c-16.667 -2.66699 -34.334 -4.66699 -53.001 -6s-36.334 -2 -53.001 -2
c-15.333 0 -33 0.666992 -53 2s-37.667 3.33301 -53 6v1619zM1022 1366h265.001c4 -14 6.83301 -32.833 8.5 -56.5s1.66699 -47.167 0 -70.5s-4.5 -42 -8.5 -56h-80c-20 0 -39.833 0.666992 -59.5 2s-37.834 2 -54.501 2h-71v179z" />
    <glyph glyph-name="periodcentered" unicode="&#xb7;" horiz-adv-x="609" 
d="M171.681 526c0 12 1.40918 28.667 4.22852 50c2.82031 21.333 7.36328 38 13.6299 50c12.5342 7.33301 29.7676 13.5 51.7002 18.5c21.9336 5 42.9268 7.5 62.9805 7.5c18.7998 0 39.6367 -2.5 62.5098 -7.5c22.874 -5 40.2646 -11.167 52.1719 -18.5
c6.2666 -12 10.9668 -28.667 14.1006 -50s4.7002 -38 4.7002 -50s-1.56641 -28.667 -4.7002 -50s-7.83398 -37.666 -14.1006 -48.999c-10.6533 -8 -27.7305 -14.333 -51.2305 -19s-44.6504 -7 -63.4502 -7c-20.0537 0 -41.0469 2.33301 -62.9805 7
c-21.9326 4.66699 -39.166 11 -51.7002 19c-6.2666 11.333 -10.8096 27.666 -13.6299 48.999c-2.81934 21.333 -4.22949 38 -4.22949 50z" />
    <glyph glyph-name="cedilla" unicode="&#xb8;" horiz-adv-x="796" 
d="M263 -149c7.33301 22.667 18.166 50.168 32.499 82.501s27.166 58.5 38.499 78.5h127c-6.66699 -9.33301 -14.5 -23 -23.5 -41s-15.5 -32.667 -19.5 -44c50 -5.33301 92.333 -23.5 127 -54.5s52 -71.5 52 -121.5c0 -58 -22.667 -105.5 -68 -142.5
s-102.666 -55.5 -171.999 -55.5c-31.333 0 -61.166 4 -89.499 12s-50.833 17.333 -67.5 28c0.666992 19.333 4.66699 38.166 12 56.499s17 34.5 29 48.5c12.667 -7.33301 28 -13.666 46 -18.999s36 -8 54 -8c30.667 0 53.167 7.66699 67.5 23s21.5 33.333 21.5 54
c0 21.333 -7.16699 39.5 -21.5 54.5s-35.5 22.5 -63.5 22.5c-8 0 -16.167 -0.833008 -24.5 -2.5s-15.5 -3.83398 -21.5 -6.50098c-18 8 -30 19.667 -36 35z" />
    <glyph glyph-name="uni00B9" unicode="&#xb9;" horiz-adv-x="834" 
d="M545 716l-172.001 0.000976562v390c0 15.333 0.666992 34.166 2 56.499l4 69.5c1.33301 24 2 46.333 2 67l-1 184c14 2.66699 28.333 4.83398 43 6.50098s28.334 2.5 41.001 2.5c13.333 0 26 -0.833008 38 -2.5s26.333 -3.83398 43 -6.50098v-767zM276.999 788.001
c12 0 28.1689 -0.333008 48.502 -1s36.166 -1 47.499 -1h172c10.667 0 27.167 0.333008 49.5 1s39.166 1 50.499 1h63c3.33301 -11.333 5.66602 -23.333 6.99902 -36s2 -25 2 -37c0 -10.667 -0.666992 -22.5 -2 -35.5s-3.66602 -25.5 -6.99902 -37.5h-537
c-5.33301 26.667 -8 51 -8 73c0 11.333 0.666992 23.5 2 36.5s3.33301 25.167 6 36.5h106zM118.001 1210c69.333 40.667 123.833 82.333 163.5 125s72.5 92 98.5 148l63 -122c-18.667 -62.667 -49 -115 -91 -157s-94.333 -77.333 -157 -106c-20 10 -37 25.833 -51 47.5
s-22.667 43.167 -26 64.5z" />
    <glyph glyph-name="ordmasculine" unicode="&#xba;" horiz-adv-x="826" 
d="M754 889c0 -62.667 -8.33203 -121.832 -24.999 -177.499s-46 -103.834 -88 -144.501c-28.667 -27.333 -62.667 -48 -102 -62s-81.666 -21 -126.999 -21s-87.833 6.83301 -127.5 20.5s-73.167 34.5 -100.5 62.5c-40.667 42 -69.667 90.5 -87 145.5s-26 113.833 -26 176.5
c0 61.333 8.33301 119.833 25 175.5s46 104.167 88 145.5c28 26.667 61.667 47 101 61s81.666 21 126.999 21s88.166 -6.66699 128.499 -20s73.833 -34 100.5 -62c40.667 -42.667 69.667 -91.5 87 -146.5s26 -113.167 26 -174.5zM251.001 889.002c0 -48 5 -92 15 -132
s26.833 -72.167 50.5 -96.5s56.167 -36.5 97.5 -36.5c39.333 0 70.833 12.167 94.5 36.5s40.667 56.5 51 96.5s15.5 84 15.5 132c0 47.333 -5.16699 91.166 -15.5 131.499s-27.333 72.5 -51 96.5s-55.167 36 -94.5 36c-41.333 0 -73.833 -12 -97.5 -36
s-40.5 -56.167 -50.5 -96.5s-15 -84.166 -15 -131.499z" />
    <glyph glyph-name="guillemotright" unicode="&#xbb;" horiz-adv-x="1116" 
d="M361 505l-287.998 331.001c5.33301 15.333 14.166 30.333 26.499 45s26.666 27.667 42.999 39s32.166 19.666 47.499 24.999l396 -371c7.33301 -17.333 11 -39.166 11 -65.499s-3.66699 -47.833 -11 -64.5l-388 -370c-23.333 7.33301 -46.166 21.666 -68.499 42.999
s-37.5 43.333 -45.5 66zM815.002 505.001l-287.998 331.001c5.33301 15.333 14.166 30.333 26.499 45s26.666 27.667 42.999 39s32.166 19.666 47.499 24.999l396 -371c7.33301 -17.333 11 -39.166 11 -65.499s-3.66699 -47.833 -11 -64.5l-388 -370
c-23.333 7.33301 -46.166 21.666 -68.499 42.999s-37.5 43.333 -45.5 66z" />
    <glyph glyph-name="onequarter" unicode="&#xbc;" horiz-adv-x="1998" 
d="M545 597l-172.001 0.000976562v390c0 15.333 0.666992 34.166 2 56.499l4 69.5c1.33301 24 2 46.333 2 67l-1 184c14 2.66699 28.333 4.83398 43 6.50098s28.334 2.5 41.001 2.5c13.333 0 26 -0.833008 38 -2.5s26.333 -3.83398 43 -6.50098v-767zM276.999 669.001
c12 0 28.1689 -0.333008 48.502 -1s36.166 -1 47.499 -1h172c10.667 0 27.167 0.333008 49.5 1s39.166 1 50.499 1h63c3.33301 -11.333 5.66602 -23.333 6.99902 -36s2 -25 2 -37c0 -10.667 -0.666992 -22.5 -2 -35.5s-3.66602 -25.5 -6.99902 -37.5h-537
c-5.33301 26.667 -8 51 -8 73c0 11.333 0.666992 23.5 2 36.5s3.33301 25.167 6 36.5h106zM118.001 1091c69.333 40.667 123.833 82.333 163.5 125s72.5 92 98.5 148l63 -122c-18.667 -62.667 -49 -115 -91 -157s-94.333 -77.333 -157 -106c-20 10 -37 25.833 -51 47.5
s-22.667 43.167 -26 64.5zM1334 1366c17.333 5.33301 39.6689 8.83301 67.002 10.5s53.666 1.5 78.999 -0.5s44.333 -5.33301 57 -10l-753 -1366c-17.333 -5.33301 -39.5 -8.83301 -66.5 -10.5s-53.333 -1.5 -79 0.5s-44.834 5.33301 -57.501 10zM1298 156
c-10 16 -19.0029 33.667 -27.0029 53s-12 36.333 -12 51c0 12 3.5 27.333 10.5 46s13.167 34 18.5 46l231 500c26.667 4 56.5 2.33301 89.5 -5s58.167 -18.666 75.5 -33.999l-151 -324l-28 -60c-10.667 -22.667 -22.167 -45.334 -34.5 -68.001s-24.5 -42 -36.5 -58l3 -4
c16.667 1.33301 33.834 2.33301 51.501 3s34.334 1.16699 50.001 1.5s28.167 0.5 37.5 0.5h202c9.33301 0 19.833 0.166992 31.5 0.5s22.5 0.5 32.5 0.5h56c2.66699 -9.33301 4.5 -20 5.5 -32s1.5 -23.667 1.5 -35c0 -13.333 -1.16699 -27.833 -3.5 -43.5
s-5.16602 -28.5 -8.49902 -38.5h-54c-8.66699 0 -19 0.166992 -31 0.5s-22.333 0.5 -31 0.5h-162c-10 0 -22.667 -0.166992 -38 -0.5s-29.333 -0.5 -42 -0.5h-237zM1613 87c0 12 0.333984 24.166 1.00098 36.499s1 23.5 1 33.5v129c0 6.66699 -0.333008 17.334 -1 32.001
s-1 26 -1 34v65c0 37.333 10.167 67.5 30.5 90.5s47.166 34.5 80.499 34.5h49l6 -6v-143c0 -14 -0.333008 -29.167 -1 -45.5s-1 -30.833 -1 -43.5v-147c0 -10 0.333008 -21.167 1 -33.5s1 -24.5 1 -36.5v-86c-12 -4 -25.333 -6.66699 -40 -8s-28.667 -2 -42 -2
c-14 0 -28.5 0.666992 -43.5 2s-28.5 4 -40.5 8v86z" />
    <glyph glyph-name="onehalf" unicode="&#xbd;" horiz-adv-x="2025" 
d="M545 597l-172.001 0.000976562v390c0 15.333 0.666992 34.166 2 56.499l4 69.5c1.33301 24 2 46.333 2 67l-1 184c14 2.66699 28.333 4.83398 43 6.50098s28.334 2.5 41.001 2.5c13.333 0 26 -0.833008 38 -2.5s26.333 -3.83398 43 -6.50098v-767zM276.999 669.001
c12 0 28.1689 -0.333008 48.502 -1s36.166 -1 47.499 -1h172c10.667 0 27.167 0.333008 49.5 1s39.166 1 50.499 1h63c3.33301 -11.333 5.66602 -23.333 6.99902 -36s2 -25 2 -37c0 -10.667 -0.666992 -22.5 -2 -35.5s-3.66602 -25.5 -6.99902 -37.5h-537
c-5.33301 26.667 -8 51 -8 73c0 11.333 0.666992 23.5 2 36.5s3.33301 25.167 6 36.5h106zM118.001 1091c69.333 40.667 123.833 82.333 163.5 125s72.5 92 98.5 148l63 -122c-18.667 -62.667 -49 -115 -91 -157s-94.333 -77.333 -157 -106c-20 10 -37 25.833 -51 47.5
s-22.667 43.167 -26 64.5zM1334 1366c17.333 5.33301 39.6689 8.83301 67.002 10.5s53.666 1.5 78.999 -0.5s44.333 -5.33301 57 -10l-753 -1366c-17.333 -5.33301 -39.5 -8.83301 -66.5 -10.5s-53.333 -1.5 -79 0.5s-44.834 5.33301 -57.501 10zM1313 651
c16.667 56.667 49.3311 105.169 97.998 145.502s110.334 60.5 185.001 60.5c82.667 0 148.834 -25 198.501 -75s74.5 -111.333 74.5 -184c0 -46 -9 -86.167 -27 -120.5s-40 -63.833 -66 -88.5s-50.667 -45.667 -74 -63l-95 -69c-42 -30.667 -74.167 -58.334 -96.5 -83.001
s-33.5 -47.667 -33.5 -69v-105h-119c-22 24 -37.167 43.833 -45.5 59.5s-12.5 32.167 -12.5 49.5c0 37.333 15.5 77 46.5 119s67.833 79.667 110.5 113l125 97c26 20 50 42.667 72 68s33 55.333 33 90c0 32 -9.83301 58.167 -29.5 78.5s-45.167 30.166 -76.5 29.499
c-31.333 0 -58.5 -11 -81.5 -33s-40.833 -49.333 -53.5 -82c-15.333 1.33301 -32 5 -50 11s-34.667 13.5 -50 22.5s-26.333 18.5 -33 28.5zM1893 157.002c0 -44 -4.00098 -77.332 -12.001 -99.999s-19.5 -37.834 -34.5 -45.501s-33.5 -11.5 -55.5 -11.5h-411l-22 108
c28 12.667 59.333 22.5 94 29.5s71.334 12 110.001 15s77 4.5 115 4.5h216z" />
    <glyph glyph-name="threequarters" unicode="&#xbe;" horiz-adv-x="1956" 
d="M520 793c0 44 -13.5059 77.666 -40.5059 100.999s-58.833 35 -95.5 35c-14 0 -28.167 -1.5 -42.5 -4.5s-27.833 -7.83301 -40.5 -14.5c-15.333 6.66699 -29.666 19 -42.999 37s-21.666 37.333 -24.999 58c34 11.333 71 20.833 111 28.5s76.333 11.5 109 11.5
c44 0 84.833 -10.167 122.5 -30.5s67.834 -49.5 90.501 -87.5s34 -83.333 34 -136c0 -63.333 -15.667 -115.833 -47 -157.5s-71.666 -72.667 -120.999 -93s-100.666 -30.5 -153.999 -30.5c-57.333 0 -109.5 8.33301 -156.5 25s-85.5 37.334 -115.5 62.001
c4 22.667 12.5 45 25.5 67s27.5 40 43.5 54c26.667 -18.667 56.334 -34 89.001 -46s68 -18 106 -18c44 0 80 12.167 108 36.5s42 58.5 42 102.5zM522.994 1087c-22 -20.667 -50.999 -41.666 -86.999 -62.999s-71.333 -38.333 -106 -51l-97 32l154 155l36.5 33
c13.667 12 26.5 22 38.5 30l-4 6c-16.667 -3.33301 -40.834 -5.83301 -72.501 -7.5s-58.5 -2.5 -80.5 -2.5h-161c-2.66699 12.667 -4.66699 24.667 -6 36s-2 21.333 -2 30c0 12 1 25.167 3 39.5s5.66699 28.166 11 41.499h481c8 -14.667 15.5 -31.167 22.5 -49.5
s10.5 -35.5 10.5 -51.5c0 -14.667 -3 -27.667 -9 -39s-15.667 -23 -29 -35zM1291 1366c17.333 5.33301 39.6689 8.83301 67.002 10.5s53.666 1.5 78.999 -0.5s44.333 -5.33301 57 -10l-753 -1366c-17.333 -5.33301 -39.5 -8.83301 -66.5 -10.5s-53.333 -1.5 -79 0.5
s-44.834 5.33301 -57.501 10zM1256 156c-10 16 -19.0029 33.667 -27.0029 53s-12 36.333 -12 51c0 12 3.5 27.333 10.5 46s13.167 34 18.5 46l231 500c26.667 4 56.5 2.33301 89.5 -5s58.167 -18.666 75.5 -33.999l-151 -324l-28 -60
c-10.667 -22.667 -22.167 -45.334 -34.5 -68.001s-24.5 -42 -36.5 -58l3 -4c16.667 1.33301 33.834 2.33301 51.501 3s34.334 1.16699 50.001 1.5s28.167 0.5 37.5 0.5h202c9.33301 0 19.833 0.166992 31.5 0.5s22.5 0.5 32.5 0.5h56c2.66699 -9.33301 4.5 -20 5.5 -32
s1.5 -23.667 1.5 -35c0 -13.333 -1.16699 -27.833 -3.5 -43.5s-5.16602 -28.5 -8.49902 -38.5h-54c-8.66699 0 -19 0.166992 -31 0.5s-22.333 0.5 -31 0.5h-162c-10 0 -22.667 -0.166992 -38 -0.5s-29.333 -0.5 -42 -0.5h-237zM1571 87c0 12 0.333984 24.166 1.00098 36.499
s1 23.5 1 33.5v129c0 6.66699 -0.333008 17.334 -1 32.001s-1 26 -1 34v65c0 37.333 10.167 67.5 30.5 90.5s47.166 34.5 80.499 34.5h49l6 -6v-143c0 -14 -0.333008 -29.167 -1 -45.5s-1 -30.833 -1 -43.5v-147c0 -10 0.333008 -21.167 1 -33.5s1 -24.5 1 -36.5v-86
c-12 -4 -25.333 -6.66699 -40 -8s-28.667 -2 -42 -2c-14 0 -28.5 0.666992 -43.5 2s-28.5 4 -40.5 8v86z" />
    <glyph glyph-name="questiondown" unicode="&#xbf;" horiz-adv-x="791" 
d="M775 -305c-54 -29.333 -113.666 -53.666 -178.999 -72.999s-132.666 -29 -201.999 -29c-114 0 -204.5 31.167 -271.5 93.5s-100.5 145.166 -100.5 248.499c0 92.667 25.167 170.167 75.5 232.5s112.166 113.833 185.499 154.5l125 70l16 203
c12 4.66699 24.5 7.83398 37.5 9.50098s26.167 2.5 39.5 2.5s27.333 -0.833008 42 -2.5s28 -4.83398 40 -9.50098l12 -298l-17 -22l-98 -49c-70.667 -36 -127.834 -75.667 -171.501 -119s-65.5 -94 -65.5 -152c0 -53.333 17.333 -96.5 52 -129.5s82.667 -49.5 144 -49.5
c46 0 91 7.16699 135 21.5s85.667 31.833 125 52.5c18.667 -15.333 35.5 -38 50.5 -68s23.5 -59 25.5 -87zM502.001 768c-20 0 -40.667 2.16699 -62 6.5s-38.666 10.5 -51.999 18.5c-5.33301 8.66699 -9.5 23 -12.5 43s-4.5 37 -4.5 51c0 13.333 1.5 29.833 4.5 49.5
s7.16699 34.167 12.5 43.5c13.333 7.33301 30.666 13.333 51.999 18s42 7 62 7c21.333 0 42.166 -2.33301 62.499 -7s37.166 -10.667 50.499 -18c5.33301 -9.33301 9.5 -23.833 12.5 -43.5s4.5 -36.167 4.5 -49.5c0 -14 -1.5 -31 -4.5 -51s-7.16699 -34.333 -12.5 -43
c-13.333 -8 -30.166 -14.167 -50.499 -18.5s-41.166 -6.5 -62.499 -6.5z" />
    <glyph glyph-name="Agrave" unicode="&#xc0;" horiz-adv-x="1223" 
d="M491 1366c16.667 2.66699 36.999 4.66504 60.999 5.99805s45 2 63 2c16.667 0 37 -0.666992 61 -2s43.333 -3.66602 58 -6.99902l449 -1352c-15.333 -9.33301 -34.166 -16.166 -56.499 -20.499s-44.833 -6.5 -67.5 -6.5c-34 0 -60.167 7.66699 -78.5 23
s-34.5 45.333 -48.5 90l-220 695c-18.667 58 -37.5 119.667 -56.5 185s-35.5 124.333 -49.5 177h-10c-6.66699 -30 -14.834 -62.833 -24.501 -98.5l-28.5 -104c-9.33301 -33.667 -17.666 -62.5 -24.999 -86.5l-276 -869c-13.333 -2.66699 -28 -4.66699 -44 -6s-32 -2 -48 -2
c-18.667 0 -37 1.33301 -55 4s-34.333 6 -49 10l-6 11zM463.999 329.998c-6 0 -18.501 0.166992 -37.501 0.5l-57.5 1c-19.333 0.333008 -32 0.5 -38 0.5h-99l66 173h87c6.66699 0 18.334 0.166992 35.001 0.5l50 1c16.667 0.333008 28.334 0.5 35.001 0.5h199
c6 0 17.5 -0.166992 34.5 -0.5l52 -1c17.667 -0.333008 29.5 -0.5 35.5 -0.5h90l57 -173h-99c-6.66699 0 -19.834 -0.166992 -39.501 -0.5l-58 -1c-19 -0.333008 -31.5 -0.5 -37.5 -0.5h-275zM435.998 1805c-14 -10 -27.5 -24.001 -40.5 -42.001
s-24.167 -38.167 -33.5 -60.5s-15.333 -44.833 -18 -67.5l435 -178c18 10.667 32 26.334 42 47.001s17 40.667 21 60z" />
    <glyph glyph-name="Aacute" unicode="&#xc1;" horiz-adv-x="1223" 
d="M491 1366c16.667 2.66699 36.999 4.66504 60.999 5.99805s45 2 63 2c16.667 0 37 -0.666992 61 -2s43.333 -3.66602 58 -6.99902l449 -1352c-15.333 -9.33301 -34.166 -16.166 -56.499 -20.499s-44.833 -6.5 -67.5 -6.5c-34 0 -60.167 7.66699 -78.5 23
s-34.5 45.333 -48.5 90l-220 695c-18.667 58 -37.5 119.667 -56.5 185s-35.5 124.333 -49.5 177h-10c-6.66699 -30 -14.834 -62.833 -24.501 -98.5l-28.5 -104c-9.33301 -33.667 -17.666 -62.5 -24.999 -86.5l-276 -869c-13.333 -2.66699 -28 -4.66699 -44 -6s-32 -2 -48 -2
c-18.667 0 -37 1.33301 -55 4s-34.333 6 -49 10l-6 11zM463.999 329.998c-6 0 -18.501 0.166992 -37.501 0.5l-57.5 1c-19.333 0.333008 -32 0.5 -38 0.5h-99l66 173h87c6.66699 0 18.334 0.166992 35.001 0.5l50 1c16.667 0.333008 28.334 0.5 35.001 0.5h199
c6 0 17.5 -0.166992 34.5 -0.5l52 -1c17.667 -0.333008 29.5 -0.5 35.5 -0.5h90l57 -173h-99c-6.66699 0 -19.834 -0.166992 -39.501 -0.5l-58 -1c-19 -0.333008 -31.5 -0.5 -37.5 -0.5h-275zM817.998 1805c13.333 -10 26.501 -24 39.501 -42s24.167 -38.167 33.5 -60.5
s15.666 -44.833 18.999 -67.5l-436 -178c-16 10 -29.667 25.667 -41 47s-18.333 41.333 -21 60z" />
    <glyph glyph-name="Acircumflex" unicode="&#xc2;" horiz-adv-x="1223" 
d="M491 1366c16.667 2.66699 36.999 4.66504 60.999 5.99805s45 2 63 2c16.667 0 37 -0.666992 61 -2s43.333 -3.66602 58 -6.99902l449 -1352c-15.333 -9.33301 -34.166 -16.166 -56.499 -20.499s-44.833 -6.5 -67.5 -6.5c-34 0 -60.167 7.66699 -78.5 23
s-34.5 45.333 -48.5 90l-220 695c-18.667 58 -37.5 119.667 -56.5 185s-35.5 124.333 -49.5 177h-10c-6.66699 -30 -14.834 -62.833 -24.501 -98.5l-28.5 -104c-9.33301 -33.667 -17.666 -62.5 -24.999 -86.5l-276 -869c-13.333 -2.66699 -28 -4.66699 -44 -6s-32 -2 -48 -2
c-18.667 0 -37 1.33301 -55 4s-34.333 6 -49 10l-6 11zM463.999 329.998c-6 0 -18.501 0.166992 -37.501 0.5l-57.5 1c-19.333 0.333008 -32 0.5 -38 0.5h-99l66 173h87c6.66699 0 18.334 0.166992 35.001 0.5l50 1c16.667 0.333008 28.334 0.5 35.001 0.5h199
c6 0 17.5 -0.166992 34.5 -0.5l52 -1c17.667 -0.333008 29.5 -0.5 35.5 -0.5h90l57 -173h-99c-6.66699 0 -19.834 -0.166992 -39.501 -0.5l-58 -1c-19 -0.333008 -31.5 -0.5 -37.5 -0.5h-275zM702.998 1776l224.002 -212c-7.33301 -22.667 -20.333 -42 -39 -58
s-35.667 -26.667 -51 -32l-225 150l-224 -150c-16 5.33301 -33.333 16 -52 32s-32 35.333 -40 58l225 212c27.333 5.33301 57.666 8 90.999 8s63.666 -2.66699 90.999 -8z" />
    <glyph glyph-name="Atilde" unicode="&#xc3;" horiz-adv-x="1223" 
d="M491 1366c16.667 2.66699 36.999 4.66504 60.999 5.99805s45 2 63 2c16.667 0 37 -0.666992 61 -2s43.333 -3.66602 58 -6.99902l449 -1352c-15.333 -9.33301 -34.166 -16.166 -56.499 -20.499s-44.833 -6.5 -67.5 -6.5c-34 0 -60.167 7.66699 -78.5 23
s-34.5 45.333 -48.5 90l-220 695c-18.667 58 -37.5 119.667 -56.5 185s-35.5 124.333 -49.5 177h-10c-6.66699 -30 -14.834 -62.833 -24.501 -98.5l-28.5 -104c-9.33301 -33.667 -17.666 -62.5 -24.999 -86.5l-276 -869c-13.333 -2.66699 -28 -4.66699 -44 -6s-32 -2 -48 -2
c-18.667 0 -37 1.33301 -55 4s-34.333 6 -49 10l-6 11zM463.999 329.998c-6 0 -18.501 0.166992 -37.501 0.5l-57.5 1c-19.333 0.333008 -32 0.5 -38 0.5h-99l66 173h87c6.66699 0 18.334 0.166992 35.001 0.5l50 1c16.667 0.333008 28.334 0.5 35.001 0.5h199
c6 0 17.5 -0.166992 34.5 -0.5l52 -1c17.667 -0.333008 29.5 -0.5 35.5 -0.5h90l57 -173h-99c-6.66699 0 -19.834 -0.166992 -39.501 -0.5l-58 -1c-19 -0.333008 -31.5 -0.5 -37.5 -0.5h-275zM524.998 1566c-12 5.33301 -23.1699 9.66992 -33.5029 13.0029
s-21.166 5 -32.499 5c-14.667 0 -28.834 -4.5 -42.501 -13.5s-26.167 -20.833 -37.5 -35.5l-23 -30c-20 1.33301 -40.333 7.83301 -61 19.5s-34.667 26.5 -42 44.5l14 32c21.333 48 49.333 85.5 84 112.5s75.667 40.5 123 40.5c22.667 0 43.834 -3.33301 63.501 -10
s37.834 -13.667 54.501 -21l107 -51c11.333 -6 23.333 -10.833 36 -14.5s24 -5.5 34 -5.5c14.667 0 28.667 4.16699 42 12.5s26 20.5 38 36.5l23 29c20.667 -0.666992 41.167 -6.83398 61.5 -18.501s34.166 -26.5 41.499 -44.5l-14 -32
c-21.333 -48.667 -49.5 -86.334 -84.5 -113.001s-75.5 -40 -121.5 -40c-23.333 0 -45.166 3.16699 -65.499 9.5s-38.166 13.166 -53.499 20.499z" />
    <glyph glyph-name="Adieresis" unicode="&#xc4;" horiz-adv-x="1223" 
d="M491 1366c16.667 2.66699 36.999 4.66504 60.999 5.99805s45 2 63 2c16.667 0 37 -0.666992 61 -2s43.333 -3.66602 58 -6.99902l449 -1352c-15.333 -9.33301 -34.166 -16.166 -56.499 -20.499s-44.833 -6.5 -67.5 -6.5c-34 0 -60.167 7.66699 -78.5 23
s-34.5 45.333 -48.5 90l-220 695c-18.667 58 -37.5 119.667 -56.5 185s-35.5 124.333 -49.5 177h-10c-6.66699 -30 -14.834 -62.833 -24.501 -98.5l-28.5 -104c-9.33301 -33.667 -17.666 -62.5 -24.999 -86.5l-276 -869c-13.333 -2.66699 -28 -4.66699 -44 -6s-32 -2 -48 -2
c-18.667 0 -37 1.33301 -55 4s-34.333 6 -49 10l-6 11zM463.999 329.998c-6 0 -18.501 0.166992 -37.501 0.5l-57.5 1c-19.333 0.333008 -32 0.5 -38 0.5h-99l66 173h87c6.66699 0 18.334 0.166992 35.001 0.5l50 1c16.667 0.333008 28.334 0.5 35.001 0.5h199
c6 0 17.5 -0.166992 34.5 -0.5l52 -1c17.667 -0.333008 29.5 -0.5 35.5 -0.5h90l57 -173h-99c-6.66699 0 -19.834 -0.166992 -39.501 -0.5l-58 -1c-19 -0.333008 -31.5 -0.5 -37.5 -0.5h-275zM822.998 1487c-17.333 0 -35.166 1.83301 -53.499 5.5s-34.166 9.5 -47.499 17.5
c-5.33301 14 -9 28.333 -11 43s-3 27.667 -3 39c0 12 1 25.333 3 40s5.66699 29 11 43c13.333 7.33301 29.166 13 47.499 17s36.166 6 53.499 6c16.667 0 34.334 -2 53.001 -6s34.334 -9.66699 47.001 -17c5.33301 -14 9.16602 -28.333 11.499 -43s3.5 -28 3.5 -40
c0 -11.333 -1.16699 -24.333 -3.5 -39s-6.16602 -29 -11.499 -43c-12.667 -8 -28.334 -13.833 -47.001 -17.5s-36.334 -5.5 -53.001 -5.5zM403.998 1487c-17.333 0 -35.166 1.83301 -53.499 5.5s-34.166 9.5 -47.499 17.5c-5.33301 14 -9 28.333 -11 43s-3 27.667 -3 39
c0 12 1 25.333 3 40s5.66699 29 11 43c13.333 7.33301 29.166 13 47.499 17s36.166 6 53.499 6s35.166 -2 53.499 -6s34.166 -9.66699 47.499 -17c4.66699 -14 8.16699 -28.333 10.5 -43s3.5 -28 3.5 -40c0 -11.333 -1.16699 -24.333 -3.5 -39s-5.83301 -29 -10.5 -43
c-13.333 -8 -29.166 -13.833 -47.499 -17.5s-36.166 -5.5 -53.499 -5.5z" />
    <glyph glyph-name="Aring" unicode="&#xc5;" horiz-adv-x="1223" 
d="M493 1372l239.999 -0.000976562l450 -1359c-15.333 -9.33301 -34.166 -16.166 -56.499 -20.499s-44.833 -6.5 -67.5 -6.5c-34 0 -60.167 7.66699 -78.5 23s-34.5 45.333 -48.5 90l-220 695c-18.667 58 -37.5 119.667 -56.5 185s-35.5 124.333 -49.5 177h-10
c-6.66699 -30 -14.834 -62.833 -24.501 -98.5l-28.5 -104c-9.33301 -33.667 -17.666 -62.5 -24.999 -86.5l-276 -869c-13.333 -2.66699 -28 -4.66699 -44 -6s-32 -2 -48 -2c-18.667 0 -37 1.33301 -55 4s-34.333 6 -49 10l-6 11zM463.999 329.999
c-6 0 -18.501 0.166992 -37.501 0.5l-57.5 1c-19.333 0.333008 -32 0.5 -38 0.5h-99l66 173h87c6.66699 0 18.334 0.166992 35.001 0.5l50 1c16.667 0.333008 28.334 0.5 35.001 0.5h199c6 0 17.5 -0.166992 34.5 -0.5l52 -1c17.667 -0.333008 29.5 -0.5 35.5 -0.5h90
l57 -173h-99c-6.66699 0 -19.834 -0.166992 -39.501 -0.5l-58 -1c-19 -0.333008 -31.5 -0.5 -37.5 -0.5h-275zM370.998 1561c0 62.667 22.667 116.167 68 160.5s103.666 66.5 174.999 66.5s129.333 -22.167 174 -66.5s67 -97.833 67 -160.5
c0 -62 -22.333 -115.167 -67 -159.5s-102.667 -66.5 -174 -66.5s-129.666 22.167 -174.999 66.5s-68 97.5 -68 159.5zM512.998 1561c0 -31.333 9.33301 -57.333 28 -78s43 -31 73 -31c28.667 0 52.5 10.333 71.5 31s28.5 46.667 28.5 78s-9.5 57.5 -28.5 78.5
s-42.833 31.5 -71.5 31.5c-30 0 -54.333 -10.5 -73 -31.5s-28 -47.167 -28 -78.5z" />
    <glyph glyph-name="AE" unicode="&#xc6;" horiz-adv-x="1753" 
d="M686 1345c16.667 8.66699 37.5 14.333 62.5 17s46.833 4 65.5 4h151l-163 -210h-11c-18 -46.667 -38.333 -96 -61 -148l-63 -143l-420 -866c-16 -3.33301 -33.333 -5.5 -52 -6.5s-36 -1.5 -52 -1.5c-20 0 -39 1.16699 -57 3.5s-34.333 5.5 -49 9.5l-7 11zM514 329.999
c-10 0 -23.5 0.166992 -40.5 0.5l-49.5 1c-16 0.333008 -28.333 0.5 -37 0.5h-84l82 172h77c12.667 0 30.167 0.333008 52.5 1s41.5 1 57.5 1h121c10.667 0 24.5 -0.166992 41.5 -0.5l50 -1c16.333 -0.333008 28.833 -0.5 37.5 -0.5h76v-172h-77
c-8 0 -20.333 -0.166992 -37 -0.5l-50.5 -1c-17 -0.333008 -30.5 -0.5 -40.5 -0.5h-179zM802 1353l11.999 13.001h192v-175c0 -28 0.333008 -50.833 1 -68.5s1 -40.167 1 -67.5v-777c0 -18 -0.333008 -35 -1 -51s-1 -33.333 -1 -52v-177h-84
c-37.333 0 -66.666 11.667 -87.999 35s-32 55.666 -32 96.999v1223zM1510 778c4 -14 6.83301 -29.333 8.5 -46s2.5 -30.667 2.5 -42c0 -12 -0.833008 -26.167 -2.5 -42.5s-4.5 -31.833 -8.5 -46.5h-378c-15.333 0 -34.5 0.166992 -57.5 0.5l-71.5 1
c-24.667 0.333008 -47 0.833008 -67 1.5v172c20 0 42.333 0.166992 67 0.5l71.5 1c23 0.333008 42.167 0.5 57.5 0.5h378zM1618 1366c3.33301 -16 5.33301 -31.167 6 -45.5s1 -27.5 1 -39.5s-1.16699 -26.833 -3.5 -44.5s-6.5 -34.5 -12.5 -50.5h-477h-57.5
c-23 0 -46.833 0.166992 -71.5 0.5s-47 0.833008 -67 1.5v178h682zM1657 179c0 -69.333 -10.667 -116.833 -32 -142.5s-57.333 -38.5 -108 -38.5h-581v172l94.5 6c31 2 66.833 3 107.5 3h519z" />
    <glyph glyph-name="Ccedilla" unicode="&#xc7;" horiz-adv-x="1207" 
d="M921 894c0 50 -8.16992 100.165 -24.5029 150.498s-44.833 92 -85.5 125s-97 49.5 -169 49.5c-105.333 0 -184.833 -46 -238.5 -138s-80.5 -227 -80.5 -405c0 -165.333 29.333 -292.666 88 -381.999s139.667 -134 243 -134c62 0 122.667 13.167 182 39.5
s117.666 63.833 174.999 112.5c23.333 -15.333 45.333 -36 66 -62s34.334 -51.333 41.001 -76c-37.333 -36.667 -81.666 -70.167 -132.999 -100.5s-108.166 -54.5 -170.499 -72.5s-127.833 -27 -196.5 -27c-95.333 0 -176.166 19.667 -242.499 59
s-119.833 92.5 -160.5 159.5s-70.167 142.333 -88.5 226s-27.5 169.834 -27.5 258.501c0 165.333 25.167 300.833 75.5 406.5s117 183.5 200 233.5s173.833 75 272.5 75s184 -18.333 256 -55s127.667 -84.667 167 -144s59 -123 59 -191c0 -36 -9.33301 -65.167 -28 -87.5
s-49.667 -33.5 -93 -33.5c-16 0 -30.5 1.16699 -43.5 3.5s-27.5 5.5 -43.5 9.5zM515.997 -149.002c7.33301 22.667 18.166 50.168 32.499 82.501s27.166 58.5 38.499 78.5h127c-6.66699 -9.33301 -14.5 -23 -23.5 -41s-15.5 -32.667 -19.5 -44
c50 -5.33301 92.333 -23.5 127 -54.5s52 -71.5 52 -121.5c0 -58 -22.667 -105.5 -68 -142.5s-102.666 -55.5 -171.999 -55.5c-31.333 0 -61.166 4 -89.499 12s-50.833 17.333 -67.5 28c0.666992 19.333 4.66699 38.166 12 56.499s17 34.5 29 48.5
c12.667 -7.33301 28 -13.666 46 -18.999s36 -8 54 -8c30.667 0 53.167 7.66699 67.5 23s21.5 33.333 21.5 54c0 21.333 -7.16699 39.5 -21.5 54.5s-35.5 22.5 -63.5 22.5c-8 0 -16.167 -0.833008 -24.5 -2.5s-15.5 -3.83398 -21.5 -6.50098c-18 8 -30 19.667 -36 35z" />
    <glyph glyph-name="Egrave" unicode="&#xc8;" horiz-adv-x="1132" 
d="M180 1353l13 13.001h195v-175c0 -28 0.333008 -50.833 1 -68.5s1 -40.167 1 -67.5v-779c0 -18 -0.333008 -34.667 -1 -50s-1 -32.333 -1 -51v-177h-86c-37.333 0 -67 11.667 -89 35s-33 55.666 -33 96.999v1223zM890 778.001c3.33301 -14 5.83301 -29.333 7.5 -46
s2.5 -30.667 2.5 -42c0 -12 -0.833008 -26.167 -2.5 -42.5s-4.16699 -31.833 -7.5 -46.5h-376c-15.333 0 -34.666 0.166992 -57.999 0.5l-72.5 1c-25 0.333008 -47.5 0.833008 -67.5 1.5v172c20 0 42.5 0.166992 67.5 0.5l72.5 1c23.333 0.333008 42.666 0.5 57.999 0.5h376
zM998 1366c3.33301 -16 5.33301 -31.167 6 -45.5s1 -27.5 1 -39.5s-1.33301 -26.833 -4 -44.5s-7 -34.5 -13 -50.5h-474h-58c-23.333 0 -47.5 0.166992 -72.5 0.5s-47.5 0.833008 -67.5 1.5v178h682zM1037 179.001c0 -64.667 -9.99902 -111 -29.999 -139s-57 -42 -111 -42
h-580v172l95 6c31.333 2 67.666 3 108.999 3h517zM420.001 1805c-14 -10 -27.5 -24.001 -40.5 -42.001s-24.167 -38.167 -33.5 -60.5s-15.333 -44.833 -18 -67.5l435 -178c18 10.667 32 26.334 42 47.001s17 40.667 21 60z" />
    <glyph glyph-name="Eacute" unicode="&#xc9;" horiz-adv-x="1132" 
d="M180 1353l13 13.001h195v-175c0 -28 0.333008 -50.833 1 -68.5s1 -40.167 1 -67.5v-779c0 -18 -0.333008 -34.667 -1 -50s-1 -32.333 -1 -51v-177h-86c-37.333 0 -67 11.667 -89 35s-33 55.666 -33 96.999v1223zM890 778.001c3.33301 -14 5.83301 -29.333 7.5 -46
s2.5 -30.667 2.5 -42c0 -12 -0.833008 -26.167 -2.5 -42.5s-4.16699 -31.833 -7.5 -46.5h-376c-15.333 0 -34.666 0.166992 -57.999 0.5l-72.5 1c-25 0.333008 -47.5 0.833008 -67.5 1.5v172c20 0 42.5 0.166992 67.5 0.5l72.5 1c23.333 0.333008 42.666 0.5 57.999 0.5h376
zM998 1366c3.33301 -16 5.33301 -31.167 6 -45.5s1 -27.5 1 -39.5s-1.33301 -26.833 -4 -44.5s-7 -34.5 -13 -50.5h-474h-58c-23.333 0 -47.5 0.166992 -72.5 0.5s-47.5 0.833008 -67.5 1.5v178h682zM1037 179.001c0 -64.667 -9.99902 -111 -29.999 -139s-57 -42 -111 -42
h-580v172l95 6c31.333 2 67.666 3 108.999 3h517zM802.001 1805c13.333 -10 26.501 -24 39.501 -42s24.167 -38.167 33.5 -60.5s15.666 -44.833 18.999 -67.5l-436 -178c-16 10 -29.667 25.667 -41 47s-18.333 41.333 -21 60z" />
    <glyph glyph-name="Ecircumflex" unicode="&#xca;" horiz-adv-x="1132" 
d="M180 1353l13 13.001h195v-175c0 -28 0.333008 -50.833 1 -68.5s1 -40.167 1 -67.5v-779c0 -18 -0.333008 -34.667 -1 -50s-1 -32.333 -1 -51v-177h-86c-37.333 0 -67 11.667 -89 35s-33 55.666 -33 96.999v1223zM890 778.001c3.33301 -14 5.83301 -29.333 7.5 -46
s2.5 -30.667 2.5 -42c0 -12 -0.833008 -26.167 -2.5 -42.5s-4.16699 -31.833 -7.5 -46.5h-376c-15.333 0 -34.666 0.166992 -57.999 0.5l-72.5 1c-25 0.333008 -47.5 0.833008 -67.5 1.5v172c20 0 42.5 0.166992 67.5 0.5l72.5 1c23.333 0.333008 42.666 0.5 57.999 0.5h376
zM998 1366c3.33301 -16 5.33301 -31.167 6 -45.5s1 -27.5 1 -39.5s-1.33301 -26.833 -4 -44.5s-7 -34.5 -13 -50.5h-474h-58c-23.333 0 -47.5 0.166992 -72.5 0.5s-47.5 0.833008 -67.5 1.5v178h682zM1037 179.001c0 -64.667 -9.99902 -111 -29.999 -139s-57 -42 -111 -42
h-580v172l95 6c31.333 2 67.666 3 108.999 3h517zM688.001 1776l224.002 -212c-7.33301 -22.667 -20.333 -42 -39 -58s-35.667 -26.667 -51 -32l-225 150l-224 -150c-16 5.33301 -33.333 16 -52 32s-32 35.333 -40 58l225 212c27.333 5.33301 57.666 8 90.999 8
s63.666 -2.66699 90.999 -8z" />
    <glyph glyph-name="Edieresis" unicode="&#xcb;" horiz-adv-x="1132" 
d="M180 1353l13 13.001h195v-175c0 -28 0.333008 -50.833 1 -68.5s1 -40.167 1 -67.5v-779c0 -18 -0.333008 -34.667 -1 -50s-1 -32.333 -1 -51v-177h-86c-37.333 0 -67 11.667 -89 35s-33 55.666 -33 96.999v1223zM890 778.001c3.33301 -14 5.83301 -29.333 7.5 -46
s2.5 -30.667 2.5 -42c0 -12 -0.833008 -26.167 -2.5 -42.5s-4.16699 -31.833 -7.5 -46.5h-376c-15.333 0 -34.666 0.166992 -57.999 0.5l-72.5 1c-25 0.333008 -47.5 0.833008 -67.5 1.5v172c20 0 42.5 0.166992 67.5 0.5l72.5 1c23.333 0.333008 42.666 0.5 57.999 0.5h376
zM998 1366c3.33301 -16 5.33301 -31.167 6 -45.5s1 -27.5 1 -39.5s-1.33301 -26.833 -4 -44.5s-7 -34.5 -13 -50.5h-474h-58c-23.333 0 -47.5 0.166992 -72.5 0.5s-47.5 0.833008 -67.5 1.5v178h682zM1037 179.001c0 -64.667 -9.99902 -111 -29.999 -139s-57 -42 -111 -42
h-580v172l95 6c31.333 2 67.666 3 108.999 3h517zM807.001 1487c-17.333 0 -35.166 1.83301 -53.499 5.5s-34.166 9.5 -47.499 17.5c-5.33301 14 -9 28.333 -11 43s-3 27.667 -3 39c0 12 1 25.333 3 40s5.66699 29 11 43c13.333 7.33301 29.166 13 47.499 17
s36.166 6 53.499 6c16.667 0 34.334 -2 53.001 -6s34.334 -9.66699 47.001 -17c5.33301 -14 9.16602 -28.333 11.499 -43s3.5 -28 3.5 -40c0 -11.333 -1.16699 -24.333 -3.5 -39s-6.16602 -29 -11.499 -43c-12.667 -8 -28.334 -13.833 -47.001 -17.5
s-36.334 -5.5 -53.001 -5.5zM388.001 1487c-17.333 0 -35.166 1.83301 -53.499 5.5s-34.166 9.5 -47.499 17.5c-5.33301 14 -9 28.333 -11 43s-3 27.667 -3 39c0 12 1 25.333 3 40s5.66699 29 11 43c13.333 7.33301 29.166 13 47.499 17s36.166 6 53.499 6
s35.166 -2 53.499 -6s34.166 -9.66699 47.499 -17c4.66699 -14 8.16699 -28.333 10.5 -43s3.5 -28 3.5 -40c0 -11.333 -1.16699 -24.333 -3.5 -39s-5.83301 -29 -10.5 -43c-13.333 -8 -29.166 -13.833 -47.499 -17.5s-36.166 -5.5 -53.499 -5.5z" />
    <glyph glyph-name="Igrave" unicode="&#xcc;" horiz-adv-x="589" 
d="M188 1366c15.333 2.66699 32.833 4.66699 52.5 6s37.167 2 52.5 2c17.333 0 35.5 -0.666992 54.5 -2s36.833 -3.33301 53.5 -6v-1366c-16.667 -2.66699 -34.5 -4.66699 -53.5 -6s-37.167 -2 -54.5 -2c-15.333 0 -32.833 0.666992 -52.5 2s-37.167 3.33301 -52.5 6v1366z
M117 1806c-14 -10 -27.5 -24.001 -40.5 -42.001s-24.167 -38.167 -33.5 -60.5s-15.333 -44.833 -18 -67.5l435 -178c18 10.667 32 26.334 42 47.001s17 40.667 21 60z" />
    <glyph glyph-name="Iacute" unicode="&#xcd;" horiz-adv-x="589" 
d="M188 1366c15.333 2.66699 32.833 4.66699 52.5 6s37.167 2 52.5 2c17.333 0 35.5 -0.666992 54.5 -2s36.833 -3.33301 53.5 -6v-1366c-16.667 -2.66699 -34.5 -4.66699 -53.5 -6s-37.167 -2 -54.5 -2c-15.333 0 -32.833 0.666992 -52.5 2s-37.167 3.33301 -52.5 6v1366z
M498 1806c13.333 -10 26.501 -24 39.501 -42s24.167 -38.167 33.5 -60.5s15.666 -44.833 18.999 -67.5l-436 -178c-16 10 -29.667 25.667 -41 47s-18.333 41.333 -21 60z" />
    <glyph glyph-name="Icircumflex" unicode="&#xce;" horiz-adv-x="589" 
d="M188 1366c15.333 2.66699 32.833 4.66699 52.5 6s37.167 2 52.5 2c17.333 0 35.5 -0.666992 54.5 -2s36.833 -3.33301 53.5 -6v-1366c-16.667 -2.66699 -34.5 -4.66699 -53.5 -6s-37.167 -2 -54.5 -2c-15.333 0 -32.833 0.666992 -52.5 2s-37.167 3.33301 -52.5 6v1366z
M384 1777l224.002 -212c-7.33301 -22.667 -20.333 -42 -39 -58s-35.667 -26.667 -51 -32l-225 150l-224 -150c-16 5.33301 -33.333 16 -52 32s-32 35.333 -40 58l225 212c27.333 5.33301 57.666 8 90.999 8s63.666 -2.66699 90.999 -8z" />
    <glyph glyph-name="Idieresis" unicode="&#xcf;" horiz-adv-x="589" 
d="M188 1366c15.333 2.66699 32.833 4.66699 52.5 6s37.167 2 52.5 2c17.333 0 35.5 -0.666992 54.5 -2s36.833 -3.33301 53.5 -6v-1366c-16.667 -2.66699 -34.5 -4.66699 -53.5 -6s-37.167 -2 -54.5 -2c-15.333 0 -32.833 0.666992 -52.5 2s-37.167 3.33301 -52.5 6v1366z
M503 1488c-17.333 0 -35.166 1.83301 -53.499 5.5s-34.166 9.5 -47.499 17.5c-5.33301 14 -9 28.333 -11 43s-3 27.667 -3 39c0 12 1 25.333 3 40s5.66699 29 11 43c13.333 7.33301 29.166 13 47.499 17s36.166 6 53.499 6c16.667 0 34.334 -2 53.001 -6
s34.334 -9.66699 47.001 -17c5.33301 -14 9.16602 -28.333 11.499 -43s3.5 -28 3.5 -40c0 -11.333 -1.16699 -24.333 -3.5 -39s-6.16602 -29 -11.499 -43c-12.667 -8 -28.334 -13.833 -47.001 -17.5s-36.334 -5.5 -53.001 -5.5zM84 1488
c-17.333 0 -35.166 1.83301 -53.499 5.5s-34.166 9.5 -47.499 17.5c-5.33301 14 -9 28.333 -11 43s-3 27.667 -3 39c0 12 1 25.333 3 40s5.66699 29 11 43c13.333 7.33301 29.166 13 47.499 17s36.166 6 53.499 6s35.166 -2 53.499 -6s34.166 -9.66699 47.499 -17
c4.66699 -14 8.16699 -28.333 10.5 -43s3.5 -28 3.5 -40c0 -11.333 -1.16699 -24.333 -3.5 -39s-5.83301 -29 -10.5 -43c-13.333 -8 -29.166 -13.833 -47.499 -17.5s-36.166 -5.5 -53.499 -5.5z" />
    <glyph glyph-name="Eth" unicode="&#xd0;" horiz-adv-x="1328" 
d="M1226 684c0 -78 -5.16699 -152.832 -15.5 -224.499s-30.666 -138.5 -60.999 -200.5s-75.5 -117.667 -135.5 -167c-29.333 -24 -64.5 -43.5 -105.5 -58.5s-82.833 -25.833 -125.5 -32.5s-81.667 -10 -117 -10c-54 0 -103.5 0.333008 -148.5 1s-90.5 1.66699 -136.5 3
s-98 2.66602 -156 3.99902l-13 12v1344l13 12c58 2 110 3.5 156 4.5s91.5 1.66699 136.5 2s94.5 0.5 148.5 0.5c35.333 0 74.333 -3.5 117 -10.5s84.5 -18 125.5 -33s76.167 -34.5 105.5 -58.5c59.333 -49.333 104.166 -104.833 134.499 -166.5s50.833 -128 61.5 -199
s16 -145.167 16 -222.5zM1004 684.001c0 60 -3.83301 120.335 -11.5 181.002s-23.167 116.5 -46.5 167.5s-57.5 92 -102.5 123s-104.5 46.5 -178.5 46.5c-42 0 -81.667 0.333008 -119 1s-78.666 1 -123.999 1v-1041c45.333 0.666992 86.666 0.666992 123.999 0s77 -1 119 -1
c74 0 133.5 15.833 178.5 47.5s79.167 73.167 102.5 124.5s38.833 107.666 46.5 168.999s11.5 121.666 11.5 180.999zM59 604.003c-3.33301 13.333 -5.66602 27 -6.99902 41s-2 29 -2 45s0.666992 31.5 2 46.5s3.66602 29.833 6.99902 44.5h672
c3.33301 -14.667 5.66602 -29 6.99902 -43s2 -29.667 2 -47c0 -16.667 -0.666992 -32 -2 -46s-3.66602 -27.667 -6.99902 -41h-672z" />
    <glyph glyph-name="Ntilde" unicode="&#xd1;" horiz-adv-x="1360" 
d="M181 1364c16.667 3.33301 38 5.83203 64 7.49902s47 2.5 63 2.5c16.667 0 36.667 -0.666992 60 -2s45.666 -3.33301 66.999 -6l-56 -248l-16 -3c2.66699 -46.667 5.16699 -98.5 7.5 -155.5s4.33301 -114.667 6 -173s2.5 -112.166 2.5 -161.499v-625
c-18 -2.66699 -35.333 -4.66699 -52 -6s-32 -2 -46 -2c-13.333 0 -29.166 0.666992 -47.499 2s-35.833 3.33301 -52.5 6v1364zM497 838.999l-68 144l-60 134l-100 120l166 129l423 -838l71.5 -153.5l62.5 -135.5l105 -111l-174 -128zM1178 1363v-1361
c-16.667 -3.33301 -37.334 -5.83301 -62.001 -7.5s-46.667 -2.5 -66 -2.5c-20 0 -41 0.666992 -63 2s-43.333 3.33301 -64 6l58 238l17 2c-3.33301 53.333 -6.16602 110.166 -8.49902 170.499s-4.16602 119.5 -5.49902 177.5s-2 110 -2 156v498
c0 46.667 8.16699 80.334 24.5 101.001s46.166 31 89.499 31h70zM597 1566c-12 5.33301 -23.1699 9.66992 -33.5029 13.0029s-21.166 5 -32.499 5c-14.667 0 -28.834 -4.5 -42.501 -13.5s-26.167 -20.833 -37.5 -35.5l-23 -30c-20 1.33301 -40.333 7.83301 -61 19.5
s-34.667 26.5 -42 44.5l14 32c21.333 48 49.333 85.5 84 112.5s75.667 40.5 123 40.5c22.667 0 43.834 -3.33301 63.501 -10s37.834 -13.667 54.501 -21l107 -51c11.333 -6 23.333 -10.833 36 -14.5s24 -5.5 34 -5.5c14.667 0 28.667 4.16699 42 12.5s26 20.5 38 36.5l23 29
c20.667 -0.666992 41.167 -6.83398 61.5 -18.501s34.166 -26.5 41.499 -44.5l-14 -32c-21.333 -48.667 -49.5 -86.334 -84.5 -113.001s-75.5 -40 -121.5 -40c-23.333 0 -45.166 3.16699 -65.499 9.5s-38.166 13.166 -53.499 20.499z" />
    <glyph glyph-name="Ograve" unicode="&#xd2;" horiz-adv-x="1316" 
d="M322 684c0 -60.667 4.5 -122.5 13.5 -185.5s25.5 -121.333 49.5 -175s58 -97 102 -130s101 -49.5 171 -49.5c69.333 0 126 16.5 170 49.5s77.833 76.333 101.5 130s40 112 49 175s13.5 124.833 13.5 185.5s-4.5 122.5 -13.5 185.5s-25.333 121.167 -49 174.5
s-57.5 96.333 -101.5 129s-100.667 49 -170 49c-70 0 -127 -16.333 -171 -49s-78 -75.667 -102 -129s-40.5 -111.5 -49.5 -174.5s-13.5 -124.833 -13.5 -185.5zM99 684c0 134.667 20.166 255.333 60.499 362s101.833 191 184.5 253s187.334 93 314.001 93
c95.333 0 178 -17.833 248 -53.5s128 -85.667 174 -150s80.333 -139.333 103 -225s34 -178.834 34 -279.501c0 -135.333 -20.333 -256.5 -61 -363.5s-102.167 -191.5 -184.5 -253.5s-186.833 -93 -313.5 -93c-96 0 -179 17.833 -249 53.5s-128 85.834 -174 150.501
s-80.167 140 -102.5 226s-33.5 179.333 -33.5 280zM479.999 1805c-14 -10 -27.5 -24.001 -40.5 -42.001s-24.167 -38.167 -33.5 -60.5s-15.333 -44.833 -18 -67.5l435 -178c18 10.667 32 26.334 42 47.001s17 40.667 21 60z" />
    <glyph glyph-name="Oacute" unicode="&#xd3;" horiz-adv-x="1316" 
d="M322 684c0 -60.667 4.5 -122.5 13.5 -185.5s25.5 -121.333 49.5 -175s58 -97 102 -130s101 -49.5 171 -49.5c69.333 0 126 16.5 170 49.5s77.833 76.333 101.5 130s40 112 49 175s13.5 124.833 13.5 185.5s-4.5 122.5 -13.5 185.5s-25.333 121.167 -49 174.5
s-57.5 96.333 -101.5 129s-100.667 49 -170 49c-70 0 -127 -16.333 -171 -49s-78 -75.667 -102 -129s-40.5 -111.5 -49.5 -174.5s-13.5 -124.833 -13.5 -185.5zM99 684c0 134.667 20.166 255.333 60.499 362s101.833 191 184.5 253s187.334 93 314.001 93
c95.333 0 178 -17.833 248 -53.5s128 -85.667 174 -150s80.333 -139.333 103 -225s34 -178.834 34 -279.501c0 -135.333 -20.333 -256.5 -61 -363.5s-102.167 -191.5 -184.5 -253.5s-186.833 -93 -313.5 -93c-96 0 -179 17.833 -249 53.5s-128 85.834 -174 150.501
s-80.167 140 -102.5 226s-33.5 179.333 -33.5 280zM861.999 1805c13.333 -10 26.501 -24 39.501 -42s24.167 -38.167 33.5 -60.5s15.666 -44.833 18.999 -67.5l-436 -178c-16 10 -29.667 25.667 -41 47s-18.333 41.333 -21 60z" />
    <glyph glyph-name="Ocircumflex" unicode="&#xd4;" horiz-adv-x="1316" 
d="M322 684c0 -60.667 4.5 -122.5 13.5 -185.5s25.5 -121.333 49.5 -175s58 -97 102 -130s101 -49.5 171 -49.5c69.333 0 126 16.5 170 49.5s77.833 76.333 101.5 130s40 112 49 175s13.5 124.833 13.5 185.5s-4.5 122.5 -13.5 185.5s-25.333 121.167 -49 174.5
s-57.5 96.333 -101.5 129s-100.667 49 -170 49c-70 0 -127 -16.333 -171 -49s-78 -75.667 -102 -129s-40.5 -111.5 -49.5 -174.5s-13.5 -124.833 -13.5 -185.5zM99 684c0 134.667 20.166 255.333 60.499 362s101.833 191 184.5 253s187.334 93 314.001 93
c95.333 0 178 -17.833 248 -53.5s128 -85.667 174 -150s80.333 -139.333 103 -225s34 -178.834 34 -279.501c0 -135.333 -20.333 -256.5 -61 -363.5s-102.167 -191.5 -184.5 -253.5s-186.833 -93 -313.5 -93c-96 0 -179 17.833 -249 53.5s-128 85.834 -174 150.501
s-80.167 140 -102.5 226s-33.5 179.333 -33.5 280zM747.999 1776l224.002 -212c-7.33301 -22.667 -20.333 -42 -39 -58s-35.667 -26.667 -51 -32l-225 150l-224 -150c-16 5.33301 -33.333 16 -52 32s-32 35.333 -40 58l225 212c27.333 5.33301 57.666 8 90.999 8
s63.666 -2.66699 90.999 -8z" />
    <glyph glyph-name="Otilde" unicode="&#xd5;" horiz-adv-x="1316" 
d="M322 684c0 -60.667 4.5 -122.5 13.5 -185.5s25.5 -121.333 49.5 -175s58 -97 102 -130s101 -49.5 171 -49.5c69.333 0 126 16.5 170 49.5s77.833 76.333 101.5 130s40 112 49 175s13.5 124.833 13.5 185.5s-4.5 122.5 -13.5 185.5s-25.333 121.167 -49 174.5
s-57.5 96.333 -101.5 129s-100.667 49 -170 49c-70 0 -127 -16.333 -171 -49s-78 -75.667 -102 -129s-40.5 -111.5 -49.5 -174.5s-13.5 -124.833 -13.5 -185.5zM99 684c0 134.667 20.166 255.333 60.499 362s101.833 191 184.5 253s187.334 93 314.001 93
c95.333 0 178 -17.833 248 -53.5s128 -85.667 174 -150s80.333 -139.333 103 -225s34 -178.834 34 -279.501c0 -135.333 -20.333 -256.5 -61 -363.5s-102.167 -191.5 -184.5 -253.5s-186.833 -93 -313.5 -93c-96 0 -179 17.833 -249 53.5s-128 85.834 -174 150.501
s-80.167 140 -102.5 226s-33.5 179.333 -33.5 280zM568.999 1566c-12 5.33301 -23.1699 9.66992 -33.5029 13.0029s-21.166 5 -32.499 5c-14.667 0 -28.834 -4.5 -42.501 -13.5s-26.167 -20.833 -37.5 -35.5l-23 -30c-20 1.33301 -40.333 7.83301 -61 19.5
s-34.667 26.5 -42 44.5l14 32c21.333 48 49.333 85.5 84 112.5s75.667 40.5 123 40.5c22.667 0 43.834 -3.33301 63.501 -10s37.834 -13.667 54.501 -21l107 -51c11.333 -6 23.333 -10.833 36 -14.5s24 -5.5 34 -5.5c14.667 0 28.667 4.16699 42 12.5s26 20.5 38 36.5l23 29
c20.667 -0.666992 41.167 -6.83398 61.5 -18.501s34.166 -26.5 41.499 -44.5l-14 -32c-21.333 -48.667 -49.5 -86.334 -84.5 -113.001s-75.5 -40 -121.5 -40c-23.333 0 -45.166 3.16699 -65.499 9.5s-38.166 13.166 -53.499 20.499z" />
    <glyph glyph-name="Odieresis" unicode="&#xd6;" horiz-adv-x="1316" 
d="M322 684c0 -60.667 4.5 -122.5 13.5 -185.5s25.5 -121.333 49.5 -175s58 -97 102 -130s101 -49.5 171 -49.5c69.333 0 126 16.5 170 49.5s77.833 76.333 101.5 130s40 112 49 175s13.5 124.833 13.5 185.5s-4.5 122.5 -13.5 185.5s-25.333 121.167 -49 174.5
s-57.5 96.333 -101.5 129s-100.667 49 -170 49c-70 0 -127 -16.333 -171 -49s-78 -75.667 -102 -129s-40.5 -111.5 -49.5 -174.5s-13.5 -124.833 -13.5 -185.5zM99 684c0 134.667 20.166 255.333 60.499 362s101.833 191 184.5 253s187.334 93 314.001 93
c95.333 0 178 -17.833 248 -53.5s128 -85.667 174 -150s80.333 -139.333 103 -225s34 -178.834 34 -279.501c0 -135.333 -20.333 -256.5 -61 -363.5s-102.167 -191.5 -184.5 -253.5s-186.833 -93 -313.5 -93c-96 0 -179 17.833 -249 53.5s-128 85.834 -174 150.501
s-80.167 140 -102.5 226s-33.5 179.333 -33.5 280zM866.999 1487c-17.333 0 -35.166 1.83301 -53.499 5.5s-34.166 9.5 -47.499 17.5c-5.33301 14 -9 28.333 -11 43s-3 27.667 -3 39c0 12 1 25.333 3 40s5.66699 29 11 43c13.333 7.33301 29.166 13 47.499 17
s36.166 6 53.499 6c16.667 0 34.334 -2 53.001 -6s34.334 -9.66699 47.001 -17c5.33301 -14 9.16602 -28.333 11.499 -43s3.5 -28 3.5 -40c0 -11.333 -1.16699 -24.333 -3.5 -39s-6.16602 -29 -11.499 -43c-12.667 -8 -28.334 -13.833 -47.001 -17.5
s-36.334 -5.5 -53.001 -5.5zM447.999 1487c-17.333 0 -35.166 1.83301 -53.499 5.5s-34.166 9.5 -47.499 17.5c-5.33301 14 -9 28.333 -11 43s-3 27.667 -3 39c0 12 1 25.333 3 40s5.66699 29 11 43c13.333 7.33301 29.166 13 47.499 17s36.166 6 53.499 6
s35.166 -2 53.499 -6s34.166 -9.66699 47.499 -17c4.66699 -14 8.16699 -28.333 10.5 -43s3.5 -28 3.5 -40c0 -11.333 -1.16699 -24.333 -3.5 -39s-5.83301 -29 -10.5 -43c-13.333 -8 -29.166 -13.833 -47.499 -17.5s-36.166 -5.5 -53.499 -5.5z" />
    <glyph glyph-name="multiply" unicode="&#xd7;" horiz-adv-x="1080" 
d="M352 688l37.5 -36.999l37.5 -36l100 -101l36 -37l37 -38l196 -198c28.667 12 54.667 29.667 78 53c20.667 20.667 38.334 46 53.001 76l-199 198l-37.5 36l-38.5 37l-99 99l-36.5 38l-36.5 38l-197 198c-14 -6 -27.5 -13.333 -40.5 -22s-25.167 -18.667 -36.5 -30
c-11.333 -12 -21.333 -24.333 -30 -37s-16.334 -26.334 -23.001 -41.001zM480 439.001l36.5 38l36.5 37l99 100l38.5 36.5l37.5 36.5l199 197c-14 28.667 -32.333 54.667 -55 78c-22 22 -47.333 39 -76 51l-196 -198l-37 -37.5l-36 -37.5l-100 -100l-37.5 -36.5l-37.5 -36.5
l-199 -197c6.66699 -14.667 14.834 -28.5 24.501 -41.5s19.5 -24.5 29.5 -34.5c10.667 -10.667 22.167 -20.5 34.5 -29.5s26.166 -17.167 41.499 -24.5z" />
    <glyph glyph-name="Oslash" unicode="&#xd8;" horiz-adv-x="1318" 
d="M877 1275l114 198.999c24.667 -3.33301 50.5 -12.166 77.5 -26.499s47.833 -30.833 62.5 -49.5l-134 -240l-555 -1065l-114 -199c-24.667 3.33301 -50.5 12.333 -77.5 27s-47.833 31 -62.5 49l134 240zM316 683.999c0 -60.667 4.83301 -122.834 14.5 -186.501
s27 -122.5 52 -176.5s59.833 -97.5 104.5 -130.5s102 -49.5 172 -49.5c70.667 0 128.334 16.5 173.001 49.5s79.167 76.5 103.5 130.5s41.166 112.833 50.499 176.5s14 125.834 14 186.501s-4.66699 122.667 -14 186s-26.166 121.833 -50.499 175.5s-58.833 97 -103.5 130
s-102.334 49.5 -173.001 49.5c-70 0 -127.333 -16.5 -172 -49.5s-79.5 -76.333 -104.5 -130s-42.333 -112.167 -52 -175.5s-14.5 -125.333 -14.5 -186zM99 683.999c0 134 20.3311 254.333 60.998 361s102.334 191.167 185.001 253.5s187.334 93.5 314.001 93.5
c95.333 0 178.333 -18 249 -54s129 -86.167 175 -150.5s80.167 -139.5 102.5 -225.5s33.5 -178.667 33.5 -278c0 -134 -20.167 -254.5 -60.5 -361.5s-101.833 -191.833 -184.5 -254.5s-187.667 -94 -315 -94c-95.333 0 -178.333 18 -249 54s-129 86.333 -175 151
s-80.167 140 -102.5 226s-33.5 179 -33.5 279z" />
    <glyph glyph-name="Ugrave" unicode="&#xd9;" horiz-adv-x="1338" 
d="M1174 480c0 -110.667 -20.832 -203.5 -62.499 -278.5s-100.5 -131.667 -176.5 -170s-165 -57.5 -267 -57.5s-190.667 19.167 -266 57.5s-133.833 95 -175.5 170s-62.5 167.833 -62.5 278.5v882l12 12h82c43.333 0 74 -11 92 -33s27 -56 27 -102v-759
c0 -109.333 24.667 -192.333 74 -249s121.666 -85 216.999 -85c96.667 0 169.667 28.333 219 85s74 139.667 74 249v886c15.333 2.66699 32.5 4.66699 51.5 6s36.5 2 52.5 2s34.167 -0.666992 54.5 -2s38.5 -3.33301 54.5 -6v-886zM489.001 1805
c-14 -10 -27.5 -24.001 -40.5 -42.001s-24.167 -38.167 -33.5 -60.5s-15.333 -44.833 -18 -67.5l435 -178c18 10.667 32 26.334 42 47.001s17 40.667 21 60z" />
    <glyph glyph-name="Uacute" unicode="&#xda;" horiz-adv-x="1338" 
d="M1174 480c0 -110.667 -20.832 -203.5 -62.499 -278.5s-100.5 -131.667 -176.5 -170s-165 -57.5 -267 -57.5s-190.667 19.167 -266 57.5s-133.833 95 -175.5 170s-62.5 167.833 -62.5 278.5v882l12 12h82c43.333 0 74 -11 92 -33s27 -56 27 -102v-759
c0 -109.333 24.667 -192.333 74 -249s121.666 -85 216.999 -85c96.667 0 169.667 28.333 219 85s74 139.667 74 249v886c15.333 2.66699 32.5 4.66699 51.5 6s36.5 2 52.5 2s34.167 -0.666992 54.5 -2s38.5 -3.33301 54.5 -6v-886zM871.001 1805
c13.333 -10 26.501 -24 39.501 -42s24.167 -38.167 33.5 -60.5s15.666 -44.833 18.999 -67.5l-436 -178c-16 10 -29.667 25.667 -41 47s-18.333 41.333 -21 60z" />
    <glyph glyph-name="Ucircumflex" unicode="&#xdb;" horiz-adv-x="1338" 
d="M1174 480c0 -110.667 -20.832 -203.5 -62.499 -278.5s-100.5 -131.667 -176.5 -170s-165 -57.5 -267 -57.5s-190.667 19.167 -266 57.5s-133.833 95 -175.5 170s-62.5 167.833 -62.5 278.5v882l12 12h82c43.333 0 74 -11 92 -33s27 -56 27 -102v-759
c0 -109.333 24.667 -192.333 74 -249s121.666 -85 216.999 -85c96.667 0 169.667 28.333 219 85s74 139.667 74 249v886c15.333 2.66699 32.5 4.66699 51.5 6s36.5 2 52.5 2s34.167 -0.666992 54.5 -2s38.5 -3.33301 54.5 -6v-886zM756.001 1776l224.002 -212
c-7.33301 -22.667 -20.333 -42 -39 -58s-35.667 -26.667 -51 -32l-225 150l-224 -150c-16 5.33301 -33.333 16 -52 32s-32 35.333 -40 58l225 212c27.333 5.33301 57.666 8 90.999 8s63.666 -2.66699 90.999 -8z" />
    <glyph glyph-name="Udieresis" unicode="&#xdc;" horiz-adv-x="1338" 
d="M1174 480c0 -110.667 -20.832 -203.5 -62.499 -278.5s-100.5 -131.667 -176.5 -170s-165 -57.5 -267 -57.5s-190.667 19.167 -266 57.5s-133.833 95 -175.5 170s-62.5 167.833 -62.5 278.5v882l12 12h82c43.333 0 74 -11 92 -33s27 -56 27 -102v-759
c0 -109.333 24.667 -192.333 74 -249s121.666 -85 216.999 -85c96.667 0 169.667 28.333 219 85s74 139.667 74 249v886c15.333 2.66699 32.5 4.66699 51.5 6s36.5 2 52.5 2s34.167 -0.666992 54.5 -2s38.5 -3.33301 54.5 -6v-886zM876.001 1487
c-17.333 0 -35.166 1.83301 -53.499 5.5s-34.166 9.5 -47.499 17.5c-5.33301 14 -9 28.333 -11 43s-3 27.667 -3 39c0 12 1 25.333 3 40s5.66699 29 11 43c13.333 7.33301 29.166 13 47.499 17s36.166 6 53.499 6c16.667 0 34.334 -2 53.001 -6s34.334 -9.66699 47.001 -17
c5.33301 -14 9.16602 -28.333 11.499 -43s3.5 -28 3.5 -40c0 -11.333 -1.16699 -24.333 -3.5 -39s-6.16602 -29 -11.499 -43c-12.667 -8 -28.334 -13.833 -47.001 -17.5s-36.334 -5.5 -53.001 -5.5zM457.001 1487c-17.333 0 -35.166 1.83301 -53.499 5.5
s-34.166 9.5 -47.499 17.5c-5.33301 14 -9 28.333 -11 43s-3 27.667 -3 39c0 12 1 25.333 3 40s5.66699 29 11 43c13.333 7.33301 29.166 13 47.499 17s36.166 6 53.499 6s35.166 -2 53.499 -6s34.166 -9.66699 47.499 -17c4.66699 -14 8.16699 -28.333 10.5 -43
s3.5 -28 3.5 -40c0 -11.333 -1.16699 -24.333 -3.5 -39s-5.83301 -29 -10.5 -43c-13.333 -8 -29.166 -13.833 -47.499 -17.5s-36.166 -5.5 -53.499 -5.5z" />
    <glyph glyph-name="Yacute" unicode="&#xdd;" horiz-adv-x="1006" 
d="M398 567h213v-567c-16.667 -2.66699 -34.5 -4.66699 -53.5 -6s-36.833 -2 -53.5 -2c-15.333 0 -33 0.666992 -53 2s-37.667 3.33301 -53 6v567zM789 1366c14.667 4 29.668 6.49902 45.001 7.49902s30.333 1.5 45 1.5c18 0 36 -1.33301 54 -4s34.333 -6 49 -10l10 -15
l-398 -950h-176l-400 946c23.333 12.667 46.166 22.334 68.499 29.001s43.833 10 64.5 10c30 0 53.5 -7.5 70.5 -22.5s31.833 -38.5 44.5 -70.5l158 -384c14.667 -35.333 29.5 -75.666 44.5 -120.999s28.167 -88.333 39.5 -129h10c8 26.667 17.333 56.167 28 88.5
s21.667 63.166 33 92.499l28 74zM714.001 1805c13.333 -10 26.501 -24 39.501 -42s24.167 -38.167 33.5 -60.5s15.666 -44.833 18.999 -67.5l-436 -178c-16 10 -29.667 25.667 -41 47s-18.333 41.333 -21 60z" />
    <glyph glyph-name="Thorn" unicode="&#xde;" horiz-adv-x="1142" 
d="M287 1158c52 2 104.169 3.66211 156.502 4.99512s105.166 2 158.499 2c88.667 0 167.5 -15.667 236.5 -47s123.333 -79.166 163 -143.499s59.5 -146.166 59.5 -245.499c0 -98 -19.667 -179.5 -59 -244.5s-93.5 -113.667 -162.5 -146s-148.167 -48.5 -237.5 -48.5h-315
v166c16.667 0 39.167 0.333008 67.5 1s58.333 1.33398 90 2.00098s61 1.16699 88 1.5s47.5 0.5 61.5 0.5c66.667 0 117.667 14 153 42s59.666 62.667 72.999 104s20 82 20 122c0 40.667 -6.66699 81.334 -20 122.001s-37.666 75 -72.999 103s-86.333 42 -153 42
c-20.667 0 -49.5 0.166992 -86.5 0.5s-75.333 0.833008 -115 1.5s-74.834 1.33398 -105.501 2.00098v158zM181.002 1366c16 2.66699 33.667 4.66699 53 6s36.666 2 51.999 2c17.333 0 35.666 -0.666992 54.999 -2s37 -3.33301 53 -6v-1366
c-16 -2.66699 -33.667 -4.66699 -53 -6s-37.666 -2 -54.999 -2c-15.333 0 -32.666 0.666992 -51.999 2s-37 3.33301 -53 6v1366z" />
    <glyph glyph-name="germandbls" unicode="&#xdf;" horiz-adv-x="1254" 
d="M308 943l2 -159.002l-272 -4c-2.66699 12 -4.66699 25.833 -6 41.5s-2 29.834 -2 42.501s0.666992 26.334 2 41.001s3.33301 28.667 6 42zM210 1013c0 82.667 18.5 152.671 55.5 210.004s88.333 100.666 154 129.999s140.834 44 225.501 44c90 0 168 -16.333 234 -49
s117 -78.5 153 -137.5s54 -127.5 54 -205.5c0 -27.333 -2.66699 -54.333 -8 -81s-12.666 -53.334 -21.999 -80.001l-222 -16c15.333 25.333 26.333 52 33 80s10 56.667 10 86c0 43.333 -8.33301 83.666 -25 120.999s-42.334 67.166 -77.001 89.499s-79 33.5 -133 33.5
c-76.667 0 -132.834 -22.5 -168.501 -67.5s-53.5 -105.167 -53.5 -180.5v-990c-15.333 -2.66699 -32.5 -4.66699 -51.5 -6s-37.167 -2 -54.5 -2c-16.667 0 -34.5 0.666992 -53.5 2s-35.833 3.33301 -50.5 6v1013zM568 45.002c1.33301 22.667 8.16797 48.665 20.501 77.998
s27.833 52.333 46.5 69c27.333 -18.667 57.5 -33 90.5 -43s63.167 -15 90.5 -15c46.667 0 83.667 11.167 111 33.5s41 51.166 41 86.499c0 26.667 -7.66699 51.667 -23 75s-34.666 44.666 -57.999 63.999l-80 68c-20 16.667 -40.167 36 -60.5 58s-37.333 46.667 -51 74
s-20.5 58 -20.5 92c0 54 19.667 103.333 59 148s90.333 78.334 153 101.001l169 -91c-59.333 -15.333 -101.333 -37.333 -126 -66s-37 -56 -37 -82c0 -25.333 8.66699 -47.666 26 -66.999s32.666 -34.666 45.999 -45.999l75 -63c46 -38 82.167 -79.333 108.5 -124
s39.5 -91 39.5 -139c0 -55.333 -14.5 -104.166 -43.5 -146.499s-69.667 -75.5 -122 -99.5s-113.833 -36 -184.5 -36c-44.667 0 -91.334 5.83301 -140.001 17.5s-92 29.5 -130 53.5z" />
    <glyph glyph-name="agrave" unicode="&#xe0;" horiz-adv-x="1014" 
d="M87 268c0 76.667 16.668 139.333 50.001 188s79 84.834 137 108.501s123.333 35.5 196 35.5c36.667 0 78.667 -1.66699 126 -5s91.333 -9.66602 132 -18.999v-139c-36 8.66699 -76.333 14.167 -121 16.5s-86 3.5 -124 3.5c-61.333 0 -108.5 -15.5 -141.5 -46.5
s-49.5 -73.5 -49.5 -127.5c0 -40.667 11.667 -75.167 35 -103.5s56.666 -42.5 99.999 -42.5c48 0 99.167 17 153.5 51s100.166 84 137.499 150l32 -158c-24 -28.667 -53.667 -58.834 -89 -90.501s-76.166 -58.834 -122.499 -81.501s-98.833 -34 -157.5 -34
c-66 0 -120.833 14.667 -164.5 44s-76.167 66.5 -97.5 111.5s-32 91.167 -32 138.5zM921.001 91.999c-4.66699 -18.667 -14.5 -38.5039 -29.5 -59.5039s-30.833 -36.833 -47.5 -47.5c-42 8.66699 -76 24.334 -102 47.001s-45.333 49.834 -58 81.501
s-20.334 65.167 -23.001 100.5v451c0 62.667 -14.167 107.834 -42.5 135.501s-68.5 41.5 -120.5 41.5c-50 0 -101.667 -7.66699 -155 -23s-106.666 -33.333 -159.999 -54c-16 16.667 -29.5 39.5 -40.5 68.5s-17.167 56.833 -18.5 83.5c37.333 16 79.5 31 126.5 45
s95.5 25.167 145.5 33.5s97.667 12.5 143 12.5c65.333 0 122.5 -12 171.5 -36s87 -60.667 114 -110s40.5 -112.333 40.5 -189v-410c0 -37.333 3.66699 -70.166 11 -98.499s22.333 -52.5 45 -72.5zM369.001 1478c-30 -10 -59 -27.833 -87 -53.5s-47.333 -53.167 -58 -82.5
l342 -266c18.667 5.33301 36.5 15.833 53.5 31.5s29.167 33.167 36.5 52.5z" />
    <glyph glyph-name="aacute" unicode="&#xe1;" horiz-adv-x="1014" 
d="M87 268c0 76.667 16.668 139.333 50.001 188s79 84.834 137 108.501s123.333 35.5 196 35.5c36.667 0 78.667 -1.66699 126 -5s91.333 -9.66602 132 -18.999v-139c-36 8.66699 -76.333 14.167 -121 16.5s-86 3.5 -124 3.5c-61.333 0 -108.5 -15.5 -141.5 -46.5
s-49.5 -73.5 -49.5 -127.5c0 -40.667 11.667 -75.167 35 -103.5s56.666 -42.5 99.999 -42.5c48 0 99.167 17 153.5 51s100.166 84 137.499 150l32 -158c-24 -28.667 -53.667 -58.834 -89 -90.501s-76.166 -58.834 -122.499 -81.501s-98.833 -34 -157.5 -34
c-66 0 -120.833 14.667 -164.5 44s-76.167 66.5 -97.5 111.5s-32 91.167 -32 138.5zM921.001 91.999c-4.66699 -18.667 -14.5 -38.5039 -29.5 -59.5039s-30.833 -36.833 -47.5 -47.5c-42 8.66699 -76 24.334 -102 47.001s-45.333 49.834 -58 81.501
s-20.334 65.167 -23.001 100.5v451c0 62.667 -14.167 107.834 -42.5 135.501s-68.5 41.5 -120.5 41.5c-50 0 -101.667 -7.66699 -155 -23s-106.666 -33.333 -159.999 -54c-16 16.667 -29.5 39.5 -40.5 68.5s-17.167 56.833 -18.5 83.5c37.333 16 79.5 31 126.5 45
s95.5 25.167 145.5 33.5s97.667 12.5 143 12.5c65.333 0 122.5 -12 171.5 -36s87 -60.667 114 -110s40.5 -112.333 40.5 -189v-410c0 -37.333 3.66699 -70.166 11 -98.499s22.333 -52.5 45 -72.5zM627.001 1478c30 -10 58.833 -27.833 86.5 -53.5s47.167 -53.167 58.5 -82.5
l-342 -266c-18.667 5.33301 -36.5 15.833 -53.5 31.5s-29.5 33.167 -37.5 52.5z" />
    <glyph glyph-name="acircumflex" unicode="&#xe2;" horiz-adv-x="1014" 
d="M87 268c0 76.667 16.668 139.333 50.001 188s79 84.834 137 108.501s123.333 35.5 196 35.5c36.667 0 78.667 -1.66699 126 -5s91.333 -9.66602 132 -18.999v-139c-36 8.66699 -76.333 14.167 -121 16.5s-86 3.5 -124 3.5c-61.333 0 -108.5 -15.5 -141.5 -46.5
s-49.5 -73.5 -49.5 -127.5c0 -40.667 11.667 -75.167 35 -103.5s56.666 -42.5 99.999 -42.5c48 0 99.167 17 153.5 51s100.166 84 137.499 150l32 -158c-24 -28.667 -53.667 -58.834 -89 -90.501s-76.166 -58.834 -122.499 -81.501s-98.833 -34 -157.5 -34
c-66 0 -120.833 14.667 -164.5 44s-76.167 66.5 -97.5 111.5s-32 91.167 -32 138.5zM921.001 91.999c-4.66699 -18.667 -14.5 -38.5039 -29.5 -59.5039s-30.833 -36.833 -47.5 -47.5c-42 8.66699 -76 24.334 -102 47.001s-45.333 49.834 -58 81.501
s-20.334 65.167 -23.001 100.5v451c0 62.667 -14.167 107.834 -42.5 135.501s-68.5 41.5 -120.5 41.5c-50 0 -101.667 -7.66699 -155 -23s-106.666 -33.333 -159.999 -54c-16 16.667 -29.5 39.5 -40.5 68.5s-17.167 56.833 -18.5 83.5c37.333 16 79.5 31 126.5 45
s95.5 25.167 145.5 33.5s97.667 12.5 143 12.5c65.333 0 122.5 -12 171.5 -36s87 -60.667 114 -110s40.5 -112.333 40.5 -189v-410c0 -37.333 3.66699 -70.166 11 -98.499s22.333 -52.5 45 -72.5zM584.001 1435l195.001 -252c-10 -22.667 -24.833 -42.167 -44.5 -58.5
s-37.834 -26.833 -54.501 -31.5l-187 182l-187 -182c-17.333 4.66699 -35.833 15.167 -55.5 31.5s-34.167 35.833 -43.5 58.5l194 252c12 3.33301 26 6 42 8s32.667 3 50 3c16.667 0 33 -1 49 -3s30 -4.66699 42 -8z" />
    <glyph glyph-name="atilde" unicode="&#xe3;" horiz-adv-x="1014" 
d="M87 268c0 76.667 16.668 139.333 50.001 188s79 84.834 137 108.501s123.333 35.5 196 35.5c36.667 0 78.667 -1.66699 126 -5s91.333 -9.66602 132 -18.999v-139c-36 8.66699 -76.333 14.167 -121 16.5s-86 3.5 -124 3.5c-61.333 0 -108.5 -15.5 -141.5 -46.5
s-49.5 -73.5 -49.5 -127.5c0 -40.667 11.667 -75.167 35 -103.5s56.666 -42.5 99.999 -42.5c48 0 99.167 17 153.5 51s100.166 84 137.499 150l32 -158c-24 -28.667 -53.667 -58.834 -89 -90.501s-76.166 -58.834 -122.499 -81.501s-98.833 -34 -157.5 -34
c-66 0 -120.833 14.667 -164.5 44s-76.167 66.5 -97.5 111.5s-32 91.167 -32 138.5zM921.001 91.999c-4.66699 -18.667 -14.5 -38.5039 -29.5 -59.5039s-30.833 -36.833 -47.5 -47.5c-42 8.66699 -76 24.334 -102 47.001s-45.333 49.834 -58 81.501
s-20.334 65.167 -23.001 100.5v451c0 62.667 -14.167 107.834 -42.5 135.501s-68.5 41.5 -120.5 41.5c-50 0 -101.667 -7.66699 -155 -23s-106.666 -33.333 -159.999 -54c-16 16.667 -29.5 39.5 -40.5 68.5s-17.167 56.833 -18.5 83.5c37.333 16 79.5 31 126.5 45
s95.5 25.167 145.5 33.5s97.667 12.5 143 12.5c65.333 0 122.5 -12 171.5 -36s87 -60.667 114 -110s40.5 -112.333 40.5 -189v-410c0 -37.333 3.66699 -70.166 11 -98.499s22.333 -52.5 45 -72.5zM416.001 1192c-7.33301 4 -16.667 8.33398 -28 13.001s-23.666 7 -36.999 7
c-20.667 0 -37.334 -5.83301 -50.001 -17.5s-22.667 -22.167 -30 -31.5l-23 -29c-20 0.666992 -39.833 7 -59.5 19s-33.167 27 -40.5 45l18 39c19.333 44 46.5 79.333 81.5 106s73.833 40 116.5 40c23.333 0 44.833 -3.5 64.5 -10.5s35.5 -13.5 47.5 -19.5l87 -46
c6.66699 -4 16 -8.66699 28 -14s25 -8 39 -8c18.667 0 34 5.5 46 16.5s22.667 22.167 32 33.5l23 29c19.333 -0.666992 38.833 -7 58.5 -19s33.167 -27.333 40.5 -46l-17 -39c-20.667 -46.667 -48.5 -82.5 -83.5 -107.5s-73.5 -37.5 -115.5 -37.5
c-22 0 -42.5 3.16699 -61.5 9.5s-35.833 13.166 -50.5 20.499z" />
    <glyph glyph-name="adieresis" unicode="&#xe4;" horiz-adv-x="1014" 
d="M87 268c0 76.667 16.668 139.333 50.001 188s79 84.834 137 108.501s123.333 35.5 196 35.5c36.667 0 78.667 -1.66699 126 -5s91.333 -9.66602 132 -18.999v-139c-36 8.66699 -76.333 14.167 -121 16.5s-86 3.5 -124 3.5c-61.333 0 -108.5 -15.5 -141.5 -46.5
s-49.5 -73.5 -49.5 -127.5c0 -40.667 11.667 -75.167 35 -103.5s56.666 -42.5 99.999 -42.5c48 0 99.167 17 153.5 51s100.166 84 137.499 150l32 -158c-24 -28.667 -53.667 -58.834 -89 -90.501s-76.166 -58.834 -122.499 -81.501s-98.833 -34 -157.5 -34
c-66 0 -120.833 14.667 -164.5 44s-76.167 66.5 -97.5 111.5s-32 91.167 -32 138.5zM921.001 91.999c-4.66699 -18.667 -14.5 -38.5039 -29.5 -59.5039s-30.833 -36.833 -47.5 -47.5c-42 8.66699 -76 24.334 -102 47.001s-45.333 49.834 -58 81.501
s-20.334 65.167 -23.001 100.5v451c0 62.667 -14.167 107.834 -42.5 135.501s-68.5 41.5 -120.5 41.5c-50 0 -101.667 -7.66699 -155 -23s-106.666 -33.333 -159.999 -54c-16 16.667 -29.5 39.5 -40.5 68.5s-17.167 56.833 -18.5 83.5c37.333 16 79.5 31 126.5 45
s95.5 25.167 145.5 33.5s97.667 12.5 143 12.5c65.333 0 122.5 -12 171.5 -36s87 -60.667 114 -110s40.5 -112.333 40.5 -189v-410c0 -37.333 3.66699 -70.166 11 -98.499s22.333 -52.5 45 -72.5zM191.001 1229c0 12.667 1.16699 26.5 3.5 41.5s6.16602 28.167 11.499 39.5
c11.333 6.66699 26.333 12.167 45 16.5s36 6.5 52 6.5c15.333 0 32.5 -2.16699 51.5 -6.5s34.167 -9.83301 45.5 -16.5c5.33301 -11.333 9.16602 -24.5 11.499 -39.5s3.5 -28.833 3.5 -41.5c0 -12 -1.16699 -25.5 -3.5 -40.5s-6.16602 -28.167 -11.499 -39.5
c-11.333 -6.66699 -26.5 -12.167 -45.5 -16.5s-36.167 -6.5 -51.5 -6.5c-16 0 -33.333 2.16699 -52 6.5s-33.667 9.83301 -45 16.5c-5.33301 11.333 -9.16602 24.5 -11.499 39.5s-3.5 28.5 -3.5 40.5zM563.001 1229c0 12.667 1.16699 26.5 3.5 41.5
s6.16602 28.167 11.499 39.5c11.333 6.66699 26.5 12.167 45.5 16.5s36.167 6.5 51.5 6.5c16 0 33.333 -2.16699 52 -6.5s33.667 -9.83301 45 -16.5c5.33301 -11.333 9.33301 -24.5 12 -39.5s4 -28.833 4 -41.5c0 -12 -1.33301 -25.5 -4 -40.5s-6.66699 -28.167 -12 -39.5
c-11.333 -6.66699 -26.333 -12.167 -45 -16.5s-36 -6.5 -52 -6.5c-15.333 0 -32.5 2.16699 -51.5 6.5s-34.167 9.83301 -45.5 16.5c-5.33301 11.333 -9.16602 24.5 -11.499 39.5s-3.5 28.5 -3.5 40.5z" />
    <glyph glyph-name="aring" unicode="&#xe5;" horiz-adv-x="1014" 
d="M87 268c0 76.667 16.668 139.333 50.001 188s79 84.834 137 108.501s123.333 35.5 196 35.5c36.667 0 78.667 -1.66699 126 -5s91.333 -9.66602 132 -18.999v-139c-36 8.66699 -76.333 14.167 -121 16.5s-86 3.5 -124 3.5c-61.333 0 -108.5 -15.5 -141.5 -46.5
s-49.5 -73.5 -49.5 -127.5c0 -40.667 11.667 -75.167 35 -103.5s56.666 -42.5 99.999 -42.5c48 0 99.167 17 153.5 51s100.166 84 137.499 150l32 -158c-24 -28.667 -53.667 -58.834 -89 -90.501s-76.166 -58.834 -122.499 -81.501s-98.833 -34 -157.5 -34
c-66 0 -120.833 14.667 -164.5 44s-76.167 66.5 -97.5 111.5s-32 91.167 -32 138.5zM921.001 91.999c-4.66699 -18.667 -14.5 -38.5039 -29.5 -59.5039s-30.833 -36.833 -47.5 -47.5c-42 8.66699 -76 24.334 -102 47.001s-45.333 49.834 -58 81.501
s-20.334 65.167 -23.001 100.5v451c0 62.667 -14.167 107.834 -42.5 135.501s-68.5 41.5 -120.5 41.5c-50 0 -101.667 -7.66699 -155 -23s-106.666 -33.333 -159.999 -54c-16 16.667 -29.5 39.5 -40.5 68.5s-17.167 56.833 -18.5 83.5c37.333 16 79.5 31 126.5 45
s95.5 25.167 145.5 33.5s97.667 12.5 143 12.5c65.333 0 122.5 -12 171.5 -36s87 -60.667 114 -110s40.5 -112.333 40.5 -189v-410c0 -37.333 3.66699 -70.166 11 -98.499s22.333 -52.5 45 -72.5zM247.001 1304c0 -62 22.5 -115.333 67.5 -160s103.167 -67 174.5 -67
s129.5 22.333 174.5 67s67.5 98 67.5 160c0 62.667 -22.5 116.167 -67.5 160.5s-103.167 66.5 -174.5 66.5s-129.5 -22.167 -174.5 -66.5s-67.5 -97.833 -67.5 -160.5zM388.001 1304c0 32 9.5 58.333 28.5 79s43.167 31 72.5 31s53.5 -10.333 72.5 -31s28.5 -47 28.5 -79
c0 -30.667 -9.5 -56.5 -28.5 -77.5s-43.167 -31.5 -72.5 -31.5s-53.5 10.5 -72.5 31.5s-28.5 46.833 -28.5 77.5z" />
    <glyph glyph-name="ae" unicode="&#xe6;" horiz-adv-x="1562" 
d="M87 270c0 76 16.6689 138.332 50.002 186.999s79 84.667 137 108s123.333 35 196 35c41.333 0 84.5 -2 129.5 -6s87.833 -10 128.5 -18v-142c-37.333 7.33301 -78 13 -122 17s-85 6 -123 6c-61.333 0 -108.5 -15.333 -141.5 -46s-49.5 -73 -49.5 -127
c0 -40.667 11.667 -75.334 35 -104.001s56.666 -43 99.999 -43c34 0 69.833 7.66699 107.5 23s74 38.833 109 70.5s64.5 72.5 88.5 122.5l45 -168c-24.667 -33.333 -56.334 -66.166 -95.001 -98.499s-83.5 -59.166 -134.5 -80.499s-106.5 -32 -166.5 -32
c-66 0 -120.833 14.5 -164.5 43.5s-76.167 66.167 -97.5 111.5s-32 92.333 -32 141zM661.002 493.999l0.000976562 170.999c0 62.667 -14.167 107.834 -42.5 135.501s-68.166 41.5 -119.499 41.5c-50 0 -101.833 -7.5 -155.5 -22.5s-107.167 -33.167 -160.5 -54.5
c-16 16.667 -29.5 39.5 -40.5 68.5s-17.167 56.833 -18.5 83.5c56 24 121 45.167 195 63.5s144 27.5 210 27.5c67.333 0 124.666 -12.833 171.999 -38.5s83.666 -63.667 108.999 -114s38 -112.5 38 -186.5v-175h-187zM786.003 427.998l-0.00292969 150.001h482v24
c0 46.667 -6.5 89.5 -19.5 128.5s-33.833 70.5 -62.5 94.5s-66.667 36 -114 36c-68.667 0 -119.667 -29 -153 -87s-50 -138.667 -50 -242v-57c0 -62.667 6.5 -119.167 19.5 -169.5s36 -90 69 -119s80.167 -43.5 141.5 -43.5c50 0 98 7.33301 144 22s90.333 32.667 133 54
c16.667 -16 30.834 -36.833 42.501 -62.5s19.167 -48.834 22.5 -69.501c-48 -34.667 -105 -62.167 -171 -82.5s-133.333 -30.5 -202 -30.5c-130.667 0 -231 43.167 -301 129.5s-105.333 216.5 -106 390.5c-0.666992 58.667 7 118.5 23 179.5s40.667 117.167 74 168.5
s76 92.666 128 123.999s114 47 186 47c86.667 0 159.334 -19 218.001 -57s103 -89.167 133 -153.5s45 -136.166 45 -215.499c0 -32 -1.16699 -59.5 -3.5 -82.5s-6.16602 -48.5 -11.499 -76.5h-667z" />
    <glyph glyph-name="ccedilla" unicode="&#xe7;" horiz-adv-x="943" 
d="M678 606c1.33301 43.333 -2.50098 83.832 -11.501 121.499s-26.5 68.334 -52.5 92.001s-63.333 35.5 -112 35.5c-63.333 0 -112.5 -30.667 -147.5 -92s-52.5 -153 -52.5 -275c0 -120 19.833 -207.5 59.5 -262.5s95.167 -82.5 166.5 -82.5c45.333 0 88.5 10.5 129.5 31.5
s78.833 44.5 113.5 70.5c18 -11.333 35.833 -29.166 53.5 -53.499s28.834 -47.833 33.501 -70.5c-45.333 -44 -99 -79.5 -161 -106.5s-129 -40.5 -201 -40.5c-71.333 0 -132.666 13.667 -183.999 41s-93.5 64.833 -126.5 112.5s-57.5 102.334 -73.5 164.001
s-24 127.167 -24 196.5c0 92.667 11.667 172.167 35 238.5s55 120.666 95 162.999s85 73.5 135 93.5s101.333 30 154 30c60.667 0 113.667 -9 159 -27s83 -41.833 113 -71.5s52.5 -62.167 67.5 -97.5s22.5 -70.333 22.5 -105c0 -35.333 -8.33301 -63.333 -25 -84
s-43.334 -31 -80.001 -31c-16.667 0 -31.667 0.666992 -45 2s-27 3.66602 -41 6.99902zM371.999 -149.001c7.33301 22.667 18.166 50.168 32.499 82.501s27.166 58.5 38.499 78.5h127c-6.66699 -9.33301 -14.5 -23 -23.5 -41s-15.5 -32.667 -19.5 -44
c50 -5.33301 92.333 -23.5 127 -54.5s52 -71.5 52 -121.5c0 -58 -22.667 -105.5 -68 -142.5s-102.666 -55.5 -171.999 -55.5c-31.333 0 -61.166 4 -89.499 12s-50.833 17.333 -67.5 28c0.666992 19.333 4.66699 38.166 12 56.499s17 34.5 29 48.5
c12.667 -7.33301 28 -13.666 46 -18.999s36 -8 54 -8c30.667 0 53.167 7.66699 67.5 23s21.5 33.333 21.5 54c0 21.333 -7.16699 39.5 -21.5 54.5s-35.5 22.5 -63.5 22.5c-8 0 -16.167 -0.833008 -24.5 -2.5s-15.5 -3.83398 -21.5 -6.50098c-18 8 -30 19.667 -36 35z" />
    <glyph glyph-name="egrave" unicode="&#xe8;" horiz-adv-x="1001" 
d="M218 428l-0.00390625 149.998h485v26c0 46.667 -6.5 89.5 -19.5 128.5s-34.167 70.167 -63.5 93.5s-67.666 35 -114.999 35c-68.667 0 -119.834 -28.667 -153.501 -86s-50.5 -136.333 -50.5 -237v-63c0 -62.667 6.5 -119.167 19.5 -169.5s36.167 -90 69.5 -119
s80.666 -43.5 141.999 -43.5c50 0 98.333 7.16699 145 21.5s91 32.5 133 54.5c17.333 -16.667 31.833 -37.667 43.5 -63s18.834 -48.333 21.501 -69c-47.333 -34.667 -104.166 -62.167 -170.499 -82.5s-134.5 -30.5 -204.5 -30.5c-78.667 0 -144.667 14.167 -198 42.5
s-95.666 66.833 -126.999 115.5s-53.666 103.834 -66.999 165.501s-20 126.5 -20 194.5c0 99.333 15.5 188.333 46.5 267s77.333 140.667 139 186s138.834 68 231.501 68c86 0 158.667 -19 218 -57s104 -89.167 134 -153.5s45 -136.166 45 -215.499c0 -32 -1 -59.5 -3 -82.5
s-6 -48.5 -12 -76.5h-669zM389.996 1478c-30 -10 -59 -27.833 -87 -53.5s-47.333 -53.167 -58 -82.5l342 -266c18.667 5.33301 36.5 15.833 53.5 31.5s29.167 33.167 36.5 52.5z" />
    <glyph glyph-name="eacute" unicode="&#xe9;" horiz-adv-x="1001" 
d="M218 428l-0.00390625 149.998h485v26c0 46.667 -6.5 89.5 -19.5 128.5s-34.167 70.167 -63.5 93.5s-67.666 35 -114.999 35c-68.667 0 -119.834 -28.667 -153.501 -86s-50.5 -136.333 -50.5 -237v-63c0 -62.667 6.5 -119.167 19.5 -169.5s36.167 -90 69.5 -119
s80.666 -43.5 141.999 -43.5c50 0 98.333 7.16699 145 21.5s91 32.5 133 54.5c17.333 -16.667 31.833 -37.667 43.5 -63s18.834 -48.333 21.501 -69c-47.333 -34.667 -104.166 -62.167 -170.499 -82.5s-134.5 -30.5 -204.5 -30.5c-78.667 0 -144.667 14.167 -198 42.5
s-95.666 66.833 -126.999 115.5s-53.666 103.834 -66.999 165.501s-20 126.5 -20 194.5c0 99.333 15.5 188.333 46.5 267s77.333 140.667 139 186s138.834 68 231.501 68c86 0 158.667 -19 218 -57s104 -89.167 134 -153.5s45 -136.166 45 -215.499c0 -32 -1 -59.5 -3 -82.5
s-6 -48.5 -12 -76.5h-669zM647.996 1478c30 -10 58.833 -27.833 86.5 -53.5s47.167 -53.167 58.5 -82.5l-342 -266c-18.667 5.33301 -36.5 15.833 -53.5 31.5s-29.5 33.167 -37.5 52.5z" />
    <glyph glyph-name="ecircumflex" unicode="&#xea;" horiz-adv-x="1001" 
d="M218 428l-0.00390625 149.998h485v26c0 46.667 -6.5 89.5 -19.5 128.5s-34.167 70.167 -63.5 93.5s-67.666 35 -114.999 35c-68.667 0 -119.834 -28.667 -153.501 -86s-50.5 -136.333 -50.5 -237v-63c0 -62.667 6.5 -119.167 19.5 -169.5s36.167 -90 69.5 -119
s80.666 -43.5 141.999 -43.5c50 0 98.333 7.16699 145 21.5s91 32.5 133 54.5c17.333 -16.667 31.833 -37.667 43.5 -63s18.834 -48.333 21.501 -69c-47.333 -34.667 -104.166 -62.167 -170.499 -82.5s-134.5 -30.5 -204.5 -30.5c-78.667 0 -144.667 14.167 -198 42.5
s-95.666 66.833 -126.999 115.5s-53.666 103.834 -66.999 165.501s-20 126.5 -20 194.5c0 99.333 15.5 188.333 46.5 267s77.333 140.667 139 186s138.834 68 231.501 68c86 0 158.667 -19 218 -57s104 -89.167 134 -153.5s45 -136.166 45 -215.499c0 -32 -1 -59.5 -3 -82.5
s-6 -48.5 -12 -76.5h-669zM604.996 1435l195.001 -252c-10 -22.667 -24.833 -42.167 -44.5 -58.5s-37.834 -26.833 -54.501 -31.5l-187 182l-187 -182c-17.333 4.66699 -35.833 15.167 -55.5 31.5s-34.167 35.833 -43.5 58.5l194 252c12 3.33301 26 6 42 8s32.667 3 50 3
c16.667 0 33 -1 49 -3s30 -4.66699 42 -8z" />
    <glyph glyph-name="edieresis" unicode="&#xeb;" horiz-adv-x="1001" 
d="M218 428l-0.00390625 149.998h485v26c0 46.667 -6.5 89.5 -19.5 128.5s-34.167 70.167 -63.5 93.5s-67.666 35 -114.999 35c-68.667 0 -119.834 -28.667 -153.501 -86s-50.5 -136.333 -50.5 -237v-63c0 -62.667 6.5 -119.167 19.5 -169.5s36.167 -90 69.5 -119
s80.666 -43.5 141.999 -43.5c50 0 98.333 7.16699 145 21.5s91 32.5 133 54.5c17.333 -16.667 31.833 -37.667 43.5 -63s18.834 -48.333 21.501 -69c-47.333 -34.667 -104.166 -62.167 -170.499 -82.5s-134.5 -30.5 -204.5 -30.5c-78.667 0 -144.667 14.167 -198 42.5
s-95.666 66.833 -126.999 115.5s-53.666 103.834 -66.999 165.501s-20 126.5 -20 194.5c0 99.333 15.5 188.333 46.5 267s77.333 140.667 139 186s138.834 68 231.501 68c86 0 158.667 -19 218 -57s104 -89.167 134 -153.5s45 -136.166 45 -215.499c0 -32 -1 -59.5 -3 -82.5
s-6 -48.5 -12 -76.5h-669zM211.996 1229c0 12.667 1.16699 26.5 3.5 41.5s6.16602 28.167 11.499 39.5c11.333 6.66699 26.333 12.167 45 16.5s36 6.5 52 6.5c15.333 0 32.5 -2.16699 51.5 -6.5s34.167 -9.83301 45.5 -16.5c5.33301 -11.333 9.16602 -24.5 11.499 -39.5
s3.5 -28.833 3.5 -41.5c0 -12 -1.16699 -25.5 -3.5 -40.5s-6.16602 -28.167 -11.499 -39.5c-11.333 -6.66699 -26.5 -12.167 -45.5 -16.5s-36.167 -6.5 -51.5 -6.5c-16 0 -33.333 2.16699 -52 6.5s-33.667 9.83301 -45 16.5c-5.33301 11.333 -9.16602 24.5 -11.499 39.5
s-3.5 28.5 -3.5 40.5zM583.996 1229c0 12.667 1.16699 26.5 3.5 41.5s6.16602 28.167 11.499 39.5c11.333 6.66699 26.5 12.167 45.5 16.5s36.167 6.5 51.5 6.5c16 0 33.333 -2.16699 52 -6.5s33.667 -9.83301 45 -16.5c5.33301 -11.333 9.33301 -24.5 12 -39.5
s4 -28.833 4 -41.5c0 -12 -1.33301 -25.5 -4 -40.5s-6.66699 -28.167 -12 -39.5c-11.333 -6.66699 -26.333 -12.167 -45 -16.5s-36 -6.5 -52 -6.5c-15.333 0 -32.5 2.16699 -51.5 6.5s-34.167 9.83301 -45.5 16.5c-5.33301 11.333 -9.16602 24.5 -11.499 39.5
s-3.5 28.5 -3.5 40.5z" />
    <glyph glyph-name="igrave" unicode="&#xec;" horiz-adv-x="543" 
d="M390 0c-14.667 -2.66699 -30.8311 -4.66309 -48.498 -5.99609s-35.834 -2 -54.501 -2s-37 0.666992 -55 2s-34.333 3.33301 -49 6v733c0 35.333 -6.16699 61.5 -18.5 78.5s-35.166 25.5 -68.499 25.5h-22c-6 23.333 -9 47.666 -9 72.999c0 12 0.666992 24.167 2 36.5
s3.66602 25.166 6.99902 38.499c25.333 3.33301 49.166 5.66602 71.499 6.99902s40.833 2 55.5 2h27c50 0 89.5 -15.833 118.5 -47.5s43.5 -74.834 43.5 -129.501v-817zM130.003 1478c-30 -10 -59 -27.833 -87 -53.5s-47.333 -53.167 -58 -82.5l342 -266
c18.667 5.33301 36.5 15.833 53.5 31.5s29.167 33.167 36.5 52.5z" />
    <glyph glyph-name="iacute" unicode="&#xed;" horiz-adv-x="543" 
d="M390 0c-14.667 -2.66699 -30.8311 -4.66309 -48.498 -5.99609s-35.834 -2 -54.501 -2s-37 0.666992 -55 2s-34.333 3.33301 -49 6v733c0 35.333 -6.16699 61.5 -18.5 78.5s-35.166 25.5 -68.499 25.5h-22c-6 23.333 -9 47.666 -9 72.999c0 12 0.666992 24.167 2 36.5
s3.66602 25.166 6.99902 38.499c25.333 3.33301 49.166 5.66602 71.499 6.99902s40.833 2 55.5 2h27c50 0 89.5 -15.833 118.5 -47.5s43.5 -74.834 43.5 -129.501v-817zM388.003 1478c30 -10 58.833 -27.833 86.5 -53.5s47.167 -53.167 58.5 -82.5l-342 -266
c-18.667 5.33301 -36.5 15.833 -53.5 31.5s-29.5 33.167 -37.5 52.5z" />
    <glyph glyph-name="icircumflex" unicode="&#xee;" horiz-adv-x="543" 
d="M390 0c-14.667 -2.66699 -30.8311 -4.66309 -48.498 -5.99609s-35.834 -2 -54.501 -2s-37 0.666992 -55 2s-34.333 3.33301 -49 6v733c0 35.333 -6.16699 61.5 -18.5 78.5s-35.166 25.5 -68.499 25.5h-22c-6 23.333 -9 47.666 -9 72.999c0 12 0.666992 24.167 2 36.5
s3.66602 25.166 6.99902 38.499c25.333 3.33301 49.166 5.66602 71.499 6.99902s40.833 2 55.5 2h27c50 0 89.5 -15.833 118.5 -47.5s43.5 -74.834 43.5 -129.501v-817zM345.003 1435l195.001 -252c-10 -22.667 -24.833 -42.167 -44.5 -58.5s-37.834 -26.833 -54.501 -31.5
l-187 182l-187 -182c-17.333 4.66699 -35.833 15.167 -55.5 31.5s-34.167 35.833 -43.5 58.5l194 252c12 3.33301 26 6 42 8s32.667 3 50 3c16.667 0 33 -1 49 -3s30 -4.66699 42 -8z" />
    <glyph glyph-name="idieresis" unicode="&#xef;" horiz-adv-x="543" 
d="M390 0c-14.667 -2.66699 -30.8311 -4.66309 -48.498 -5.99609s-35.834 -2 -54.501 -2s-37 0.666992 -55 2s-34.333 3.33301 -49 6v733c0 35.333 -6.16699 61.5 -18.5 78.5s-35.166 25.5 -68.499 25.5h-22c-6 23.333 -9 47.666 -9 72.999c0 12 0.666992 24.167 2 36.5
s3.66602 25.166 6.99902 38.499c25.333 3.33301 49.166 5.66602 71.499 6.99902s40.833 2 55.5 2h27c50 0 89.5 -15.833 118.5 -47.5s43.5 -74.834 43.5 -129.501v-817zM-47.9971 1229c0 12.667 1.16699 26.5 3.5 41.5s6.16602 28.167 11.499 39.5
c11.333 6.66699 26.333 12.167 45 16.5s36 6.5 52 6.5c15.333 0 32.5 -2.16699 51.5 -6.5s34.167 -9.83301 45.5 -16.5c5.33301 -11.333 9.16602 -24.5 11.499 -39.5s3.5 -28.833 3.5 -41.5c0 -12 -1.16699 -25.5 -3.5 -40.5s-6.16602 -28.167 -11.499 -39.5
c-11.333 -6.66699 -26.5 -12.167 -45.5 -16.5s-36.167 -6.5 -51.5 -6.5c-16 0 -33.333 2.16699 -52 6.5s-33.667 9.83301 -45 16.5c-5.33301 11.333 -9.16602 24.5 -11.499 39.5s-3.5 28.5 -3.5 40.5zM324.003 1229c0 12.667 1.16699 26.5 3.5 41.5
s6.16602 28.167 11.499 39.5c11.333 6.66699 26.5 12.167 45.5 16.5s36.167 6.5 51.5 6.5c16 0 33.333 -2.16699 52 -6.5s33.667 -9.83301 45 -16.5c5.33301 -11.333 9.33301 -24.5 12 -39.5s4 -28.833 4 -41.5c0 -12 -1.33301 -25.5 -4 -40.5s-6.66699 -28.167 -12 -39.5
c-11.333 -6.66699 -26.333 -12.167 -45 -16.5s-36 -6.5 -52 -6.5c-15.333 0 -32.5 2.16699 -51.5 6.5s-34.167 9.83301 -45.5 16.5c-5.33301 11.333 -9.16602 24.5 -11.499 39.5s-3.5 28.5 -3.5 40.5z" />
    <glyph glyph-name="eth" unicode="&#xf0;" horiz-adv-x="1036" 
d="M950 490c0 -101.333 -16.335 -190.668 -49.002 -268.001s-81.167 -138 -145.5 -182s-143.833 -66 -238.5 -66c-93.333 0 -172 22 -236 66s-112.333 104.333 -145 181s-49 163.667 -49 261c0 95.333 16.667 180 50 254s81.333 132.167 144 174.5
s138.334 63.5 227.001 63.5c56 0 109.667 -13.167 161 -39.5s92.333 -55.833 123 -88.5v-164c-29.333 38 -67.833 70.333 -115.5 97s-99.834 40 -156.501 40c-56 0 -100 -15.167 -132 -45.5s-54.833 -71.166 -68.5 -122.499s-20.5 -108.333 -20.5 -171
c0 -58.667 6.33301 -114.667 19 -168s34.834 -97 66.501 -131s76.5 -51 134.5 -51c56.667 0 100.834 17.167 132.501 51.5s54 79 67 134s19.5 113.167 19.5 174.5c0 86 -5.83301 157 -17.5 213s-27.167 107.333 -46.5 154c-8.66699 66 -34.5 131.333 -77.5 196
s-96.333 124 -160 178s-130.5 98.333 -200.5 133c4 25.333 13.833 50.833 29.5 76.5s33.5 43.834 53.5 54.501c134.667 -57.333 249 -134.833 343 -232.5s165.5 -211.834 214.5 -342.501s73.5 -274 73.5 -430zM718.998 1484c15.333 -10.667 30.832 -26.5 46.499 -47.5
s25.167 -41.167 28.5 -60.5l-494 -341c-16 10.667 -31.667 26.5 -47 47.5s-24.666 41.167 -27.999 60.5z" />
    <glyph glyph-name="ntilde" unicode="&#xf1;" horiz-adv-x="1091" 
d="M246 996c43.333 0 73.5 -13 90.5 -39s25.5 -62 25.5 -108v-849c-13.333 -2.66699 -29 -4.66699 -47 -6s-36.333 -2 -55 -2s-37.167 0.666992 -55.5 2s-34.5 3.33301 -48.5 6v983l13 13h77zM944 211c0 -34.667 2.33105 -67.5029 6.99805 -98.5029s13.667 -58.167 27 -81.5
c-15.333 -13.333 -34.666 -24 -57.999 -32s-47.333 -12 -72 -12c-40.667 0 -69.167 11 -85.5 33s-24.5 54.667 -24.5 98v509c0 66.667 -8.5 115.334 -25.5 146.001s-50.167 46 -99.5 46c-33.333 0 -69.5 -8.16699 -108.5 -24.5s-75.833 -39.166 -110.5 -68.499
s-62.667 -63.666 -84 -102.999v198c44.667 51.333 99.167 94.833 163.5 130.5s132.833 53.5 205.5 53.5c62.667 0 113.334 -14.5 152.001 -43.5s67.167 -68.167 85.5 -117.5s27.5 -105 27.5 -167v-466zM482.998 1192c-7.33301 4 -16.667 8.33398 -28 13.001
s-23.666 7 -36.999 7c-20.667 0 -37.334 -5.83301 -50.001 -17.5s-22.667 -22.167 -30 -31.5l-23 -29c-20 0.666992 -39.833 7 -59.5 19s-33.167 27 -40.5 45l18 39c19.333 44 46.5 79.333 81.5 106s73.833 40 116.5 40c23.333 0 44.833 -3.5 64.5 -10.5
s35.5 -13.5 47.5 -19.5l87 -46c6.66699 -4 16 -8.66699 28 -14s25 -8 39 -8c18.667 0 34 5.5 46 16.5s22.667 22.167 32 33.5l23 29c19.333 -0.666992 38.833 -7 58.5 -19s33.167 -27.333 40.5 -46l-17 -39c-20.667 -46.667 -48.5 -82.5 -83.5 -107.5
s-73.5 -37.5 -115.5 -37.5c-22 0 -42.5 3.16699 -61.5 9.5s-35.833 13.166 -50.5 20.499z" />
    <glyph glyph-name="ograve" unicode="&#xf2;" horiz-adv-x="1040" 
d="M952 494c0 -102.667 -16.333 -192.999 -49 -270.999s-81.167 -139 -145.5 -183s-143.833 -66 -238.5 -66c-95.333 0 -174.833 22.167 -238.5 66.5s-111.667 105.666 -144 183.999s-48.5 168.166 -48.5 269.499s16.333 191 49 269s81 139.167 145 183.5s143 66.5 237 66.5
c96 0 176 -22.167 240 -66.5s112.167 -105.666 144.5 -183.999s48.5 -167.833 48.5 -268.5zM301 494.001c0 -62.667 6.33301 -121.5 19 -176.5s34.834 -99.667 66.501 -134s76.5 -51.5 134.5 -51.5c56.667 0 100.834 17.167 132.501 51.5s53.834 79 66.501 134
s19 113.833 19 176.5c0 62 -6.33301 120.5 -19 175.5s-34.834 100 -66.501 135s-75.834 52.5 -132.501 52.5c-58 0 -102.833 -17.5 -134.5 -52.5s-53.834 -80 -66.501 -135s-19 -113.5 -19 -175.5zM399 1478c-30 -10 -59 -27.833 -87 -53.5s-47.333 -53.167 -58 -82.5
l342 -266c18.667 5.33301 36.5 15.833 53.5 31.5s29.167 33.167 36.5 52.5z" />
    <glyph glyph-name="oacute" unicode="&#xf3;" horiz-adv-x="1040" 
d="M952 494c0 -102.667 -16.333 -192.999 -49 -270.999s-81.167 -139 -145.5 -183s-143.833 -66 -238.5 -66c-95.333 0 -174.833 22.167 -238.5 66.5s-111.667 105.666 -144 183.999s-48.5 168.166 -48.5 269.499s16.333 191 49 269s81 139.167 145 183.5s143 66.5 237 66.5
c96 0 176 -22.167 240 -66.5s112.167 -105.666 144.5 -183.999s48.5 -167.833 48.5 -268.5zM301 494.001c0 -62.667 6.33301 -121.5 19 -176.5s34.834 -99.667 66.501 -134s76.5 -51.5 134.5 -51.5c56.667 0 100.834 17.167 132.501 51.5s53.834 79 66.501 134
s19 113.833 19 176.5c0 62 -6.33301 120.5 -19 175.5s-34.834 100 -66.501 135s-75.834 52.5 -132.501 52.5c-58 0 -102.833 -17.5 -134.5 -52.5s-53.834 -80 -66.501 -135s-19 -113.5 -19 -175.5zM657 1478c30 -10 58.833 -27.833 86.5 -53.5s47.167 -53.167 58.5 -82.5
l-342 -266c-18.667 5.33301 -36.5 15.833 -53.5 31.5s-29.5 33.167 -37.5 52.5z" />
    <glyph glyph-name="ocircumflex" unicode="&#xf4;" horiz-adv-x="1040" 
d="M952 494c0 -102.667 -16.333 -192.999 -49 -270.999s-81.167 -139 -145.5 -183s-143.833 -66 -238.5 -66c-95.333 0 -174.833 22.167 -238.5 66.5s-111.667 105.666 -144 183.999s-48.5 168.166 -48.5 269.499s16.333 191 49 269s81 139.167 145 183.5s143 66.5 237 66.5
c96 0 176 -22.167 240 -66.5s112.167 -105.666 144.5 -183.999s48.5 -167.833 48.5 -268.5zM301 494.001c0 -62.667 6.33301 -121.5 19 -176.5s34.834 -99.667 66.501 -134s76.5 -51.5 134.5 -51.5c56.667 0 100.834 17.167 132.501 51.5s53.834 79 66.501 134
s19 113.833 19 176.5c0 62 -6.33301 120.5 -19 175.5s-34.834 100 -66.501 135s-75.834 52.5 -132.501 52.5c-58 0 -102.833 -17.5 -134.5 -52.5s-53.834 -80 -66.501 -135s-19 -113.5 -19 -175.5zM614 1435l195.001 -252c-10 -22.667 -24.833 -42.167 -44.5 -58.5
s-37.834 -26.833 -54.501 -31.5l-187 182l-187 -182c-17.333 4.66699 -35.833 15.167 -55.5 31.5s-34.167 35.833 -43.5 58.5l194 252c12 3.33301 26 6 42 8s32.667 3 50 3c16.667 0 33 -1 49 -3s30 -4.66699 42 -8z" />
    <glyph glyph-name="otilde" unicode="&#xf5;" horiz-adv-x="1040" 
d="M952 494c0 -102.667 -16.333 -192.999 -49 -270.999s-81.167 -139 -145.5 -183s-143.833 -66 -238.5 -66c-95.333 0 -174.833 22.167 -238.5 66.5s-111.667 105.666 -144 183.999s-48.5 168.166 -48.5 269.499s16.333 191 49 269s81 139.167 145 183.5s143 66.5 237 66.5
c96 0 176 -22.167 240 -66.5s112.167 -105.666 144.5 -183.999s48.5 -167.833 48.5 -268.5zM301 494.001c0 -62.667 6.33301 -121.5 19 -176.5s34.834 -99.667 66.501 -134s76.5 -51.5 134.5 -51.5c56.667 0 100.834 17.167 132.501 51.5s53.834 79 66.501 134
s19 113.833 19 176.5c0 62 -6.33301 120.5 -19 175.5s-34.834 100 -66.501 135s-75.834 52.5 -132.501 52.5c-58 0 -102.833 -17.5 -134.5 -52.5s-53.834 -80 -66.501 -135s-19 -113.5 -19 -175.5zM446 1192c-7.33301 4 -16.667 8.33398 -28 13.001s-23.666 7 -36.999 7
c-20.667 0 -37.334 -5.83301 -50.001 -17.5s-22.667 -22.167 -30 -31.5l-23 -29c-20 0.666992 -39.833 7 -59.5 19s-33.167 27 -40.5 45l18 39c19.333 44 46.5 79.333 81.5 106s73.833 40 116.5 40c23.333 0 44.833 -3.5 64.5 -10.5s35.5 -13.5 47.5 -19.5l87 -46
c6.66699 -4 16 -8.66699 28 -14s25 -8 39 -8c18.667 0 34 5.5 46 16.5s22.667 22.167 32 33.5l23 29c19.333 -0.666992 38.833 -7 58.5 -19s33.167 -27.333 40.5 -46l-17 -39c-20.667 -46.667 -48.5 -82.5 -83.5 -107.5s-73.5 -37.5 -115.5 -37.5
c-22 0 -42.5 3.16699 -61.5 9.5s-35.833 13.166 -50.5 20.499z" />
    <glyph glyph-name="odieresis" unicode="&#xf6;" horiz-adv-x="1040" 
d="M952 494c0 -102.667 -16.333 -192.999 -49 -270.999s-81.167 -139 -145.5 -183s-143.833 -66 -238.5 -66c-95.333 0 -174.833 22.167 -238.5 66.5s-111.667 105.666 -144 183.999s-48.5 168.166 -48.5 269.499s16.333 191 49 269s81 139.167 145 183.5s143 66.5 237 66.5
c96 0 176 -22.167 240 -66.5s112.167 -105.666 144.5 -183.999s48.5 -167.833 48.5 -268.5zM301 494.001c0 -62.667 6.33301 -121.5 19 -176.5s34.834 -99.667 66.501 -134s76.5 -51.5 134.5 -51.5c56.667 0 100.834 17.167 132.501 51.5s53.834 79 66.501 134
s19 113.833 19 176.5c0 62 -6.33301 120.5 -19 175.5s-34.834 100 -66.501 135s-75.834 52.5 -132.501 52.5c-58 0 -102.833 -17.5 -134.5 -52.5s-53.834 -80 -66.501 -135s-19 -113.5 -19 -175.5zM221 1229c0 12.667 1.16699 26.5 3.5 41.5s6.16602 28.167 11.499 39.5
c11.333 6.66699 26.333 12.167 45 16.5s36 6.5 52 6.5c15.333 0 32.5 -2.16699 51.5 -6.5s34.167 -9.83301 45.5 -16.5c5.33301 -11.333 9.16602 -24.5 11.499 -39.5s3.5 -28.833 3.5 -41.5c0 -12 -1.16699 -25.5 -3.5 -40.5s-6.16602 -28.167 -11.499 -39.5
c-11.333 -6.66699 -26.5 -12.167 -45.5 -16.5s-36.167 -6.5 -51.5 -6.5c-16 0 -33.333 2.16699 -52 6.5s-33.667 9.83301 -45 16.5c-5.33301 11.333 -9.16602 24.5 -11.499 39.5s-3.5 28.5 -3.5 40.5zM593 1229c0 12.667 1.16699 26.5 3.5 41.5s6.16602 28.167 11.499 39.5
c11.333 6.66699 26.5 12.167 45.5 16.5s36.167 6.5 51.5 6.5c16 0 33.333 -2.16699 52 -6.5s33.667 -9.83301 45 -16.5c5.33301 -11.333 9.33301 -24.5 12 -39.5s4 -28.833 4 -41.5c0 -12 -1.33301 -25.5 -4 -40.5s-6.66699 -28.167 -12 -39.5
c-11.333 -6.66699 -26.333 -12.167 -45 -16.5s-36 -6.5 -52 -6.5c-15.333 0 -32.5 2.16699 -51.5 6.5s-34.167 9.83301 -45.5 16.5c-5.33301 11.333 -9.16602 24.5 -11.499 39.5s-3.5 28.5 -3.5 40.5z" />
    <glyph glyph-name="divide" unicode="&#xf7;" horiz-adv-x="1080" 
d="M418 982c0 34 5.66504 62.668 16.998 86.001c12 6.66699 27.833 12.167 47.5 16.5s38.834 6.5 57.501 6.5c17.333 0 36.333 -2.16699 57 -6.5s36.334 -9.83301 47.001 -16.5c5.33301 -10.667 9.66602 -24 12.999 -40s5 -31.333 5 -46c0 -13.333 -1.66699 -28 -5 -44
s-7.66602 -29.667 -12.999 -41c-10 -6.66699 -25.5 -12.167 -46.5 -16.5s-40.167 -6.5 -57.5 -6.5c-18.667 0 -38 2 -58 6s-35.667 9.66699 -47 17c-11.333 23.333 -17 51.666 -17 84.999zM417.998 269.001c0 33.333 5.66504 61.668 16.998 85.001
c12 7.33301 27.833 13.166 47.5 17.499s38.834 6.5 57.501 6.5c17.333 0 36.333 -2.16699 57 -6.5s36.334 -10.166 47.001 -17.499c5.33301 -10.667 9.66602 -24 12.999 -40s5 -31 5 -45s-1.66699 -29 -5 -45s-7.66602 -29.333 -12.999 -40
c-10 -6.66699 -25.5 -12.167 -46.5 -16.5s-40.167 -6.5 -57.5 -6.5c-18.667 0 -38 2 -58 6s-35.667 9.66699 -47 17c-11.333 23.333 -17 51.666 -17 84.999zM122.996 540.003c-3.33301 13.333 -5.66602 27.833 -6.99902 43.5s-2 30.167 -2 43.5c0 14 0.666992 29 2 45
s3.66602 31 6.99902 45h834c3.33301 -14 5.66602 -29 6.99902 -45s2 -31 2 -45c0 -13.333 -0.666992 -27.833 -2 -43.5s-3.66602 -30.167 -6.99902 -43.5h-834z" />
    <glyph glyph-name="oslash" unicode="&#xf8;" horiz-adv-x="1043" 
d="M954 495c0 -79.333 -10.333 -154.666 -31 -225.999s-57.334 -133 -110.001 -185c-37.333 -37.333 -80.5 -65 -129.5 -83s-103.5 -27 -163.5 -27c-58 0 -111.333 9 -160 27s-92 45.667 -130 83c-52.667 52 -89.167 113.667 -109.5 185s-30.5 146.666 -30.5 225.999
c0 78 10.167 152.5 30.5 223.5s56.833 132.5 109.5 184.5c38 37.333 81.333 65 130 83s102 27 160 27c60 0 114.5 -9 163.5 -27s92.167 -45.667 129.5 -83c52.667 -52 89.334 -113.5 110.001 -184.5s31 -145.5 31 -223.5zM287 495c0 -61.333 6.83301 -120.166 20.5 -176.499
s37.5 -102.5 71.5 -138.5s81.667 -54 143 -54s108.833 18 142.5 54s57.5 82.167 71.5 138.5s21 115.166 21 176.499c0 60.667 -7 119 -21 175s-37.833 102.167 -71.5 138.5s-81.167 54.5 -142.5 54.5s-109 -18.167 -143 -54.5s-57.833 -82.5 -71.5 -138.5
s-20.5 -114.333 -20.5 -175zM658 904l112.999 197c20.667 -3.33301 42.334 -11.166 65.001 -23.499s40.667 -26.5 54 -42.5l-134 -235l-373 -712l-116 -200c-20.667 3.33301 -42.5 11.166 -65.5 23.499s-40.833 26.833 -53.5 43.5l135 235z" />
    <glyph glyph-name="ugrave" unicode="&#xf9;" horiz-adv-x="1094" 
d="M935 280c0 -38.667 4.00098 -75.001 12.001 -109.001s22.667 -60.667 44 -80c-5.33301 -19.333 -15.333 -39.166 -30 -59.499s-30.334 -35.833 -47.001 -46.5c-66 12.667 -113.333 44 -142 94s-43 107 -43 171v737c14 2.66699 30 4.66699 48 6s36.333 2 55 2
s37 -0.666992 55 -2s34 -3.33301 48 -6v-707zM147.001 775.999c0 34.667 -2.33398 67.5029 -7.00098 98.5029s-13 58.167 -25 81.5c14.667 13.333 33.667 24 57 32s47.333 12 72 12c40 0 68.333 -11 85 -33s25 -54.667 25 -98v-509c0 -66.667 8.5 -115.334 25.5 -146.001
s49.833 -46 98.5 -46c34 0 70.333 8.16699 109 24.5s75.334 39.166 110.001 68.499s62.667 63.666 84 102.999v-197c-44.667 -52 -99.167 -95.833 -163.5 -131.5s-132.833 -53.5 -205.5 -53.5c-62 0 -112.5 14.5 -151.5 43.5s-67.667 68.333 -86 118
s-27.5 105.167 -27.5 166.5v466zM416 1478c-30 -10 -59 -27.833 -87 -53.5s-47.333 -53.167 -58 -82.5l342 -266c18.667 5.33301 36.5 15.833 53.5 31.5s29.167 33.167 36.5 52.5z" />
    <glyph glyph-name="uacute" unicode="&#xfa;" horiz-adv-x="1094" 
d="M935 280c0 -38.667 4.00098 -75.001 12.001 -109.001s22.667 -60.667 44 -80c-5.33301 -19.333 -15.333 -39.166 -30 -59.499s-30.334 -35.833 -47.001 -46.5c-66 12.667 -113.333 44 -142 94s-43 107 -43 171v737c14 2.66699 30 4.66699 48 6s36.333 2 55 2
s37 -0.666992 55 -2s34 -3.33301 48 -6v-707zM147.001 775.999c0 34.667 -2.33398 67.5029 -7.00098 98.5029s-13 58.167 -25 81.5c14.667 13.333 33.667 24 57 32s47.333 12 72 12c40 0 68.333 -11 85 -33s25 -54.667 25 -98v-509c0 -66.667 8.5 -115.334 25.5 -146.001
s49.833 -46 98.5 -46c34 0 70.333 8.16699 109 24.5s75.334 39.166 110.001 68.499s62.667 63.666 84 102.999v-197c-44.667 -52 -99.167 -95.833 -163.5 -131.5s-132.833 -53.5 -205.5 -53.5c-62 0 -112.5 14.5 -151.5 43.5s-67.667 68.333 -86 118
s-27.5 105.167 -27.5 166.5v466zM674 1478c30 -10 58.833 -27.833 86.5 -53.5s47.167 -53.167 58.5 -82.5l-342 -266c-18.667 5.33301 -36.5 15.833 -53.5 31.5s-29.5 33.167 -37.5 52.5z" />
    </font>
</defs>
</svg>
