<?xml version="1.0" standalone="no"?>
<!DOCTYPE svg PUBLIC "-//W3C//DTD SVG 1.1//EN" "http://www.w3.org/Graphics/SVG/1.1/DTD/svg11.dtd" >
<svg>
<metadata>
Created by FontForge 20090914 at Sat Dec 12 10:28:25 2020
 By www-data
Copyright (c) 2011 by Anna Giedrys (http://ancymonic.com), with Reserved Font Names "Signika".
</metadata>
<defs>
<font id="SignikaNegative-SemiBold" horiz-adv-x="530" >
  <font-face 
    font-family="Signika Negative SemiBold"
    font-weight="600"
    font-stretch="normal"
    units-per-em="1000"
    panose-1="2 1 0 3 2 6 0 0 0 4"
    ascent="800"
    descent="-200"
    x-height="495.999"
    cap-height="688"
    bbox="-124 -274 951.002 918"
    underline-thickness="50"
    underline-position="-100"
    unicode-range="U+000D-U+20AC"
  />
<missing-glyph horiz-adv-x="186" 
 />
    <glyph glyph-name=".notdef" horiz-adv-x="186" 
 />
    <glyph glyph-name=".null" horiz-adv-x="0" 
 />
    <glyph glyph-name=".null" horiz-adv-x="0" 
 />
    <glyph glyph-name="CR" unicode="&#xd;" horiz-adv-x="186" 
 />
    <glyph glyph-name="space" unicode=" " horiz-adv-x="220" 
 />
    <glyph glyph-name="exclam" unicode="!" horiz-adv-x="296" 
d="M97 200l-15 456c32.667 23.333 76.667 35 132 35l7 -9l-28 -482c-12.667 -4 -28.667 -6 -48 -6s-35.333 2 -48 6zM145 121c26.667 0 47.667 -4.66797 63 -14.001c6.66699 -9.33301 10 -26.166 10 -50.499s-3.33301 -41.833 -10 -52.5
c-15.333 -9.33301 -36.333 -14 -63 -14s-47.667 4.66699 -63 14c-6.66699 12 -10 29.333 -10 52s3.33301 39.667 10 51c15.333 9.33301 36.333 14 63 14z" />
    <glyph glyph-name="quotedbl" unicode="&#x22;" horiz-adv-x="413" 
d="M239 717c0 10 2.33301 25 7 45c16.667 9.33301 36.334 14 59.001 14s41.667 -4.66699 57 -14c4.66699 -20 7 -35.167 7 -45.5s-1.66699 -25.5 -5 -45.5c-14 -74.667 -23.333 -131 -28 -169c-7.33301 -4.66699 -17.833 -7 -31.5 -7s-24.5 2.33301 -32.5 7
c-6.66699 54.667 -13.834 101.667 -21.501 141s-11.5 64 -11.5 74zM44 717c0 10 2.33301 25 7 45c16.667 9.33301 36.334 14 59.001 14s41.667 -4.66699 57 -14c4.66699 -20 7 -35.167 7 -45.5s-2 -25.5 -6 -45.5c-13.333 -74.667 -22.333 -131 -27 -169
c-7.33301 -4.66699 -17.833 -7 -31.5 -7s-24.5 2.33301 -32.5 7c-6.66699 54.667 -13.834 101.667 -21.501 141s-11.5 64 -11.5 74z" />
    <glyph glyph-name="numbersign" unicode="#" horiz-adv-x="673" 
d="M443 511l30.002 133c13.333 5.33301 31.666 8 54.999 8s41.333 -2.66699 54 -8l-30 -133h96c5.33301 -14 8 -30.667 8 -50s-2.66699 -36 -8 -50h-118l-37 -165h105c5.33301 -14 8 -30.667 8 -50s-2.66699 -36 -8 -50h-128l-29 -133c-13.333 -6 -31.833 -9 -55.5 -9
s-41.834 3 -54.501 9l30 133h-123l-30 -133c-13.333 -6 -31.833 -9 -55.5 -9s-41.834 3 -54.501 9l30 133h-99c-4.66699 14 -7 30.667 -7 50s2.33301 36 7 50h121l37 165h-109c-5.33301 14 -8 30.667 -8 50s2.66699 36 8 50h132l30 133c13.333 5.33301 31.833 8 55.5 8
s41.834 -2.66699 54.501 -8l-30 -133h123zM297.002 411l-37 -165h123l37 165h-123z" />
    <glyph glyph-name="dollar" unicode="$" horiz-adv-x="503" 
d="M28 97c0.666992 16 5.83301 33.5 15.5 52.5s20.5 32.5 32.5 40.5c69.333 -36.667 129.333 -55 180 -55c24.667 0 44.834 5 60.501 15s23.5 24 23.5 42c0 28.667 -21 51 -63 67l-97 35c-85.333 32 -128 82.333 -128 151c0 42 13.667 77.667 41 107s64 48 110 56v81
c10 2.66699 25.333 4 46 4s36.667 -1.33301 48 -4v-80c49.333 -4.66699 101.333 -19 156 -43c0 -39.333 -14.333 -71.666 -43 -96.999c-62.667 26 -114.667 39 -156 39c-22.667 0 -40.667 -4.83301 -54 -14.5s-20 -22 -20 -37s4.83301 -26.333 14.5 -34
s24.834 -15.167 45.501 -22.5l95 -35c90 -34 135 -89 135 -165c0 -44.667 -16 -81.834 -48 -111.501s-75 -47.167 -129 -52.5v-76c-12.667 -2 -28.834 -3 -48.501 -3s-34.834 1 -45.501 3v78c-70 9.33301 -127 29 -171 59z" />
    <glyph glyph-name="percent" unicode="%" horiz-adv-x="939" 
d="M842 364c34 -34 51 -89.665 51 -166.998s-17 -133 -51 -167c-28 -28.667 -65.5 -43 -112.5 -43s-86 15.667 -117 47s-46.5 85.666 -46.5 162.999s15.5 131.666 46.5 162.999s70 47 117 47s84.5 -14.333 112.5 -43zM674 264.002c-2.66699 -17.333 -4 -39.5 -4 -66.5
s1.33301 -49.167 4 -66.5s8.5 -32.5 17.5 -45.5s21.833 -19.5 38.5 -19.5c23.333 0 39.166 11.667 47.499 35s12.5 55.5 12.5 96.5s-4.16699 73 -12.5 96s-24.166 34.5 -47.499 34.5c-16.667 0 -29.5 -6.33301 -38.5 -19s-14.833 -27.667 -17.5 -45zM47 486.002
c0 78 15.333 132.5 46 163.5s69.5 46.5 116.5 46.5s86 -15.667 117 -47s46.5 -85.833 46.5 -163.5s-15.5 -132 -46.5 -163s-70 -46.5 -117 -46.5s-85.833 15.5 -116.5 46.5s-46 85.5 -46 163.5zM150 486.002c0 -40.667 4.16699 -72.667 12.5 -96s24.166 -35 47.499 -35
s39.166 11.667 47.499 35s12.5 55.333 12.5 96s-4.16699 72.667 -12.5 96s-24.166 35 -47.499 35s-39.166 -11.667 -47.499 -35s-12.5 -55.333 -12.5 -96zM221 0.00195312l377 683c16.667 4 38 6 64 6s44.667 -2 56 -6l-377 -683c-16.667 -4 -38 -6 -64 -6s-44.667 2 -56 6z
" />
    <glyph glyph-name="ampersand" unicode="&#x26;" horiz-adv-x="636" 
d="M320 413h188c40.667 0 74 6 100 18c10.667 -14.667 16 -34.334 16 -59.001c0 -42.667 -27.667 -64 -83 -64h-27c0.666992 -16 1 -36.667 1 -62v-91c0 -48.667 2 -100.334 6 -155.001c-14 -4.66699 -33 -7 -57 -7s-43.333 2 -58 6l-9 42
c-45.333 -36.667 -98.166 -55 -158.499 -55s-107.5 18.167 -141.5 54.5s-51 79.833 -51 130.5s12.667 92.834 38 126.501s56.333 56.167 93 67.5c-30.667 10.667 -55.334 29.834 -74.001 57.501s-28 59.167 -28 94.5c0 52.667 19.167 95.834 57.5 129.501
s91.333 50.5 159 50.5s131.167 -10.333 190.5 -31v-6c0 -35.333 -10.667 -65.333 -32 -90c-58 18 -104.667 27 -140 27s-61.5 -8.33301 -78.5 -25s-25.5 -38.334 -25.5 -65.001c0 -62.667 38 -94 114 -94zM392 245c0 26.667 0.333008 47.667 1 63h-84
c-44 0 -77 -11.167 -99 -33.5s-33 -50.5 -33 -84.5s8.5 -60 25.5 -78s39.833 -27 68.5 -27c46.667 0 87 14.333 121 43v117z" />
    <glyph glyph-name="quotesingle" unicode="'" horiz-adv-x="223" 
d="M42 717c0 10 2.33301 25 7 45c16.667 9.33301 36.334 14 59.001 14s41.667 -4.66699 57 -14c4.66699 -20 7 -35.167 7 -45.5s-2 -25.5 -6 -45.5c-13.333 -74.667 -22.333 -131 -27 -169c-7.33301 -4.66699 -17.833 -7 -31.5 -7s-24.5 2.33301 -32.5 7
c-6.66699 54.667 -13.834 101.667 -21.501 141s-11.5 64 -11.5 74z" />
    <glyph glyph-name="parenleft" unicode="(" horiz-adv-x="348" 
d="M192 324c0 -79.333 11.667 -158.001 35 -236.001s58 -147.667 104 -209c-14 -32 -38 -54 -72 -66c-62.667 60 -111.334 137 -146.001 231s-52 187.167 -52 279.5s17.333 185.5 52 279.5s83.334 171 146.001 231c33.333 -10.667 57.333 -32.667 72 -66
c-46 -62 -80.667 -131.667 -104 -209s-35 -155.666 -35 -234.999z" />
    <glyph glyph-name="parenright" unicode=")" horiz-adv-x="348" 
d="M156 324c0 79.333 -11.666 157.668 -34.999 235.001s-58 147 -104 209c15.333 34 39.666 56 72.999 66c62.667 -60 111.167 -136.833 145.5 -230.5s51.5 -186.834 51.5 -279.501s-17.167 -186 -51.5 -280s-82.833 -171 -145.5 -231c-34 12 -58.333 34 -73 66
c46 61.333 80.667 131 104 209s35 156.667 35 236z" />
    <glyph glyph-name="asterisk" unicode="*" horiz-adv-x="511" 
d="M41 537c-0.666992 13.333 2.33594 30.499 9.00293 51.499s14.667 36.833 24 47.5l55 -20c20.667 -7.33301 53 -25.666 97 -54.999c-13.333 48 -20.333 84.667 -21 110l-2 59c12 5.33301 29.167 8 51.5 8s39.833 -2.66699 52.5 -8l-2 -59
c-0.666992 -24.667 -7.66699 -61 -21 -109c35.333 24.667 67.666 42.334 96.999 53.001l56 20c8 -10 15.5 -25.5 22.5 -46.5s10.167 -38.167 9.5 -51.5l-57 -17c-24.667 -7.33301 -61.334 -11.666 -110.001 -12.999c37.333 -30 64.333 -55.333 81 -76l35 -47
c-6.66699 -11.333 -18.834 -23.5 -36.501 -36.5s-33.167 -20.833 -46.5 -23.5l-33 48c-16 23.333 -31.667 56.666 -47 99.999c-18 -47.333 -34 -80.333 -48 -99l-32 -49c-13.333 3.33301 -29 11.333 -47 24s-30.333 25 -37 37l36 46c14.667 19.333 41.667 44.666 81 75.999
c-46 1.33301 -82.667 6 -110 14z" />
    <glyph glyph-name="plus" unicode="+" 
d="M211 346l-1.00098 57v108c15.333 3.33301 33.833 5 55.5 5s39.834 -1.66699 54.501 -5v-108l-1 -57l56 1h100c3.33301 -15.333 5 -33 5 -53s-1.66699 -36.667 -5 -50h-100l-56 1l1 -55v-109c-14.667 -3.33301 -33 -5 -55 -5s-40.333 1.66699 -55 5v109l1 55l-56 -1h-100
c-3.33301 13.333 -5 30.5 -5 51.5s1.66699 38.167 5 51.5h100z" />
    <glyph glyph-name="comma" unicode="," horiz-adv-x="279" 
d="M208 113c8 -21.333 11.998 -45.001 11.998 -71.001c0 -46 -13.833 -88.5 -41.5 -127.5s-67.167 -66.833 -118.5 -83.5c-10.667 5.33301 -18.5 13.166 -23.5 23.499s-7.5 18.5 -7.5 24.5v12c24 10 43.833 23.833 59.5 41.5s24.834 37.5 27.501 59.5
c-18 2.66699 -32 7.33398 -42 14.001c-6.66699 14.667 -10 33.334 -10 56.001s3.33301 39.667 10 51c18.667 10 41.834 15 69.501 15s49.167 -5 64.5 -15z" />
    <glyph glyph-name="hyphen" unicode="-" horiz-adv-x="360" 
d="M311 216h-261c-4 13.333 -6 30.5 -6 51.5s2 38.167 6 51.5h261c3.33301 -14 5 -31.167 5 -51.5s-1.66699 -37.5 -5 -51.5z" />
    <glyph glyph-name="period" unicode="." horiz-adv-x="272" 
d="M68 6c-6.66699 13.333 -10 31.166 -10 53.499s3.33301 40.5 10 54.5c18 10 41 15 69 15s50.333 -5 67 -15c6.66699 -14 10 -32.167 10 -54.5s-3.33301 -40.166 -10 -53.499c-14.667 -10 -37 -15 -67 -15s-53 5 -69 15z" />
    <glyph glyph-name="slash" unicode="/" horiz-adv-x="433" 
d="M5 -74l315 838.001c42 -4.66699 77.333 -18 106 -40l-315 -838c-42 3.33301 -77.333 16.666 -106 39.999z" />
    <glyph glyph-name="zero" unicode="0" 
d="M54.5 159c-9.66699 43.333 -14.5 98.499 -14.5 165.499s4.83301 122 14.5 165s28.834 80.167 57.501 111.5c40.667 40.667 91.667 61 153 61s112.333 -20.333 153 -61c28.667 -31.333 47.834 -68.666 57.501 -111.999s14.5 -98.333 14.5 -165
s-4.83301 -121.667 -14.5 -165s-28.834 -80.666 -57.501 -111.999c-40.667 -40.667 -91.667 -61 -153 -61s-112.333 20.333 -153 61c-28.667 31.333 -47.834 68.666 -57.501 111.999zM168 323.999c0 -104.667 10.333 -173 31 -205c14 -24.667 36 -37 66 -37s52 12.333 66 37
c20.667 32 31 100.333 31 205s-10.333 173 -31 205c-14 24.667 -36 37 -66 37s-52 -12.333 -66 -37c-20.667 -32 -31 -100.333 -31 -205z" />
    <glyph glyph-name="one" unicode="1" 
d="M234 102l-0.998047 70.001v190c0 18.667 2 58 6 118c-35.333 -42 -82 -75.667 -140 -101c-12.667 6.66699 -23.834 16.667 -33.501 30s-15.834 27.666 -18.501 42.999c94.667 58.667 158 124 190 196c18.667 3.33301 38.5 5 59.5 5s40.5 -1.66699 58.5 -5v-476l-1 -70
l62 1h63c4 -16 6 -33.167 6 -51.5s-2 -35.5 -6 -51.5h-392c-4 17.333 -6 34.833 -6 52.5s2 34.5 6 50.5h87z" />
    <glyph glyph-name="two" unicode="2" 
d="M480 107c0 -17.333 -1.00293 -33.001 -3.00293 -47.001c-6 -40.667 -32 -61 -78 -61h-306c-30.667 30.667 -46 56.334 -46 77.001c0 52 40.333 114 121 186l102 90c44.667 39.333 67 79.333 67 120c0 26 -8 47.167 -24 63.5s-36.667 24.5 -62 24.5
s-47.166 -8.66699 -65.499 -26s-32.5 -39.333 -42.5 -66c-16.667 0 -33.667 3.5 -51 10.5s-29.666 16.5 -36.999 28.5c14 44.667 39.333 81.667 76 111s83 44 139 44s102.333 -17.667 139 -53s55 -82 55 -140c0 -42.667 -10.5 -79 -31.5 -109s-51.5 -62 -91.5 -96l-75 -64
c-52 -44 -82.667 -78 -92 -102c50.667 6 97.334 9 140.001 9h166z" />
    <glyph glyph-name="three" unicode="3" 
d="M432 519l-94.0039 -98.999c-9.33301 -9.33301 -20.666 -19 -33.999 -29c52 -4 94.5 -22.167 127.5 -54.5s49.5 -79.666 49.5 -141.999s-22.833 -112.666 -68.5 -150.999s-100.167 -57.5 -163.5 -57.5c-83.333 0 -151.666 23 -204.999 69
c6.66699 31.333 24.334 58.666 53.001 81.999c42.667 -33.333 88 -50 136 -50c36 0 65 10.5 87 31.5s33 49.167 33 84.5s-9.33301 62.333 -28 81s-41 28 -67 28s-49.667 -5 -71 -15c-22 10.667 -38 32.667 -48 66l113 120c26.667 28.667 49.334 50 68.001 64l-4 6
c-28 -7.33301 -64 -11 -108 -11h-134c-5.33301 14.667 -8 31.667 -8 51s3.66699 37.666 11 54.999h354c16.667 -32 25 -57.333 25 -76s-8 -36.334 -24 -53.001z" />
    <glyph glyph-name="four" unicode="4" 
d="M403 129l0.999023 -60v-69c-17.333 -3.33301 -37.5 -5 -60.5 -5s-42.833 1.66699 -59.5 5v69l1 60l-62 -1h-164c-18 28.667 -27 52 -27 70s6.33301 41 19 69l166 388c7.33301 1.33301 16 2 26 2s24.667 -2 44 -6s34 -11 44 -21l-96 -225
c-34.667 -82 -63 -140.333 -85 -175l2 -4c33.333 3.33301 74 5 122 5h10v88c0 30 7.33301 53.667 22 71s35.334 26 62.001 26h31l5 -5v-119l-1 -61l51 1h42c2.66699 -13.333 4 -28.833 4 -46.5s-2.66699 -36.5 -8 -56.5h-89z" />
    <glyph glyph-name="five" unicode="5" 
d="M444 648c5.33301 -14.667 8.00098 -31.6641 8.00098 -50.9971c0 -36 -18 -54 -54 -54h-196v-40l-4 -62l-3 -22c24.667 8.66699 49.667 13 75 13c64 0 114.667 -19 152 -57s56 -89 56 -153c0 -76 -23.333 -134.333 -70 -175s-105.667 -61 -177 -61s-132.333 22 -183 66
c2.66699 13.333 9 28.166 19 44.499s21 28.833 33 37.5c44.667 -31.333 86.167 -47 124.5 -47s68.833 11.167 91.5 33.5s34 54.166 34 95.499s-11 71.5 -33 90.5s-50.333 28.5 -85 28.5s-67.334 -12.667 -98.001 -38c-11.333 2 -23 7.16699 -35 15.5s-21 17.166 -27 26.499
l16 302l7 7h349z" />
    <glyph glyph-name="six" unicode="6" 
d="M428 49c-41.333 -42 -95.0029 -63.001 -161.003 -63.001c-79.333 0 -137.666 32 -174.999 96c-21.333 35.333 -34.833 73.5 -40.5 114.5s-8.5 83.5 -8.5 127.5c0 105.333 22.833 188 68.5 248s110.834 90 195.501 90c59.333 0 110 -11 152 -33
c-3.33301 -38.667 -17.666 -67.667 -42.999 -87c-32 14 -65.333 21 -100 21c-47.333 0 -82.666 -16.167 -105.999 -48.5s-36 -76.166 -38 -131.499c40.667 34 87.667 51 141 51s96.166 -18 128.499 -54s48.5 -89.667 48.5 -161s-20.667 -128 -62 -170zM275.997 331.999
c-37.333 0 -72 -15.333 -104 -46v-14c0 -74.667 12 -127.667 36 -159c17.333 -22 40 -33 68 -33s50 11.667 66 35s24 54.333 24 93c0 82.667 -30 124 -90 124z" />
    <glyph glyph-name="seven" unicode="7" 
d="M65 648l402 0.00195312c14.667 -30.667 22 -55 22 -73s-6 -35.667 -18 -53l-36 -50c-47.333 -68.667 -84 -136.834 -110 -204.501s-43 -143.5 -51 -227.5l-3 -40c-14 -3.33301 -34.667 -5 -62 -5s-49 1.66699 -65 5l4 44c14 154.667 65.333 293.667 154 417l11 17
c20 28 40 51.333 60 70l-5 5c-31.333 -7.33301 -80.333 -11 -147 -11h-161c-4 13.333 -6 29.666 -6 48.999s3.66699 38.333 11 57z" />
    <glyph glyph-name="eight" unicode="8" 
d="M37 164c0 36 10.502 68.833 31.502 98.5s48.167 53.834 81.5 72.501c-64 37.333 -96 88.666 -96 153.999c0 49.333 20 90.5 60 123.5s90.833 49.5 152.5 49.5s111.834 -15.833 150.501 -47.5s58 -72.5 58 -122.5c0 -30.667 -8.83301 -58.5 -26.5 -83.5
s-40.834 -44.833 -69.501 -59.5c76 -42.667 114 -102 114 -178c-0.666992 -56.667 -23.334 -101.667 -68.001 -135s-100.334 -50 -167.001 -50s-120.167 15.833 -160.5 47.5s-60.5 75.167 -60.5 130.5zM236.002 297h-1c-48.667 -32 -73 -73.667 -73 -125
c0 -29.333 9.5 -53 28.5 -71s43.5 -27 73.5 -27s54.5 9.16699 73.5 27.5s28.5 41.666 28.5 69.999s-10 52.333 -30 72s-46.333 34.834 -79 45.501zM176.002 489c0 -44.667 34.668 -77.667 104.001 -99l12 -5c41.333 26 62 60 62 102c0 25.333 -8.5 45.833 -25.5 61.5
s-38.333 23.5 -64 23.5s-46.834 -7.83301 -63.501 -23.5s-25 -35.5 -25 -59.5z" />
    <glyph glyph-name="nine" unicode="9" 
d="M102 599c41.333 42 95.002 63 161.002 63c79.333 0 137.666 -32 174.999 -96c21.333 -35.333 34.833 -73.5 40.5 -114.5s8.5 -83.5 8.5 -127.5c0 -105.333 -22.833 -188 -68.5 -248s-110.834 -90 -195.501 -90c-59.333 0 -110 11 -152 33
c3.33301 38.667 17.666 67.667 42.999 87c32 -14 65.333 -21 100 -21c90.667 0 138.334 60 143.001 180c-39.333 -34 -85.833 -51 -139.5 -51s-96.667 18 -129 54s-48.5 89.667 -48.5 161s20.667 128 62 170zM254.002 316c37.333 0 72 15 104 45v15
c0 74.667 -12 127.667 -36 159c-17.333 22 -40 33 -68 33s-50 -11.667 -66 -35s-24 -54.333 -24 -93c0 -82.667 30 -124 90 -124z" />
    <glyph glyph-name="colon" unicode=":" horiz-adv-x="279" 
d="M71 6c-6.66699 13.333 -10 31.166 -10 53.499s3.33301 40.5 10 54.5c18 10 41 15 69 15s50.333 -5 67 -15c6.66699 -14 10 -32.167 10 -54.5s-3.33301 -40.166 -10 -53.499c-15.333 -10 -37.833 -15 -67.5 -15s-52.5 5 -68.5 15zM71 327
c-6.66699 13.333 -10 31.166 -10 53.499s3.33301 40.5 10 54.5c18 10 41 15 69 15s50.333 -5 67 -15c6.66699 -14 10 -32.167 10 -54.5s-3.33301 -40.166 -10 -53.499c-15.333 -10 -37.833 -15 -67.5 -15s-52.5 5 -68.5 15z" />
    <glyph glyph-name="semicolon" unicode=";" horiz-adv-x="283" 
d="M207 113c8 -21.333 11.998 -45.001 11.998 -71.001c0 -46 -13.833 -88.5 -41.5 -127.5s-67.167 -66.833 -118.5 -83.5c-10.667 5.33301 -18.5 13.166 -23.5 23.499s-7.5 18.5 -7.5 24.5v12c24 10 43.833 23.833 59.5 41.5s24.834 37.5 27.501 59.5
c-18 2.66699 -32 7.33398 -42 14.001c-6.66699 14.667 -10 33.334 -10 56.001s3.33301 39.667 10 51c18.667 10 41.834 15 69.501 15s49.167 -5 64.5 -15zM72.998 326.999c-6.66699 13.333 -10 31.166 -10 53.499s3.33301 40.5 10 54.5c18 10 41 15 69 15s50.333 -5 67 -15
c6.66699 -14 10 -32.167 10 -54.5s-3.33301 -40.166 -10 -53.499c-15.333 -10 -37.833 -15 -67.5 -15s-52.5 5 -68.5 15z" />
    <glyph glyph-name="less" unicode="&#x3c;" 
d="M53 343l363.999 200c15.333 -8.66699 28.333 -22 39 -40s16.334 -37 17.001 -57l-216 -112c-28 -14 -54 -25.667 -78 -35v-7c24 -9.33301 50 -21 78 -35l216 -113c-1.33301 -20 -7.5 -39.167 -18.5 -57.5s-23.833 -31.5 -38.5 -39.5l-363 200
c-4.66699 16.667 -7 33 -7 49s2.33301 31.667 7 47z" />
    <glyph glyph-name="equal" unicode="=" 
d="M475 142h-420c-3.33301 14 -5 31.167 -5 51.5s1.66699 37.5 5 51.5h420c3.33301 -14 5 -31.167 5 -51.5s-1.66699 -37.5 -5 -51.5zM475 349h-420c-3.33301 13.333 -5 30.333 -5 51s1.66699 38 5 52h420c3.33301 -14 5 -31.333 5 -52s-1.66699 -37.667 -5 -51z" />
    <glyph glyph-name="greater" unicode="&#x3e;" 
d="M477 248l-363.999 -200.001c-15.333 9.33301 -28.333 22.833 -39 40.5s-16.334 36.5 -17.001 56.5l216 112c19.333 10.667 45.333 22.334 78 35.001v7c-24 9.33301 -50 21 -78 35l-216 113c1.33301 20 7.5 39.167 18.5 57.5s23.833 31.5 38.5 39.5l363 -200
c4.66699 -16.667 7 -33 7 -49s-2.33301 -31.667 -7 -47z" />
    <glyph glyph-name="question" unicode="?" horiz-adv-x="405" 
d="M7 643c64 36 127.832 53.999 191.499 53.999s112.834 -16 147.501 -48s52 -74.333 52 -127c0 -83.333 -43.667 -148.666 -131 -195.999l-62 -33l-8 -92c-14 -4.66699 -29.833 -7 -47.5 -7s-33.5 2.33301 -47.5 7l-6 149l10 13l51 24
c73.333 36.667 110 77.334 110 122.001c0 24.667 -8 44.167 -24 58.5s-40.5 21.5 -73.5 21.5s-72.167 -12 -117.5 -36c-11.333 9.33301 -21.5 22.666 -30.5 39.999s-13.833 34 -14.5 50zM86.999 104.999c16.667 9.33301 38.167 14 64.5 14s47.166 -4.66699 62.499 -14
c6.66699 -11.333 10 -28.333 10 -51s-3.33301 -40 -10 -52c-17.333 -9.33301 -38.166 -14 -62.499 -14s-45.833 4.66699 -64.5 14c-6 11.333 -9 28.833 -9 52.5s3 40.5 9 50.5z" />
    <glyph glyph-name="at" unicode="@" horiz-adv-x="961" 
d="M676 412l-1 -251.999c0 -22 3 -37.833 9 -47.5s16 -14.5 30 -14.5c24.667 0 45.334 15.667 62.001 47s25 81.666 25 150.999c0 89.333 -27.667 160.5 -83 213.5s-130.5 79.5 -225.5 79.5s-172.5 -34.167 -232.5 -102.5s-90 -155.333 -90 -261s26 -186.167 78 -241.5
s123 -83 213 -83c69.333 0 136 12.333 200 37c21.333 -22.667 32 -51 32 -85c-76 -31.333 -156.333 -47 -241 -47c-122.667 0 -221 35.667 -295 107s-111 174 -111 308s42.333 244.167 127 330.5s191.167 129.5 319.5 129.5s232.166 -35.167 311.499 -105.5
s119 -164.833 119 -283.5c0 -91.333 -21 -161.833 -63 -211.5s-91.5 -74.5 -148.5 -74.5s-99.5 20 -127.5 60c-42.667 -42.667 -89 -64 -139 -64s-89.167 20.333 -117.5 61s-42.5 97 -42.5 169s18.5 131.833 55.5 179.5s88.167 71.5 153.5 71.5
c34.667 0 68.5 -6.83301 101.5 -20.5s59.833 -30.5 80.5 -50.5zM474 97.001c28.667 0 57 16.333 85 49v224c-18 16.667 -41 25 -69 25s-49.167 -15.167 -63.5 -45.5s-21.5 -69.833 -21.5 -118.5c0 -89.333 23 -134 69 -134z" />
    <glyph glyph-name="A" unicode="A" horiz-adv-x="622" 
d="M427 157l-51.999 -1h-139l-51 1l-49 -158c-13.333 -3.33301 -32.333 -5 -57 -5s-44.334 3 -59.001 9l-5 6l224 674c22 3.33301 47.333 5 76 5s52 -2 70 -6l221 -674c-19.333 -10.667 -41.5 -16 -66.5 -16s-43 4.83301 -54 14.5s-20.5 27.5 -28.5 53.5zM216.001 259l47 1
h89c2 0 8.5 -0.166992 19.5 -0.5s19.167 -0.5 24.5 -0.5l-34 112c-18.667 59.333 -36.667 123 -54 191h-5c-8 -40.667 -22.333 -94.667 -43 -162z" />
    <glyph glyph-name="B" unicode="B" horiz-adv-x="609" 
d="M92 684c100 2.66699 171.998 3.99805 215.998 3.99805c72.667 0 128.334 -15.5 167.001 -46.5s58 -75.833 58 -134.5c0 -31.333 -8.5 -59.666 -25.5 -84.999s-39.167 -43.666 -66.5 -54.999c35.333 -10.667 64.833 -32.167 88.5 -64.5s35.5 -68.833 35.5 -109.5
c0 -62 -20.667 -110.5 -62 -145.5s-101.666 -52.5 -180.999 -52.5c-48 0 -124.667 1.33301 -230 4l-7 6v673zM210.998 87.998l107 1c43.333 0 73.833 11 91.5 33s26.5 47.667 26.5 77s-9.5 55.333 -28.5 78s-50.5 34 -94.5 34h-102v-223zM210.998 594.998v-189h92
c38 0 64.833 9.16699 80.5 27.5s23.5 40.5 23.5 66.5c0 62.667 -34.333 94 -103 94c-42.667 0 -73.667 0.333008 -93 1z" />
    <glyph glyph-name="C" unicode="C" horiz-adv-x="606" 
d="M450 433v8c0 42 -9.83301 78.167 -29.5 108.5s-52.5 45.5 -98.5 45.5c-96 0 -144 -85.667 -144 -257c0 -77.333 13.5 -136.833 40.5 -178.5s66.167 -62.5 117.5 -62.5s108.666 24.667 171.999 74c13.333 -9.33301 26 -21.833 38 -37.5s19.667 -30.5 23 -44.5
c-30 -30 -68 -54.667 -114 -74s-93.667 -29 -143 -29s-91.666 10 -126.999 30s-63 47.333 -83 82c-38.667 66 -58 146.333 -58 241c0 118 26.5 207.167 79.5 267.5s118.167 90.5 195.5 90.5s138.833 -19.5 184.5 -58.5s68.5 -86.167 68.5 -141.5c0 -47.333 -24 -71 -72 -71
c-17.333 0 -34 2.33301 -50 7z" />
    <glyph glyph-name="D" unicode="D" horiz-adv-x="656" 
d="M587.5 514c15 -48 22.5 -105.499 22.5 -172.499s-7.5 -124.667 -22.5 -173s-43.5 -89.5 -85.5 -123.5c-20.667 -16.667 -47.834 -29.167 -81.501 -37.5s-67.834 -12.5 -102.501 -12.5s-110 1.33301 -226 4l-7 6v673l7 6c76.667 2.66699 154 4 232 4
c30.667 0 62.834 -4.33301 96.501 -13s60.834 -21.334 81.501 -38.001c42 -34 70.5 -75 85.5 -123zM473.5 254.501c3.66699 25.667 5.49902 54.665 5.49902 86.998s-1.83301 61.333 -5.5 87s-10.667 51.334 -21 77.001s-26.5 45.667 -48.5 60s-52.667 21.5 -92 21.5
s-72.666 0.333008 -99.999 1v-492h111c32 0 59 7.16699 81 21.5s38.167 34.333 48.5 60s17.333 51.334 21 77.001z" />
    <glyph glyph-name="E" unicode="E" horiz-adv-x="569" 
d="M210 163l-1.00098 -58.999c28 1.33301 51 2 69 2h248c0 -20.667 -0.666992 -36.334 -2 -47.001c-7.33301 -40.667 -34.666 -61 -81.999 -61h-285c-22.667 0 -40.5 6.83301 -53.5 20.5s-19.5 32.5 -19.5 56.5v601l7 7h413c3.33301 -16 5 -32.5 5 -49.5
s-3.33301 -36.167 -10 -57.5h-290l1 -68v-112c16 0.666992 37.333 1 64 1h174c4.66699 -16 7 -33.5 7 -52.5s-2.33301 -36.5 -7 -52.5h-174c-26.667 0 -48 0.333008 -64 1v-130z" />
    <glyph glyph-name="F" unicode="F" horiz-adv-x="527" 
d="M211 575l1 -102v-78h232c4 -16 6 -33.5 6 -52.5s-2 -36.5 -6 -52.5h-232v-290c-17.333 -3.33301 -38.5 -5 -63.5 -5s-46.167 1.66699 -63.5 5v677l7 6h408c4 -14 6 -30.667 6 -50c0 -39.333 -23.333 -59 -70 -59h-138c-40.667 0 -69.667 0.333008 -87 1z" />
    <glyph glyph-name="G" unicode="G" horiz-adv-x="648" 
d="M346 370l155.001 1h2c57.333 0 86 -27 86 -81v-261c-78 -28.667 -164.333 -43 -259 -43s-166 32.167 -214 96.5s-72 152 -72 263s29.833 197.333 89.5 259s132.667 92.5 219 92.5s164.5 -24.333 234.5 -73c-2 -18 -8.83301 -35.667 -20.5 -53
s-24.5 -30.666 -38.5 -39.999c-56 39.333 -112.833 59 -170.5 59s-102.5 -20.5 -134.5 -61.5s-48 -105.167 -48 -192.5c0 -164.667 60.667 -247 182 -247c35.333 0 72.333 4.33301 111 13v95c0 30 0.666992 52 2 66h-73c-20.667 0 -35.834 4.16699 -45.501 12.5
s-14.5 21.666 -14.5 39.999s3 36.5 9 54.5z" />
    <glyph glyph-name="H" unicode="H" horiz-adv-x="679" 
d="M468 405l-1.00293 74v204c16.667 3.33301 37.834 5 63.501 5s46.834 -1.66699 63.501 -5v-683c-17.333 -3.33301 -38.666 -5 -63.999 -5s-46.333 1.66699 -63 5v225l1 74l-54 -1h-149l-54 1l1 -74v-225c-16.667 -3.33301 -38 -5 -64 -5s-47 1.66699 -63 5v683
c16 3.33301 37 5 63 5s47.333 -1.66699 64 -5v-204l-1 -74l54 1h149z" />
    <glyph glyph-name="I" unicode="I" horiz-adv-x="303" 
d="M88 0v683c16 3.33301 37 5 63 5s47.333 -1.66699 64 -5v-683c-16.667 -3.33301 -38 -5 -64 -5s-47 1.66699 -63 5z" />
    <glyph glyph-name="J" unicode="J" horiz-adv-x="457" 
d="M56 128c34.667 -21.333 69.333 -31.999 104 -31.999s59.334 11.333 74.001 34s22 59 22 109v444c16.667 3.33301 38 5 64 5s47.333 -1.66699 64 -5v-429c0 -104.667 -20.667 -176.334 -62 -215.001c-34.667 -32.667 -83.834 -49 -147.501 -49s-118.5 14.333 -164.5 43
c6.66699 37.333 22 69 46 95z" />
    <glyph glyph-name="K" unicode="K" horiz-adv-x="606" 
d="M593 32c-18 -26 -46.333 -38.9971 -85 -38.9971c-22.667 0 -39.5 5.66699 -50.5 17s-21.167 30.666 -30.5 57.999l-47 135c-12.667 35.333 -27.167 60.166 -43.5 74.499s-38.166 21.5 -65.499 21.5c-6 0 -25.667 -0.666992 -59 -2v-297c-16.667 -3.33301 -38 -5 -64 -5
s-47 1.66699 -63 5v683c16 3.33301 37 5 63 5s47.333 -1.66699 64 -5v-277l44 1c10.667 0 18.667 2 24 6s11 12 17 24l116 202c9.33301 17.333 18.833 29.666 28.5 36.999s25.167 11 46.5 11s44.666 -1 69.999 -3l8 -10l-140 -246c-12.667 -23.333 -28 -43 -46 -59
c31.333 -6 55.5 -18.667 72.5 -38s31.833 -46.333 44.5 -81l49 -137c13.333 -38 29 -65 47 -81z" />
    <glyph glyph-name="L" unicode="L" horiz-adv-x="516" 
d="M302 108l189 0.000976562c0 -22 -1 -38 -3 -48c-7.33301 -41.333 -35 -62 -83 -62h-247c-22.667 0 -40.667 6.83301 -54 20.5s-20 32.5 -20 56.5v607l7 6h47c25.333 0 44 -6.33301 56 -19s18 -33.334 18 -62.001v-502c32 2 62 3 90 3z" />
    <glyph glyph-name="M" unicode="M" horiz-adv-x="818" 
d="M66 2l52.999 680c22.667 4 50.834 6 84.501 6s61.167 -2 82.5 -6l81 -286c18 -63.333 31 -119.333 39 -168h6c8 48.667 21 104.667 39 168l81 286c22.667 4 50.334 6 83.001 6s60.334 -2 83.001 -6l53 -680c-16.667 -4.66699 -36.834 -7 -60.501 -7
s-43.834 1.33301 -60.501 4l-20 332c-4 61.333 -6.66699 132.666 -8 213.999h-6l-122 -442c-21.333 -3.33301 -43.333 -5 -66 -5s-44 1.66699 -64 5l-122 442h-6c-3.33301 -99.333 -6 -170.666 -8 -213.999l-21 -332c-16 -2.66699 -36 -4 -60 -4s-44.333 2.33301 -61 7z" />
    <glyph glyph-name="N" unicode="N" horiz-adv-x="686" 
d="M595 688l5.99805 -6v-680c-18.667 -4.66699 -43 -7 -73 -7s-56.333 1.66699 -79 5l-191 396c-16.667 34 -37 80.333 -61 139l-4 -1c6.66699 -83.333 10 -172 10 -266v-268c-17.333 -3.33301 -37.166 -5 -59.499 -5s-41.833 1.66699 -58.5 5v681
c18.667 4.66699 42.834 7 72.501 7s55.5 -1.66699 77.5 -5l189 -395c17.333 -36 39.333 -85 66 -147l3 1c-6.66699 94.667 -10 184 -10 268v200c0 28 5.33301 48 16 60s28.667 18 54 18h42z" />
    <glyph glyph-name="O" unicode="O" horiz-adv-x="661" 
d="M177 341.5c0 -170.333 51.167 -255.5 153.5 -255.5s153.5 85.167 153.5 255.5s-51.167 255.5 -153.5 255.5s-153.5 -85.167 -153.5 -255.5zM151 47c-71.333 60.667 -107 158.834 -107 294.501s35.667 233.834 107 294.501c48.667 40.667 108.334 61 179.001 61
s131 -20.333 181 -61c70.667 -60.667 106 -158.834 106 -294.501s-35.333 -233.834 -106 -294.501c-50 -40.667 -110.333 -61 -181 -61s-130.334 20.333 -179.001 61z" />
    <glyph glyph-name="P" unicode="P" horiz-adv-x="576" 
d="M478.5 629.5c43 -39 64.5 -95.332 64.5 -168.999s-21.5 -130.334 -64.5 -170.001s-99.833 -59.5 -170.5 -59.5h-96v-231c-16.667 -3.33301 -38 -5 -64 -5s-47 1.66699 -63 5v678l7 6c105.333 2.66699 177.333 4 216 4c70.667 0 127.5 -19.5 170.5 -58.5zM212 589.001
l0.00292969 -261c45.333 1.33301 74.666 2 87.999 2c41.333 0 70.333 12.833 87 38.5s25 56 25 91s-8.33301 65.167 -25 90.5s-44.834 38 -84.501 38s-69.834 0.333008 -90.501 1z" />
    <glyph glyph-name="Q" unicode="Q" horiz-adv-x="660" 
d="M446 -102l-108 88.0039h-7c-72.667 0 -133 20 -181 60c-70.667 61.333 -106 160.166 -106 296.499s35.333 234.5 106 294.5c46.667 40 106.167 60 178.5 60s132.5 -20 180.5 -60c70 -60.667 105 -159.334 105 -296.001c0 -122.667 -28.333 -213.334 -85 -272.001
c-18.667 -20.667 -39 -35 -61 -43l23 -16c48 -34.667 90.333 -52.334 127 -53.001c-0.666992 -28 -9.16699 -50.167 -25.5 -66.5s-38.5 -24.5 -66.5 -24.5s-54.667 10.667 -80 32zM176 342.004c0 -170 51 -255 153 -255s153 85 153 255s-51 255 -153 255s-153 -85 -153 -255
z" />
    <glyph glyph-name="R" unicode="R" horiz-adv-x="606" 
d="M550 478c0 -44.667 -12.165 -83.167 -36.498 -115.5s-54.166 -54.833 -89.499 -67.5c32.667 -11.333 57 -40.333 73 -87l39 -105c12.667 -34 28.334 -58 47.001 -72c-18.667 -26 -47.334 -39 -86.001 -39c-22 0 -38.5 5.83301 -49.5 17.5s-21.167 31.167 -30.5 58.5
l-45 123c-8.66699 24 -19.834 42.333 -33.501 55s-34.167 19 -61.5 19h-66v-265c-16.667 -3.33301 -37.834 -5 -63.501 -5s-46.5 1.66699 -62.5 5v678l7 6c105.333 2.66699 180 4 224 4c71.333 0 128.166 -18 170.499 -54s63.5 -88 63.5 -156zM211.002 590
l-0.000976562 -225c48 1.33301 80.333 2 97 2c74 0 111 37 111 111s-37 111 -111 111c-43.333 0 -75.666 0.333008 -96.999 1z" />
    <glyph glyph-name="S" unicode="S" horiz-adv-x="556" 
d="M24 61c4.66699 39.333 22.001 71.335 52.001 96.002c69.333 -44 136.333 -66 201 -66c34.667 0 61.667 7.66699 81 23s29 35.333 29 60c1.33301 39.333 -25.334 71 -80.001 95l-118 50c-92.667 41.333 -139 100.666 -139 177.999c0 57.333 22 105 66 143
s101.5 57 172.5 57s142.5 -18 214.5 -54c-2 -39.333 -16.667 -72 -44 -98c-64 32 -122.333 48 -175 48c-32.667 0 -58.167 -7.83301 -76.5 -23.5s-27.5 -34.5 -27.5 -56.5c0 -32.667 24.333 -59.334 73 -80.001l118 -50c100 -43.333 150 -107 150 -191
c0 -61.333 -21.667 -111 -65 -149s-107.5 -57 -192.5 -57s-164.833 25 -239.5 75z" />
    <glyph glyph-name="T" unicode="T" horiz-adv-x="499" 
d="M313 578l0.999023 -74v-504c-17.333 -3.33301 -38.666 -5 -63.999 -5s-46.333 1.66699 -63 5v578l-60 -1h-113c-3.33301 15.333 -5 32.833 -5 52.5s1.66699 37.5 5 53.5h473c4.66699 -16.667 7 -34.167 7 -52.5s-5.5 -31.833 -16.5 -40.5s-28.5 -13 -52.5 -13h-51l-60 1
h-1z" />
    <glyph glyph-name="U" unicode="U" horiz-adv-x="671" 
d="M595 683v-438c0 -82.667 -23 -146.5 -69 -191.5s-109.5 -67.5 -190.5 -67.5s-144.5 22.5 -190.5 67.5s-69 108.833 -69 191.5v437l6 6h48c25.333 0 43.833 -6.5 55.5 -19.5s17.5 -33.5 17.5 -61.5v-363c0 -104 44 -156 132 -156s132 52 132 156v439
c16.667 3.33301 38 5 64 5s47.333 -1.66699 64 -5z" />
    <glyph glyph-name="V" unicode="V" horiz-adv-x="587" 
d="M306 110l149.002 573.001c14 3.33301 32 5 54 5s41.667 -2.66699 59 -8l6 -8l-194 -672c-26 -3.33301 -55.167 -5 -87.5 -5s-55.333 4 -69 12s-23.834 23.667 -30.501 47l-177 618c29.333 12.667 54.166 19 74.499 19s35.833 -4.83301 46.5 -14.5s19 -25.834 25 -48.501
l93 -331c10.667 -37.333 24.667 -96 42 -176c1.33301 -7.33301 4.33301 -11 9 -11z" />
    <glyph glyph-name="W" unicode="W" horiz-adv-x="871" 
d="M147 55l-122.998 620.998c23.333 10 46.166 15 68.499 15s38.5 -5 48.5 -15s17 -28 21 -54l55 -308c12.667 -72.667 21 -125 25 -157s6.5 -48.5 7.5 -49.5s3.16699 -1.5 6.5 -1.5l99 563c24.667 4 52.334 6 83.001 6s57.667 -2 81 -6l91 -551
c0.666992 -5.33301 1.66699 -8.66602 3 -9.99902s3.66602 -2 6.99902 -2c7.33301 60.667 18.333 130.334 33 209.001l69 368c15.333 3.33301 34 5 56 5s42.667 -2.66699 62 -8l6 -8l-139 -671c-30 -4 -61.667 -6 -95 -6s-56.5 4 -69.5 12s-21.167 24 -24.5 48l-43 248
c-18 114.667 -30 195 -36 241h-7c-12 -84.667 -25 -165 -39 -241l-55 -302c-30.667 -4 -62.334 -6 -95.001 -6s-55.667 4 -69 12s-22.333 24 -27 48z" />
    <glyph glyph-name="X" unicode="X" horiz-adv-x="598" 
d="M440 683c14.667 3.33301 33.5 5 56.5 5s44.167 -3.66699 63.5 -11l3 -7l-190 -310l211 -340c-26.667 -18.667 -55.334 -28 -86.001 -28s-57 16.667 -79 50l-129 209l-151 -251c-13.333 -3.33301 -31.666 -5 -54.999 -5s-45.333 3.66699 -66 11l-4 8l211 341l-190 308
c26.667 18.667 51.667 28 75 28s41 -3.66699 53 -11s24 -20.333 36 -39l110 -177z" />
    <glyph glyph-name="Y" unicode="Y" horiz-adv-x="518" 
d="M313 477l82 206c14 3.33301 32.333 5 55 5s42.334 -3 59.001 -9l6 -8l-192 -457v-214c-16.667 -3.33301 -38 -5 -64 -5s-47 1.66699 -63 5v218l-192 450c27.333 15.333 51.666 23 72.999 23s37 -4 47 -12s19 -21.667 27 -41l67 -164c16.667 -42.667 31 -86.667 43 -132h6
c8.66699 35.333 24 80.333 46 135z" />
    <glyph glyph-name="Z" unicode="Z" horiz-adv-x="569" 
d="M60 129l241 350.999c12 18 38.333 52.333 79 103l-3 3c-38 -6 -89.667 -9 -155 -9h-154c-3.33301 12.667 -5 28 -5 46s3 38 9 60h424c12 -43.333 18 -71.666 18 -84.999s-5.33301 -27.666 -16 -42.999l-240 -348c-16.667 -26 -42.667 -60 -78 -102l3 -3c56 4 100 6 132 6
h85c47.333 0 86 6.66699 116 20c6 -19.333 9 -39 9 -59c0 -46 -28.333 -69 -85 -69h-381c-10 40 -15 67.667 -15 83s5.33301 30.666 16 45.999z" />
    <glyph glyph-name="bracketleft" unicode="[" horiz-adv-x="364" 
d="M327 -147l-220 -8.00195l-8 7v961l8 7l220 -8c3.33301 -7.33301 5 -19.166 5 -35.499s-3.33301 -33.5 -10 -51.5l-101 -3v-779l101 -3c6.66699 -18 10 -35.167 10 -51.5s-1.66699 -28.166 -5 -35.499z" />
    <glyph glyph-name="backslash" unicode="\" horiz-adv-x="433" 
d="M322 -114l-314.999 838c30 22 65.667 35.333 107 40l315 -838c-28.667 -22 -64.334 -35.333 -107.001 -40z" />
    <glyph glyph-name="bracketright" unicode="]" horiz-adv-x="364" 
d="M257 -155l-221 7.99805c-2.66699 8 -4 20.333 -4 37s3 33.334 9 50.001l101 3v779l-101 3c-6 16.667 -9 33.334 -9 50.001s1.33301 29 4 37l221 8l8 -7v-961z" />
    <glyph glyph-name="asciicircum" unicode="^" 
d="M492 306c-16 -4 -36.334 -6 -61.001 -6s-44.334 2 -59.001 6l-69 154c-7.33301 18 -18.666 49 -33.999 93h-8c-15.333 -44 -26.666 -75 -33.999 -93l-69 -154c-14.667 -4 -28 -6 -40 -6c-37.333 0 -64 2 -80 6l161 342c16 4 38.5 6 67.5 6s50.5 -2 64.5 -6z" />
    <glyph glyph-name="underscore" unicode="_" horiz-adv-x="543" 
d="M544 -164h-545c-3.33301 13.333 -5 29.166 -5 47.499s1.66699 34.166 5 47.499h545c3.33301 -13.333 5 -29.166 5 -47.499s-1.66699 -34.166 -5 -47.499z" />
    <glyph glyph-name="grave" unicode="`" horiz-adv-x="398" 
d="M140 751l148.999 -163.001c-4.66699 -11.333 -12 -21.5 -22 -30.5s-20.333 -15.167 -31 -18.5l-177 135c6 16.667 16.833 32.334 32.5 47.001s31.834 24.667 48.501 30z" />
    <glyph glyph-name="a" unicode="a" horiz-adv-x="509" 
d="M470 56c-3.33301 -11.333 -9.16797 -23.168 -17.501 -35.501s-16.833 -21.833 -25.5 -28.5c-41.333 4.66699 -71.666 24 -90.999 58c-44 -42.667 -91.667 -64 -143 -64s-90 15 -116 45s-39 64.667 -39 104c0 56 18.167 98.167 54.5 126.5s82.833 42.5 139.5 42.5
c30.667 0 59.667 -1.33301 87 -4v30c0 52.667 -25.333 79 -76 79c-36 0 -87 -12 -153 -36c-19.333 20.667 -30.333 50.334 -33 89.001c72 30 144 45 216 45c50 0 90.667 -14 122 -42s47 -70.333 47 -127v-204c0 -36.667 9.33301 -62.667 28 -78zM218.998 80.998
c34.667 0 67.999 16 99.999 48v89c-23.333 2.66699 -48.666 4 -75.999 4s-48 -7 -62 -21s-21 -31.667 -21 -53s5.33301 -37.833 16 -49.5s25 -17.5 43 -17.5z" />
    <glyph glyph-name="b" unicode="b" horiz-adv-x="531" 
d="M447 436.5c30 -45.667 45 -108.332 45 -187.999s-21.5 -142.334 -64.5 -188.001s-98.833 -68.5 -167.5 -68.5s-131.667 11 -189 33v704l7 7h46c24.667 0 42.167 -5.83301 52.5 -17.5s15.5 -31.5 15.5 -59.5v-199c38.667 30 80.667 45 126 45c56 0 99 -22.833 129 -68.5z
M285 404.002c-34.667 0 -65.667 -15.667 -93 -47v-266c21.333 -6 44 -9 68 -9c33.333 0 59.333 14.833 78 44.5s28 71.834 28 126.501c0 99.333 -27 149.666 -81 150.999z" />
    <glyph glyph-name="c" unicode="c" horiz-adv-x="472" 
d="M327 293l0.000976562 12.001c0 33.333 -5.16699 60.166 -15.5 80.499s-30.5 30.5 -60.5 30.5c-56.667 0 -85 -55.167 -85 -165.5s34.333 -165.5 103 -165.5c34.667 0 73.667 16 117 48c10.667 -6.66699 20.667 -17 30 -31s15.666 -27.667 18.999 -41
c-50 -50 -110.667 -75 -182 -75s-124.833 24 -160.5 72s-53.5 113.333 -53.5 196s21 146 63 190s92 66 150 66s103.833 -15.5 137.5 -46.5s50.5 -68 50.5 -111s-20.667 -64.5 -62 -64.5c-15.333 0 -32.333 1.66699 -51 5z" />
    <glyph glyph-name="d" unicode="d" horiz-adv-x="533" 
d="M84 55.5c-30 46.333 -45.002 109.832 -45.002 190.499s19.167 144 57.5 190s84.5 69 138.5 69c34 0 69 -9.33301 105 -28v252l6 7h48c24.667 0 42 -5.83301 52 -17.5s15 -31.5 15 -59.5v-517c0 -41.333 9.33301 -70 28 -86
c-3.33301 -11.333 -9.16602 -23.166 -17.499 -35.499s-16.833 -21.833 -25.5 -28.5c-42 6 -71.667 26 -89 60c-39.333 -44 -87.166 -66 -143.499 -66s-99.5 23.167 -129.5 69.5zM244.998 87.999c36.667 0 68.333 18 95 54v236c-34 20.667 -63.667 31 -89 31
s-45.833 -14.5 -61.5 -43.5s-23.5 -69.833 -23.5 -122.5s7.33301 -91.667 22 -117s33.667 -38 57 -38z" />
    <glyph glyph-name="e" unicode="e" horiz-adv-x="499" 
d="M446 208h-280c2 -39.333 10.833 -69.833 26.5 -91.5s43.167 -32.5 82.5 -32.5s83 11.667 131 35c18.667 -18 30.667 -43.333 36 -76c-53.333 -38 -117.5 -57 -192.5 -57s-128.833 24.333 -161.5 73s-49 111.667 -49 189s18 140.333 54 189s87.5 73 154.5 73
s118.5 -20.167 154.5 -60.5s54 -91.166 54 -152.499c0 -30.667 -3.33301 -60.334 -10 -89.001zM253 420c-54.667 0 -84 -41.333 -88 -124h174v12c0 33.333 -7 60.333 -21 81s-35.667 31 -65 31z" />
    <glyph glyph-name="f" unicode="f" horiz-adv-x="343" 
d="M96 0l0.000976562 409l-86 -2c-3.33301 15.333 -5 30 -5 44s1.66699 29.333 5 46l80 -1c-4 36 -6 63 -6 81c0 47.333 14.667 86.333 44 117s68.166 46 116.499 46s94.833 -8.33301 139.5 -25c0 -35.333 -9.33301 -63 -28 -83c-30.667 9.33301 -57.667 14 -81 14
s-41.333 -6.66699 -54 -20s-19 -32 -19 -56s2 -49 6 -75l137 2c3.33301 -12.667 5 -28 5 -46s-1.66699 -32.667 -5 -44l-128 2v-409c-21.333 -3.33301 -41.833 -5 -61.5 -5s-39.5 1.66699 -59.5 5z" />
    <glyph glyph-name="g" unicode="g" horiz-adv-x="531" 
d="M84 60c-30 46 -44.999 109.501 -44.999 190.501s19 144.5 57 190.5s83.667 69 137 69s98.333 -16.667 135 -50c19.333 24.667 45.666 39 78.999 43c9.33301 -6 18.166 -15.333 26.499 -28s13.833 -24.334 16.5 -35.001c-18.667 -16 -28 -44.667 -28 -86v-284
c0 -106 -17.333 -181 -52 -225s-91.667 -66 -171 -66c-62 0 -121.667 11.333 -179 34c0 36.667 10.333 67 31 91c46 -20.667 90.833 -31 134.5 -31s73.834 11 90.501 33s25 52.667 25 92v40c-38 -31.333 -79.667 -47 -125 -47c-58 0 -102 23 -132 69zM341.001 141.001
l0.000976562 231.999c-29.333 27.333 -58 41 -86 41s-49.833 -14.333 -65.5 -43s-23.5 -69.667 -23.5 -123s7.16699 -92.666 21.5 -117.999s33.166 -38 56.499 -38c36 0 68.333 16.333 97 49z" />
    <glyph glyph-name="h" unicode="h" horiz-adv-x="543" 
d="M476 335l0.00195312 -222.001c0 -40.667 6.66699 -72 20 -94c-20.667 -17.333 -44.834 -26 -72.501 -26s-46.5 6.33301 -56.5 19s-15 32.334 -15 59.001v237c0 30.667 -3.83301 52.5 -11.5 65.5s-21.834 19.5 -42.501 19.5c-38 0 -73.333 -17.333 -106 -52v-341
c-18.667 -3.33301 -38.5 -5 -59.5 -5s-41.5 1.66699 -61.5 5v729l7 7h47c25.333 0 42.833 -5.83301 52.5 -17.5s14.5 -31.5 14.5 -59.5v-217c47.333 41.333 95 62 143 62s83.5 -15.5 106.5 -46.5s34.5 -71.833 34.5 -122.5z" />
    <glyph glyph-name="i" unicode="i" horiz-adv-x="282" 
d="M212 399v-398.999c-18.667 -3.33301 -39 -5 -61 -5s-43 1.66699 -63 5v353c0 36 -15 54 -45 54h-12c-3.33301 11.333 -5 25.666 -5 42.999s1.66699 32.333 5 45c24 2.66699 48.333 4 73 4h16c28.667 0 51.167 -9 67.5 -27s24.5 -42.333 24.5 -73zM67 586.001
c-6.66699 15.333 -10 31.833 -10 49.5s3.33301 34.167 10 49.5c17.333 9.33301 38.833 14 64.5 14s46.167 -4.66699 61.5 -14c6.66699 -15.333 10 -31.833 10 -49.5s-3.33301 -34.167 -10 -49.5c-15.333 -9.33301 -36.833 -14 -64.5 -14s-48.167 4.66699 -61.5 14z" />
    <glyph glyph-name="j" unicode="j" horiz-adv-x="288" 
d="M219 399l-0.000976562 -377c0 -58 -4.16699 -99.667 -12.5 -125s-18.5 -44.333 -30.5 -57c-24.667 -27.333 -64.667 -47.333 -120 -60c-20 18 -31.667 43.333 -35 76c28.667 14 48.334 29.333 59.001 46s16 42.334 16 77.001v374c0 36 -15 54 -45 54h-21
c-3.33301 11.333 -5 25.666 -5 42.999s1.66699 32.333 5 45c26.667 2.66699 54 4 82 4h17c28 0 50 -8.83301 66 -26.5s24 -42.167 24 -73.5zM71.999 586c-6.66699 15.333 -10 31.833 -10 49.5s3.33301 34.167 10 49.5c17.333 9.33301 38.833 14 64.5 14
s46.167 -4.66699 61.5 -14c6.66699 -15.333 10 -31.833 10 -49.5s-3.33301 -34.167 -10 -49.5c-15.333 -9.33301 -36.833 -14 -64.5 -14s-48.167 4.66699 -61.5 14z" />
    <glyph glyph-name="k" unicode="k" horiz-adv-x="510" 
d="M419 191l29.999 -78.999c14.667 -42 30.667 -69 48 -81c-22.667 -25.333 -50.334 -38 -83.001 -38c-19.333 0 -33.833 4.66699 -43.5 14s-18.834 25.333 -27.501 48l-36 94c-9.33301 24 -19.166 40 -29.499 48s-22.833 12 -37.5 12s-30.667 -0.666992 -48 -2v-207
c-18.667 -3.33301 -38.5 -5 -59.5 -5s-41.5 1.66699 -61.5 5v729l7 7h47c25.333 0 42.833 -5.83301 52.5 -17.5s14.5 -31.5 14.5 -59.5v-349l27 1c10 0 18.667 5.33301 26 16l73 123c18.667 32.667 43.334 49 74.001 49s53.667 -0.333008 69 -1l6 -8l-97 -164
c-12 -20.667 -25.333 -36 -40 -46c40.667 -12.667 70.334 -42.334 89.001 -89.001z" />
    <glyph glyph-name="l" unicode="l" horiz-adv-x="301" 
d="M232 92h33c6.66699 -20 10 -37.667 10 -53s-1 -27 -3 -35c-38.667 -6 -70 -9 -94 -9c-72 0 -108 39 -108 117v617l6 7h48c24.667 0 42 -5.83301 52 -17.5s15 -31.5 15 -59.5v-522c0 -30 13.667 -45 41 -45z" />
    <glyph glyph-name="m" unicode="m" horiz-adv-x="802" 
d="M340 308c0 56.667 -17.999 84.999 -53.999 84.999c-29.333 0 -59.666 -16.667 -90.999 -50v-343c-18.667 -3.33301 -39 -5 -61 -5s-43 1.66699 -63 5v494l7 7h46c38.667 0 61.667 -20.667 69 -62c46 44 94.167 66 144.5 66s86.833 -24 109.5 -72
c51.333 48 103.666 72 156.999 72c42 0 74.167 -14.667 96.5 -44s33.5 -67.333 33.5 -114v-234c0 -40.667 6.66699 -72 20 -94c-20.667 -17.333 -44.834 -26 -72.501 -26s-46.5 6.33301 -56.5 19s-15 32.334 -15 59.001v238c0 56 -18.333 84 -55 84
c-28 0 -58.333 -17.333 -91 -52v-341c-18.667 -3.33301 -39 -5 -61 -5s-43 1.66699 -63 5v308z" />
    <glyph glyph-name="n" unicode="n" horiz-adv-x="546" 
d="M479 335v-222.001c0 -40.667 6.66699 -72 20 -94c-22 -17.333 -46.5 -26 -73.5 -26s-45.5 6.33301 -55.5 19s-15 32.334 -15 59.001v238c0 30 -4 51.5 -12 64.5s-22.333 19.5 -43 19.5c-38 0 -73 -16.667 -105 -50v-343c-18.667 -3.33301 -39 -5 -61 -5
s-43 1.66699 -63 5v495l7 6h46c38 0 60.667 -20 68 -60c48.667 42.667 97.167 64 145.5 64s84 -15.667 107 -47s34.5 -72.333 34.5 -123z" />
    <glyph glyph-name="o" unicode="o" horiz-adv-x="521" 
d="M482 248c0 -89.333 -23.667 -157.666 -71 -204.999c-38 -38 -88.167 -57 -150.5 -57s-112.5 19 -150.5 57c-47.333 47.333 -71 115.666 -71 204.999s23.667 157.666 71 204.999c38 38 88.167 57 150.5 57s112.5 -19 150.5 -57c47.333 -47.333 71 -115.666 71 -204.999z
M166 248c0 -112 31.5 -168 94.5 -168s94.5 56 94.5 168s-31.5 168 -94.5 168s-94.5 -56 -94.5 -168z" />
    <glyph glyph-name="p" unicode="p" horiz-adv-x="533" 
d="M449 440.5c30 -46.333 44.999 -109.833 44.999 -190.5s-19 -144 -57 -190s-84 -69 -138 -69c-34.667 0 -70 9.33301 -106 28v-158c0 -28 -5 -47.833 -15 -59.5s-27.667 -17.5 -53 -17.5h-47l-7 7v704l7 6h35c34.667 0 58.334 -16.333 71.001 -49
c38.667 38.667 85 58 139 58s96 -23.167 126 -69.5zM287.999 408c-36.667 0 -68.333 -18 -95 -54v-237c32 -20.667 61.167 -31 87.5 -31s47.333 14.5 63 43.5s23.5 70 23.5 123s-7.33301 92.167 -22 117.5s-33.667 38 -57 38z" />
    <glyph glyph-name="q" unicode="q" horiz-adv-x="533" 
d="M340 -139l-0.000976562 175.999c-37.333 -30.667 -78.666 -46 -123.999 -46c-58 0 -102 23 -132 69s-45 109.5 -45 190.5s19 144.5 57 190.5s83.5 69 136.5 69s98.167 -16.333 135.5 -49c20 24 46.333 38 79 42c8.66699 -6 17.167 -15.167 25.5 -27.5
s13.833 -24.166 16.5 -35.499c-18.667 -16 -28 -44.667 -28 -86v-563l-6 -7h-48c-24.667 0 -42 5.83301 -52 17.5s-15 31.5 -15 59.5zM243.999 91.999c35.333 0 67.334 15.999 96.001 47.999v234c-30 26.667 -58.5 40 -85.5 40s-48.5 -14.333 -64.5 -43
s-24 -69.667 -24 -123s7.16699 -92.666 21.5 -117.999s33.166 -38 56.499 -38z" />
    <glyph glyph-name="r" unicode="r" horiz-adv-x="379" 
d="M42 438c2.66699 11.333 8.16895 23.5 16.502 36.5s16.833 22.5 25.5 28.5c52 -8 87 -37.667 105 -89c26.667 59.333 69.667 89 129 89c15.333 0 34.666 -2.33301 57.999 -7c0 -43.333 -10 -82 -30 -116c-10 2.66699 -25 4.66699 -45 6
c-40.667 0 -73.334 -21.667 -98.001 -65v-321c-18.667 -3.33301 -39 -5 -61 -5s-43 1.66699 -63 5v335c0 48.667 -12.333 83 -37 103z" />
    <glyph glyph-name="s" unicode="s" horiz-adv-x="440" 
d="M26 36c0.666992 13.333 4.66699 28.502 12 45.502s16 30.167 26 39.5c53.333 -28.667 100 -43 140 -43c24 0 42.833 4.66699 56.5 14s20.5 21.666 20.5 36.999c0 26 -18.667 46 -56 60l-56 21c-84 31.333 -126 79.666 -126 144.999c0 46.667 17 84.167 51 112.5
s79.167 42.5 135.5 42.5s112.5 -13 168.5 -39c0.666992 -15.333 -2.5 -31.666 -9.5 -48.999s-15.833 -30.333 -26.5 -39c-49.333 22.667 -94.333 34 -135 34c-18.667 0 -33.5 -4.33301 -44.5 -13s-16.5 -20.334 -16.5 -35.001c0 -21.333 17.667 -38.333 53 -51l61 -23
c86 -32 129 -83.333 129 -154c0 -47.333 -17.833 -85 -53.5 -113s-85 -42 -148 -42s-123.5 16.667 -181.5 50z" />
    <glyph glyph-name="t" unicode="t" horiz-adv-x="360" 
d="M333 497c3.33301 -13.333 5 -28.5 5 -45.5s-1.66699 -31.833 -5 -44.5l-122 2v-272c0 -30 14.333 -45 43 -45h64c6.66699 -20 10 -37.667 10 -53s-1 -27 -3 -35c-42 -6 -81.667 -9 -119 -9c-77.333 0 -116 39 -116 117v296l-75 -1c-3.33301 12.667 -5 27.5 -5 44.5
s1.66699 32.167 5 45.5l75 -2v76c0 28 5 47.833 15 59.5s27.333 17.5 52 17.5h48l6 -7v-146z" />
    <glyph glyph-name="u" unicode="u" horiz-adv-x="548" 
d="M67 160l-0.00292969 223.002c0 40 -6.33301 71 -19 93c20 18 43.833 27 71.5 27s46.5 -6.33301 56.5 -19s15 -32.334 15 -59.001v-238c0 -30.667 4 -52.5 12 -65.5s22.333 -19.5 43 -19.5c38 0 73 16.667 105 50v344c18.667 3.33301 39.334 5 62.001 5
s43.334 -1.66699 62.001 -5v-355c0 -42.667 9.33301 -71.334 28 -86.001c-6 -26 -20 -47 -42 -63c-47.333 6 -79.666 29.667 -96.999 71c-51.333 -48 -105 -72 -161 -72c-44.667 0 -78.5 15.5 -101.5 46.5s-34.5 71.833 -34.5 122.5z" />
    <glyph glyph-name="v" unicode="v" horiz-adv-x="465" 
d="M241 97l106.002 399c14 2.66699 31.667 4 53 4s40 -3 56 -9l4 -6c-64.667 -220 -114 -381.667 -148 -485c-26.667 -4 -54.834 -6 -84.501 -6s-50.834 4.33301 -63.501 13s-23 26 -31 52l-131 427c26 12 49.333 18 70 18c36.667 0 59.667 -18.667 69 -56l58 -206
c5.33301 -17.333 16.333 -63 33 -137c0.666992 -5.33301 3.66699 -8 9 -8z" />
    <glyph glyph-name="w" unicode="w" horiz-adv-x="736" 
d="M117 58l-101 430.001c24 10.667 46 16 66 16s34.5 -4.16699 43.5 -12.5s15.5 -21.5 19.5 -39.5l39 -190c14 -62 24 -116 30 -162c1.33301 -5.33301 4 -8 8 -8l73 400c16 4 40.667 6 74 6s57.666 -2 72.999 -6l71 -392c1.33301 -5.33301 4 -8 8 -8
c17.333 91.333 28.333 148 33 170l51 234c14.667 3.33301 33.834 5 57.501 5s42.167 -3.33301 55.5 -10l4 -7l-120 -484c-20 -3.33301 -46.833 -5 -80.5 -5s-56.667 4 -69 12s-20.5 24.333 -24.5 49l-24 127l-33 200h-6c-6 -44 -17.667 -110.333 -35 -199l-35 -184
c-22.667 -3.33301 -50.5 -5 -83.5 -5s-55.5 4.16699 -67.5 12.5s-21 25.166 -27 50.499z" />
    <glyph glyph-name="x" unicode="x" horiz-adv-x="468" 
d="M328 496c14.667 3.33301 31.666 5 50.999 5s39.333 -3 60 -9l3 -9l-141 -219l160 -244c-28 -18.667 -55.833 -28 -83.5 -28s-49.5 12.333 -65.5 37l-86 133l-98 -162c-12 -4 -30 -6 -54 -6s-44 3.33301 -60 10l-4 9l156 242l-144 222c26.667 18.667 53.834 28 81.501 28
s49.5 -12.667 65.5 -38l73 -112z" />
    <glyph glyph-name="y" unicode="y" horiz-adv-x="479" 
d="M470 484l-128.999 -469.002c-22 -80.667 -49.5 -139.834 -82.5 -177.501s-82.5 -56.5 -148.5 -56.5c-36 0 -71.333 6 -106 18v16.5c0 7.66699 2.16699 19.334 6.5 35.001s10.833 28.167 19.5 37.5c28 -9.33301 55.667 -14 83 -14c52 0 88 35.667 108 107l4 13
c-24 0.666992 -43.167 5.33398 -57.5 14.001s-24.5 23.334 -30.5 44.001l-125 434c26.667 12 52 18 76 18c31.333 0 51.666 -18 60.999 -54l59 -216c2 -6 12.667 -53 32 -141c0.666992 -4.66699 3.66699 -7 9 -7l101 410c15.333 3.33301 34 5 56 5s42 -3 60 -9z" />
    <glyph glyph-name="z" unicode="z" horiz-adv-x="447" 
d="M49 112l145.999 197c14.667 20 41.334 51.667 80.001 95l-3 5c-37.333 -4.66699 -80.333 -7 -129 -7h-95c-2.66699 10.667 -4 23.667 -4 39s2.33301 33.666 7 54.999h340c11.333 -34 17 -57.667 17 -71s-4.33301 -26.333 -13 -39l-148 -198
c-22.667 -32 -48 -63.667 -76 -95l3 -4c34.667 3.33301 63.667 5 87 5h43c46.667 0 80.667 5 102 15c8 -21.333 12 -38.666 12 -51.999c0 -38 -24 -57 -72 -57h-300c-10 30 -15 51.833 -15 65.5s6 29.167 18 46.5z" />
    <glyph glyph-name="braceleft" unicode="{" horiz-adv-x="367" 
d="M43 366c24.667 6.66699 44.667 20.501 60 41.501s23 45.5 23 73.5v166c0 48 13.667 86.333 41 115s63.666 46.667 108.999 54l57 9c8.66699 -8.66699 14.834 -20.167 18.501 -34.5s5.5 -24.833 5.5 -31.5s-0.333008 -12 -1 -16l-54 -18
c-15.333 -4.66699 -27.666 -13.834 -36.999 -27.501s-14 -30.834 -14 -51.501v-163c0 -33.333 -7.83301 -64.166 -23.5 -92.499s-36.167 -48.5 -61.5 -60.5v-8c25.333 -11.333 45.833 -31.166 61.5 -59.499s23.5 -59.166 23.5 -92.499v-164
c0 -20.667 4.66699 -37.834 14 -51.501s21.666 -22.834 36.999 -27.501l54 -18c0.666992 -4 1 -9.33301 1 -16s-1.83301 -17.167 -5.5 -31.5s-9.83398 -25.833 -18.501 -34.5l-57 9c-45.333 7.33301 -81.666 25.333 -108.999 54s-41 67 -41 115v167
c0 28 -7.83301 52.5 -23.5 73.5s-35.5 34.5 -59.5 40.5c-4 10 -6 23.5 -6 40.5s2 30.167 6 39.5z" />
    <glyph glyph-name="bar" unicode="|" horiz-adv-x="261" 
d="M73 -141v915c14 3.33301 33 5 57 5s43.333 -1.66699 58 -5v-915c-15.333 -3.33301 -34.833 -5 -58.5 -5s-42.5 1.66699 -56.5 5z" />
    <glyph glyph-name="braceright" unicode="}" horiz-adv-x="367" 
d="M323 366c4 -9.33301 6 -22.5029 6 -39.5029s-2 -30.5 -6 -40.5c-24 -6 -43.833 -19.667 -59.5 -41s-23.5 -45.666 -23.5 -72.999v-167c0 -48 -13.5 -86.333 -40.5 -115s-63.167 -46.667 -108.5 -54l-57 -9c-8.66699 8.66699 -14.834 20.167 -18.501 34.5
s-5.5 24.833 -5.5 31.5s0.333008 12 1 16l54 18c33.333 10 50 36.333 50 79v164c0 32.667 8 63.334 24 92.001s36.667 48.667 62 60v8c-26 12 -46.833 32.333 -62.5 61s-23.5 59.334 -23.5 92.001v163c0 42.667 -16.667 69 -50 79l-54 18c-0.666992 4 -1 9.33301 -1 16
s1.83301 17.167 5.5 31.5s9.83398 25.833 18.501 34.5l57 -9c45.333 -7.33301 81.5 -25.333 108.5 -54s40.5 -67 40.5 -115v-166c0 -28 7.83301 -52.5 23.5 -73.5s35.5 -34.833 59.5 -41.5z" />
    <glyph glyph-name="asciitilde" unicode="~" horiz-adv-x="604" 
d="M286 367l80 -36c17.333 -8 35 -12 53 -12s36 10 54 30l21 24c14 -1.33301 28.5 -6.33301 43.5 -15s25.167 -19.667 30.5 -33l-16 -27c-36 -62.667 -85 -94 -147 -94c-28 0 -57 7 -87 21l-80 36c-20.667 8 -37 12 -49 12c-22 0 -41.333 -10.333 -58 -31l-21 -23
c-14 1.33301 -28.5 6.33301 -43.5 15s-25.167 19.667 -30.5 33l16 27c36.667 62.667 85.667 94 147 94c26 0 55 -7 87 -21z" />
    <glyph glyph-name="exclamdown" unicode="&#xa1;" horiz-adv-x="296" 
d="M198 295l16 -456c-32.667 -23.333 -76.667 -35 -132 -35l-7 10l28 481c12.667 4 28.667 6 48 6s35 -2 47 -6zM214 388c-16.667 -9.33301 -37.834 -14 -63.501 -14s-46.834 4.66699 -63.501 14c-6.66699 12 -10 29.333 -10 52s3.33301 39.667 10 51
c16.667 9.33301 37.834 14 63.501 14s46.834 -4.66699 63.501 -14c6 -10 9 -27 9 -51s-3 -41.333 -9 -52z" />
    <glyph glyph-name="cent" unicode="&#xa2;" horiz-adv-x="466" 
d="M197 -32l-0.00292969 99.999c-56.667 11.333 -97.667 40.833 -123 88.5s-38 106.167 -38 175.5s15.333 125.5 46 168.5s70 69.833 118 80.5v100c10.667 2.66699 26.334 4 47.001 4s36.334 -1.33301 47.001 -4v-98c43.333 -8 77.5 -26.167 102.5 -54.5
s37.5 -59.166 37.5 -92.499c0 -46.667 -22 -70 -66 -70c-16.667 0 -32 2 -46 6v6c0 77.333 -25.667 116 -77 116c-54.667 0 -82 -55.167 -82 -165.5s34.333 -165.5 103 -165.5c35.333 0 73.333 16 114 48c10.667 -6.66699 21 -16.667 31 -30s16.333 -26.333 19 -39
c-35.333 -39.333 -81.666 -64.333 -138.999 -75v-99c-12 -2 -27.667 -3 -47 -3s-35 1 -47 3z" />
    <glyph glyph-name="sterling" unicode="&#xa3;" horiz-adv-x="533" 
d="M227 353l178 0.996094c4.66699 -14.667 7 -29.667 7 -45s-2.33301 -31 -7 -47c-72.667 0 -127 0.333008 -163 1c-2.66699 -57.333 -23 -111.666 -61 -162.999l3 -3c57.333 4 109 6 155 6h161c0 -18 -1 -32.333 -3 -43c-7.33301 -40.667 -35 -61 -83 -61h-347
c-10 40 -15 67.667 -15 83s5.33301 30 16 44l14 23c28 39.333 43.333 77 46 113h-74c-5.33301 14.667 -8 29.667 -8 45s2.66699 31 8 47c5.33301 0 14.333 -0.166992 27 -0.5s22.334 -0.5 29.001 -0.5c-1.33301 4 -4.66602 11.833 -9.99902 23.5s-9 20.334 -11 26.001
l-8 23.5c-6 18 -9 36.333 -9 55c0 46.667 18 88.5 54 125.5s87 55.5 153 55.5c79.333 0 147.666 -25.667 204.999 -77c-2.66699 -16.667 -10.167 -32.667 -22.5 -48s-26.5 -25.333 -42.5 -30c-41.333 34.667 -85 52 -131 52c-26.667 0 -48.834 -7.66699 -66.501 -23
s-26.5 -36.666 -26.5 -63.999c0 -19.333 2.33301 -35.666 7 -48.999l14.5 -41.5c5 -14.333 8.5 -23.833 10.5 -28.5z" />
    <glyph glyph-name="currency" unicode="&#xa4;" horiz-adv-x="581" 
d="M99 215c-22 34.667 -33 74.166 -33 118.499s10.667 83.833 32 118.5l-70 77c13.333 24.667 35 46.667 65 66l79 -72c35.333 19.333 74.5 29 117.5 29s82.167 -9.33301 117.5 -28l80 73c26.667 -16 48.667 -37.667 66 -65l-72 -80c22 -34.667 33 -74.167 33 -118.5
s-11 -84.166 -33 -119.499l70 -77c-14 -25.333 -35.667 -47 -65 -65l-80 72c-33.333 -18 -72 -27 -116 -27s-82.667 9 -116 27l-81 -72c-26 16 -47.667 37.667 -65 65zM215 423.499c-17.333 -23.667 -26 -53.333 -26 -89s8.66699 -65.5 26 -89.5s42.333 -36 75 -36
s57.667 11.833 75 35.5s26 53.5 26 89.5s-8.66699 65.833 -26 89.5s-42.333 35.5 -75 35.5s-57.667 -11.833 -75 -35.5z" />
    <glyph glyph-name="yen" unicode="&#xa5;" horiz-adv-x="528" 
d="M472 162h-148v-162c-17.333 -3.33301 -38 -5 -62 -5s-44 1.66699 -60 5v162h-149c-4 16 -6 29.5 -6 40.5s2 24.5 6 40.5h144l-33 74h-111c-4 15.333 -6 28.333 -6 39s2 24.667 6 42h74l-106 237c27.333 15.333 51.333 23 72 23s35.167 -3.5 43.5 -10.5
s15.833 -18.167 22.5 -33.5l63 -153c10 -24 24.333 -65 43 -123h5c16 51.333 31.333 93 46 125l79 186c14.667 4 32.167 6 52.5 6s39.5 -2.33301 57.5 -7l5 -7l-111 -243h73c4 -17.333 6 -31.333 6 -42s-2 -23.667 -6 -39h-110l-33 -74h143c4 -16 6 -29.5 6 -40.5
s-2 -24.5 -6 -40.5z" />
    <glyph glyph-name="brokenbar" unicode="&#xa6;" horiz-adv-x="255" 
d="M70 -141v387c14.667 3.33301 33.5 5 56.5 5s42.5 -1.66699 58.5 -5v-387c-16 -3.33301 -35.333 -5 -58 -5s-41.667 1.66699 -57 5zM70 387v387c14.667 3.33301 33.5 5 56.5 5s42.5 -1.66699 58.5 -5v-387c-16 -3.33301 -35.333 -5 -58 -5s-41.667 1.66699 -57 5z" />
    <glyph glyph-name="section" unicode="&#xa7;" horiz-adv-x="491" 
d="M463 307c0 -58 -34.334 -107.332 -103.001 -147.999c44.667 -31.333 67 -70 67 -116s-17.667 -83.333 -53 -112s-84 -43 -146 -43s-116.667 14 -164 42c-0.666992 14.667 2.83301 30.834 10.5 48.501s16.5 30.167 26.5 37.5c52.667 -24 97.667 -36 135 -36
c20.667 0 37.167 4.5 49.5 13.5s18.5 21.167 18.5 36.5c0 22.667 -18 41.334 -54 56.001l-58 23c-51.333 21.333 -91.166 44.666 -119.499 69.999s-42.5 58.666 -42.5 99.999c0 58.667 34 107.667 102 147c-44.667 31.333 -67 70 -67 116s17.5 83.333 52.5 112s80 43 135 43
s108.167 -12 159.5 -36c0.666992 -14.667 -2.5 -30.667 -9.5 -48s-15.5 -30.333 -25.5 -39c-49.333 20.667 -87 31 -113 31s-45 -4.66699 -57 -14s-18 -21.333 -18 -36c0 -22 17.667 -40.333 53 -55l58 -23c52 -21.333 92.167 -44.833 120.5 -70.5
s42.5 -58.834 42.5 -99.501zM241.999 376.001l-27 9.99707c-19.333 -9.33301 -35 -21.666 -47 -36.999s-18 -32.333 -18 -51s8.5 -34.667 25.5 -48s41.833 -26.666 74.5 -39.999l27 -11c43.333 22.667 65 51.667 65 87c0 20 -8.66699 36.833 -26 50.5s-42 26.834 -74 39.501
z" />
    <glyph glyph-name="dieresis" unicode="&#xa8;" horiz-adv-x="398" 
d="M240 573c-5.33301 14.667 -8.00195 29.167 -8.00195 43.5s2.66699 28.833 8 43.5c16 9.33301 34.333 14 55 14s39 -4.66699 55 -14c5.33301 -12.667 8 -27.5 8 -44.5s-2.66699 -31.167 -8 -42.5c-15.333 -8.66699 -33.666 -13 -54.999 -13s-39.666 4.33301 -54.999 13z
M47.998 573c-5.33301 12.667 -8.00195 27.168 -8.00195 43.501s2.66699 30.833 8 43.5c16.667 9.33301 35.167 14 55.5 14s38.5 -4.66699 54.5 -14c5.33301 -14.667 8 -29.334 8 -44.001s-2.66699 -29 -8 -43c-15.333 -8.66699 -33.666 -13 -54.999 -13
s-39.666 4.33301 -54.999 13z" />
    <glyph glyph-name="copyright" unicode="&#xa9;" horiz-adv-x="797" 
d="M37 341c0 102 34.667 187.833 104 257.5s155 104.5 257 104.5s187.833 -34.833 257.5 -104.5s104.5 -155.5 104.5 -257.5s-34.833 -187.667 -104.5 -257s-155.5 -104 -257.5 -104s-187.667 34.667 -257 104s-104 155 -104 257zM135 341
c0 -77.333 24.833 -142.666 74.5 -195.999s112.5 -80 188.5 -80s139 26.667 189 80s75 118.666 75 195.999s-25 142.833 -75 196.5s-112.833 80.5 -188.5 80.5s-138.5 -26.833 -188.5 -80.5s-75 -119.167 -75 -196.5zM459 374l-0.000976562 5c0 57.333 -20.667 86 -62 86
c-46.667 0 -70 -41 -70 -123c0 -38.667 7.5 -68.167 22.5 -88.5s35.667 -30.5 62 -30.5s57.833 12.333 94.5 37c20 -11.333 32.667 -30 38 -56c-16 -17.333 -37.667 -31.5 -65 -42.5s-54 -16.5 -80 -16.5c-58.667 0 -102.167 18.5 -130.5 55.5s-42.5 86.167 -42.5 147.5
s17.333 108.5 52 141.5s74.834 49.5 120.501 49.5s82.167 -12 109.5 -36s41 -51.333 41 -82c0 -35.333 -17.667 -53 -53 -53c-16 0 -28.333 2 -37 6z" />
    <glyph glyph-name="ordfeminine" unicode="&#xaa;" horiz-adv-x="437" 
d="M395 343c-1.33301 -10 -6.00293 -20.5029 -14.0029 -31.5029s-17 -18.833 -27 -23.5c-33.333 2.66699 -58.333 17.334 -75 44.001c-36 -32 -74 -48 -114 -48s-71 11.667 -93 35s-33 51.333 -33 84c0 44 14.333 77.167 43 99.5s66.334 33.5 113.001 33.5
c20.667 0 43 -1 67 -3v26c0 18.667 -5.16699 32.667 -15.5 42s-23.5 14 -39.5 14c-34 0 -74.667 -8.66699 -122 -26c-17.333 18.667 -26.666 42.334 -27.999 71.001c57.333 24.667 115.333 37 174 37c40.667 0 73.834 -11.167 99.501 -33.5s38.5 -56.166 38.5 -101.499v-156
c0 -31.333 8.66699 -52.333 26 -63zM188.997 361.997c23.333 0 47.667 10.998 73 32.998v69c-20.667 2 -40.5 3 -59.5 3s-33.833 -5.16699 -44.5 -15.5s-16 -23.166 -16 -38.499s4.33301 -27.666 13 -36.999s20 -14 34 -14z" />
    <glyph glyph-name="guillemotleft" unicode="&#xab;" horiz-adv-x="581" 
d="M542 414l-132 -157l137 -161c-4 -12.667 -13 -25.5 -27 -38.5s-28 -21.5 -42 -25.5l-200 186c-4 10 -6 22.333 -6 37s2 27 6 37l197 187c14 -4 27.667 -12.5 41 -25.5s22 -26.167 26 -39.5zM299 414l-132 -157l137 -161c-4 -12.667 -13 -25.5 -27 -38.5
s-28 -21.5 -42 -25.5l-200 186c-4 10 -6 22.333 -6 37s2 27 6 37l197 187c14 -4 27.667 -12.5 41 -25.5s22 -26.167 26 -39.5z" />
    <glyph glyph-name="logicalnot" unicode="&#xac;" 
d="M367 251l-57.001 -1h-260c-3.33301 13.333 -5 30.333 -5 51s1.66699 38 5 52h419l6 -7v-227c-13.333 -3.33301 -30.666 -5 -51.999 -5s-40.333 1.66699 -57 5v79z" />
    <glyph glyph-name="uni00AD" unicode="&#xad;" horiz-adv-x="360" 
d="M311 216h-261c-4 13.333 -6 30.5 -6 51.5s2 38.167 6 51.5h261c3.33301 -14 5 -31.167 5 -51.5s-1.66699 -37.5 -5 -51.5z" />
    <glyph glyph-name="registered" unicode="&#xae;" horiz-adv-x="596" 
d="M108.5 287c-51.667 51.333 -77.5 114.5 -77.5 189.5s25.833 138.333 77.5 190s114.834 77.5 189.501 77.5s137.834 -26 189.501 -78s77.5 -115.333 77.5 -190s-25.833 -137.667 -77.5 -189s-114.834 -77 -189.501 -77s-137.834 25.667 -189.501 77zM108 476
c0 -54.667 18.167 -100.832 54.5 -138.499s81.5 -56.5 135.5 -56.5s99.167 19 135.5 57s54.5 84.167 54.5 138.5s-18.167 100.666 -54.5 138.999s-81.5 57.5 -135.5 57.5s-99.167 -19.167 -135.5 -57.5s-54.5 -84.833 -54.5 -139.5zM378.5 587.502
c16.333 -13.667 24.5029 -30.5 24.5029 -50.5s-5 -35.667 -15 -47s-22 -19 -36 -23c12 -6 23 -18.667 33 -38l13 -25c7.33301 -14 14.666 -23.333 21.999 -28c-10 -16.667 -24.5 -25 -43.5 -25s-33.5 10 -43.5 30l-23 45c-6.66699 12.667 -16.334 19 -29.001 19h-16v-89
c-11.333 -4 -22.5 -6 -33.5 -6s-22.167 2 -33.5 6v247l3 2c68 2 102.333 3 103 3c33.333 0 58.166 -6.83301 74.499 -20.5zM265.003 556.002v-59c8 0.666992 18 1 30 1c24.667 0 37 9.66699 37 29s-11 29 -33 29h-34z" />
    <glyph glyph-name="macron" unicode="&#xaf;" horiz-adv-x="398" 
d="M345 574l-291 0.000976562c-4 12.667 -6 28.167 -6 46.5s2 34.166 6 47.499h291c3.33301 -14 5 -29.833 5 -47.5s-1.66699 -33.167 -5 -46.5z" />
    <glyph glyph-name="degree" unicode="&#xb0;" horiz-adv-x="336" 
d="M60 411c-28.667 28.667 -43 65.167 -43 109.5s14.333 80.833 43 109.5s64.834 43 108.501 43s79.834 -14.333 108.501 -43s43 -65.167 43 -109.5s-14.333 -80.833 -43 -109.5s-64.834 -43 -108.501 -43s-79.834 14.333 -108.501 43zM123.5 572.5
c-11 -13 -16.5 -30.332 -16.5 -51.999s5.5 -39 16.5 -52s25.833 -19.5 44.5 -19.5s33.5 6.5 44.5 19.5s16.5 30.167 16.5 51.5s-5.5 38.666 -16.5 51.999s-25.833 20 -44.5 20s-33.5 -6.5 -44.5 -19.5z" />
    <glyph glyph-name="plusminus" unicode="&#xb1;" 
d="M213 399l-1.00195 59v85c14 3.33301 31.833 5 53.5 5s39.5 -1.66699 53.5 -5v-85l-1 -59l55 1h91c3.33301 -14 5 -29.5 5 -46.5s-1.66699 -33.167 -5 -48.5h-91l-55 1l1 -57v-87c-15.333 -2.66699 -33.166 -4 -53.499 -4s-38.166 1.33301 -53.499 4v87l1 57l-56 -1h-91
c-3.33301 15.333 -5 31.5 -5 48.5s1.66699 32.5 5 46.5h91zM463.998 0h-398c-3.33301 14.667 -5 30.667 -5 48s1.66699 34 5 50h398c3.33301 -16 5 -32.667 5 -50s-1.66699 -33.333 -5 -48z" />
    <glyph glyph-name="twosuperior" unicode="&#xb2;" horiz-adv-x="420" 
d="M360 423c0 -13.333 -0.666016 -27.998 -1.99902 -43.998c-6 -32.667 -26 -49 -60 -49h-216c-22 28.667 -33 49.667 -33 63c0 35.333 23.667 72.666 71 111.999l80 66c25.333 20.667 38 42 38 64c0 13.333 -4.33301 24.5 -13 33.5s-19.834 13.5 -33.501 13.5
s-25.667 -5 -36 -15s-17.833 -22.667 -22.5 -38c-13.333 0.666992 -28.333 4.5 -45 11.5s-28 14.833 -34 23.5c8 31.333 25.167 57.666 51.5 78.999s59.833 32 100.5 32s74.5 -12.667 101.5 -38s40.5 -55 40.5 -89s-6.83301 -62 -20.5 -84s-34.167 -43.333 -61.5 -64
l-56 -43c-28.667 -22 -46 -36.333 -52 -43c35.333 6 67 9 95 9h107z" />
    <glyph glyph-name="threesuperior" unicode="&#xb3;" horiz-adv-x="420" 
d="M317 664l-52.999 -48.998c-6 -6 -15 -12.333 -27 -19c34 -1.33301 62.167 -13.833 84.5 -37.5s33.5 -55.667 33.5 -96s-16 -73.166 -48 -98.499s-70.333 -38 -115 -38c-60 0 -108.667 15.333 -146 46c5.33301 26.667 19 50 41 70c32 -21.333 60.167 -32 84.5 -32
s43 5.5 56 16.5s19.5 25.833 19.5 44.5s-5.33301 33.667 -16 45s-23.834 17 -39.501 17s-29.5 -2.66699 -41.5 -8c-8.66699 3.33301 -17.167 10.666 -25.5 21.999s-13.5 22.333 -15.5 33l73 70c12.667 12.667 26.667 23.667 42 33l-3 3c-20 -3.33301 -46.333 -5 -79 -5h-74
c-4 11.333 -6 25.666 -6 42.999s2.66699 32 8 44h248c14 -24.667 21 -44.834 21 -60.501s-7.33301 -30.167 -22 -43.5z" />
    <glyph glyph-name="acute" unicode="&#xb4;" horiz-adv-x="398" 
d="M116 588l148 163.001c17.333 -6 33.833 -16.167 49.5 -30.5s26.167 -29.833 31.5 -46.5l-177 -135c-24.667 7.33301 -42 23.666 -52 48.999z" />
    <glyph glyph-name="paragraph" unicode="&#xb6;" horiz-adv-x="702" 
d="M282 61v184h-16c-68 0 -123.333 19.167 -166 57.5s-64 94 -64 167s21.333 127.667 64 164s100 54.5 172 54.5c20.667 0 63.667 -1.33301 129 -4l7 -7v-593c0 -44 -3.16699 -80.167 -9.5 -108.5s-19.166 -53.166 -38.499 -74.499c-34 -38.667 -87 -58 -159 -58
c-48 0 -93.667 8 -137 24c-0.666992 13.333 1.66602 29.166 6.99902 47.499s12.333 33.166 21 44.499c39.333 -14 73.5 -21 102.5 -21s50.833 8.83301 65.5 26.5s22 49.834 22 96.501zM643 575l-45.999 1v-708c-16.667 -3.33301 -37.834 -5 -63.501 -5
s-46.5 1.66699 -62.5 5v808l7 7h200c4 -12 6 -30 6 -54s-2 -42 -6 -54h-35z" />
    <glyph glyph-name="periodcentered" unicode="&#xb7;" horiz-adv-x="314" 
d="M93 231c-6 12 -9.00098 29.833 -9.00098 53.5s3 41.834 9 54.501c16.667 10 38.334 15 65.001 15s47.667 -5 63 -15c6 -14.667 9 -32.834 9 -54.501s-3 -39.5 -9 -53.5c-14 -10 -35 -15 -63 -15s-49.667 5 -65 15z" />
    <glyph glyph-name="cedilla" unicode="&#xb8;" horiz-adv-x="398" 
d="M141 -75c6 24.667 14.667 49.667 26 75h71c-6 -11.333 -11.333 -23 -16 -35c28.667 -1.33301 51.834 -10.166 69.501 -26.499s26.5 -38.333 26.5 -66s-12 -51.167 -36 -70.5s-53.667 -29 -89 -29s-63.333 7.33301 -84 22c1.33301 23.333 8.66602 42.666 21.999 57.999
c14 -9.33301 30.333 -14 49 -14c27.333 0 41 11.667 41 35c0 10.667 -3.33301 19.167 -10 25.5s-14.667 9.5 -24 9.5s-18 -1.33301 -26 -4c-9.33301 3.33301 -16 10 -20 20z" />
    <glyph glyph-name="onesuperior" unicode="&#xb9;" horiz-adv-x="420" 
d="M49 625c35.333 21.333 63.168 42.666 83.501 63.999s37.833 47 52.5 77c16.667 4 32 6 46 6s31 -2 51 -6v-344h82c4 -14 6 -29 6 -45s-2 -31 -6 -45h-284c-3.33301 16.667 -5 32 -5 46s1.66699 28.667 5 44h100v130c0 12 1.33301 36 4 72
c-18.667 -24 -48 -45.333 -88 -64c-24.667 12.667 -40.334 34.334 -47.001 65.001z" />
    <glyph glyph-name="ordmasculine" unicode="&#xba;" horiz-adv-x="429" 
d="M334 654c38.667 -40.667 57.999 -95.667 57.999 -165s-19.333 -123.333 -58 -162c-30.667 -29.333 -70.667 -44 -120 -44s-88.666 14.667 -117.999 44c-38.667 38.667 -58 92.667 -58 162s19.333 124.333 58 165c30 28.667 69.5 43 118.5 43s88.833 -14.333 119.5 -43z
M214.999 616c-48 0 -72 -42 -72 -126s24 -126 72 -126s72 42 72 126s-24 126 -72 126z" />
    <glyph glyph-name="guillemotright" unicode="&#xbb;" horiz-adv-x="581" 
d="M39 97l132 157l-137 161c4.66699 12.667 14 25.5 28 38.5s28 21.5 42 25.5l199 -186c4.66699 -10 7 -22.333 7 -37s-2.33301 -27 -7 -37l-196 -187c-14 4 -27.667 12.5 -41 25.5s-22.333 26.167 -27 39.5zM282 97l132 157l-137 161c4.66699 12.667 14 25.5 28 38.5
s28 21.5 42 25.5l199 -186c4.66699 -10 7 -22.333 7 -37s-2.33301 -27 -7 -37l-196 -187c-14 4 -27.667 12.5 -41 25.5s-22.333 26.167 -27 39.5z" />
    <glyph glyph-name="onequarter" unicode="&#xbc;" horiz-adv-x="988" 
d="M31 542c35.333 21.333 63.168 42.666 83.501 63.999s37.833 47 52.5 77c16.667 4 32 6 46 6s31 -2 51 -6v-344h82c4 -14 6 -29 6 -45s-2 -31 -6 -45h-284c-3.33301 16.667 -5 32 -5 46s1.66699 28.667 5 44h100v130c0 12 1.33301 36 4 72
c-18.667 -24 -48 -45.333 -88 -64c-24.667 12.667 -40.334 34.334 -47.001 65.001zM280.002 0l377 683c16.667 4 38 6 64 6s44.667 -2 56 -6l-377 -683c-16.667 -4 -38 -6 -64 -6s-44.667 2 -56 6zM790.002 79l-46 -1.00098h-114c-14.667 24.667 -22 44 -22 58
s4.66699 31.333 14 52l116 255h19c8.66699 0 21.667 -1.83301 39 -5.5s31 -9.5 41 -17.5l-66 -144c-22.667 -51.333 -43 -88.666 -61 -111.999l2 -2c23.333 2.66699 49.333 4 78 4v46c0 23.333 6.33301 41.666 19 54.999s29.667 20 51 20h27l3 -4v-117h57
c2.66699 -10 4 -22.667 4 -38s-2.66699 -31.666 -8 -48.999h-53v-74c-12.667 -3.33301 -29 -5 -49 -5s-37 1.66699 -51 5v74z" />
    <glyph glyph-name="onehalf" unicode="&#xbd;" horiz-adv-x="988" 
d="M267 0l377 683c16.667 4 38 6 64 6s44.667 -2 56 -6l-377 -683c-16.667 -4 -38 -6 -64 -6s-44.667 2 -56 6zM31 542c35.333 21.333 63.168 42.666 83.501 63.999s37.833 47 52.5 77c16.667 4 32 6 46 6s31 -2 51 -6v-344h82c4 -14 6 -29 6 -45s-2 -31 -6 -45h-284
c-3.33301 16.667 -5 32 -5 46s1.66699 28.667 5 44h100v130c0 12 1.33301 36 4 72c-18.667 -24 -48 -45.333 -88 -64c-24.667 12.667 -40.334 34.334 -47.001 65.001zM942.002 96c0 -13.333 -0.666992 -27.998 -2 -43.998c-6 -32.667 -26 -49 -60 -49h-216
c-22 28.667 -33 49.667 -33 63c0 35.333 23.667 72.666 71 111.999l80 66c25.333 20.667 38 42 38 64c0 13.333 -4.33301 24.5 -13 33.5s-19.834 13.5 -33.501 13.5s-25.667 -5 -36 -15s-17.833 -22.667 -22.5 -38c-13.333 0.666992 -28.333 4.5 -45 11.5
s-28 14.833 -34 23.5c8 31.333 25.167 57.666 51.5 78.999s59.833 32 100.5 32s74.5 -12.667 101.5 -38s40.5 -55 40.5 -89s-6.83301 -62 -20.5 -84s-34.167 -43.333 -61.5 -64l-56 -43c-28.667 -22 -46 -36.333 -52 -43c34.667 6 66.334 9 95.001 9h107z" />
    <glyph glyph-name="threequarters" unicode="&#xbe;" horiz-adv-x="988" 
d="M260 0l377 683c16.667 4 38 6 64 6s44.667 -2 56 -6l-377 -683c-16.667 -4 -38 -6 -64 -6s-44.667 2 -56 6zM318 581l-52.999 -48.998c-6 -6 -15 -12.333 -27 -19c34 -1.33301 62.167 -13.833 84.5 -37.5s33.5 -55.667 33.5 -96s-16 -73.166 -48 -98.499
s-70.333 -38 -115 -38c-60 0 -108.667 15.333 -146 46c5.33301 26.667 19 50 41 70c32 -21.333 60.167 -32 84.5 -32s43 5.5 56 16.5s19.5 25.833 19.5 44.5s-5.33301 33.667 -16 45s-23.834 17 -39.501 17s-29.5 -2.66699 -41.5 -8
c-8.66699 3.33301 -17.167 10.666 -25.5 21.999s-13.5 22.333 -15.5 33l73 70c12.667 12.667 26.667 23.667 42 33l-3 3c-20 -3.33301 -46.333 -5 -79 -5h-74c-4 11.333 -6 25.666 -6 42.999s2.66699 32 8 44h248c14 -24.667 21 -44.834 21 -60.501
s-7.33301 -30.167 -22 -43.5zM780.001 79.002l-46 -1.00098h-114c-14.667 24.667 -22 44 -22 58s4.66699 31.333 14 52l116 255h19c8.66699 0 21.667 -1.83301 39 -5.5s31 -9.5 41 -17.5l-66 -144c-22.667 -51.333 -43 -88.666 -61 -111.999l2 -2
c23.333 2.66699 49.333 4 78 4v46c0 23.333 6.33301 41.666 19 54.999s29.667 20 51 20h27l3 -4v-117h57c2.66699 -10 4 -22.667 4 -38s-2.66699 -31.666 -8 -48.999h-53v-74c-12.667 -3.33301 -29 -5 -49 -5s-37 1.66699 -51 5v74z" />
    <glyph glyph-name="questiondown" unicode="&#xbf;" horiz-adv-x="405" 
d="M403 -150c-62.667 -35.333 -126.167 -52.999 -190.5 -52.999s-113.833 16 -148.5 48s-52 74.333 -52 127c0 82.667 43.667 147.667 131 195l62 34l8 92c12 4 27.833 6 47.5 6s35.5 -2 47.5 -6l6 -149l-10 -13l-51 -25c-73.333 -36.667 -110 -77 -110 -121
c0 -24.667 8 -44.334 24 -59.001s40.167 -22 72.5 -22s71.833 12.333 118.5 37c11.333 -9.33301 21.5 -22.833 30.5 -40.5s13.833 -34.5 14.5 -50.5zM323 388.001c-16.667 -9.33301 -38.167 -14 -64.5 -14s-47.166 4.66699 -62.499 14c-6.66699 12 -10 29.333 -10 52
s3.33301 39.667 10 51c15.333 9.33301 36.166 14 62.499 14s47.833 -4.66699 64.5 -14c6 -10 9 -27 9 -51s-3 -41.333 -9 -52z" />
    <glyph glyph-name="Agrave" unicode="&#xc0;" horiz-adv-x="622" 
d="M427 157l-51.999 -1h-139l-51 1l-49 -158c-13.333 -3.33301 -32.333 -5 -57 -5s-44.334 3 -59.001 9l-5 6l224 674c22 3.33301 47.333 5 76 5s52 -2 70 -6l221 -674c-19.333 -10.667 -41.5 -16 -66.5 -16s-43 4.83301 -54 14.5s-20.5 27.5 -28.5 53.5zM216.001 259l47 1
h89c2 0 8.5 -0.166992 19.5 -0.5s19.167 -0.5 24.5 -0.5l-34 112c-18.667 59.333 -36.667 123 -54 191h-5c-8 -40.667 -22.333 -94.667 -43 -162zM224.001 917l211 -127c-5.33301 -30 -17.333 -50.667 -36 -62l-227 91c2 18 8.33301 36.667 19 56s21.667 33.333 33 42z" />
    <glyph glyph-name="Aacute" unicode="&#xc1;" horiz-adv-x="622" 
d="M427 157l-51.999 -1h-139l-51 1l-49 -158c-13.333 -3.33301 -32.333 -5 -57 -5s-44.334 3 -59.001 9l-5 6l224 674c22 3.33301 47.333 5 76 5s52 -2 70 -6l221 -674c-19.333 -10.667 -41.5 -16 -66.5 -16s-43 4.83301 -54 14.5s-20.5 27.5 -28.5 53.5zM216.001 259l47 1
h89c2 0 8.5 -0.166992 19.5 -0.5s19.167 -0.5 24.5 -0.5l-34 112c-18.667 59.333 -36.667 123 -54 191h-5c-8 -40.667 -22.333 -94.667 -43 -162zM203.001 790l211 127c11.333 -8.66699 22.333 -22.667 33 -42s17 -38 19 -56l-227 -91c-9.33301 5.33301 -17.333 14 -24 26
s-10.667 24 -12 36z" />
    <glyph glyph-name="Acircumflex" unicode="&#xc2;" horiz-adv-x="622" 
d="M427 157l-51.999 -1h-139l-51 1l-49 -158c-13.333 -3.33301 -32.333 -5 -57 -5s-44.334 3 -59.001 9l-5 6l224 674c22 3.33301 47.333 5 76 5s52 -2 70 -6l221 -674c-19.333 -10.667 -41.5 -16 -66.5 -16s-43 4.83301 -54 14.5s-20.5 27.5 -28.5 53.5zM216.001 259l47 1
h89c2 0 8.5 -0.166992 19.5 -0.5s19.167 -0.5 24.5 -0.5l-34 112c-18.667 59.333 -36.667 123 -54 191h-5c-8 -40.667 -22.333 -94.667 -43 -162zM426.001 736l-114.001 74.999l-117 -84c-10 3.33301 -20.5 10.333 -31.5 21s-17.833 21.334 -20.5 32.001l115 116
c17.333 4 34.833 6 52.5 6s35.834 -1.66699 54.501 -5l113 -108c-4 -12 -11.167 -22.833 -21.5 -32.5s-20.5 -16.5 -30.5 -20.5z" />
    <glyph glyph-name="Atilde" unicode="&#xc3;" horiz-adv-x="622" 
d="M427 157l-51.999 -1h-139l-51 1l-49 -158c-13.333 -3.33301 -32.333 -5 -57 -5s-44.334 3 -59.001 9l-5 6l224 674c22 3.33301 47.333 5 76 5s52 -2 70 -6l221 -674c-19.333 -10.667 -41.5 -16 -66.5 -16s-43 4.83301 -54 14.5s-20.5 27.5 -28.5 53.5zM216.001 259l47 1
h89c2 0 8.5 -0.166992 19.5 -0.5s19.167 -0.5 24.5 -0.5l-34 112c-18.667 59.333 -36.667 123 -54 191h-5c-8 -40.667 -22.333 -94.667 -43 -162zM320.001 757l-51.999 25c-10.667 6 -22.167 9 -34.5 9s-24.5 -8 -36.5 -24l-10 -14c-12.667 0.666992 -25.167 4.5 -37.5 11.5
s-20.5 15.833 -24.5 26.5l8 19c11.333 24 26.666 43.167 45.999 57.5s40 21.5 62 21.5s43.667 -5.66699 65 -17l52 -25c12 -6 23.667 -9 35 -9s23.333 8.33301 36 25l10 14c12.667 -0.666992 25 -4.66699 37 -12s20.333 -16 25 -26l-8 -19
c-24.667 -52.667 -61.667 -79 -111 -79c-20 0 -40.667 5.33301 -62 16z" />
    <glyph glyph-name="Adieresis" unicode="&#xc4;" horiz-adv-x="622" 
d="M427 157l-51.999 -1h-139l-51 1l-49 -158c-13.333 -3.33301 -32.333 -5 -57 -5s-44.334 3 -59.001 9l-5 6l224 674c22 3.33301 47.333 5 76 5s52 -2 70 -6l221 -674c-19.333 -10.667 -41.5 -16 -66.5 -16s-43 4.83301 -54 14.5s-20.5 27.5 -28.5 53.5zM216.001 259l47 1
h89c2 0 8.5 -0.166992 19.5 -0.5s19.167 -0.5 24.5 -0.5l-34 112c-18.667 59.333 -36.667 123 -54 191h-5c-8 -40.667 -22.333 -94.667 -43 -162zM369.001 839c15.333 9.33301 33.166 14 53.499 14s38.166 -4.66699 53.499 -14c6.66699 -10 10 -25 10 -45
s-3.33301 -34.667 -10 -44c-13.333 -9.33301 -31.166 -14 -53.499 -14s-40.166 4.66699 -53.499 14c-8 10 -12 24.667 -12 44s4 34.333 12 45zM150.001 839c14 9.33301 31.501 14 52.501 14s39.167 -4.66699 54.5 -14c7.33301 -10 11 -25.167 11 -45.5
s-3.66699 -34.833 -11 -43.5c-13.333 -9.33301 -31.333 -14 -54 -14s-40.334 4.66699 -53.001 14c-6.66699 9.33301 -10 24 -10 44s3.33301 35 10 45z" />
    <glyph glyph-name="Aring" unicode="&#xc5;" horiz-adv-x="622" 
d="M427 157l-51.999 -1.00098h-139l-51 1l-49 -158c-13.333 -3.33301 -32.333 -5 -57 -5s-44.334 3 -59.001 9l-5 6l224 674h1c-37.333 22.667 -56 56.334 -56 101.001c0 33.333 12 61.5 36 84.5s55 34.5 93 34.5s68.833 -11.5 92.5 -34.5s35.5 -51.167 35.5 -84.5
c0 -44.667 -19 -78.667 -57 -102h1l221 -674c-19.333 -10.667 -41.5 -16 -66.5 -16s-43 4.83301 -54 14.5s-20.5 27.5 -28.5 53.5zM216.001 258.999l47 1h89c2 0 8.5 -0.166992 19.5 -0.5s19.167 -0.5 24.5 -0.5l-34 112c-18.667 59.333 -36.667 123 -54 191h-5
c-8 -40.667 -22.333 -94.667 -43 -162zM263.001 783.999c0 -15.333 4.66699 -28 14 -38s21.333 -15 36 -15s26.5 5 35.5 15s13.5 22.667 13.5 38s-4.5 27.833 -13.5 37.5s-20.833 14.5 -35.5 14.5s-26.667 -4.83301 -36 -14.5s-14 -22.167 -14 -37.5z" />
    <glyph glyph-name="AE" unicode="&#xc6;" horiz-adv-x="880" 
d="M520 164l-1 -59.999c28 1.33301 51 2 69 2h250c0 -20.667 -1 -36.334 -3 -47.001c-7.33301 -40.667 -34.333 -61 -81 -61h-285c-22.667 0 -40.5 6.83301 -53.5 20.5s-19.5 32.5 -19.5 56.5v82c-10.667 -0.666992 -26 -1 -46 -1h-89c-21.333 0 -37.666 0.333008 -48.999 1
l-72 -157c-12.667 -3.33301 -32.834 -5 -60.501 -5s-49.167 2.66699 -64.5 8l-4 7l316 662c16.667 7.33301 42 11 76 11h413c2.66699 -12.667 4 -29.167 4 -49.5s-3.33301 -39.5 -10 -57.5h-291l1 -68v-112c16 0.666992 37.333 1 64 1h176c4.66699 -16 7 -33.5 7 -52.5
s-2.33301 -36.5 -7 -52.5h-176c-26.667 0 -48 0.333008 -64 1v-129zM350 259.001l46 -1v304h-4c-24 -60.667 -46.667 -115 -68 -163l-65 -141l37 1h54z" />
    <glyph glyph-name="Ccedilla" unicode="&#xc7;" horiz-adv-x="606" 
d="M259 -75c4.66699 21.333 11.332 42.333 19.999 63c-42 4 -78.667 16.5 -110 37.5s-55.666 48.5 -72.999 82.5c-34.667 65.333 -52 142.333 -52 231c0 118 26.5 207.167 79.5 267.5s118.167 90.5 195.5 90.5s138.833 -19.5 184.5 -58.5s68.5 -86.167 68.5 -141.5
c0 -47.333 -24 -71 -72 -71c-17.333 0 -34 2.33301 -50 7v8c0 42 -9.83301 78.167 -29.5 108.5s-52.5 45.5 -98.5 45.5c-96 0 -144 -85.667 -144 -257c0 -77.333 13.5 -136.833 40.5 -178.5s66.167 -62.5 117.5 -62.5s108.666 24.667 171.999 74
c13.333 -9.33301 26 -21.833 38 -37.5s19.667 -30.5 23 -44.5c-57.333 -57.333 -130.666 -91 -219.999 -101c-4.66699 -11.333 -7.66699 -19 -9 -23c28.667 -1.33301 51.834 -10.166 69.501 -26.499s26.5 -38.333 26.5 -66s-12 -51.167 -36 -70.5s-53.667 -29 -89 -29
s-63.333 7.33301 -84 22c1.33301 23.333 8.66602 42.666 21.999 57.999c14 -9.33301 30.333 -14 49 -14c27.333 0 41 11.667 41 35c0 10 -3.33301 18.333 -10 25s-14.667 10 -24 10s-18 -1.33301 -26 -4c-9.33301 3.33301 -16 10 -20 20z" />
    <glyph glyph-name="Egrave" unicode="&#xc8;" horiz-adv-x="569" 
d="M210 163l-1.00098 -58.999c28 1.33301 51 2 69 2h248c0 -20.667 -0.666992 -36.334 -2 -47.001c-7.33301 -40.667 -34.666 -61 -81.999 -61h-285c-22.667 0 -40.5 6.83301 -53.5 20.5s-19.5 32.5 -19.5 56.5v601l7 7h413c3.33301 -16 5 -32.5 5 -49.5
s-3.33301 -36.167 -10 -57.5h-290l1 -68v-112c16 0.666992 37.333 1 64 1h174c4.66699 -16 7 -33.5 7 -52.5s-2.33301 -36.5 -7 -52.5h-174c-26.667 0 -48 0.333008 -64 1v-130zM209.999 917.001l211 -127c-5.33301 -30 -17.333 -50.667 -36 -62l-227 91
c2 18 8.33301 36.667 19 56s21.667 33.333 33 42z" />
    <glyph glyph-name="Eacute" unicode="&#xc9;" horiz-adv-x="569" 
d="M210 163l-1.00098 -58.999c28 1.33301 51 2 69 2h248c0 -20.667 -0.666992 -36.334 -2 -47.001c-7.33301 -40.667 -34.666 -61 -81.999 -61h-285c-22.667 0 -40.5 6.83301 -53.5 20.5s-19.5 32.5 -19.5 56.5v601l7 7h413c3.33301 -16 5 -32.5 5 -49.5
s-3.33301 -36.167 -10 -57.5h-290l1 -68v-112c16 0.666992 37.333 1 64 1h174c4.66699 -16 7 -33.5 7 -52.5s-2.33301 -36.5 -7 -52.5h-174c-26.667 0 -48 0.333008 -64 1v-130zM188.999 790.001l211 127c11.333 -8.66699 22.333 -22.667 33 -42s17 -38 19 -56l-227 -91
c-9.33301 5.33301 -17.333 14 -24 26s-10.667 24 -12 36z" />
    <glyph glyph-name="Ecircumflex" unicode="&#xca;" horiz-adv-x="569" 
d="M210 163l-1.00098 -58.999c28 1.33301 51 2 69 2h248c0 -20.667 -0.666992 -36.334 -2 -47.001c-7.33301 -40.667 -34.666 -61 -81.999 -61h-285c-22.667 0 -40.5 6.83301 -53.5 20.5s-19.5 32.5 -19.5 56.5v601l7 7h413c3.33301 -16 5 -32.5 5 -49.5
s-3.33301 -36.167 -10 -57.5h-290l1 -68v-112c16 0.666992 37.333 1 64 1h174c4.66699 -16 7 -33.5 7 -52.5s-2.33301 -36.5 -7 -52.5h-174c-26.667 0 -48 0.333008 -64 1v-130zM411.999 736.001l-114.001 74.999l-117 -84c-10 3.33301 -20.5 10.333 -31.5 21
s-17.833 21.334 -20.5 32.001l115 116c17.333 4 34.833 6 52.5 6s35.834 -1.66699 54.501 -5l113 -108c-4 -12 -11.167 -22.833 -21.5 -32.5s-20.5 -16.5 -30.5 -20.5z" />
    <glyph glyph-name="Edieresis" unicode="&#xcb;" horiz-adv-x="569" 
d="M210 163l-1.00098 -58.999c28 1.33301 51 2 69 2h248c0 -20.667 -0.666992 -36.334 -2 -47.001c-7.33301 -40.667 -34.666 -61 -81.999 -61h-285c-22.667 0 -40.5 6.83301 -53.5 20.5s-19.5 32.5 -19.5 56.5v601l7 7h413c3.33301 -16 5 -32.5 5 -49.5
s-3.33301 -36.167 -10 -57.5h-290l1 -68v-112c16 0.666992 37.333 1 64 1h174c4.66699 -16 7 -33.5 7 -52.5s-2.33301 -36.5 -7 -52.5h-174c-26.667 0 -48 0.333008 -64 1v-130zM354.999 839.001c15.333 9.33301 33.166 14 53.499 14s38.166 -4.66699 53.499 -14
c6.66699 -10 10 -25 10 -45s-3.33301 -34.667 -10 -44c-13.333 -9.33301 -31.166 -14 -53.499 -14s-40.166 4.66699 -53.499 14c-8 10 -12 24.667 -12 44s4 34.333 12 45zM135.999 839.001c14 9.33301 31.501 14 52.501 14s39.167 -4.66699 54.5 -14
c7.33301 -10 11 -25.167 11 -45.5s-3.66699 -34.833 -11 -43.5c-13.333 -9.33301 -31.333 -14 -54 -14s-40.334 4.66699 -53.001 14c-6.66699 9.33301 -10 24 -10 44s3.33301 35 10 45z" />
    <glyph glyph-name="Igrave" unicode="&#xcc;" horiz-adv-x="303" 
d="M88 0v683c16 3.33301 37 5 63 5s47.333 -1.66699 64 -5v-683c-16.667 -3.33301 -38 -5 -64 -5s-47 1.66699 -63 5zM63 918l211 -127c-5.33301 -30 -17.333 -50.667 -36 -62l-227 91c2 18 8.33301 36.667 19 56s21.667 33.333 33 42z" />
    <glyph glyph-name="Iacute" unicode="&#xcd;" horiz-adv-x="303" 
d="M88 0v683c16 3.33301 37 5 63 5s47.333 -1.66699 64 -5v-683c-16.667 -3.33301 -38 -5 -64 -5s-47 1.66699 -63 5zM42 791l211 127c11.333 -8.66699 22.333 -22.667 33 -42s17 -38 19 -56l-227 -91c-9.33301 5.33301 -17.333 14 -24 26s-10.667 24 -12 36z" />
    <glyph glyph-name="Icircumflex" unicode="&#xce;" horiz-adv-x="303" 
d="M88 0v683c16 3.33301 37 5 63 5s47.333 -1.66699 64 -5v-683c-16.667 -3.33301 -38 -5 -64 -5s-47 1.66699 -63 5zM265 737l-114.001 74.999l-117 -84c-10 3.33301 -20.5 10.333 -31.5 21s-17.833 21.334 -20.5 32.001l115 116c17.333 4 34.833 6 52.5 6
s35.834 -1.66699 54.501 -5l113 -108c-4 -12 -11.167 -22.833 -21.5 -32.5s-20.5 -16.5 -30.5 -20.5z" />
    <glyph glyph-name="Idieresis" unicode="&#xcf;" horiz-adv-x="303" 
d="M88 0v683c16 3.33301 37 5 63 5s47.333 -1.66699 64 -5v-683c-16.667 -3.33301 -38 -5 -64 -5s-47 1.66699 -63 5zM208 840c15.333 9.33301 33.166 14 53.499 14s38.166 -4.66699 53.499 -14c6.66699 -10 10 -25 10 -45s-3.33301 -34.667 -10 -44
c-13.333 -9.33301 -31.166 -14 -53.499 -14s-40.166 4.66699 -53.499 14c-8 10 -12 24.667 -12 44s4 34.333 12 45zM-11 840c14 9.33301 31.501 14 52.501 14s39.167 -4.66699 54.5 -14c7.33301 -10 11 -25.167 11 -45.5s-3.66699 -34.833 -11 -43.5
c-13.333 -9.33301 -31.333 -14 -54 -14s-40.334 4.66699 -53.001 14c-6.66699 9.33301 -10 24 -10 44s3.33301 35 10 45z" />
    <glyph glyph-name="Eth" unicode="&#xd0;" horiz-adv-x="671" 
d="M602.5 514c15 -48 22.499 -105.499 22.499 -172.499s-7.5 -124.667 -22.5 -173s-43.5 -89.5 -85.5 -123.5c-20 -16.667 -46.833 -29.167 -80.5 -37.5s-68 -12.5 -103 -12.5s-110.5 1.33301 -226.5 4l-7 6v289h-73c-3.33301 13.333 -5 30.5 -5 51.5s1.66699 38.5 5 52.5
h73v280l7 6c77.333 2.66699 155 4 233 4c30 0 61.833 -4.33301 95.5 -13s60.834 -21.334 81.501 -38.001c42 -34 70.5 -75 85.5 -123zM368.999 294.001h-144v-198h114c103.333 0 155 82 155 246c0 116 -24.667 190.667 -74 224c-22 14 -53 21 -93 21s-74 0.333008 -102 1
v-190h144c3.33301 -18.667 5 -36.167 5 -52.5s-1.66699 -33.5 -5 -51.5z" />
    <glyph glyph-name="Ntilde" unicode="&#xd1;" horiz-adv-x="686" 
d="M595 688l5.99805 -6v-680c-18.667 -4.66699 -43 -7 -73 -7s-56.333 1.66699 -79 5l-191 396c-16.667 34 -37 80.333 -61 139l-4 -1c6.66699 -83.333 10 -172 10 -266v-268c-17.333 -3.33301 -37.166 -5 -59.499 -5s-41.833 1.66699 -58.5 5v681
c18.667 4.66699 42.834 7 72.501 7s55.5 -1.66699 77.5 -5l189 -395c17.333 -36 39.333 -85 66 -147l3 1c-6.66699 94.667 -10 184 -10 268v200c0 28 5.33301 48 16 60s28.667 18 54 18h42zM352.998 757l-51.999 25c-10.667 6 -22.167 9 -34.5 9s-24.5 -8 -36.5 -24l-10 -14
c-12.667 0.666992 -25.167 4.5 -37.5 11.5s-20.5 15.833 -24.5 26.5l8 19c11.333 24 26.666 43.167 45.999 57.5s40 21.5 62 21.5s43.667 -5.66699 65 -17l52 -25c12 -6 23.667 -9 35 -9s23.333 8.33301 36 25l10 14c12.667 -0.666992 25 -4.66699 37 -12s20.333 -16 25 -26
l-8 -19c-24.667 -52.667 -61.667 -79 -111 -79c-20 0 -40.667 5.33301 -62 16z" />
    <glyph glyph-name="Ograve" unicode="&#xd2;" horiz-adv-x="661" 
d="M177 341.5c0 -170.333 51.167 -255.5 153.5 -255.5s153.5 85.167 153.5 255.5s-51.167 255.5 -153.5 255.5s-153.5 -85.167 -153.5 -255.5zM151 47c-71.333 60.667 -107 158.834 -107 294.501s35.667 233.834 107 294.501c48.667 40.667 108.334 61 179.001 61
s131 -20.333 181 -61c70.667 -60.667 106 -158.834 106 -294.501s-35.333 -233.834 -106 -294.501c-50 -40.667 -110.333 -61 -181 -61s-130.334 20.333 -179.001 61zM242 917l211 -127c-5.33301 -30 -17.333 -50.667 -36 -62l-227 91c2 18 8.33301 36.667 19 56
s21.667 33.333 33 42z" />
    <glyph glyph-name="Oacute" unicode="&#xd3;" horiz-adv-x="661" 
d="M177 341.5c0 -170.333 51.167 -255.5 153.5 -255.5s153.5 85.167 153.5 255.5s-51.167 255.5 -153.5 255.5s-153.5 -85.167 -153.5 -255.5zM151 47c-71.333 60.667 -107 158.834 -107 294.501s35.667 233.834 107 294.501c48.667 40.667 108.334 61 179.001 61
s131 -20.333 181 -61c70.667 -60.667 106 -158.834 106 -294.501s-35.333 -233.834 -106 -294.501c-50 -40.667 -110.333 -61 -181 -61s-130.334 20.333 -179.001 61zM221 790l211 127c11.333 -8.66699 22.333 -22.667 33 -42s17 -38 19 -56l-227 -91
c-9.33301 5.33301 -17.333 14 -24 26s-10.667 24 -12 36z" />
    <glyph glyph-name="Ocircumflex" unicode="&#xd4;" horiz-adv-x="661" 
d="M177 341.5c0 -170.333 51.167 -255.5 153.5 -255.5s153.5 85.167 153.5 255.5s-51.167 255.5 -153.5 255.5s-153.5 -85.167 -153.5 -255.5zM151 47c-71.333 60.667 -107 158.834 -107 294.501s35.667 233.834 107 294.501c48.667 40.667 108.334 61 179.001 61
s131 -20.333 181 -61c70.667 -60.667 106 -158.834 106 -294.501s-35.333 -233.834 -106 -294.501c-50 -40.667 -110.333 -61 -181 -61s-130.334 20.333 -179.001 61zM444 736l-114.001 74.999l-117 -84c-10 3.33301 -20.5 10.333 -31.5 21s-17.833 21.334 -20.5 32.001
l115 116c17.333 4 34.833 6 52.5 6s35.834 -1.66699 54.501 -5l113 -108c-4 -12 -11.167 -22.833 -21.5 -32.5s-20.5 -16.5 -30.5 -20.5z" />
    <glyph glyph-name="Otilde" unicode="&#xd5;" horiz-adv-x="661" 
d="M177 341.5c0 -170.333 51.167 -255.5 153.5 -255.5s153.5 85.167 153.5 255.5s-51.167 255.5 -153.5 255.5s-153.5 -85.167 -153.5 -255.5zM151 47c-71.333 60.667 -107 158.834 -107 294.501s35.667 233.834 107 294.501c48.667 40.667 108.334 61 179.001 61
s131 -20.333 181 -61c70.667 -60.667 106 -158.834 106 -294.501s-35.333 -233.834 -106 -294.501c-50 -40.667 -110.333 -61 -181 -61s-130.334 20.333 -179.001 61zM334 764l-52.0029 25c-10.667 6 -22 9 -34 9s-24.333 -8.33301 -37 -25l-11 -14
c-12.667 0.666992 -25 4.5 -37 11.5s-20 15.833 -24 26.5l8 20c24.667 52 61.667 78 111 78c18.667 0 39.334 -5.33301 62.001 -16l52 -26c12 -6 23.667 -9 35 -9s23.666 8.33301 36.999 25l10 14c12.667 -0.666992 24.834 -4.5 36.501 -11.5s19.834 -15.833 24.501 -26.5
l-8 -19c-11.333 -24.667 -26.666 -44 -45.999 -58s-40 -21 -62 -21s-43.667 5.66699 -65 17z" />
    <glyph glyph-name="Odieresis" unicode="&#xd6;" horiz-adv-x="661" 
d="M177 341.5c0 -170.333 51.167 -255.5 153.5 -255.5s153.5 85.167 153.5 255.5s-51.167 255.5 -153.5 255.5s-153.5 -85.167 -153.5 -255.5zM151 47c-71.333 60.667 -107 158.834 -107 294.501s35.667 233.834 107 294.501c48.667 40.667 108.334 61 179.001 61
s131 -20.333 181 -61c70.667 -60.667 106 -158.834 106 -294.501s-35.333 -233.834 -106 -294.501c-50 -40.667 -110.333 -61 -181 -61s-130.334 20.333 -179.001 61zM387 839c15.333 9.33301 33.166 14 53.499 14s38.166 -4.66699 53.499 -14c6.66699 -10 10 -25 10 -45
s-3.33301 -34.667 -10 -44c-13.333 -9.33301 -31.166 -14 -53.499 -14s-40.166 4.66699 -53.499 14c-8 10 -12 24.667 -12 44s4 34.333 12 45zM168 839c14 9.33301 31.501 14 52.501 14s39.167 -4.66699 54.5 -14c7.33301 -10 11 -25.167 11 -45.5
s-3.66699 -34.833 -11 -43.5c-13.333 -9.33301 -31.333 -14 -54 -14s-40.334 4.66699 -53.001 14c-6.66699 9.33301 -10 24 -10 44s3.33301 35 10 45z" />
    <glyph glyph-name="multiply" unicode="&#xd7;" 
d="M264 222l-122.999 -125.003c-16.667 8 -31.834 18.833 -45.501 32.5s-23.5 27.834 -29.5 42.501l125 123l-35 36l-90 89c7.33301 17.333 17.666 32 30.999 44c12.667 14 27.334 24.333 44.001 31l89 -90l34 -36l124 125c16.667 -7.33301 31.667 -17.666 45 -30.999
s23.333 -27.666 30 -42.999l-89 -90l-36 -34l125 -124c-14 -34 -39 -59 -75 -75l-88 90z" />
    <glyph glyph-name="Oslash" unicode="&#xd8;" horiz-adv-x="664" 
d="M44 342c0 134.667 36 232.666 108 293.999c47.333 40.667 107.333 61 180 61c47.333 0 88 -8 122 -24l41 73c35.333 -6 62.333 -21 81 -45l-46 -82c59.333 -64 89 -156.333 89 -277c0 -135.333 -35.667 -233.666 -107 -294.999c-48.667 -40.667 -108.667 -61 -180 -61
c-46.667 0 -87.667 8 -123 24l-40 -71c-35.333 6 -62.333 20.667 -81 44l45 81c-59.333 64 -89 156.667 -89 278zM197 182.999l207.999 398c-21.333 12.667 -46.666 19 -75.999 19s-55 -7.66699 -77 -23s-38.667 -36.333 -50 -63c-19.333 -48 -29 -105 -29 -171
s8 -119.333 24 -160zM489.999 341.999c0 62.667 -7.99902 115.333 -23.999 158l-207 -398c21.333 -12.667 45.666 -19 72.999 -19c105.333 0 158 86.333 158 259z" />
    <glyph glyph-name="Ugrave" unicode="&#xd9;" horiz-adv-x="671" 
d="M595 683v-438c0 -82.667 -23 -146.5 -69 -191.5s-109.5 -67.5 -190.5 -67.5s-144.5 22.5 -190.5 67.5s-69 108.833 -69 191.5v437l6 6h48c25.333 0 43.833 -6.5 55.5 -19.5s17.5 -33.5 17.5 -61.5v-363c0 -104 44 -156 132 -156s132 52 132 156v439
c16.667 3.33301 38 5 64 5s47.333 -1.66699 64 -5zM245 917l211 -127c-5.33301 -30 -17.333 -50.667 -36 -62l-227 91c2 18 8.33301 36.667 19 56s21.667 33.333 33 42z" />
    <glyph glyph-name="Uacute" unicode="&#xda;" horiz-adv-x="671" 
d="M595 683v-438c0 -82.667 -23 -146.5 -69 -191.5s-109.5 -67.5 -190.5 -67.5s-144.5 22.5 -190.5 67.5s-69 108.833 -69 191.5v437l6 6h48c25.333 0 43.833 -6.5 55.5 -19.5s17.5 -33.5 17.5 -61.5v-363c0 -104 44 -156 132 -156s132 52 132 156v439
c16.667 3.33301 38 5 64 5s47.333 -1.66699 64 -5zM224 790l211 127c11.333 -8.66699 22.333 -22.667 33 -42s17 -38 19 -56l-227 -91c-9.33301 5.33301 -17.333 14 -24 26s-10.667 24 -12 36z" />
    <glyph glyph-name="Ucircumflex" unicode="&#xdb;" horiz-adv-x="671" 
d="M595 683v-438c0 -82.667 -23 -146.5 -69 -191.5s-109.5 -67.5 -190.5 -67.5s-144.5 22.5 -190.5 67.5s-69 108.833 -69 191.5v437l6 6h48c25.333 0 43.833 -6.5 55.5 -19.5s17.5 -33.5 17.5 -61.5v-363c0 -104 44 -156 132 -156s132 52 132 156v439
c16.667 3.33301 38 5 64 5s47.333 -1.66699 64 -5zM447 736l-114.001 74.999l-117 -84c-10 3.33301 -20.5 10.333 -31.5 21s-17.833 21.334 -20.5 32.001l115 116c17.333 4 34.833 6 52.5 6s35.834 -1.66699 54.501 -5l113 -108c-4 -12 -11.167 -22.833 -21.5 -32.5
s-20.5 -16.5 -30.5 -20.5z" />
    <glyph glyph-name="Udieresis" unicode="&#xdc;" horiz-adv-x="671" 
d="M595 683v-438c0 -82.667 -23 -146.5 -69 -191.5s-109.5 -67.5 -190.5 -67.5s-144.5 22.5 -190.5 67.5s-69 108.833 -69 191.5v437l6 6h48c25.333 0 43.833 -6.5 55.5 -19.5s17.5 -33.5 17.5 -61.5v-363c0 -104 44 -156 132 -156s132 52 132 156v439
c16.667 3.33301 38 5 64 5s47.333 -1.66699 64 -5zM390 839c15.333 9.33301 33.166 14 53.499 14s38.166 -4.66699 53.499 -14c6.66699 -10 10 -25 10 -45s-3.33301 -34.667 -10 -44c-13.333 -9.33301 -31.166 -14 -53.499 -14s-40.166 4.66699 -53.499 14
c-8 10 -12 24.667 -12 44s4 34.333 12 45zM171 839c14 9.33301 31.501 14 52.501 14s39.167 -4.66699 54.5 -14c7.33301 -10 11 -25.167 11 -45.5s-3.66699 -34.833 -11 -43.5c-13.333 -9.33301 -31.333 -14 -54 -14s-40.334 4.66699 -53.001 14
c-6.66699 9.33301 -10 24 -10 44s3.33301 35 10 45z" />
    <glyph glyph-name="Yacute" unicode="&#xdd;" horiz-adv-x="511" 
d="M309 477l82 206c14 3.33301 32.333 5 55 5s42.334 -3 59.001 -9l6 -8l-192 -457v-214c-16.667 -3.33301 -38 -5 -64 -5s-47 1.66699 -63 5v218l-192 450c27.333 15.333 51.666 23 72.999 23s37 -4 47 -12s19 -21.667 27 -41l67 -164c16.667 -42.667 31 -86.667 43 -132h6
c8.66699 35.333 24 80.333 46 135zM149 790l211 127c11.333 -8.66699 22.333 -22.667 33 -42s17 -38 19 -56l-227 -91c-9.33301 5.33301 -17.333 14 -24 26s-10.667 24 -12 36z" />
    <glyph glyph-name="Thorn" unicode="&#xde;" horiz-adv-x="579" 
d="M85 0l0.000976562 683c16 3.33301 37 5 63 5s47.333 -1.66699 64 -5v-99c41.333 1.33301 72.666 2 93.999 2c71.333 0 128.5 -18.5 171.5 -55.5s64.5 -92.167 64.5 -165.5s-21.5 -129 -64.5 -167s-100.167 -57 -171.5 -57h-94v-141c-16.667 -3.33301 -38 -5 -64 -5
s-47 1.66699 -63 5zM212.001 240l86 1c41.333 0 70.5 12 87.5 36s25.5 53 25.5 87s-8.5 62.833 -25.5 86.5s-46.167 35.5 -87.5 35.5h-86v-246z" />
    <glyph glyph-name="germandbls" unicode="&#xdf;" horiz-adv-x="639" 
d="M101 0l-0.00292969 379l-86 -1c-3.33301 15.333 -5 31.5 -5 48.5s1.66699 33.167 5 48.5l86 -1v29c0 63.333 20.5 111.833 61.5 145.5s96.333 50.5 166 50.5s125.5 -18.333 167.5 -55s63 -86 63 -148c0 -23.333 -5.33301 -49 -16 -77h-2l2 -1
c-24.667 -5.33301 -43.334 -14.5 -56.001 -27.5s-19 -26.667 -19 -41s10.333 -30.5 31 -48.5l37 -34c48.667 -46.667 73 -91.667 73 -135s-17.667 -78.5 -53 -105.5s-78.666 -40.5 -129.999 -40.5s-97 9.66699 -137 29c0.666992 14 4.66699 29.667 12 47
s16 30.666 26 39.999c26 -14 51 -21 75 -21s42.667 4.83301 56 14.5s20 23.167 20 40.5s-12 37 -36 59l-41 36c-42.667 38.667 -64 76 -64 112c0 23.333 8.33301 45.833 25 67.5s39.334 38.5 68.001 50.5c2 10.667 3 21.334 3 32.001c0 32 -9.16699 58.5 -27.5 79.5
s-44.166 31.5 -77.499 31.5c-67.333 0 -101 -38 -101 -114v-490c-20 -3.33301 -40.667 -5 -62 -5s-42.666 1.66699 -63.999 5z" />
    <glyph glyph-name="agrave" unicode="&#xe0;" horiz-adv-x="509" 
d="M470 56c-3.33301 -11.333 -9.16797 -23.168 -17.501 -35.501s-16.833 -21.833 -25.5 -28.5c-41.333 4.66699 -71.666 24 -90.999 58c-44 -42.667 -91.667 -64 -143 -64s-90 15 -116 45s-39 64.667 -39 104c0 56 18.167 98.167 54.5 126.5s82.833 42.5 139.5 42.5
c30.667 0 59.667 -1.33301 87 -4v30c0 52.667 -25.333 79 -76 79c-36 0 -87 -12 -153 -36c-19.333 20.667 -30.333 50.334 -33 89.001c72 30 144 45 216 45c50 0 90.667 -14 122 -42s47 -70.333 47 -127v-204c0 -36.667 9.33301 -62.667 28 -78zM218.998 80.998
c34.667 0 67.999 16 99.999 48v89c-23.333 2.66699 -48.666 4 -75.999 4s-48 -7 -62 -21s-21 -31.667 -21 -53s5.33301 -37.833 16 -49.5s25 -17.5 43 -17.5zM188.997 750.998l148.999 -163.001c-4.66699 -11.333 -12 -21.5 -22 -30.5s-20.333 -15.167 -31 -18.5l-177 135
c6 16.667 16.833 32.334 32.5 47.001s31.834 24.667 48.501 30z" />
    <glyph glyph-name="aacute" unicode="&#xe1;" horiz-adv-x="509" 
d="M470 56c-3.33301 -11.333 -9.16797 -23.168 -17.501 -35.501s-16.833 -21.833 -25.5 -28.5c-41.333 4.66699 -71.666 24 -90.999 58c-44 -42.667 -91.667 -64 -143 -64s-90 15 -116 45s-39 64.667 -39 104c0 56 18.167 98.167 54.5 126.5s82.833 42.5 139.5 42.5
c30.667 0 59.667 -1.33301 87 -4v30c0 52.667 -25.333 79 -76 79c-36 0 -87 -12 -153 -36c-19.333 20.667 -30.333 50.334 -33 89.001c72 30 144 45 216 45c50 0 90.667 -14 122 -42s47 -70.333 47 -127v-204c0 -36.667 9.33301 -62.667 28 -78zM218.998 80.998
c34.667 0 67.999 16 99.999 48v89c-23.333 2.66699 -48.666 4 -75.999 4s-48 -7 -62 -21s-21 -31.667 -21 -53s5.33301 -37.833 16 -49.5s25 -17.5 43 -17.5zM164.997 587.998l148 163.001c17.333 -6 33.833 -16.167 49.5 -30.5s26.167 -29.833 31.5 -46.5l-177 -135
c-24.667 7.33301 -42 23.666 -52 48.999z" />
    <glyph glyph-name="acircumflex" unicode="&#xe2;" horiz-adv-x="509" 
d="M470 56c-3.33301 -11.333 -9.16797 -23.168 -17.501 -35.501s-16.833 -21.833 -25.5 -28.5c-41.333 4.66699 -71.666 24 -90.999 58c-44 -42.667 -91.667 -64 -143 -64s-90 15 -116 45s-39 64.667 -39 104c0 56 18.167 98.167 54.5 126.5s82.833 42.5 139.5 42.5
c30.667 0 59.667 -1.33301 87 -4v30c0 52.667 -25.333 79 -76 79c-36 0 -87 -12 -153 -36c-19.333 20.667 -30.333 50.334 -33 89.001c72 30 144 45 216 45c50 0 90.667 -14 122 -42s47 -70.333 47 -127v-204c0 -36.667 9.33301 -62.667 28 -78zM218.998 80.998
c34.667 0 67.999 16 99.999 48v89c-23.333 2.66699 -48.666 4 -75.999 4s-48 -7 -62 -21s-21 -31.667 -21 -53s5.33301 -37.833 16 -49.5s25 -17.5 43 -17.5zM342.997 547.998l-92.998 90.001l-99 -96c-24.667 10 -43.334 26.667 -56.001 50l106 134
c15.333 5.33301 31.666 8 48.999 8s35.333 -2.33301 54 -7l95 -126c-10 -24.667 -28.667 -42.334 -56 -53.001z" />
    <glyph glyph-name="atilde" unicode="&#xe3;" horiz-adv-x="509" 
d="M470 56c-3.33301 -11.333 -9.16797 -23.168 -17.501 -35.501s-16.833 -21.833 -25.5 -28.5c-41.333 4.66699 -71.666 24 -90.999 58c-44 -42.667 -91.667 -64 -143 -64s-90 15 -116 45s-39 64.667 -39 104c0 56 18.167 98.167 54.5 126.5s82.833 42.5 139.5 42.5
c30.667 0 59.667 -1.33301 87 -4v30c0 52.667 -25.333 79 -76 79c-36 0 -87 -12 -153 -36c-19.333 20.667 -30.333 50.334 -33 89.001c72 30 144 45 216 45c50 0 90.667 -14 122 -42s47 -70.333 47 -127v-204c0 -36.667 9.33301 -62.667 28 -78zM218.998 80.998
c34.667 0 67.999 16 99.999 48v89c-23.333 2.66699 -48.666 4 -75.999 4s-48 -7 -62 -21s-21 -31.667 -21 -53s5.33301 -37.833 16 -49.5s25 -17.5 43 -17.5zM253.997 571.998l-50.0029 25c-10.667 6 -21.667 9 -33 9s-23.333 -8.33301 -36 -25l-10 -14
c-12 0.666992 -23.833 4.5 -35.5 11.5s-19.5 15.833 -23.5 26.5l8 20c10.667 24 25.334 43.167 44.001 57.5s38.334 21.5 59.001 21.5s41.667 -5.33301 63 -16l50 -26c12 -6 23.333 -9 34 -9s22.334 8.33301 35.001 25l10 14c12 -0.666992 23.667 -4.5 35 -11.5
s19.333 -15.833 24 -26.5l-8 -20c-10.667 -24.667 -25.5 -44 -44.5 -58s-39 -21 -60 -21s-41.5 5.66699 -61.5 17z" />
    <glyph glyph-name="adieresis" unicode="&#xe4;" horiz-adv-x="509" 
d="M470 56c-3.33301 -11.333 -9.16797 -23.168 -17.501 -35.501s-16.833 -21.833 -25.5 -28.5c-41.333 4.66699 -71.666 24 -90.999 58c-44 -42.667 -91.667 -64 -143 -64s-90 15 -116 45s-39 64.667 -39 104c0 56 18.167 98.167 54.5 126.5s82.833 42.5 139.5 42.5
c30.667 0 59.667 -1.33301 87 -4v30c0 52.667 -25.333 79 -76 79c-36 0 -87 -12 -153 -36c-19.333 20.667 -30.333 50.334 -33 89.001c72 30 144 45 216 45c50 0 90.667 -14 122 -42s47 -70.333 47 -127v-204c0 -36.667 9.33301 -62.667 28 -78zM218.998 80.998
c34.667 0 67.999 16 99.999 48v89c-23.333 2.66699 -48.666 4 -75.999 4s-48 -7 -62 -21s-21 -31.667 -21 -53s5.33301 -37.833 16 -49.5s25 -17.5 43 -17.5zM287.997 572.998c-5.33301 14.667 -8.00195 29.167 -8.00195 43.5s2.66699 28.833 8 43.5
c16 9.33301 34.333 14 55 14s39 -4.66699 55 -14c5.33301 -12.667 8 -27.5 8 -44.5s-2.66699 -31.167 -8 -42.5c-15.333 -8.66699 -33.666 -13 -54.999 -13s-39.666 4.33301 -54.999 13zM95.9951 572.998c-5.33301 12.667 -8.00195 27.168 -8.00195 43.501
s2.66699 30.833 8 43.5c16.667 9.33301 35.167 14 55.5 14s38.5 -4.66699 54.5 -14c5.33301 -14.667 8 -29.334 8 -44.001s-2.66699 -29 -8 -43c-15.333 -8.66699 -33.666 -13 -54.999 -13s-39.666 4.33301 -54.999 13z" />
    <glyph glyph-name="aring" unicode="&#xe5;" horiz-adv-x="509" 
d="M470 56c-3.33301 -11.333 -9.16797 -23.168 -17.501 -35.501s-16.833 -21.833 -25.5 -28.5c-41.333 4.66699 -71.666 24 -90.999 58c-44 -42.667 -91.667 -64 -143 -64s-90 15 -116 45s-39 64.667 -39 104c0 56 18.167 98.167 54.5 126.5s82.833 42.5 139.5 42.5
c30.667 0 59.667 -1.33301 87 -4v30c0 52.667 -25.333 79 -76 79c-36 0 -87 -12 -153 -36c-19.333 20.667 -30.333 50.334 -33 89.001c72 30 144 45 216 45c50 0 90.667 -14 122 -42s47 -70.333 47 -127v-204c0 -36.667 9.33301 -62.667 28 -78zM218.998 80.998
c34.667 0 67.999 16 99.999 48v89c-23.333 2.66699 -48.666 4 -75.999 4s-48 -7 -62 -21s-21 -31.667 -21 -53s5.33301 -37.833 16 -49.5s25 -17.5 43 -17.5zM153.997 574.498c-24 23 -36 51.333 -36 85s12 62 36 85s55 34.5 93 34.5s69 -11.5 93 -34.5s36 -51.333 36 -85
s-12 -62 -36 -85s-55 -34.5 -93 -34.5s-69 11.5 -93 34.5zM196.997 659.998c0 -15.333 4.66699 -28 14 -38s21.333 -15 36 -15s26.667 5 36 15s14 22.667 14 38s-4.66699 28 -14 38s-21.333 15 -36 15s-26.667 -5 -36 -15s-14 -22.667 -14 -38z" />
    <glyph glyph-name="ae" unicode="&#xe6;" horiz-adv-x="771" 
d="M721 208h-277.998c2 -39.333 10.833 -69.833 26.5 -91.5s42.167 -32.5 79.5 -32.5s81.666 11.667 132.999 35c19.333 -19.333 31 -44.666 35 -75.999c-52 -38 -115 -57 -189 -57s-129 26 -165 78c-50.667 -52 -109.334 -78 -176.001 -78c-47.333 0 -84 15 -110 45
s-39 65 -39 105c0 55.333 18.167 97.166 54.5 125.499s82.833 42.5 139.5 42.5c24.667 0 53.667 -1.66699 87 -5v32c0 52 -25 78 -75 78c-40 0 -91.333 -12 -154 -36c-19.333 20.667 -30.333 50.334 -33 89.001c72 30 138.833 45 200.5 45s106.834 -18.333 135.501 -55
c37.333 38.667 85.166 58 143.499 58s105.333 -20 141 -60s53.5 -91 53.5 -153c0 -30.667 -3.33301 -60.334 -10 -89.001zM219.002 81c42 0 79.333 19.333 112 58c-7.33301 24 -11.333 50.333 -12 79c-24 2.66699 -49.5 4 -76.5 4s-47.5 -6.83301 -61.5 -20.5
s-21 -31.167 -21 -52.5s5.33301 -38 16 -50s25 -18 43 -18zM529.002 420c-52.667 0 -81.667 -41.333 -87 -124h172v11c0 33.333 -6.83301 60.5 -20.5 81.5s-35.167 31.5 -64.5 31.5z" />
    <glyph glyph-name="ccedilla" unicode="&#xe7;" horiz-adv-x="472" 
d="M191 -75c6.66699 25.333 13.6689 46.667 21.002 64c-56.667 8.66699 -99.667 36.167 -129 82.5s-44 104.5 -44 174.5c0 88 21 154 63 198s92 66 150 66s103.833 -15.5 137.5 -46.5s50.5 -68 50.5 -111s-20.667 -64.5 -62 -64.5c-15.333 0 -32.333 1.66699 -51 5v12
c0 33.333 -5.16699 60.166 -15.5 80.499s-30.5 30.5 -60.5 30.5c-56.667 0 -85 -55.167 -85 -165.5s34.333 -165.5 103 -165.5c34.667 0 73.667 16 117 48c10.667 -6.66699 20.667 -17 30 -31s15.666 -27.667 18.999 -41c-40.667 -40.667 -91.667 -65 -153 -73
c-4.66699 -8 -8 -15.667 -10 -23c28.667 -1.33301 51.834 -10.166 69.501 -26.499s26.5 -38.333 26.5 -66s-11.833 -51.167 -35.5 -70.5s-53.334 -29 -89.001 -29s-63.834 7.33301 -84.501 22c1.33301 22 9 41.333 23 58c14 -9.33301 30 -14 48 -14c28 0 42 11.667 42 35
c0 10 -3.5 18.333 -10.5 25s-15.167 10 -24.5 10s-18 -1.33301 -26 -4c-10 3.33301 -16.667 10 -20 20z" />
    <glyph glyph-name="egrave" unicode="&#xe8;" horiz-adv-x="499" 
d="M446 208h-280c2 -39.333 10.833 -69.833 26.5 -91.5s43.167 -32.5 82.5 -32.5s83 11.667 131 35c18.667 -18 30.667 -43.333 36 -76c-53.333 -38 -117.5 -57 -192.5 -57s-128.833 24.333 -161.5 73s-49 111.667 -49 189s18 140.333 54 189s87.5 73 154.5 73
s118.5 -20.167 154.5 -60.5s54 -91.166 54 -152.499c0 -30.667 -3.33301 -60.334 -10 -89.001zM253 420c-54.667 0 -84 -41.333 -88 -124h174v12c0 33.333 -7 60.333 -21 81s-35.667 31 -65 31zM198 751l148.999 -163.001c-4.66699 -11.333 -12 -21.5 -22 -30.5
s-20.333 -15.167 -31 -18.5l-177 135c6 16.667 16.833 32.334 32.5 47.001s31.834 24.667 48.501 30z" />
    <glyph glyph-name="eacute" unicode="&#xe9;" horiz-adv-x="499" 
d="M446 208h-280c2 -39.333 10.833 -69.833 26.5 -91.5s43.167 -32.5 82.5 -32.5s83 11.667 131 35c18.667 -18 30.667 -43.333 36 -76c-53.333 -38 -117.5 -57 -192.5 -57s-128.833 24.333 -161.5 73s-49 111.667 -49 189s18 140.333 54 189s87.5 73 154.5 73
s118.5 -20.167 154.5 -60.5s54 -91.166 54 -152.499c0 -30.667 -3.33301 -60.334 -10 -89.001zM253 420c-54.667 0 -84 -41.333 -88 -124h174v12c0 33.333 -7 60.333 -21 81s-35.667 31 -65 31zM173 588l148 163.001c17.333 -6 33.833 -16.167 49.5 -30.5
s26.167 -29.833 31.5 -46.5l-177 -135c-24.667 7.33301 -42 23.666 -52 48.999z" />
    <glyph glyph-name="ecircumflex" unicode="&#xea;" horiz-adv-x="499" 
d="M446 208h-280c2 -39.333 10.833 -69.833 26.5 -91.5s43.167 -32.5 82.5 -32.5s83 11.667 131 35c18.667 -18 30.667 -43.333 36 -76c-53.333 -38 -117.5 -57 -192.5 -57s-128.833 24.333 -161.5 73s-49 111.667 -49 189s18 140.333 54 189s87.5 73 154.5 73
s118.5 -20.167 154.5 -60.5s54 -91.166 54 -152.499c0 -30.667 -3.33301 -60.334 -10 -89.001zM253 420c-54.667 0 -84 -41.333 -88 -124h174v12c0 33.333 -7 60.333 -21 81s-35.667 31 -65 31zM351 548l-92.998 90.001l-99 -96c-24.667 10 -43.334 26.667 -56.001 50
l106 134c15.333 5.33301 31.666 8 48.999 8s35.333 -2.33301 54 -7l95 -126c-10 -24.667 -28.667 -42.334 -56 -53.001z" />
    <glyph glyph-name="edieresis" unicode="&#xeb;" horiz-adv-x="499" 
d="M446 208h-280c2 -39.333 10.833 -69.833 26.5 -91.5s43.167 -32.5 82.5 -32.5s83 11.667 131 35c18.667 -18 30.667 -43.333 36 -76c-53.333 -38 -117.5 -57 -192.5 -57s-128.833 24.333 -161.5 73s-49 111.667 -49 189s18 140.333 54 189s87.5 73 154.5 73
s118.5 -20.167 154.5 -60.5s54 -91.166 54 -152.499c0 -30.667 -3.33301 -60.334 -10 -89.001zM253 420c-54.667 0 -84 -41.333 -88 -124h174v12c0 33.333 -7 60.333 -21 81s-35.667 31 -65 31zM296 573c-5.33301 14.667 -8.00195 29.167 -8.00195 43.5
s2.66699 28.833 8 43.5c16 9.33301 34.333 14 55 14s39 -4.66699 55 -14c5.33301 -12.667 8 -27.5 8 -44.5s-2.66699 -31.167 -8 -42.5c-15.333 -8.66699 -33.666 -13 -54.999 -13s-39.666 4.33301 -54.999 13zM103.998 573
c-5.33301 12.667 -8.00195 27.168 -8.00195 43.501s2.66699 30.833 8 43.5c16.667 9.33301 35.167 14 55.5 14s38.5 -4.66699 54.5 -14c5.33301 -14.667 8 -29.334 8 -44.001s-2.66699 -29 -8 -43c-15.333 -8.66699 -33.666 -13 -54.999 -13s-39.666 4.33301 -54.999 13z
" />
    <glyph glyph-name="igrave" unicode="&#xec;" horiz-adv-x="277" 
d="M208 399v-398.999c-18.667 -3.33301 -39 -5 -61 -5s-43 1.66699 -63 5v353c0 36 -15 54 -45 54h-12c-3.33301 11.333 -5 25.666 -5 42.999s1.66699 32.333 5 45c24 2.66699 48.333 4 73 4h16c28.667 0 51.167 -9 67.5 -27s24.5 -42.333 24.5 -73zM68 751.001
l148.999 -163.001c-4.66699 -11.333 -12 -21.5 -22 -30.5s-20.333 -15.167 -31 -18.5l-177 135c6 16.667 16.833 32.334 32.5 47.001s31.834 24.667 48.501 30z" />
    <glyph glyph-name="iacute" unicode="&#xed;" horiz-adv-x="277" 
d="M208 399v-398.999c-18.667 -3.33301 -39 -5 -61 -5s-43 1.66699 -63 5v353c0 36 -15 54 -45 54h-12c-3.33301 11.333 -5 25.666 -5 42.999s1.66699 32.333 5 45c24 2.66699 48.333 4 73 4h16c28.667 0 51.167 -9 67.5 -27s24.5 -42.333 24.5 -73zM44 588.001l148 163.001
c17.333 -6 33.833 -16.167 49.5 -30.5s26.167 -29.833 31.5 -46.5l-177 -135c-24.667 7.33301 -42 23.666 -52 48.999z" />
    <glyph glyph-name="icircumflex" unicode="&#xee;" horiz-adv-x="277" 
d="M208 399v-398.999c-18.667 -3.33301 -39 -5 -61 -5s-43 1.66699 -63 5v353c0 36 -15 54 -45 54h-12c-3.33301 11.333 -5 25.666 -5 42.999s1.66699 32.333 5 45c24 2.66699 48.333 4 73 4h16c28.667 0 51.167 -9 67.5 -27s24.5 -42.333 24.5 -73zM222 548.001
l-92.998 90.001l-99 -96c-24.667 10 -43.334 26.667 -56.001 50l106 134c15.333 5.33301 31.666 8 48.999 8s35.333 -2.33301 54 -7l95 -126c-10 -24.667 -28.667 -42.334 -56 -53.001z" />
    <glyph glyph-name="idieresis" unicode="&#xef;" horiz-adv-x="277" 
d="M208 399v-398.999c-18.667 -3.33301 -39 -5 -61 -5s-43 1.66699 -63 5v353c0 36 -15 54 -45 54h-12c-3.33301 11.333 -5 25.666 -5 42.999s1.66699 32.333 5 45c24 2.66699 48.333 4 73 4h16c28.667 0 51.167 -9 67.5 -27s24.5 -42.333 24.5 -73zM167 573.001
c-5.33301 14.667 -8.00195 29.167 -8.00195 43.5s2.66699 28.833 8 43.5c16.667 9.33301 35 14 55 14s38.333 -4.66699 55 -14c5.33301 -12.667 8 -27.5 8 -44.5s-2.66699 -31.167 -8 -42.5c-15.333 -8.66699 -33.666 -13 -54.999 -13s-39.666 4.33301 -54.999 13z
M-25.002 573.001c-5.33301 12.667 -8.00195 27.168 -8.00195 43.501s2.66699 30.833 8 43.5c16 9.33301 34.167 14 54.5 14s38.833 -4.66699 55.5 -14c5.33301 -14.667 8 -29.334 8 -44.001s-2.66699 -29 -8 -43c-15.333 -8.66699 -33.666 -13 -54.999 -13
s-39.666 4.33301 -54.999 13z" />
    <glyph glyph-name="eth" unicode="&#xf0;" horiz-adv-x="518" 
d="M101 571l80 55c-24 18 -48.333 33.667 -73 47c2 15.333 7.83301 30.5 17.5 45.5s20.167 25.5 31.5 31.5c40 -17.333 77.333 -38.333 112 -63h1l85 59c22.667 -16.667 36.667 -37 42 -61l-69 -47c101.333 -100 152 -230.333 152 -391c0 -89.333 -23.667 -157.333 -71 -204
c-38 -38 -88.167 -57 -150.5 -57s-112.5 19 -150.5 57c-47.333 46.667 -71 112.167 -71 196.5s24 149.166 72 194.499c37.333 35.333 84.333 53 141 53c20.667 0 40.667 -4.33301 60 -13c-12 32.667 -35.667 67 -71 103l-96 -66c-10 6 -19 14.833 -27 26.5
s-13 22.834 -15 33.501zM353 247c0 50.667 -4.33203 92.333 -12.999 125c-26.667 16.667 -53.334 25 -80.001 25c-64 0 -96 -53.167 -96 -159.5s31.5 -159.5 94.5 -159.5s94.5 56.333 94.5 169z" />
    <glyph glyph-name="ntilde" unicode="&#xf1;" horiz-adv-x="546" 
d="M479 335v-222.001c0 -40.667 6.66699 -72 20 -94c-22 -17.333 -46.5 -26 -73.5 -26s-45.5 6.33301 -55.5 19s-15 32.334 -15 59.001v238c0 30 -4 51.5 -12 64.5s-22.333 19.5 -43 19.5c-38 0 -73 -16.667 -105 -50v-343c-18.667 -3.33301 -39 -5 -61 -5
s-43 1.66699 -63 5v495l7 6h46c38 0 60.667 -20 68 -60c48.667 42.667 97.167 64 145.5 64s84 -15.667 107 -47s34.5 -72.333 34.5 -123zM286 571.999l-50.0029 25c-10.667 6 -21.667 9 -33 9s-23.333 -8.33301 -36 -25l-10 -14c-12 0.666992 -23.833 4.5 -35.5 11.5
s-19.5 15.833 -23.5 26.5l8 20c10.667 24 25.334 43.167 44.001 57.5s38.334 21.5 59.001 21.5s41.667 -5.33301 63 -16l50 -26c12 -6 23.333 -9 34 -9s22.334 8.33301 35.001 25l10 14c12 -0.666992 23.667 -4.5 35 -11.5s19.333 -15.833 24 -26.5l-8 -20
c-10.667 -24.667 -25.5 -44 -44.5 -58s-39 -21 -60 -21s-41.5 5.66699 -61.5 17z" />
    <glyph glyph-name="ograve" unicode="&#xf2;" horiz-adv-x="521" 
d="M482 248c0 -89.333 -23.667 -157.666 -71 -204.999c-38 -38 -88.167 -57 -150.5 -57s-112.5 19 -150.5 57c-47.333 47.333 -71 115.666 -71 204.999s23.667 157.666 71 204.999c38 38 88.167 57 150.5 57s112.5 -19 150.5 -57c47.333 -47.333 71 -115.666 71 -204.999z
M166 248c0 -112 31.5 -168 94.5 -168s94.5 56 94.5 168s-31.5 168 -94.5 168s-94.5 -56 -94.5 -168zM203 751l148.999 -163.001c-4.66699 -11.333 -12 -21.5 -22 -30.5s-20.333 -15.167 -31 -18.5l-177 135c6 16.667 16.833 32.334 32.5 47.001s31.834 24.667 48.501 30z
" />
    <glyph glyph-name="oacute" unicode="&#xf3;" horiz-adv-x="521" 
d="M482 248c0 -89.333 -23.667 -157.666 -71 -204.999c-38 -38 -88.167 -57 -150.5 -57s-112.5 19 -150.5 57c-47.333 47.333 -71 115.666 -71 204.999s23.667 157.666 71 204.999c38 38 88.167 57 150.5 57s112.5 -19 150.5 -57c47.333 -47.333 71 -115.666 71 -204.999z
M166 248c0 -112 31.5 -168 94.5 -168s94.5 56 94.5 168s-31.5 168 -94.5 168s-94.5 -56 -94.5 -168zM178 588l148 163.001c17.333 -6 33.833 -16.167 49.5 -30.5s26.167 -29.833 31.5 -46.5l-177 -135c-24.667 7.33301 -42 23.666 -52 48.999z" />
    <glyph glyph-name="ocircumflex" unicode="&#xf4;" horiz-adv-x="521" 
d="M482 248c0 -89.333 -23.667 -157.666 -71 -204.999c-38 -38 -88.167 -57 -150.5 -57s-112.5 19 -150.5 57c-47.333 47.333 -71 115.666 -71 204.999s23.667 157.666 71 204.999c38 38 88.167 57 150.5 57s112.5 -19 150.5 -57c47.333 -47.333 71 -115.666 71 -204.999z
M166 248c0 -112 31.5 -168 94.5 -168s94.5 56 94.5 168s-31.5 168 -94.5 168s-94.5 -56 -94.5 -168zM356 548l-92.998 90.001l-99 -96c-24.667 10 -43.334 26.667 -56.001 50l106 134c15.333 5.33301 31.666 8 48.999 8s35.333 -2.33301 54 -7l95 -126
c-10 -24.667 -28.667 -42.334 -56 -53.001z" />
    <glyph glyph-name="otilde" unicode="&#xf5;" horiz-adv-x="521" 
d="M482 248c0 -89.333 -23.667 -157.666 -71 -204.999c-38 -38 -88.167 -57 -150.5 -57s-112.5 19 -150.5 57c-47.333 47.333 -71 115.666 -71 204.999s23.667 157.666 71 204.999c38 38 88.167 57 150.5 57s112.5 -19 150.5 -57c47.333 -47.333 71 -115.666 71 -204.999z
M166 248c0 -112 31.5 -168 94.5 -168s94.5 56 94.5 168s-31.5 168 -94.5 168s-94.5 -56 -94.5 -168zM267 572l-50.0029 25c-10.667 6 -21.667 9 -33 9s-23.333 -8.33301 -36 -25l-10 -14c-12 0.666992 -23.833 4.5 -35.5 11.5s-19.5 15.833 -23.5 26.5l8 20
c10.667 24 25.334 43.167 44.001 57.5s38.334 21.5 59.001 21.5s41.667 -5.33301 63 -16l50 -26c12 -6 23.333 -9 34 -9s22.334 8.33301 35.001 25l10 14c12 -0.666992 23.667 -4.5 35 -11.5s19.333 -15.833 24 -26.5l-8 -20c-10.667 -24.667 -25.5 -44 -44.5 -58
s-39 -21 -60 -21s-41.5 5.66699 -61.5 17z" />
    <glyph glyph-name="odieresis" unicode="&#xf6;" horiz-adv-x="521" 
d="M482 248c0 -89.333 -23.667 -157.666 -71 -204.999c-38 -38 -88.167 -57 -150.5 -57s-112.5 19 -150.5 57c-47.333 47.333 -71 115.666 -71 204.999s23.667 157.666 71 204.999c38 38 88.167 57 150.5 57s112.5 -19 150.5 -57c47.333 -47.333 71 -115.666 71 -204.999z
M166 248c0 -112 31.5 -168 94.5 -168s94.5 56 94.5 168s-31.5 168 -94.5 168s-94.5 -56 -94.5 -168zM301 573c-5.33301 14.667 -8.00195 29.167 -8.00195 43.5s2.66699 28.833 8 43.5c16 9.33301 34.333 14 55 14s39 -4.66699 55 -14c5.33301 -12.667 8 -27.5 8 -44.5
s-2.66699 -31.167 -8 -42.5c-15.333 -8.66699 -33.666 -13 -54.999 -13s-39.666 4.33301 -54.999 13zM108.998 573c-5.33301 12.667 -8.00195 27.168 -8.00195 43.501s2.66699 30.833 8 43.5c16.667 9.33301 35.167 14 55.5 14s38.5 -4.66699 54.5 -14
c5.33301 -14.667 8 -29.334 8 -44.001s-2.66699 -29 -8 -43c-15.333 -8.66699 -33.666 -13 -54.999 -13s-39.666 4.33301 -54.999 13z" />
    <glyph glyph-name="divide" unicode="&#xf7;" 
d="M198 474c0 18.667 3 33.998 9 45.998c15.333 8.66699 35 13 59 13s42.667 -4.33301 56 -13c6.66699 -11.333 10 -26.666 10 -45.999s-3.33301 -34.666 -10 -45.999c-12 -8.66699 -31 -13 -57 -13s-45.333 4.33301 -58 13c-6 12 -9 27.333 -9 46zM207 69.998
c-6 12 -9 27.5 -9 46.5s3 34.5 9 46.5c15.333 8.66699 35 13 59 13s42.667 -4.33301 56 -13c6.66699 -11.333 10 -26.833 10 -46.5s-3.33301 -35.167 -10 -46.5c-13.333 -8.66699 -32.333 -13 -57 -13s-44 4.33301 -58 13zM475 244.998h-420
c-3.33301 13.333 -5 30.333 -5 51s1.66699 38 5 52h420c3.33301 -14 5 -31.333 5 -52s-1.66699 -37.667 -5 -51z" />
    <glyph glyph-name="oslash" unicode="&#xf8;" horiz-adv-x="523" 
d="M413 452c46.667 -46.667 70.002 -114.999 70.002 -204.999s-23.333 -158 -70 -204c-38 -38 -88.667 -57 -152 -57c-30.667 0 -60.334 5.33301 -89.001 16l-35 -60c-28.667 6 -50.667 18.333 -66 37l37 65c-45.333 45.333 -68 113.166 -68 203.499
s23.333 158.833 70 205.5c38 38 88.333 57 151 57c33.333 0 62.666 -5.33301 87.999 -16l35 60c28 -6 50 -18 66 -36zM367.002 248.001c0 36.667 -4.33301 69 -13 97l-136 -261c12 -6 26.667 -9 44 -9c70 0 105 57.667 105 173zM156.002 248.001c0 -38.667 4 -70.333 12 -95
l136 259c-12 6 -26 9 -42 9c-70.667 0 -106 -57.667 -106 -173z" />
    <glyph glyph-name="ugrave" unicode="&#xf9;" horiz-adv-x="548" 
d="M67 160l-0.00292969 223.002c0 40 -6.33301 71 -19 93c20 18 43.833 27 71.5 27s46.5 -6.33301 56.5 -19s15 -32.334 15 -59.001v-238c0 -30.667 4 -52.5 12 -65.5s22.333 -19.5 43 -19.5c38 0 73 16.667 105 50v344c18.667 3.33301 39.334 5 62.001 5
s43.334 -1.66699 62.001 -5v-355c0 -42.667 9.33301 -71.334 28 -86.001c-6 -26 -20 -47 -42 -63c-47.333 6 -79.666 29.667 -96.999 71c-51.333 -48 -105 -72 -161 -72c-44.667 0 -78.5 15.5 -101.5 46.5s-34.5 71.833 -34.5 122.5zM208.997 751.002l148.999 -163.001
c-4.66699 -11.333 -12 -21.5 -22 -30.5s-20.333 -15.167 -31 -18.5l-177 135c6 16.667 16.833 32.334 32.5 47.001s31.834 24.667 48.501 30z" />
    <glyph glyph-name="uacute" unicode="&#xfa;" horiz-adv-x="548" 
d="M67 160l-0.00292969 223.002c0 40 -6.33301 71 -19 93c20 18 43.833 27 71.5 27s46.5 -6.33301 56.5 -19s15 -32.334 15 -59.001v-238c0 -30.667 4 -52.5 12 -65.5s22.333 -19.5 43 -19.5c38 0 73 16.667 105 50v344c18.667 3.33301 39.334 5 62.001 5
s43.334 -1.66699 62.001 -5v-355c0 -42.667 9.33301 -71.334 28 -86.001c-6 -26 -20 -47 -42 -63c-47.333 6 -79.666 29.667 -96.999 71c-51.333 -48 -105 -72 -161 -72c-44.667 0 -78.5 15.5 -101.5 46.5s-34.5 71.833 -34.5 122.5zM184.997 588.002l148 163.001
c17.333 -6 33.833 -16.167 49.5 -30.5s26.167 -29.833 31.5 -46.5l-177 -135c-24.667 7.33301 -42 23.666 -52 48.999z" />
    <glyph glyph-name="ucircumflex" unicode="&#xfb;" horiz-adv-x="548" 
d="M67 160l-0.00292969 223.002c0 40 -6.33301 71 -19 93c20 18 43.833 27 71.5 27s46.5 -6.33301 56.5 -19s15 -32.334 15 -59.001v-238c0 -30.667 4 -52.5 12 -65.5s22.333 -19.5 43 -19.5c38 0 73 16.667 105 50v344c18.667 3.33301 39.334 5 62.001 5
s43.334 -1.66699 62.001 -5v-355c0 -42.667 9.33301 -71.334 28 -86.001c-6 -26 -20 -47 -42 -63c-47.333 6 -79.666 29.667 -96.999 71c-51.333 -48 -105 -72 -161 -72c-44.667 0 -78.5 15.5 -101.5 46.5s-34.5 71.833 -34.5 122.5zM362.997 548.002l-92.998 90.001
l-99 -96c-24.667 10 -43.334 26.667 -56.001 50l106 134c15.333 5.33301 31.666 8 48.999 8s35.333 -2.33301 54 -7l95 -126c-10 -24.667 -28.667 -42.334 -56 -53.001z" />
    <glyph glyph-name="udieresis" unicode="&#xfc;" horiz-adv-x="548" 
d="M67 160l-0.00292969 223.002c0 40 -6.33301 71 -19 93c20 18 43.833 27 71.5 27s46.5 -6.33301 56.5 -19s15 -32.334 15 -59.001v-238c0 -30.667 4 -52.5 12 -65.5s22.333 -19.5 43 -19.5c38 0 73 16.667 105 50v344c18.667 3.33301 39.334 5 62.001 5
s43.334 -1.66699 62.001 -5v-355c0 -42.667 9.33301 -71.334 28 -86.001c-6 -26 -20 -47 -42 -63c-47.333 6 -79.666 29.667 -96.999 71c-51.333 -48 -105 -72 -161 -72c-44.667 0 -78.5 15.5 -101.5 46.5s-34.5 71.833 -34.5 122.5zM307.997 573.002
c-5.33301 14.667 -8.00195 29.167 -8.00195 43.5s2.66699 28.833 8 43.5c16 9.33301 34.333 14 55 14s39 -4.66699 55 -14c5.33301 -12.667 8 -27.5 8 -44.5s-2.66699 -31.167 -8 -42.5c-15.333 -8.66699 -33.666 -13 -54.999 -13s-39.666 4.33301 -54.999 13z
M115.995 573.002c-5.33301 12.667 -8.00195 27.168 -8.00195 43.501s2.66699 30.833 8 43.5c16 9.33301 34.333 14 55 14s39 -4.66699 55 -14c5.33301 -14.667 8 -29.334 8 -44.001s-2.66699 -29 -8 -43c-15.333 -8.66699 -33.666 -13 -54.999 -13
s-39.666 4.33301 -54.999 13z" />
    <glyph glyph-name="yacute" unicode="&#xfd;" horiz-adv-x="479" 
d="M470 484l-128.999 -469.002c-22 -80.667 -49.5 -139.834 -82.5 -177.501s-82.5 -56.5 -148.5 -56.5c-36 0 -71.333 6 -106 18v16.5c0 7.66699 2.16699 19.334 6.5 35.001s10.833 28.167 19.5 37.5c28 -9.33301 55.667 -14 83 -14c52 0 88 35.667 108 107l4 13
c-24 0.666992 -43.167 5.33398 -57.5 14.001s-24.5 23.334 -30.5 44.001l-125 434c26.667 12 52 18 76 18c31.333 0 51.666 -18 60.999 -54l59 -216c2 -6 12.667 -53 32 -141c0.666992 -4.66699 3.66699 -7 9 -7l101 410c15.333 3.33301 34 5 56 5s42 -3 60 -9z
M157.001 587.998l148 163.001c17.333 -6 33.833 -16.167 49.5 -30.5s26.167 -29.833 31.5 -46.5l-177 -135c-24.667 7.33301 -42 23.666 -52 48.999z" />
    <glyph glyph-name="thorn" unicode="&#xfe;" 
d="M444.5 437c31 -45.333 46.5 -108.167 46.5 -188.5s-19 -143.333 -57 -189s-83 -68.5 -135 -68.5c-36.667 0 -73 9.33301 -109 28v-158c0 -28 -4.83301 -47.833 -14.5 -59.5s-27.167 -17.5 -52.5 -17.5h-45l-7 7v938l7 7h45c25.333 0 42.833 -5.83301 52.5 -17.5
s14.5 -31.5 14.5 -59.5v-203c37.333 32.667 81.333 49 132 49s91.5 -22.667 122.5 -68zM286 403.999c-37.333 0 -69.333 -18.6689 -96 -56.002v-230c31.333 -21.333 60.333 -32 87 -32s48 14.333 64 43s24 69.334 24 122.001s-7.33301 91.334 -22 116.001s-33.667 37 -57 37
z" />
    <glyph glyph-name="ydieresis" unicode="&#xff;" horiz-adv-x="479" 
d="M470 484l-128.999 -469.002c-22 -80.667 -49.5 -139.834 -82.5 -177.501s-82.5 -56.5 -148.5 -56.5c-36 0 -71.333 6 -106 18v16.5c0 7.66699 2.16699 19.334 6.5 35.001s10.833 28.167 19.5 37.5c28 -9.33301 55.667 -14 83 -14c52 0 88 35.667 108 107l4 13
c-24 0.666992 -43.167 5.33398 -57.5 14.001s-24.5 23.334 -30.5 44.001l-125 434c26.667 12 52 18 76 18c31.333 0 51.666 -18 60.999 -54l59 -216c2 -6 12.667 -53 32 -141c0.666992 -4.66699 3.66699 -7 9 -7l101 410c15.333 3.33301 34 5 56 5s42 -3 60 -9z
M279.001 572.998c-5.33301 14.667 -8.00195 29.167 -8.00195 43.5s2.66699 28.833 8 43.5c16.667 9.33301 35 14 55 14s38.333 -4.66699 55 -14c5.33301 -12.667 8 -27.5 8 -44.5s-2.66699 -31.167 -8 -42.5c-15.333 -8.66699 -33.666 -13 -54.999 -13
s-39.666 4.33301 -54.999 13zM86.999 572.998c-5.33301 12.667 -8.00195 27.168 -8.00195 43.501s2.66699 30.833 8 43.5c16 9.33301 34.167 14 54.5 14s38.833 -4.66699 55.5 -14c5.33301 -14.667 8 -29.334 8 -44.001s-2.66699 -29 -8 -43
c-15.333 -8.66699 -33.666 -13 -54.999 -13s-39.666 4.33301 -54.999 13z" />
    <glyph glyph-name="Aogonek" unicode="&#x104;" horiz-adv-x="622" 
d="M236 156l-51 0.999023l-49 -158c-13.333 -3.33301 -32.333 -5 -57 -5s-44.334 3 -59.001 9l-5 6l224 674c22 3.33301 47.333 5 76 5s52 -2 70 -6l221 -674c-58 -33.333 -87 -68 -87 -104c0 -13.333 4.33301 -23.666 13 -30.999s20.834 -11 36.501 -11
s32.834 5.33301 51.501 16c16.667 -14.667 25.667 -34 27 -58c-28.667 -25.333 -62.5 -38 -101.5 -38s-69 8.66699 -90 26s-31.5 40.666 -31.5 69.999c0 43.333 22.667 84.333 68 123c-14.667 8.66699 -26.334 28.334 -35.001 59.001l-30 97l-52 -1h-139zM216 258.999l47 1
h89c2 0 8.5 -0.166992 19.5 -0.5s19.167 -0.5 24.5 -0.5l-34 112c-18.667 59.333 -36.667 123 -54 191h-5c-8 -40.667 -22.333 -94.667 -43 -162z" />
    <glyph glyph-name="aogonek" unicode="&#x105;" horiz-adv-x="539" 
d="M471 -122c16.667 -14 25.999 -33.335 27.999 -58.002c-30 -25.333 -64.333 -38 -103 -38s-68.334 8.66699 -89.001 26s-31 40.666 -31 69.999c0 52 29.333 99 88 141c-10.667 8.66699 -19.667 19.334 -27 32.001c-44.667 -43.333 -92.667 -65 -144 -65s-90 15 -116 45
s-39 64.667 -39 104c0 56 18.167 98.167 54.5 126.5s82.833 42.5 139.5 42.5c30.667 0 59.667 -1.33301 87 -4v30c0 52.667 -25.333 79 -76 79c-36 0 -87 -12 -153 -36c-19.333 20.667 -30.333 50.334 -33 89.001c72 30 144 45 216 45c50 0 90.667 -14 122 -42
s47 -70.333 47 -127v-204c0 -34 10.667 -59.667 32 -77c-7.33301 -22 -24 -45 -50 -69c-36 -31.333 -54 -59.333 -54 -84c0 -13.333 4.33301 -23.666 13 -30.999s20.834 -11 36.501 -11s32.834 5.33301 51.501 16zM218.999 80.998c34.667 0 67.999 16 99.999 48v89
c-23.333 2.66699 -48.666 4 -75.999 4s-48 -7 -62 -21s-21 -31.667 -21 -53s5.33301 -37.833 16 -49.5s25 -17.5 43 -17.5z" />
    <glyph glyph-name="Cacute" unicode="&#x106;" horiz-adv-x="606" 
d="M450 433v8c0 42 -9.83301 78.167 -29.5 108.5s-52.5 45.5 -98.5 45.5c-96 0 -144 -85.667 -144 -257c0 -77.333 13.5 -136.833 40.5 -178.5s66.167 -62.5 117.5 -62.5s108.666 24.667 171.999 74c13.333 -9.33301 26 -21.833 38 -37.5s19.667 -30.5 23 -44.5
c-30 -30 -68 -54.667 -114 -74s-93.667 -29 -143 -29s-91.666 10 -126.999 30s-63 47.333 -83 82c-38.667 66 -58 146.333 -58 241c0 118 26.5 207.167 79.5 267.5s118.167 90.5 195.5 90.5s138.833 -19.5 184.5 -58.5s68.5 -86.167 68.5 -141.5c0 -47.333 -24 -71 -72 -71
c-17.333 0 -34 2.33301 -50 7zM213 791l211 127c11.333 -8.66699 22.333 -22.667 33 -42s17 -38 19 -56l-227 -91c-9.33301 5.33301 -17.333 14 -24 26s-10.667 24 -12 36z" />
    <glyph glyph-name="cacute" unicode="&#x107;" horiz-adv-x="472" 
d="M327 293l0.000976562 12.001c0 33.333 -5.16699 60.166 -15.5 80.499s-30.5 30.5 -60.5 30.5c-56.667 0 -85 -55.167 -85 -165.5s34.333 -165.5 103 -165.5c34.667 0 73.667 16 117 48c10.667 -6.66699 20.667 -17 30 -31s15.666 -27.667 18.999 -41
c-50 -50 -110.667 -75 -182 -75s-124.833 24 -160.5 72s-53.5 113.333 -53.5 196s21 146 63 190s92 66 150 66s103.833 -15.5 137.5 -46.5s50.5 -68 50.5 -111s-20.667 -64.5 -62 -64.5c-15.333 0 -32.333 1.66699 -51 5zM170.001 588.001l148 163.001
c17.333 -6 33.833 -16.167 49.5 -30.5s26.167 -29.833 31.5 -46.5l-177 -135c-24.667 7.33301 -42 23.666 -52 48.999z" />
    <glyph glyph-name="Ccaron" unicode="&#x10c;" horiz-adv-x="606" 
d="M450 433v8c0 42 -9.83301 78.167 -29.5 108.5s-52.5 45.5 -98.5 45.5c-96 0 -144 -85.667 -144 -257c0 -77.333 13.5 -136.833 40.5 -178.5s66.167 -62.5 117.5 -62.5s108.666 24.667 171.999 74c13.333 -9.33301 26 -21.833 38 -37.5s19.667 -30.5 23 -44.5
c-30 -30 -68 -54.667 -114 -74s-93.667 -29 -143 -29s-91.666 10 -126.999 30s-63 47.333 -83 82c-38.667 66 -58 146.333 -58 241c0 118 26.5 207.167 79.5 267.5s118.167 90.5 195.5 90.5s138.833 -19.5 184.5 -58.5s68.5 -86.167 68.5 -141.5c0 -47.333 -24 -71 -72 -71
c-17.333 0 -34 2.33301 -50 7zM205 904l115.001 -75l117 84c10 -3.33301 20.667 -10 32 -20s18.333 -20.667 21 -32l-117 -117c-16.667 -4 -34 -6 -52 -6s-36.333 1.66699 -55 5l-112 108c3.33301 12 10.166 22.833 20.499 32.5s20.5 16.5 30.5 20.5z" />
    <glyph glyph-name="ccaron" unicode="&#x10d;" horiz-adv-x="472" 
d="M327 293l0.000976562 12.001c0 33.333 -5.16699 60.166 -15.5 80.499s-30.5 30.5 -60.5 30.5c-56.667 0 -85 -55.167 -85 -165.5s34.333 -165.5 103 -165.5c34.667 0 73.667 16 117 48c10.667 -6.66699 20.667 -17 30 -31s15.666 -27.667 18.999 -41
c-50 -50 -110.667 -75 -182 -75s-124.833 24 -160.5 72s-53.5 113.333 -53.5 196s21 146 63 190s92 66 150 66s103.833 -15.5 137.5 -46.5s50.5 -68 50.5 -111s-20.667 -64.5 -62 -64.5c-15.333 0 -32.333 1.66699 -51 5zM157.001 736.001l93 -88.999l100 97
c23.333 -8.66699 42 -25.334 56 -50.001l-107 -135c-14.667 -5.33301 -26.667 -8 -36 -8c-28 0 -50.333 2.33301 -67 7l-95 126c5.33301 12 13.5 22.833 24.5 32.5s21.5 16.167 31.5 19.5z" />
    <glyph glyph-name="Dcaron" unicode="&#x10e;" horiz-adv-x="656" 
d="M587.5 514c15 -48 22.5 -105.499 22.5 -172.499s-7.5 -124.667 -22.5 -173s-43.5 -89.5 -85.5 -123.5c-20.667 -16.667 -47.834 -29.167 -81.501 -37.5s-67.834 -12.5 -102.501 -12.5s-110 1.33301 -226 4l-7 6v673l7 6c76.667 2.66699 154 4 232 4
c30.667 0 62.834 -4.33301 96.501 -13s60.834 -21.334 81.501 -38.001c42 -34 70.5 -75 85.5 -123zM473.5 254.501c3.66699 25.667 5.49902 54.665 5.49902 86.998s-1.83301 61.333 -5.5 87s-10.667 51.334 -21 77.001s-26.5 45.667 -48.5 60s-52.667 21.5 -92 21.5
s-72.666 0.333008 -99.999 1v-492h111c32 0 59 7.16699 81 21.5s38.167 34.333 48.5 60s17.333 51.334 21 77.001zM194.999 902.999l115.001 -75l117 84c10 -3.33301 20.667 -10 32 -20s18.333 -20.667 21 -32l-117 -117c-16.667 -4 -34 -6 -52 -6s-36.333 1.66699 -55 5
l-112 108c3.33301 12 10.166 22.833 20.499 32.5s20.5 16.5 30.5 20.5z" />
    <glyph glyph-name="dcaron" unicode="&#x10f;" horiz-adv-x="623" 
d="M84 55.5c-30 46.333 -45.002 109.832 -45.002 190.499s19.167 144 57.5 190s84.5 69 138.5 69c34 0 69 -9.33301 105 -28v252l6 7h48c24.667 0 42 -5.83301 52 -17.5s15 -31.5 15 -59.5v-517c0 -41.333 9.33301 -70 28 -86
c-3.33301 -11.333 -9.16602 -23.166 -17.499 -35.499s-16.833 -21.833 -25.5 -28.5c-42 6 -71.667 26 -89 60c-39.333 -44 -87.166 -66 -143.499 -66s-99.5 23.167 -129.5 69.5zM244.998 87.999c36.667 0 68.333 18 95 54v236c-34 20.667 -63.667 31 -89 31
s-45.833 -14.5 -61.5 -43.5s-23.5 -69.833 -23.5 -122.5s7.33301 -91.667 22 -117s33.667 -38 57 -38zM591.997 557.999c-8.66699 -2.66699 -19.667 -4 -33 -4s-26 3 -38 9l11 222c9.33301 2.66699 19 4 29 4c35.333 0 62 -6.66699 80 -20z" />
    <glyph glyph-name="Eogonek" unicode="&#x118;" horiz-adv-x="571" 
d="M210 163l-1 -59c28 1.33301 51 2 69 2h248c0 -20.667 -0.666992 -36.334 -2 -47.001c-5.33301 -27.333 -19.333 -45.333 -42 -54c-30.667 -13.333 -53.167 -29 -67.5 -47s-21.5 -34.833 -21.5 -50.5s4.16699 -27.167 12.5 -34.5s20.333 -11 36 -11
s32.834 5.33301 51.501 16c18 -15.333 27.333 -34.666 28 -57.999c-30 -25.333 -64.333 -38 -103 -38s-68.334 8.66699 -89.001 26s-31 41 -31 71c0 46 22 85.667 66 119h-207c-22.667 0 -40.5 6.83301 -53.5 20.5s-19.5 32.5 -19.5 56.5v601l7 7h413
c3.33301 -16 5 -32.5 5 -49.5s-3.33301 -36.167 -10 -57.5h-290l1 -68v-112c16 0.666992 37.333 1 64 1h174c4.66699 -16 7 -33.5 7 -52.5s-2.33301 -36.5 -7 -52.5h-174c-26.667 0 -48 0.333008 -64 1v-130z" />
    <glyph glyph-name="eogonek" unicode="&#x119;" horiz-adv-x="499" 
d="M446 208l-280.002 -0.00195312c2 -39.333 10.833 -69.833 26.5 -91.5s43.167 -32.5 82.5 -32.5s83 11.667 131 35c18.667 -18 30.667 -43.333 36 -76c-21.333 -14.667 -42.666 -26 -63.999 -34c-46 -33.333 -69 -68.333 -69 -105c0 -13.333 4.33301 -23.666 13 -30.999
s20.834 -11 36.501 -11s32.834 5.33301 51.501 16c16.667 -14.667 25.667 -34 27 -58c-28.667 -25.333 -62.5 -38 -101.5 -38s-68.833 8.83301 -89.5 26.5s-31 43.334 -31 77.001s18.667 67.5 56 101.5c-4.66699 -0.666992 -11.334 -1 -20.001 -1
c-76 0 -130.333 24.333 -163 73s-49 111.667 -49 189s18 140.333 54 189s87.5 73 154.5 73s118.5 -20.167 154.5 -60.5s54 -91.166 54 -152.499c0 -30.667 -3.33301 -60.334 -10 -89.001zM252.998 419.998c-54.667 0 -84 -41.333 -88 -124h174v12c0 33.333 -7 60.333 -21 81
s-35.667 31 -65 31z" />
    <glyph glyph-name="Ecaron" unicode="&#x11a;" horiz-adv-x="569" 
d="M210 163l-1.00098 -58.999c28 1.33301 51 2 69 2h248c0 -20.667 -0.666992 -36.334 -2 -47.001c-7.33301 -40.667 -34.666 -61 -81.999 -61h-285c-22.667 0 -40.5 6.83301 -53.5 20.5s-19.5 32.5 -19.5 56.5v601l7 7h413c3.33301 -16 5 -32.5 5 -49.5
s-3.33301 -36.167 -10 -57.5h-290l1 -68v-112c16 0.666992 37.333 1 64 1h174c4.66699 -16 7 -33.5 7 -52.5s-2.33301 -36.5 -7 -52.5h-174c-26.667 0 -48 0.333008 -64 1v-130zM180.999 903.001l115.001 -75l117 84c10 -3.33301 20.667 -10 32 -20s18.333 -20.667 21 -32
l-117 -117c-16.667 -4 -34 -6 -52 -6s-36.333 1.66699 -55 5l-112 108c3.33301 12 10.166 22.833 20.499 32.5s20.5 16.5 30.5 20.5z" />
    <glyph glyph-name="ecaron" unicode="&#x11b;" horiz-adv-x="499" 
d="M446 208h-280c2 -39.333 10.833 -69.833 26.5 -91.5s43.167 -32.5 82.5 -32.5s83 11.667 131 35c18.667 -18 30.667 -43.333 36 -76c-53.333 -38 -117.5 -57 -192.5 -57s-128.833 24.333 -161.5 73s-49 111.667 -49 189s18 140.333 54 189s87.5 73 154.5 73
s118.5 -20.167 154.5 -60.5s54 -91.166 54 -152.499c0 -30.667 -3.33301 -60.334 -10 -89.001zM253 420c-54.667 0 -84 -41.333 -88 -124h174v12c0 33.333 -7 60.333 -21 81s-35.667 31 -65 31zM160 736l93 -88.999l100 97c23.333 -8.66699 42 -25.334 56 -50.001l-107 -135
c-14.667 -5.33301 -26.667 -8 -36 -8c-28 0 -50.333 2.33301 -67 7l-95 126c5.33301 12 13.5 22.833 24.5 32.5s21.5 16.167 31.5 19.5z" />
    <glyph glyph-name="Hbar" unicode="&#x126;" horiz-adv-x="688" 
d="M216 298l0.998047 -74.001v-224c-17.333 -3.33301 -38.833 -5 -64.5 -5s-46.834 1.66699 -63.501 5v492h-68c-4 12.667 -6 28.334 -6 47.001s2 34.667 6 48h68v96c16.667 3.33301 37.834 5 63.501 5s47.167 -1.66699 64.5 -5v-96h254v96c16.667 3.33301 38 5 64 5
s47.333 -1.66699 64 -5v-96h69c3.33301 -14 5 -30 5 -48s-1.66699 -33.667 -5 -47h-69v-492c-17.333 -3.33301 -38.666 -5 -63.999 -5s-46.666 1.66699 -63.999 5v224l1 74l-54 -1h-148zM215.998 401.999l54 1h148l54 -1l-1 76v14h-254v-14z" />
    <glyph glyph-name="hbar" unicode="&#x127;" horiz-adv-x="546" 
d="M195 659l0.00195312 -16l153 3c4 -16 6 -30 6 -42s-2 -25.333 -6 -40l-153 2v-124c47.333 41.333 95 62 143 62s83.5 -15.5 106.5 -46.5s34.5 -71.833 34.5 -122.5v-222c0 -40.667 6.66699 -72 20 -94c-20.667 -17.333 -44.834 -26 -72.501 -26s-46.5 6.33301 -56.5 19
s-15 32.334 -15 59.001v237c0 30.667 -3.83301 52.5 -11.5 65.5s-21.834 19.5 -42.501 19.5c-38 0 -73.333 -17.333 -106 -52v-341c-18.667 -3.33301 -38.5 -5 -59.5 -5s-41.5 1.66699 -61.5 5v565l-72 -1c-3.33301 12.667 -5 26.167 -5 40.5s1.66699 28.166 5 41.499l72 -2
v85l7 7h47c25.333 0 42.833 -5.83301 52.5 -17.5s14.5 -31.5 14.5 -59.5z" />
    <glyph glyph-name="Itilde" unicode="&#x128;" horiz-adv-x="303" 
d="M88 0v683c16 3.33301 37 5 63 5s47.333 -1.66699 64 -5v-683c-16.667 -3.33301 -38 -5 -64 -5s-47 1.66699 -63 5zM159 758l-51.999 25c-10.667 6 -22.167 9 -34.5 9s-24.5 -8 -36.5 -24l-10 -14c-12.667 0.666992 -25.167 4.5 -37.5 11.5s-20.5 15.833 -24.5 26.5l8 19
c11.333 24 26.666 43.167 45.999 57.5s40 21.5 62 21.5s43.667 -5.66699 65 -17l52 -25c12 -6 23.667 -9 35 -9s23.333 8.33301 36 25l10 14c12.667 -0.666992 25 -4.66699 37 -12s20.333 -16 25 -26l-8 -19c-24.667 -52.667 -61.667 -79 -111 -79
c-20 0 -40.667 5.33301 -62 16z" />
    <glyph glyph-name="itilde" unicode="&#x129;" horiz-adv-x="277" 
d="M208 399v-398.999c-18.667 -3.33301 -39 -5 -61 -5s-43 1.66699 -63 5v353c0 36 -15 54 -45 54h-12c-3.33301 11.333 -5 25.666 -5 42.999s1.66699 32.333 5 45c24 2.66699 48.333 4 73 4h16c28.667 0 51.167 -9 67.5 -27s24.5 -42.333 24.5 -73zM133 572.001
l-50.0029 25c-10.667 6 -21.667 9 -33 9s-23.333 -8.33301 -36 -25l-10 -14c-12 0.666992 -23.833 4.5 -35.5 11.5s-19.5 15.833 -23.5 26.5l8 20c10.667 24 25.334 43.167 44.001 57.5s38.334 21.5 59.001 21.5s41.667 -5.33301 63 -16l50 -26c12 -6 23.333 -9 34 -9
s22.334 8.33301 35.001 25l10 14c12 -0.666992 23.667 -4.5 35 -11.5s19.333 -15.833 24 -26.5l-8 -20c-10.667 -24.667 -25.5 -44 -44.5 -58s-39 -21 -60 -21s-41.5 5.66699 -61.5 17z" />
    <glyph glyph-name="dotlessi" unicode="&#x131;" horiz-adv-x="282" 
d="M212 399v-398.999c-18.667 -3.33301 -39 -5 -61 -5s-43 1.66699 -63 5v353c0 36 -15 54 -45 54h-12c-3.33301 11.333 -5 25.666 -5 42.999s1.66699 32.333 5 45c24 2.66699 48.333 4 73 4h16c28.667 0 51.167 -9 67.5 -27s24.5 -42.333 24.5 -73z" />
    <glyph glyph-name="IJ" unicode="&#x132;" horiz-adv-x="756" 
d="M88 0v683c16 3.33301 37 5 63 5s47.333 -1.66699 64 -5v-683c-16.667 -3.33301 -38 -5 -64 -5s-47 1.66699 -63 5zM354 128c34.667 -21.333 69.333 -31.999 104 -31.999s59.334 11.333 74.001 34s22 59 22 109v444c16.667 3.33301 38 5 64 5s47.333 -1.66699 64 -5v-429
c0 -104.667 -20.667 -176.334 -62 -215.001c-34.667 -32.667 -83.834 -49 -147.501 -49s-118.5 14.333 -164.5 43c6.66699 37.333 22 69 46 95z" />
    <glyph glyph-name="ij" unicode="&#x133;" horiz-adv-x="564" 
d="M212 399v-398.999c-18.667 -3.33301 -39 -5 -61 -5s-43 1.66699 -63 5v353c0 36 -15 54 -45 54h-12c-3.33301 11.333 -5 25.666 -5 42.999s1.66699 32.333 5 45c24 2.66699 48.333 4 73 4h16c28.667 0 51.167 -9 67.5 -27s24.5 -42.333 24.5 -73zM67 586.001
c-6.66699 15.333 -10 31.833 -10 49.5s3.33301 34.167 10 49.5c17.333 9.33301 38.833 14 64.5 14s46.167 -4.66699 61.5 -14c6.66699 -15.333 10 -31.833 10 -49.5s-3.33301 -34.167 -10 -49.5c-15.333 -9.33301 -36.833 -14 -64.5 -14s-48.167 4.66699 -61.5 14z
M495 399.001l-0.000976562 -377c0 -58 -4.16699 -99.667 -12.5 -125s-18.5 -44.333 -30.5 -57c-24.667 -27.333 -64.667 -47.333 -120 -60c-20 18 -31.667 43.333 -35 76c28.667 14 48.334 29.333 59.001 46s16 42.334 16 77.001v374c0 36 -15 54 -45 54h-21
c-3.33301 11.333 -5 25.666 -5 42.999s1.66699 32.333 5 45c26.667 2.66699 54 4 82 4h17c28 0 50 -8.83301 66 -26.5s24 -42.167 24 -73.5zM347.999 586.001c-6.66699 15.333 -10 31.833 -10 49.5s3.33301 34.167 10 49.5c17.333 9.33301 38.833 14 64.5 14
s46.167 -4.66699 61.5 -14c6.66699 -15.333 10 -31.833 10 -49.5s-3.33301 -34.167 -10 -49.5c-15.333 -9.33301 -36.833 -14 -64.5 -14s-48.167 4.66699 -61.5 14z" />
    <glyph glyph-name="Jcircumflex" unicode="&#x134;" horiz-adv-x="457" 
d="M56 128c34.667 -21.333 69.333 -31.999 104 -31.999s59.334 11.333 74.001 34s22 59 22 109v444c16.667 3.33301 38 5 64 5s47.333 -1.66699 64 -5v-429c0 -104.667 -20.667 -176.334 -62 -215.001c-34.667 -32.667 -83.834 -49 -147.501 -49s-118.5 14.333 -164.5 43
c6.66699 37.333 22 69 46 95zM433.999 736.001l-114.001 74.999l-117 -84c-10 3.33301 -20.5 10.333 -31.5 21s-17.833 21.334 -20.5 32.001l115 116c17.333 4 34.833 6 52.5 6s35.834 -1.66699 54.501 -5l113 -108c-4 -12 -11.167 -22.833 -21.5 -32.5
s-20.5 -16.5 -30.5 -20.5z" />
    <glyph glyph-name="jcircumflex" unicode="&#x135;" horiz-adv-x="281" 
d="M213 399l-0.000976562 -377c0 -58 -4.16699 -99.667 -12.5 -125s-18.5 -44.333 -30.5 -57c-24.667 -27.333 -64.667 -47.333 -120 -60c-20 18 -31.667 43.333 -35 76c28.667 14 48.334 29.333 59.001 46s16 42.334 16 77.001v374c0 36 -15 54 -45 54h-21
c-3.33301 11.333 -5 25.666 -5 42.999s1.66699 32.333 5 45c26.667 2.66699 54 4 82 4h17c28 0 50 -8.83301 66 -26.5s24 -42.167 24 -73.5zM224.999 548l-92.998 90.001l-99 -96c-24.667 10 -43.334 26.667 -56.001 50l106 134c15.333 5.33301 31.666 8 48.999 8
s35.333 -2.33301 54 -7l95 -126c-10 -24.667 -28.667 -42.334 -56 -53.001z" />
    <glyph glyph-name="Kcommaaccent" unicode="&#x136;" horiz-adv-x="606" 
d="M593 32c-18 -26 -46.333 -38.9971 -85 -38.9971c-22.667 0 -39.5 5.66699 -50.5 17s-21.167 30.666 -30.5 57.999l-47 135c-12.667 35.333 -27.167 60.166 -43.5 74.499s-38.166 21.5 -65.499 21.5c-6 0 -25.667 -0.666992 -59 -2v-297c-16.667 -3.33301 -38 -5 -64 -5
s-47 1.66699 -63 5v683c16 3.33301 37 5 63 5s47.333 -1.66699 64 -5v-277l44 1c10.667 0 18.667 2 24 6s11 12 17 24l116 202c9.33301 17.333 18.833 29.666 28.5 36.999s25.167 11 46.5 11s44.666 -1 69.999 -3l8 -10l-140 -246c-12.667 -23.333 -28 -43 -46 -59
c31.333 -6 55.5 -18.667 72.5 -38s31.833 -46.333 44.5 -81l49 -137c13.333 -38 29 -65 47 -81zM267 -72.9971c19.333 14 40 20.999 62 20.999s39.333 -2.33301 52 -7c6.66699 -13.333 10 -31.666 10 -54.999c0 -36 -12 -68.167 -36 -96.5s-57 -49.5 -99 -63.5
c-21.333 6.66699 -34.333 23.667 -39 51c42 26 63 58.667 63 98c0 18.667 -4.33301 36 -13 52z" />
    <glyph glyph-name="kcommaaccent" unicode="&#x137;" horiz-adv-x="510" 
d="M419 191l29.999 -78.999c14.667 -42 30.667 -69 48 -81c-22.667 -25.333 -50.334 -38 -83.001 -38c-19.333 0 -33.833 4.66699 -43.5 14s-18.834 25.333 -27.501 48l-36 94c-9.33301 24 -19.166 40 -29.499 48s-22.833 12 -37.5 12s-30.667 -0.666992 -48 -2v-207
c-18.667 -3.33301 -38.5 -5 -59.5 -5s-41.5 1.66699 -61.5 5v729l7 7h47c25.333 0 42.833 -5.83301 52.5 -17.5s14.5 -31.5 14.5 -59.5v-349l27 1c10 0 18.667 5.33301 26 16l73 123c18.667 32.667 43.334 49 74.001 49s53.667 -0.333008 69 -1l6 -8l-97 -164
c-12 -20.667 -25.333 -36 -40 -46c40.667 -12.667 70.334 -42.334 89.001 -89.001zM217.999 -72.999c19.333 14 40 20.999 62 20.999s39.333 -2.33301 52 -7c6.66699 -13.333 10 -31.666 10 -54.999c0 -36 -12 -68.167 -36 -96.5s-57 -49.5 -99 -63.5
c-21.333 6.66699 -34.333 23.667 -39 51c42 26 63 58.667 63 98c0 18.667 -4.33301 36 -13 52z" />
    <glyph glyph-name="kgreenlandic" unicode="&#x138;" horiz-adv-x="510" 
d="M419 191l29.999 -78.999c14.667 -42 30.667 -69 48 -81c-22.667 -25.333 -50.334 -38 -83.001 -38c-19.333 0 -33.833 4.66699 -43.5 14s-18.834 25.333 -27.501 48l-36 94c-9.33301 24 -19.166 40 -29.499 48s-22.833 12 -37.5 12s-30.667 -0.666992 -48 -2v-207
c-18.667 -3.33301 -38.5 -5 -59.5 -5s-41.5 1.66699 -61.5 5v495l7 6h47c25.333 0 42.833 -5.83301 52.5 -17.5s14.5 -31.5 14.5 -59.5v-114l27 1c10 0 18.667 5.33301 26 16l73 123c18.667 32.667 43.334 49 74.001 49s53.667 -0.333008 69 -1l6 -8l-97 -164
c-12 -20.667 -25.333 -36 -40 -46c40.667 -12.667 70.334 -42.334 89.001 -89.001z" />
    <glyph glyph-name="Ldot" unicode="&#x13f;" horiz-adv-x="516" 
d="M302 108l189 0.000976562c0 -22 -1 -38 -3 -48c-7.33301 -41.333 -35 -62 -83 -62h-247c-22.667 0 -40.667 6.83301 -54 20.5s-20 32.5 -20 56.5v607l7 6h47c25.333 0 44 -6.33301 56 -19s18 -33.334 18 -62.001v-502c32 2 62 3 90 3zM345 306.001
c-6 13.333 -9.00098 30.167 -9.00098 50.5s3 37.833 9 52.5c16.667 9.33301 36.334 14 59.001 14s41.667 -4.66699 57 -14c5.33301 -13.333 8 -31 8 -53s-2.66699 -38.667 -8 -50c-12.667 -10 -31.667 -15 -57 -15s-45 5 -59 15z" />
    <glyph glyph-name="ldot" unicode="&#x140;" horiz-adv-x="370" 
d="M232 92h33c6.66699 -20 10 -37.667 10 -53s-1 -27 -3 -35c-38.667 -6 -70 -9 -94 -9c-72 0 -108 39 -108 117v617l6 7h48c24.667 0 42 -5.83301 52 -17.5s15 -31.5 15 -59.5v-522c0 -30 13.667 -45 41 -45zM257 306c-6 13.333 -9.00098 30.167 -9.00098 50.5
s3 37.833 9 52.5c16.667 9.33301 36.334 14 59.001 14s41.667 -4.66699 57 -14c5.33301 -13.333 8 -31 8 -53s-2.66699 -38.667 -8 -50c-12.667 -10 -31.667 -15 -57 -15s-45 5 -59 15z" />
    <glyph glyph-name="Lslash" unicode="&#x141;" horiz-adv-x="524" 
d="M220 607v-190l167 58l9 -5c5.33301 -14.667 8 -30 8 -46s-1.66699 -32.333 -5 -49l-179 -59v-211c32 2 62 3 90 3h190c0 -18.667 -1.33301 -34.667 -4 -48c-7.33301 -41.333 -35 -62 -83 -62h-247c-22.667 0 -40.667 6.83301 -54 20.5s-20 32.5 -20 56.5v201l-69 -24
l-9 5c-4.66699 14 -7 29 -7 45s1.66699 32.667 5 50l80 27v303l7 6h48c25.333 0 43.833 -6.5 55.5 -19.5s17.5 -33.5 17.5 -61.5z" />
    <glyph glyph-name="lslash" unicode="&#x142;" horiz-adv-x="344" 
d="M263 92h32.999c6.66699 -17.333 10 -35 10 -53s-0.666992 -29.667 -2 -35c-38.667 -6 -70 -9 -94 -9c-37.333 0 -64.666 9.5 -81.999 28.5s-26 48.5 -26 88.5v177l-69 -35l-9 5c-4.66699 14.667 -7 29.667 -7 45s1.66699 30.666 5 45.999l80 40v339l6 7h47
c24.667 0 42 -5.83301 52 -17.5s15 -31.5 15 -59.5v-208l77 40l9 -5c4.66699 -13.333 7 -27.666 7 -42.999s-1.66699 -31.333 -5 -48l-88 -45v-213c0 -30 13.667 -45 41 -45z" />
    <glyph glyph-name="Nacute" unicode="&#x143;" horiz-adv-x="686" 
d="M595 688l5.99805 -6v-680c-18.667 -4.66699 -43 -7 -73 -7s-56.333 1.66699 -79 5l-191 396c-16.667 34 -37 80.333 -61 139l-4 -1c6.66699 -83.333 10 -172 10 -266v-268c-17.333 -3.33301 -37.166 -5 -59.499 -5s-41.833 1.66699 -58.5 5v681
c18.667 4.66699 42.834 7 72.501 7s55.5 -1.66699 77.5 -5l189 -395c17.333 -36 39.333 -85 66 -147l3 1c-6.66699 94.667 -10 184 -10 268v200c0 28 5.33301 48 16 60s28.667 18 54 18h42zM235.998 790l211 127c11.333 -8.66699 22.333 -22.667 33 -42s17 -38 19 -56
l-227 -91c-9.33301 5.33301 -17.333 14 -24 26s-10.667 24 -12 36z" />
    <glyph glyph-name="nacute" unicode="&#x144;" horiz-adv-x="546" 
d="M479 335v-222.001c0 -40.667 6.66699 -72 20 -94c-22 -17.333 -46.5 -26 -73.5 -26s-45.5 6.33301 -55.5 19s-15 32.334 -15 59.001v238c0 30 -4 51.5 -12 64.5s-22.333 19.5 -43 19.5c-38 0 -73 -16.667 -105 -50v-343c-18.667 -3.33301 -39 -5 -61 -5
s-43 1.66699 -63 5v495l7 6h46c38 0 60.667 -20 68 -60c48.667 42.667 97.167 64 145.5 64s84 -15.667 107 -47s34.5 -72.333 34.5 -123zM197 587.999l148 163.001c17.333 -6 33.833 -16.167 49.5 -30.5s26.167 -29.833 31.5 -46.5l-177 -135
c-24.667 7.33301 -42 23.666 -52 48.999z" />
    <glyph glyph-name="Ncaron" unicode="&#x147;" horiz-adv-x="686" 
d="M595 688l5.99805 -6v-680c-18.667 -4.66699 -43 -7 -73 -7s-56.333 1.66699 -79 5l-191 396c-16.667 34 -37 80.333 -61 139l-4 -1c6.66699 -83.333 10 -172 10 -266v-268c-17.333 -3.33301 -37.166 -5 -59.499 -5s-41.833 1.66699 -58.5 5v681
c18.667 4.66699 42.834 7 72.501 7s55.5 -1.66699 77.5 -5l189 -395c17.333 -36 39.333 -85 66 -147l3 1c-6.66699 94.667 -10 184 -10 268v200c0 28 5.33301 48 16 60s28.667 18 54 18h42zM227.998 903l115.001 -75l117 84c10 -3.33301 20.667 -10 32 -20
s18.333 -20.667 21 -32l-117 -117c-16.667 -4 -34 -6 -52 -6s-36.333 1.66699 -55 5l-112 108c3.33301 12 10.166 22.833 20.499 32.5s20.5 16.5 30.5 20.5z" />
    <glyph glyph-name="ncaron" unicode="&#x148;" horiz-adv-x="546" 
d="M479 335v-222.001c0 -40.667 6.66699 -72 20 -94c-22 -17.333 -46.5 -26 -73.5 -26s-45.5 6.33301 -55.5 19s-15 32.334 -15 59.001v238c0 30 -4 51.5 -12 64.5s-22.333 19.5 -43 19.5c-38 0 -73 -16.667 -105 -50v-343c-18.667 -3.33301 -39 -5 -61 -5
s-43 1.66699 -63 5v495l7 6h46c38 0 60.667 -20 68 -60c48.667 42.667 97.167 64 145.5 64s84 -15.667 107 -47s34.5 -72.333 34.5 -123zM184 735.999l93 -88.999l100 97c23.333 -8.66699 42 -25.334 56 -50.001l-107 -135c-14.667 -5.33301 -26.667 -8 -36 -8
c-28 0 -50.333 2.33301 -67 7l-95 126c5.33301 12 13.5 22.833 24.5 32.5s21.5 16.167 31.5 19.5z" />
    <glyph glyph-name="OE" unicode="&#x152;" horiz-adv-x="904" 
d="M551 163l-1 -59c28 1.33301 51.333 2 70 2h248c0 -20.667 -1 -36 -3 -46c-6 -40.667 -33 -61 -81 -61h-316c-58 -8.66699 -103.333 -13 -136 -13c-71.333 0 -131.333 20.333 -180 61c-72 61.333 -108 159.5 -108 294.5s36 233.167 108 294.5
c48.667 40.667 108.667 61 180 61c26 0 71 -4.66699 135 -14h379c3.33301 -16 5 -32.833 5 -50.5s-3.66699 -36.5 -11 -56.5h-290l1 -68v-112c16 0.666992 37.667 1 65 1h174c4.66699 -16 7 -33.5 7 -52.5s-2.33301 -36.5 -7 -52.5h-174c-27.333 0 -49 0.333008 -65 1v-130z
M332 86c28 0 60 4.66699 96 14v483c-36 9.33301 -68 14 -96 14c-104 0 -156 -85.167 -156 -255.5s52 -255.5 156 -255.5z" />
    <glyph glyph-name="oe" unicode="&#x153;" horiz-adv-x="818" 
d="M767 208h-277.999c2 -39.333 10.833 -69.833 26.5 -91.5s42.667 -32.5 81 -32.5s82.166 11.667 131.499 35c18.667 -18.667 30.667 -44 36 -76c-53.333 -38 -116 -57 -188 -57s-124.667 23.667 -158 71c-35.333 -47.333 -86 -71 -152 -71s-118 19 -156 57
c-47.333 46.667 -71 114.834 -71 204.501s23.667 158.167 71 205.5c38 38 90.167 57 156.5 57s117.5 -25 153.5 -75c34 50 84.167 75 150.5 75s117.333 -20 153 -60s53.5 -91 53.5 -153c0 -30.667 -3.33301 -60.334 -10 -89.001zM166.001 248c0 -112 31.5 -168 94.5 -168
s94.5 56 94.5 168s-31.5 168 -94.5 168s-94.5 -56 -94.5 -168zM576.001 420c-53.333 0 -82.666 -41.333 -87.999 -124h172v11c0 33.333 -6.83301 60.5 -20.5 81.5s-34.834 31.5 -63.501 31.5z" />
    <glyph glyph-name="Racute" unicode="&#x154;" horiz-adv-x="606" 
d="M550 478c0 -44.667 -12.165 -83.167 -36.498 -115.5s-54.166 -54.833 -89.499 -67.5c32.667 -11.333 57 -40.333 73 -87l39 -105c12.667 -34 28.334 -58 47.001 -72c-18.667 -26 -47.334 -39 -86.001 -39c-22 0 -38.5 5.83301 -49.5 17.5s-21.167 31.167 -30.5 58.5
l-45 123c-8.66699 24 -19.834 42.333 -33.501 55s-34.167 19 -61.5 19h-66v-265c-16.667 -3.33301 -37.834 -5 -63.501 -5s-46.5 1.66699 -62.5 5v678l7 6c105.333 2.66699 180 4 224 4c71.333 0 128.166 -18 170.499 -54s63.5 -88 63.5 -156zM211.002 590
l-0.000976562 -225c48 1.33301 80.333 2 97 2c74 0 111 37 111 111s-37 111 -111 111c-43.333 0 -75.666 0.333008 -96.999 1zM191.001 790l211 127c11.333 -8.66699 22.333 -22.667 33 -42s17 -38 19 -56l-227 -91c-9.33301 5.33301 -17.333 14 -24 26s-10.667 24 -12 36z
" />
    <glyph glyph-name="racute" unicode="&#x155;" horiz-adv-x="379" 
d="M42 438c2.66699 11.333 8.16895 23.5 16.502 36.5s16.833 22.5 25.5 28.5c52 -8 87 -37.667 105 -89c26.667 59.333 69.667 89 129 89c15.333 0 34.666 -2.33301 57.999 -7c0 -43.333 -10 -82 -30 -116c-10 2.66699 -25 4.66699 -45 6
c-40.667 0 -73.334 -21.667 -98.001 -65v-321c-18.667 -3.33301 -39 -5 -61 -5s-43 1.66699 -63 5v335c0 48.667 -12.333 83 -37 103zM123.002 588l148 163.001c17.333 -6 33.833 -16.167 49.5 -30.5s26.167 -29.833 31.5 -46.5l-177 -135
c-24.667 7.33301 -42 23.666 -52 48.999z" />
    <glyph glyph-name="Rcommaaccent" unicode="&#x156;" horiz-adv-x="606" 
d="M550 478c0 -44.667 -12.165 -83.167 -36.498 -115.5s-54.166 -54.833 -89.499 -67.5c32.667 -11.333 57 -40.333 73 -87l39 -105c12.667 -34 28.334 -58 47.001 -72c-18.667 -26 -47.334 -39 -86.001 -39c-22 0 -38.5 5.83301 -49.5 17.5s-21.167 31.167 -30.5 58.5
l-45 123c-8.66699 24 -19.834 42.333 -33.501 55s-34.167 19 -61.5 19h-66v-265c-16.667 -3.33301 -37.834 -5 -63.501 -5s-46.5 1.66699 -62.5 5v678l7 6c105.333 2.66699 180 4 224 4c71.333 0 128.166 -18 170.499 -54s63.5 -88 63.5 -156zM211.002 590
l-0.000976562 -225c48 1.33301 80.333 2 97 2c74 0 111 37 111 111s-37 111 -111 111c-43.333 0 -75.666 0.333008 -96.999 1zM265.001 -73c19.333 14 40 20.999 62 20.999s39.333 -2.33301 52 -7c6.66699 -13.333 10 -31.666 10 -54.999c0 -36 -12 -68.167 -36 -96.5
s-57 -49.5 -99 -63.5c-21.333 6.66699 -34.333 23.667 -39 51c42 26 63 58.667 63 98c0 18.667 -4.33301 36 -13 52z" />
    <glyph glyph-name="rcommaaccent" unicode="&#x157;" horiz-adv-x="379" 
d="M42 438c2.66699 11.333 8.16895 23.5 16.502 36.5s16.833 22.5 25.5 28.5c52 -8 87 -37.667 105 -89c26.667 59.333 69.667 89 129 89c15.333 0 34.666 -2.33301 57.999 -7c0 -43.333 -10 -82 -30 -116c-10 2.66699 -25 4.66699 -45 6
c-40.667 0 -73.334 -21.667 -98.001 -65v-321c-18.667 -3.33301 -39 -5 -61 -5s-43 1.66699 -63 5v335c0 48.667 -12.333 83 -37 103zM90.002 -73c19.333 14 40 20.999 62 20.999s39.333 -2.33301 52 -7c6.66699 -13.333 10 -31.666 10 -54.999c0 -36 -12 -68.167 -36 -96.5
s-57 -49.5 -99 -63.5c-21.333 6.66699 -34.333 23.667 -39 51c42 26 63 58.667 63 98c0 18.667 -4.33301 36 -13 52z" />
    <glyph glyph-name="Rcaron" unicode="&#x158;" horiz-adv-x="606" 
d="M550 478c0 -44.667 -12.165 -83.167 -36.498 -115.5s-54.166 -54.833 -89.499 -67.5c32.667 -11.333 57 -40.333 73 -87l39 -105c12.667 -34 28.334 -58 47.001 -72c-18.667 -26 -47.334 -39 -86.001 -39c-22 0 -38.5 5.83301 -49.5 17.5s-21.167 31.167 -30.5 58.5
l-45 123c-8.66699 24 -19.834 42.333 -33.501 55s-34.167 19 -61.5 19h-66v-265c-16.667 -3.33301 -37.834 -5 -63.501 -5s-46.5 1.66699 -62.5 5v678l7 6c105.333 2.66699 180 4 224 4c71.333 0 128.166 -18 170.499 -54s63.5 -88 63.5 -156zM211.002 590
l-0.000976562 -225c48 1.33301 80.333 2 97 2c74 0 111 37 111 111s-37 111 -111 111c-43.333 0 -75.666 0.333008 -96.999 1zM183.001 903l115.001 -75l117 84c10 -3.33301 20.667 -10 32 -20s18.333 -20.667 21 -32l-117 -117c-16.667 -4 -34 -6 -52 -6
s-36.333 1.66699 -55 5l-112 108c3.33301 12 10.166 22.833 20.499 32.5s20.5 16.5 30.5 20.5z" />
    <glyph glyph-name="rcaron" unicode="&#x159;" horiz-adv-x="379" 
d="M42 438c2.66699 11.333 8.16895 23.5 16.502 36.5s16.833 22.5 25.5 28.5c52 -8 87 -37.667 105 -89c26.667 59.333 69.667 89 129 89c15.333 0 34.666 -2.33301 57.999 -7c0 -43.333 -10 -82 -30 -116c-10 2.66699 -25 4.66699 -45 6
c-40.667 0 -73.334 -21.667 -98.001 -65v-321c-18.667 -3.33301 -39 -5 -61 -5s-43 1.66699 -63 5v335c0 48.667 -12.333 83 -37 103zM110.002 736l93 -88.999l100 97c23.333 -8.66699 42 -25.334 56 -50.001l-107 -135c-14.667 -5.33301 -26.667 -8 -36 -8
c-28 0 -50.333 2.33301 -67 7l-95 126c5.33301 12 13.5 22.833 24.5 32.5s21.5 16.167 31.5 19.5z" />
    <glyph glyph-name="Sacute" unicode="&#x15a;" horiz-adv-x="556" 
d="M24 61c4.66699 39.333 22.001 71.335 52.001 96.002c69.333 -44 136.333 -66 201 -66c34.667 0 61.667 7.66699 81 23s29 35.333 29 60c1.33301 39.333 -25.334 71 -80.001 95l-118 50c-92.667 41.333 -139 100.666 -139 177.999c0 57.333 22 105 66 143
s101.5 57 172.5 57s142.5 -18 214.5 -54c-2 -39.333 -16.667 -72 -44 -98c-64 32 -122.333 48 -175 48c-32.667 0 -58.167 -7.83301 -76.5 -23.5s-27.5 -34.5 -27.5 -56.5c0 -32.667 24.333 -59.334 73 -80.001l118 -50c100 -43.333 150 -107 150 -191
c0 -61.333 -21.667 -111 -65 -149s-107.5 -57 -192.5 -57s-164.833 25 -239.5 75zM176.001 790.002l211 127c11.333 -8.66699 22.333 -22.667 33 -42s17 -38 19 -56l-227 -91c-9.33301 5.33301 -17.333 14 -24 26s-10.667 24 -12 36z" />
    <glyph glyph-name="sacute" unicode="&#x15b;" horiz-adv-x="440" 
d="M26 36c0.666992 13.333 4.66699 28.502 12 45.502s16 30.167 26 39.5c53.333 -28.667 100 -43 140 -43c24 0 42.833 4.66699 56.5 14s20.5 21.666 20.5 36.999c0 26 -18.667 46 -56 60l-56 21c-84 31.333 -126 79.666 -126 144.999c0 46.667 17 84.167 51 112.5
s79.167 42.5 135.5 42.5s112.5 -13 168.5 -39c0.666992 -15.333 -2.5 -31.666 -9.5 -48.999s-15.833 -30.333 -26.5 -39c-49.333 22.667 -94.333 34 -135 34c-18.667 0 -33.5 -4.33301 -44.5 -13s-16.5 -20.334 -16.5 -35.001c0 -21.333 17.667 -38.333 53 -51l61 -23
c86 -32 129 -83.333 129 -154c0 -47.333 -17.833 -85 -53.5 -113s-85 -42 -148 -42s-123.5 16.667 -181.5 50zM139 588.002l148 163.001c17.333 -6 33.833 -16.167 49.5 -30.5s26.167 -29.833 31.5 -46.5l-177 -135c-24.667 7.33301 -42 23.666 -52 48.999z" />
    <glyph glyph-name="Scaron" unicode="&#x160;" horiz-adv-x="556" 
d="M24 61c4.66699 39.333 22.001 71.335 52.001 96.002c69.333 -44 136.333 -66 201 -66c34.667 0 61.667 7.66699 81 23s29 35.333 29 60c1.33301 39.333 -25.334 71 -80.001 95l-118 50c-92.667 41.333 -139 100.666 -139 177.999c0 57.333 22 105 66 143
s101.5 57 172.5 57s142.5 -18 214.5 -54c-2 -39.333 -16.667 -72 -44 -98c-64 32 -122.333 48 -175 48c-32.667 0 -58.167 -7.83301 -76.5 -23.5s-27.5 -34.5 -27.5 -56.5c0 -32.667 24.333 -59.334 73 -80.001l118 -50c100 -43.333 150 -107 150 -191
c0 -61.333 -21.667 -111 -65 -149s-107.5 -57 -192.5 -57s-164.833 25 -239.5 75zM168.001 903.002l115.001 -75l117 84c10 -3.33301 20.667 -10 32 -20s18.333 -20.667 21 -32l-117 -117c-16.667 -4 -34 -6 -52 -6s-36.333 1.66699 -55 5l-112 108
c3.33301 12 10.166 22.833 20.499 32.5s20.5 16.5 30.5 20.5z" />
    <glyph glyph-name="scaron" unicode="&#x161;" horiz-adv-x="440" 
d="M26 36c0.666992 13.333 4.66699 28.502 12 45.502s16 30.167 26 39.5c53.333 -28.667 100 -43 140 -43c24 0 42.833 4.66699 56.5 14s20.5 21.666 20.5 36.999c0 26 -18.667 46 -56 60l-56 21c-84 31.333 -126 79.666 -126 144.999c0 46.667 17 84.167 51 112.5
s79.167 42.5 135.5 42.5s112.5 -13 168.5 -39c0.666992 -15.333 -2.5 -31.666 -9.5 -48.999s-15.833 -30.333 -26.5 -39c-49.333 22.667 -94.333 34 -135 34c-18.667 0 -33.5 -4.33301 -44.5 -13s-16.5 -20.334 -16.5 -35.001c0 -21.333 17.667 -38.333 53 -51l61 -23
c86 -32 129 -83.333 129 -154c0 -47.333 -17.833 -85 -53.5 -113s-85 -42 -148 -42s-123.5 16.667 -181.5 50zM126 736.002l93 -88.999l100 97c23.333 -8.66699 42 -25.334 56 -50.001l-107 -135c-14.667 -5.33301 -26.667 -8 -36 -8c-28 0 -50.333 2.33301 -67 7l-95 126
c5.33301 12 13.5 22.833 24.5 32.5s21.5 16.167 31.5 19.5z" />
    <glyph glyph-name="Tcaron" unicode="&#x164;" horiz-adv-x="499" 
d="M313 578l0.999023 -74v-504c-17.333 -3.33301 -38.666 -5 -63.999 -5s-46.333 1.66699 -63 5v578l-60 -1h-113c-3.33301 15.333 -5 32.833 -5 52.5s1.66699 37.5 5 53.5h473c4.66699 -16.667 7 -34.167 7 -52.5s-5.5 -31.833 -16.5 -40.5s-28.5 -13 -52.5 -13h-51l-60 1
h-1zM131.999 903l115.001 -75l117 84c10 -3.33301 20.667 -10 32 -20s18.333 -20.667 21 -32l-117 -117c-16.667 -4 -34 -6 -52 -6s-36.333 1.66699 -55 5l-112 108c3.33301 12 10.166 22.833 20.499 32.5s20.5 16.5 30.5 20.5z" />
    <glyph glyph-name="tcaron" unicode="&#x165;" horiz-adv-x="383" 
d="M333 497c3.33301 -13.333 5 -28.5 5 -45.5s-1.66699 -31.833 -5 -44.5l-122 2v-272c0 -30 14.333 -45 43 -45h64c6.66699 -20 10 -37.667 10 -53s-1 -27 -3 -35c-42 -6 -81.667 -9 -119 -9c-77.333 0 -116 39 -116 117v296l-75 -1c-3.33301 12.667 -5 27.5 -5 44.5
s1.66699 32.167 5 45.5l75 -2v76c0 28 5 47.833 15 59.5s27.333 17.5 52 17.5h48l6 -7v-146zM343 558c-8.66699 -2.66699 -19.667 -4 -33 -4s-26 3 -38 9l11 222c9.33301 2.66699 19 4 29 4c35.333 0 62 -6.66699 80 -20z" />
    <glyph glyph-name="Uring" unicode="&#x16e;" horiz-adv-x="671" 
d="M595 683v-438c0 -82.667 -23 -146.5 -69 -191.5s-109.5 -67.5 -190.5 -67.5s-144.5 22.5 -190.5 67.5s-69 108.833 -69 191.5v437l6 6h48c25.333 0 43.833 -6.5 55.5 -19.5s17.5 -33.5 17.5 -61.5v-363c0 -104 44 -156 132 -156s132 52 132 156v439
c16.667 3.33301 38 5 64 5s47.333 -1.66699 64 -5zM241 698.5c-24 23 -36 51.333 -36 85s12 62 36 85s55 34.5 93 34.5s69 -11.5 93 -34.5s36 -51.333 36 -85s-12 -62 -36 -85s-55 -34.5 -93 -34.5s-69 11.5 -93 34.5zM284 784c0 -15.333 4.66699 -28 14 -38
s21.333 -15 36 -15s26.667 5 36 15s14 22.667 14 38s-4.66699 27.833 -14 37.5s-21.333 14.5 -36 14.5s-26.667 -4.83301 -36 -14.5s-14 -22.167 -14 -37.5z" />
    <glyph glyph-name="uring" unicode="&#x16f;" horiz-adv-x="548" 
d="M67 160l-0.00292969 223.002c0 40 -6.33301 71 -19 93c20 18 43.833 27 71.5 27s46.5 -6.33301 56.5 -19s15 -32.334 15 -59.001v-238c0 -30.667 4 -52.5 12 -65.5s22.333 -19.5 43 -19.5c38 0 73 16.667 105 50v344c18.667 3.33301 39.334 5 62.001 5
s43.334 -1.66699 62.001 -5v-355c0 -42.667 9.33301 -71.334 28 -86.001c-6 -26 -20 -47 -42 -63c-47.333 6 -79.666 29.667 -96.999 71c-51.333 -48 -105 -72 -161 -72c-44.667 0 -78.5 15.5 -101.5 46.5s-34.5 71.833 -34.5 122.5zM173.997 574.502
c-24 23 -36 51.333 -36 85s12 62 36 85s55 34.5 93 34.5s69 -11.5 93 -34.5s36 -51.333 36 -85s-12 -62 -36 -85s-55 -34.5 -93 -34.5s-69 11.5 -93 34.5zM216.997 660.002c0 -15.333 4.66699 -28 14 -38s21.333 -15 36 -15s26.667 5 36 15s14 22.667 14 38
s-4.66699 28 -14 38s-21.333 15 -36 15s-26.667 -5 -36 -15s-14 -22.667 -14 -38z" />
    <glyph glyph-name="Ydieresis" unicode="&#x178;" horiz-adv-x="511" 
d="M309 477l82 206c14 3.33301 32.333 5 55 5s42.334 -3 59.001 -9l6 -8l-192 -457v-214c-16.667 -3.33301 -38 -5 -64 -5s-47 1.66699 -63 5v218l-192 450c27.333 15.333 51.666 23 72.999 23s37 -4 47 -12s19 -21.667 27 -41l67 -164c16.667 -42.667 31 -86.667 43 -132h6
c8.66699 35.333 24 80.333 46 135zM315 839c15.333 9.33301 33.166 14 53.499 14s38.166 -4.66699 53.499 -14c6.66699 -10 10 -25 10 -45s-3.33301 -34.667 -10 -44c-13.333 -9.33301 -31.166 -14 -53.499 -14s-40.166 4.66699 -53.499 14c-8 10 -12 24.667 -12 44
s4 34.333 12 45zM96 839c14 9.33301 31.501 14 52.501 14s39.167 -4.66699 54.5 -14c7.33301 -10 11 -25.167 11 -45.5s-3.66699 -34.833 -11 -43.5c-13.333 -9.33301 -31.333 -14 -54 -14s-40.334 4.66699 -53.001 14c-6.66699 9.33301 -10 24 -10 44s3.33301 35 10 45z
" />
    <glyph glyph-name="Zacute" unicode="&#x179;" horiz-adv-x="569" 
d="M60 129l241 350.999c12 18 38.333 52.333 79 103l-3 3c-38 -6 -89.667 -9 -155 -9h-154c-3.33301 12.667 -5 28 -5 46s3 38 9 60h424c12 -43.333 18 -71.666 18 -84.999s-5.33301 -27.666 -16 -42.999l-240 -348c-16.667 -26 -42.667 -60 -78 -102l3 -3c56 4 100 6 132 6
h85c47.333 0 86 6.66699 116 20c6 -19.333 9 -39 9 -59c0 -46 -28.333 -69 -85 -69h-381c-10 40 -15 67.667 -15 83s5.33301 30.666 16 45.999zM176 789.999l211 127c11.333 -8.66699 22.333 -22.667 33 -42s17 -38 19 -56l-227 -91c-9.33301 5.33301 -17.333 14 -24 26
s-10.667 24 -12 36z" />
    <glyph glyph-name="zacute" unicode="&#x17a;" horiz-adv-x="447" 
d="M49 112l145.999 197c14.667 20 41.334 51.667 80.001 95l-3 5c-37.333 -4.66699 -80.333 -7 -129 -7h-95c-2.66699 10.667 -4 23.667 -4 39s2.33301 33.666 7 54.999h340c11.333 -34 17 -57.667 17 -71s-4.33301 -26.333 -13 -39l-148 -198
c-22.667 -32 -48 -63.667 -76 -95l3 -4c34.667 3.33301 63.667 5 87 5h43c46.667 0 80.667 5 102 15c8 -21.333 12 -38.666 12 -51.999c0 -38 -24 -57 -72 -57h-300c-10 30 -15 51.833 -15 65.5s6 29.167 18 46.5zM142.999 588l148 163.001
c17.333 -6 33.833 -16.167 49.5 -30.5s26.167 -29.833 31.5 -46.5l-177 -135c-24.667 7.33301 -42 23.666 -52 48.999z" />
    <glyph glyph-name="Zdotaccent" unicode="&#x17b;" horiz-adv-x="569" 
d="M60 129l241 350.999c12 18 38.333 52.333 79 103l-3 3c-38 -6 -89.667 -9 -155 -9h-154c-3.33301 12.667 -5 28 -5 46s3 38 9 60h424c12 -43.333 18 -71.666 18 -84.999s-5.33301 -27.666 -16 -42.999l-240 -348c-16.667 -26 -42.667 -60 -78 -102l3 -3c56 4 100 6 132 6
h85c47.333 0 86 6.66699 116 20c6 -19.333 9 -39 9 -59c0 -46 -28.333 -69 -85 -69h-381c-10 40 -15 67.667 -15 83s5.33301 30.666 16 45.999zM223 755.999c-6.66699 16.667 -10 33.667 -10 51s3.33301 33.666 10 48.999c16 8.66699 37.5 13 64.5 13
s47.5 -4.33301 61.5 -13c6.66699 -15.333 10 -31.666 10 -48.999s-3.33301 -34.333 -10 -51c-16 -8.66699 -37.5 -13 -64.5 -13s-47.5 4.33301 -61.5 13z" />
    <glyph glyph-name="zdotaccent" unicode="&#x17c;" horiz-adv-x="447" 
d="M49 112l145.999 197c14.667 20 41.334 51.667 80.001 95l-3 5c-37.333 -4.66699 -80.333 -7 -129 -7h-95c-2.66699 10.667 -4 23.667 -4 39s2.33301 33.666 7 54.999h340c11.333 -34 17 -57.667 17 -71s-4.33301 -26.333 -13 -39l-148 -198
c-22.667 -32 -48 -63.667 -76 -95l3 -4c34.667 3.33301 63.667 5 87 5h43c46.667 0 80.667 5 102 15c8 -21.333 12 -38.666 12 -51.999c0 -38 -24 -57 -72 -57h-300c-10 30 -15 51.833 -15 65.5s6 29.167 18 46.5zM161.999 586c-6.66699 15.333 -10 31.833 -10 49.5
s3.33301 34.167 10 49.5c17.333 9.33301 38.833 14 64.5 14s46.167 -4.66699 61.5 -14c6.66699 -15.333 10 -31.833 10 -49.5s-3.33301 -34.167 -10 -49.5c-15.333 -9.33301 -36.833 -14 -64.5 -14s-48.167 4.66699 -61.5 14z" />
    <glyph glyph-name="Zcaron" unicode="&#x17d;" horiz-adv-x="569" 
d="M60 129l241 350.999c12 18 38.333 52.333 79 103l-3 3c-38 -6 -89.667 -9 -155 -9h-154c-3.33301 12.667 -5 28 -5 46s3 38 9 60h424c12 -43.333 18 -71.666 18 -84.999s-5.33301 -27.666 -16 -42.999l-240 -348c-16.667 -26 -42.667 -60 -78 -102l3 -3c56 4 100 6 132 6
h85c47.333 0 86 6.66699 116 20c6 -19.333 9 -39 9 -59c0 -46 -28.333 -69 -85 -69h-381c-10 40 -15 67.667 -15 83s5.33301 30.666 16 45.999zM168 902.999l115.001 -75l117 84c10 -3.33301 20.667 -10 32 -20s18.333 -20.667 21 -32l-117 -117c-16.667 -4 -34 -6 -52 -6
s-36.333 1.66699 -55 5l-112 108c3.33301 12 10.166 22.833 20.499 32.5s20.5 16.5 30.5 20.5z" />
    <glyph glyph-name="zcaron" unicode="&#x17e;" horiz-adv-x="447" 
d="M49 112l145.999 197c14.667 20 41.334 51.667 80.001 95l-3 5c-37.333 -4.66699 -80.333 -7 -129 -7h-95c-2.66699 10.667 -4 23.667 -4 39s2.33301 33.666 7 54.999h340c11.333 -34 17 -57.667 17 -71s-4.33301 -26.333 -13 -39l-148 -198
c-22.667 -32 -48 -63.667 -76 -95l3 -4c34.667 3.33301 63.667 5 87 5h43c46.667 0 80.667 5 102 15c8 -21.333 12 -38.666 12 -51.999c0 -38 -24 -57 -72 -57h-300c-10 30 -15 51.833 -15 65.5s6 29.167 18 46.5zM129.999 736l93 -88.999l100 97
c23.333 -8.66699 42 -25.334 56 -50.001l-107 -135c-14.667 -5.33301 -26.667 -8 -36 -8c-28 0 -50.333 2.33301 -67 7l-95 126c5.33301 12 13.5 22.833 24.5 32.5s21.5 16.167 31.5 19.5z" />
    <glyph glyph-name="dotlessj" unicode="&#x237;" horiz-adv-x="288" 
d="M219 399l-0.000976562 -377c0 -58 -4.16699 -99.667 -12.5 -125s-18.5 -44.333 -30.5 -57c-24.667 -27.333 -64.667 -47.333 -120 -60c-20 18 -31.667 43.333 -35 76c28.667 14 48.334 29.333 59.001 46s16 42.334 16 77.001v374c0 36 -15 54 -45 54h-21
c-3.33301 11.333 -5 25.666 -5 42.999s1.66699 32.333 5 45c26.667 2.66699 54 4 82 4h17c28 0 50 -8.83301 66 -26.5s24 -42.167 24 -73.5z" />
    <glyph glyph-name="circumflex" unicode="&#x2c6;" horiz-adv-x="398" 
d="M295 548l-92.998 90.001l-99 -96c-24.667 10 -43.334 26.667 -56.001 50l106 134c15.333 5.33301 31.666 8 48.999 8s35.333 -2.33301 54 -7l95 -126c-10 -24.667 -28.667 -42.334 -56 -53.001z" />
    <glyph glyph-name="caron" unicode="&#x2c7;" horiz-adv-x="398" 
d="M104 736l93 -88.999l100 97c23.333 -8.66699 42 -25.334 56 -50.001l-107 -135c-14.667 -5.33301 -26.667 -8 -36 -8c-28 0 -50.333 2.33301 -67 7l-95 126c5.33301 12 13.5 22.833 24.5 32.5s21.5 16.167 31.5 19.5z" />
    <glyph glyph-name="dotaccent" unicode="&#x2d9;" horiz-adv-x="398" 
d="M136 586c-6.66699 15.333 -10 31.833 -10 49.5s3.33301 34.167 10 49.5c17.333 9.33301 38.833 14 64.5 14s46.167 -4.66699 61.5 -14c6.66699 -15.333 10 -31.833 10 -49.5s-3.33301 -34.167 -10 -49.5c-15.333 -9.33301 -36.833 -14 -64.5 -14
s-48.167 4.66699 -61.5 14z" />
    <glyph glyph-name="ring" unicode="&#x2da;" horiz-adv-x="398" 
d="M106 574.5c-24 23 -36 51.333 -36 85s12 62 36 85s55 34.5 93 34.5s69 -11.5 93 -34.5s36 -51.333 36 -85s-12 -62 -36 -85s-55 -34.5 -93 -34.5s-69 11.5 -93 34.5zM149 660c0 -15.333 4.66699 -28 14 -38s21.333 -15 36 -15s26.667 5 36 15s14 22.667 14 38
s-4.66699 28 -14 38s-21.333 15 -36 15s-26.667 -5 -36 -15s-14 -22.667 -14 -38z" />
    <glyph glyph-name="tilde" unicode="&#x2dc;" horiz-adv-x="398" 
d="M206 572l-50.0029 25c-10.667 6 -21.667 9 -33 9s-23.333 -8.33301 -36 -25l-10 -14c-12 0.666992 -23.833 4.5 -35.5 11.5s-19.5 15.833 -23.5 26.5l8 20c10.667 24 25.334 43.167 44.001 57.5s38.334 21.5 59.001 21.5s41.667 -5.33301 63 -16l50 -26
c12 -6 23.333 -9 34 -9s22.334 8.33301 35.001 25l10 14c12 -0.666992 23.667 -4.5 35 -11.5s19.333 -15.833 24 -26.5l-8 -20c-10.667 -24.667 -25.5 -44 -44.5 -58s-39 -21 -60 -21s-41.5 5.66699 -61.5 17z" />
    <glyph glyph-name="mu" unicode="&#x3bc;" horiz-adv-x="553" 
d="M480 496l-0.00292969 -354.999c0 -42.667 9.33301 -71.334 28 -86.001c-7.33301 -26.667 -21.666 -47.667 -42.999 -63c-43.333 6 -74 27 -92 63c-29.333 -42.667 -68.666 -64 -117.999 -64c-25.333 0 -48.666 7 -69.999 21v-147c0 -28 -4 -49 -12 -63
s-25.167 -21 -51.5 -21s-49.833 8.33301 -70.5 25c12.667 21.333 19 53 19 95v595c18.667 3.33301 38.834 5 60.501 5s42.5 -1.66699 62.5 -5v-318c1.33301 -25.333 8.66602 -45.333 21.999 -60s31.333 -22 54 -22c34 0 63 16.667 87 50v350c18.667 3.33301 39 5 61 5
s43 -1.66699 63 -5z" />
    <glyph glyph-name="germandbls.cap" unicode="&#x1e9e;" horiz-adv-x="639" 
d="M101 0l-0.00292969 379l-86 -1c-3.33301 15.333 -5 31.5 -5 48.5s1.66699 33.167 5 48.5l86 -1v29c0 63.333 20.5 111.833 61.5 145.5s96.333 50.5 166 50.5s125.5 -18.333 167.5 -55s63 -86 63 -148c0 -23.333 -5.33301 -49 -16 -77h-2l2 -1
c-24.667 -5.33301 -43.334 -14.5 -56.001 -27.5s-19 -26.667 -19 -41s10.333 -30.5 31 -48.5l37 -34c48.667 -46.667 73 -91.667 73 -135s-17.667 -78.5 -53 -105.5s-78.666 -40.5 -129.999 -40.5s-97 9.66699 -137 29c0.666992 14 4.66699 29.667 12 47
s16 30.666 26 39.999c26 -14 51 -21 75 -21s42.667 4.83301 56 14.5s20 23.167 20 40.5s-12 37 -36 59l-41 36c-42.667 38.667 -64 76 -64 112c0 23.333 8.33301 45.833 25 67.5s39.334 38.5 68.001 50.5c2 10.667 3 21.334 3 32.001c0 32 -9.16699 58.5 -27.5 79.5
s-44.166 31.5 -77.499 31.5c-67.333 0 -101 -38 -101 -114v-490c-20 -3.33301 -40.667 -5 -62 -5s-42.666 1.66699 -63.999 5z" />
    <glyph glyph-name="endash" unicode="&#x2013;" horiz-adv-x="540" 
d="M477 216h-413c-3.33301 14 -5 30.333 -5 49s1.66699 35 5 49h413c3.33301 -14 5 -30.333 5 -49s-1.66699 -35 -5 -49z" />
    <glyph glyph-name="emdash" unicode="&#x2014;" horiz-adv-x="805" 
d="M728 216h-651c-3.33301 14 -5 30.333 -5 49s1.66699 35 5 49h651c3.33301 -14 5 -30.333 5 -49s-1.66699 -35 -5 -49z" />
    <glyph glyph-name="quoteleft" unicode="&#x2018;" horiz-adv-x="244" 
d="M53 513c-8 18.667 -12.002 42.334 -12.002 71.001c0 44 12.667 83.167 38 117.5s62 59.166 110 74.499c10 -4.66699 17.5 -12.167 22.5 -22.5s7.5 -18.5 7.5 -24.5v-12c-19.333 -8 -36.666 -19.333 -51.999 -34s-23.333 -31.667 -24 -51
c22.667 -3.33301 37 -7.33301 43 -12c6.66699 -12 10 -30 10 -54s-3.33301 -41.667 -10 -53c-18.667 -10.667 -41.667 -16 -69 -16s-48.666 5.33301 -63.999 16z" />
    <glyph glyph-name="quoteright" unicode="&#x2019;" horiz-adv-x="244" 
d="M191 760c8 -21.333 12 -45.002 12 -71.002c0 -44 -12.667 -83.167 -38 -117.5s-62 -59.166 -110 -74.499c-10.667 4.66699 -18.334 12 -23.001 22s-7 17.833 -7 23.5v12.5c48.667 20.667 74 49 76 85c-24 4.66699 -38.667 9 -44 13
c-6.66699 14.667 -10 33.334 -10 56.001s3.33301 39.667 10 51c18.667 10 41.834 15 69.501 15s49.167 -5 64.5 -15z" />
    <glyph glyph-name="quotesinglbase" unicode="&#x201a;" horiz-adv-x="244" 
d="M193 111c7.33301 -19.333 11.001 -43.001 11.001 -71.001c0 -44.667 -12.5 -84.167 -37.5 -118.5s-61.833 -59.166 -110.5 -74.499c-10 5.33301 -17.5 13 -22.5 23s-7.5 18 -7.5 24v12c19.333 8 36.833 19.333 52.5 34s23.834 31.667 24.501 51
c-22 2.66699 -36.667 7 -44 13c-6.66699 11.333 -10 29 -10 53s3.33301 42 10 54c17.333 10 40.166 15 68.499 15s50.166 -5 65.499 -15z" />
    <glyph glyph-name="quotedblleft" unicode="&#x201c;" horiz-adv-x="454" 
d="M51 513c-8 18.667 -12.002 42.334 -12.002 71.001c0 44 12.667 83.167 38 117.5s62 59.166 110 74.499c10 -4.66699 17.5 -12.167 22.5 -22.5s7.5 -18.5 7.5 -24.5v-12c-19.333 -8 -36.666 -19.333 -51.999 -34s-23.333 -31.667 -24 -51
c22.667 -3.33301 37 -7.33301 43 -12c6.66699 -12 10 -30 10 -54s-3.33301 -41.667 -10 -53c-18.667 -10.667 -41.667 -16 -69 -16s-48.666 5.33301 -63.999 16zM260.998 513c-8 18.667 -12.002 42.334 -12.002 71.001c0 44 12.667 83.167 38 117.5s62 59.166 110 74.499
c10 -4.66699 17.5 -12.167 22.5 -22.5s7.5 -18.5 7.5 -24.5v-12c-19.333 -8 -36.666 -19.333 -51.999 -34s-23.333 -31.667 -24 -51c22.667 -3.33301 37 -7.33301 43 -12c6.66699 -12 10 -30 10 -54s-3.33301 -41.667 -10 -53c-18.667 -10.667 -41.667 -16 -69 -16
s-48.666 5.33301 -63.999 16z" />
    <glyph glyph-name="quotedblright" unicode="&#x201d;" horiz-adv-x="454" 
d="M194 760c8 -21.333 12 -45.002 12 -71.002c0 -44 -12.667 -83.167 -38 -117.5s-62 -59.166 -110 -74.499c-10.667 4.66699 -18.334 12 -23.001 22s-7 17.833 -7 23.5v12.5c48.667 20.667 74 49 76 85c-24 4.66699 -38.667 9 -44 13
c-6.66699 14.667 -10 33.334 -10 56.001s3.33301 39.667 10 51c18.667 10 41.834 15 69.501 15s49.167 -5 64.5 -15zM404 759.998c8 -21.333 12 -45.002 12 -71.002c0 -44 -12.667 -83.167 -38 -117.5s-62 -59.166 -110 -74.499c-10.667 4.66699 -18.334 12 -23.001 22
s-7 17.833 -7 23.5v12.5c48.667 20.667 74 49 76 85c-24 4.66699 -38.667 9 -44 13c-6.66699 14.667 -10 33.334 -10 56.001s3.33301 39.667 10 51c18.667 10 41.834 15 69.501 15s49.167 -5 64.5 -15z" />
    <glyph glyph-name="quotedblbase" unicode="&#x201e;" horiz-adv-x="454" 
d="M193 111c7.33301 -19.333 11.001 -43.001 11.001 -71.001c0 -44.667 -12.5 -84.167 -37.5 -118.5s-61.833 -59.166 -110.5 -74.499c-10 5.33301 -17.5 13 -22.5 23s-7.5 18 -7.5 24v12c19.333 8 36.833 19.333 52.5 34s23.834 31.667 24.501 51
c-22 2.66699 -36.667 7 -44 13c-6.66699 11.333 -10 29 -10 53s3.33301 42 10 54c17.333 10 40.166 15 68.499 15s50.166 -5 65.499 -15zM403.001 110.999c7.33301 -19.333 11.001 -43.001 11.001 -71.001c0 -44.667 -12.5 -84.167 -37.5 -118.5
s-61.833 -59.166 -110.5 -74.499c-10 5.33301 -17.5 13 -22.5 23s-7.5 18 -7.5 24v12c19.333 8 36.833 19.333 52.5 34s23.834 31.667 24.501 51c-22 2.66699 -36.667 7 -44 13c-6.66699 11.333 -10 29 -10 53s3.33301 42 10 54c17.333 10 40.166 15 68.499 15
s50.166 -5 65.499 -15z" />
    <glyph glyph-name="bullet" unicode="&#x2022;" horiz-adv-x="453" 
d="M120 179c-10.667 23.333 -15.999 53.333 -15.999 90s5.33301 67.667 16 93c28 16.667 64.167 25 108.5 25s79.833 -8.33301 106.5 -25c10.667 -25.333 16 -56.333 16 -93s-5.33301 -66.667 -16 -90c-23.333 -16.667 -58.833 -25 -106.5 -25s-83.834 8.33301 -108.501 25z
" />
    <glyph glyph-name="guilsinglleft" unicode="&#x2039;" horiz-adv-x="338" 
d="M299 414l-132 -157l137 -161c-4 -12.667 -13 -25.5 -27 -38.5s-28 -21.5 -42 -25.5l-200 186c-4 10 -6 22.333 -6 37s2 27 6 37l197 187c14 -4 27.667 -12.5 41 -25.5s22 -26.167 26 -39.5z" />
    <glyph glyph-name="guilsinglright" unicode="&#x203a;" horiz-adv-x="338" 
d="M39 97l132 157l-137 161c4.66699 12.667 14 25.5 28 38.5s28 21.5 42 25.5l199 -186c4.66699 -10 7 -22.333 7 -37s-2.33301 -27 -7 -37l-196 -187c-14 4 -27.667 12.5 -41 25.5s-22.333 26.167 -27 39.5z" />
    <glyph glyph-name="fraction" unicode="&#x2044;" horiz-adv-x="249" 
d="M-124 0l377 683c16.667 4 38 6 64 6s44.667 -2 56 -6l-377 -683c-16.667 -4 -38 -6 -64 -6s-44.667 2 -56 6z" />
    <glyph glyph-name="foursuperior" unicode="&#x2074;" horiz-adv-x="420" 
d="M219 406l-46 -1.00098h-114c-14.667 24.667 -22 44 -22 58s4.66699 31.333 14 52l116 255h19c8.66699 0 21.667 -1.83301 39 -5.5s31 -9.5 41 -17.5l-66 -144c-22.667 -51.333 -43 -88.666 -61 -111.999l2 -2c23.333 2.66699 49.333 4 78 4v46
c0 23.333 6.33301 41.666 19 54.999s29.667 20 51 20h27l3 -4v-117h57c2.66699 -10 4 -22.667 4 -38s-2.66699 -31.666 -8 -48.999h-53v-74c-12.667 -3.33301 -29 -5 -49 -5s-37 1.66699 -51 5v74z" />
    <glyph glyph-name="Euro" unicode="&#x20ac;" horiz-adv-x="564" 
d="M494 503c-52 38 -101.332 56.9971 -147.999 56.9971c-64 0 -104 -40 -120 -120h188c2.66699 -14 4 -27.5 4 -40.5s-1.33301 -26.167 -4 -39.5h-198v-74h198c2.66699 -14 4 -27.5 4 -40.5s-1.33301 -26.167 -4 -39.5h-188c16 -78.667 56 -118 120 -118
c46.667 0 96 19 148 57c30 -17.333 48 -42.333 54 -75c-66.667 -56 -139.667 -84 -219 -84c-126 0 -202.333 73.333 -229 220h-80c-3.33301 12.667 -5 25.834 -5 39.501s1.66699 27.167 5 40.5h72c-0.666992 8 -1 20.167 -1 36.5s0.333008 28.833 1 37.5h-72
c-3.33301 12.667 -5 25.834 -5 39.501s1.66699 27.167 5 40.5h80c25.333 148 101.666 222 228.999 222c79.333 0 152.333 -28 219 -84c-2.66699 -14 -9.16699 -28.167 -19.5 -42.5s-21.833 -25.166 -34.5 -32.499z" />
    <glyph glyph-name="nonmarkingreturn" horiz-adv-x="333" 
 />
    </font>
</defs>
</svg>
